<?xml version="1.0" encoding="UTF-8" standalone="no"?>
<!DOCTYPE svg PUBLIC "-//W3C//DTD SVG 1.1//EN" "http://www.w3.org/Graphics/SVG/1.1/DTD/svg11.dtd">
<!-- Generated by Microsoft Visio, SVG Export camera_arch_stack.svg camera_arch_stack -->
<svg xmlns="http://www.w3.org/2000/svg" xmlns:xlink="http://www.w3.org/1999/xlink" xmlns:ev="http://www.w3.org/2001/xml-events"
		xmlns:v="http://schemas.microsoft.com/visio/2003/SVGExtensions/" width="7.76042in" height="7.4336in"
		viewBox="0 0 558.75 535.219" xml:space="preserve" color-interpolation-filters="sRGB" class="st15">
	<v:documentProperties v:langID="1033" v:viewMarkup="false">
		<v:userDefs>
			<v:ud v:nameU="msvSubprocessMaster" v:prompt="" v:val="VT4(Rectangle)"/>
			<v:ud v:nameU="msvNoAutoConnect" v:val="VT0(1):26"/>
		</v:userDefs>
	</v:documentProperties>

	<style type="text/css">
	<![CDATA[
		.st1 {fill:#0060bf;stroke:#c7c8c8;stroke-width:0.25}
		.st2 {fill:#ffffff;font-family:Calibri;font-size:0.833336em}
		.st3 {font-size:1em}
		.st4 {fill:#689f00;stroke:#c7c8c8;stroke-width:0.25}
		.st5 {marker-end:url(#mrkr4-37);marker-start:url(#mrkr4-35);stroke:#4672c4;stroke-linecap:round;stroke-linejoin:round;stroke-width:1}
		.st6 {fill:#4672c4;fill-opacity:1;stroke:#4672c4;stroke-opacity:1;stroke-width:0.28409090909091}
		.st7 {fill:none;stroke:none;stroke-width:0.25}
		.st8 {fill:#feffff;font-family:Calibri;font-size:1.16666em}
		.st9 {marker-end:url(#mrkr4-37);stroke:#4672c4;stroke-linecap:round;stroke-linejoin:round;stroke-width:1}
		.st10 {fill:#76b900;stroke:#c7c8c8;stroke-width:0.25}
		.st11 {fill:#feffff;font-family:Calibri;font-size:1.00001em}
		.st12 {fill:#000000;font-family:Calibri;font-size:1.16666em}
		.st13 {fill:#000000;font-family:Calibri;font-size:1.00001em}
		.st14 {stroke:#000000;stroke-dasharray:7,5;stroke-linecap:round;stroke-linejoin:round;stroke-width:1}
		.st15 {fill:none;fill-rule:evenodd;font-size:12px;overflow:visible;stroke-linecap:square;stroke-miterlimit:3}
	]]>
	</style>

	<defs id="Markers">
		<g id="lend4">
			<path d="M 2 1 L 0 0 L 2 -1 L 2 1 " style="stroke:none"/>
		</g>
		<marker id="mrkr4-35" class="st6" v:arrowType="4" v:arrowSize="2" v:setback="6.68" refX="6.68" orient="auto"
				markerUnits="strokeWidth" overflow="visible">
			<use xlink:href="#lend4" transform="scale(3.52) "/>
		</marker>
		<marker id="mrkr4-37" class="st6" v:arrowType="4" v:arrowSize="2" v:setback="7.04" refX="-7.04" orient="auto"
				markerUnits="strokeWidth" overflow="visible">
			<use xlink:href="#lend4" transform="scale(-3.52,-3.52) "/>
		</marker>
	</defs>
	<g v:mID="0" v:index="1" v:groupContext="foregroundPage">
		<v:userDefs>
			<v:ud v:nameU="msvThemeOrder" v:val="VT0(0):26"/>
		</v:userDefs>
		<title>camera_arch_stack</title>
		<v:pageProperties v:drawingScale="1" v:pageScale="1" v:drawingUnits="0" v:shadowOffsetX="9" v:shadowOffsetY="-9"/>
		<v:layer v:name="Connector" v:index="0"/>
		<g id="shape4-1" v:mID="4" v:groupContext="shape" transform="translate(130.464,-477.969)">
			<title>Rounded Rectangle</title>
			<desc>V4L2 Application</desc>
			<v:userDefs>
				<v:ud v:nameU="CTypeTopLeftSnip" v:prompt="" v:val="VT0(0):5"/>
				<v:ud v:nameU="CTypeTopRightSnip" v:prompt="" v:val="VT0(0):5"/>
				<v:ud v:nameU="CTypeBotLeftSnip" v:prompt="" v:val="VT0(0):5"/>
				<v:ud v:nameU="CTypeBotRightSnip" v:prompt="" v:val="VT0(0):5"/>
				<v:ud v:nameU="CornerLockHoriz" v:prompt="" v:val="VT0(1):5"/>
				<v:ud v:nameU="CornerLockVert" v:prompt="" v:val="VT0(1):5"/>
				<v:ud v:nameU="CornerLockDiag" v:prompt="" v:val="VT0(0):5"/>
				<v:ud v:nameU="TopLeftOffset" v:prompt="" v:val="VT0(0.15):1"/>
				<v:ud v:nameU="TopRightOffset" v:prompt="" v:val="VT0(0.15):1"/>
				<v:ud v:nameU="BotLeftOffset" v:prompt="" v:val="VT0(0.15):1"/>
				<v:ud v:nameU="BotRightOffset" v:prompt="" v:val="VT0(0.15):1"/>
				<v:ud v:nameU="visVersion" v:prompt="" v:val="VT0(15):26"/>
				<v:ud v:nameU="TopLeftOffset" v:prompt="" v:val="VT0(0.0875):1"/>
				<v:ud v:nameU="TopRightOffset" v:prompt="" v:val="VT0(0.0875):1"/>
				<v:ud v:nameU="BotLeftOffset" v:prompt="" v:val="VT0(0.0875):1"/>
				<v:ud v:nameU="BotRightOffset" v:prompt="" v:val="VT0(0.0875):1"/>
			</v:userDefs>
			<v:textBlock v:margins="rect(4,4,4,4)"/>
			<v:textRect cx="31.5" cy="515.719" width="63" height="39"/>
			<path d="M6.3 535.22 L56.7 535.22 A6.2999 6.2999 -180 0 0 63 528.92 L63 502.52 A6.2999 6.2999 -180 0 0 56.7 496.22 L6.3
						 496.22 A6.2999 6.2999 -180 0 0 -0 502.52 L0 528.92 A6.2999 6.2999 -180 0 0 6.3 535.22 Z" class="st1"/>
			<text x="21.49" y="512.72" class="st2" v:langID="1033"><v:paragraph v:horizAlign="1"/><v:tabList/>V4L2<v:newlineChar/><tspan
						x="8.46" dy="1.2em" class="st3">Application</tspan></text>		</g>
		<g id="shape5-5" v:mID="5" v:groupContext="shape" transform="translate(238.464,-477.969)">
			<title>Rounded Rectangle.3</title>
			<desc>GStreamer Application</desc>
			<v:userDefs>
				<v:ud v:nameU="CTypeTopLeftSnip" v:prompt="" v:val="VT0(0):5"/>
				<v:ud v:nameU="CTypeTopRightSnip" v:prompt="" v:val="VT0(0):5"/>
				<v:ud v:nameU="CTypeBotLeftSnip" v:prompt="" v:val="VT0(0):5"/>
				<v:ud v:nameU="CTypeBotRightSnip" v:prompt="" v:val="VT0(0):5"/>
				<v:ud v:nameU="CornerLockHoriz" v:prompt="" v:val="VT0(1):5"/>
				<v:ud v:nameU="CornerLockVert" v:prompt="" v:val="VT0(1):5"/>
				<v:ud v:nameU="CornerLockDiag" v:prompt="" v:val="VT0(0):5"/>
				<v:ud v:nameU="TopLeftOffset" v:prompt="" v:val="VT0(0.15):1"/>
				<v:ud v:nameU="TopRightOffset" v:prompt="" v:val="VT0(0.15):1"/>
				<v:ud v:nameU="BotLeftOffset" v:prompt="" v:val="VT0(0.15):1"/>
				<v:ud v:nameU="BotRightOffset" v:prompt="" v:val="VT0(0.15):1"/>
				<v:ud v:nameU="visVersion" v:prompt="" v:val="VT0(15):26"/>
				<v:ud v:nameU="TopLeftOffset" v:prompt="" v:val="VT0(0.0875):1"/>
				<v:ud v:nameU="TopRightOffset" v:prompt="" v:val="VT0(0.0875):1"/>
				<v:ud v:nameU="BotLeftOffset" v:prompt="" v:val="VT0(0.0875):1"/>
				<v:ud v:nameU="BotRightOffset" v:prompt="" v:val="VT0(0.0875):1"/>
			</v:userDefs>
			<v:textBlock v:margins="rect(4,4,4,4)"/>
			<v:textRect cx="31.5" cy="515.719" width="63" height="39"/>
			<path d="M6.3 535.22 L56.7 535.22 A6.2999 6.2999 -180 0 0 63 528.92 L63 502.52 A6.2999 6.2999 -180 0 0 56.7 496.22 L6.3
						 496.22 A6.2999 6.2999 -180 0 0 -0 502.52 L0 528.92 A6.2999 6.2999 -180 0 0 6.3 535.22 Z" class="st1"/>
			<text x="9.52" y="512.72" class="st2" v:langID="1033"><v:paragraph v:horizAlign="1"/><v:tabList/>GStreamer<v:newlineChar/><tspan
						x="8.46" dy="1.2em" class="st3">Application</tspan></text>		</g>
		<g id="shape6-9" v:mID="6" v:groupContext="shape" transform="translate(382.464,-477.969)">
			<title>Rounded Rectangle.4</title>
			<desc>libargus Application</desc>
			<v:userDefs>
				<v:ud v:nameU="CTypeTopLeftSnip" v:prompt="" v:val="VT0(0):5"/>
				<v:ud v:nameU="CTypeTopRightSnip" v:prompt="" v:val="VT0(0):5"/>
				<v:ud v:nameU="CTypeBotLeftSnip" v:prompt="" v:val="VT0(0):5"/>
				<v:ud v:nameU="CTypeBotRightSnip" v:prompt="" v:val="VT0(0):5"/>
				<v:ud v:nameU="CornerLockHoriz" v:prompt="" v:val="VT0(1):5"/>
				<v:ud v:nameU="CornerLockVert" v:prompt="" v:val="VT0(1):5"/>
				<v:ud v:nameU="CornerLockDiag" v:prompt="" v:val="VT0(0):5"/>
				<v:ud v:nameU="TopLeftOffset" v:prompt="" v:val="VT0(0.15):1"/>
				<v:ud v:nameU="TopRightOffset" v:prompt="" v:val="VT0(0.15):1"/>
				<v:ud v:nameU="BotLeftOffset" v:prompt="" v:val="VT0(0.15):1"/>
				<v:ud v:nameU="BotRightOffset" v:prompt="" v:val="VT0(0.15):1"/>
				<v:ud v:nameU="visVersion" v:prompt="" v:val="VT0(15):26"/>
				<v:ud v:nameU="TopLeftOffset" v:prompt="" v:val="VT0(0.0875):1"/>
				<v:ud v:nameU="TopRightOffset" v:prompt="" v:val="VT0(0.0875):1"/>
				<v:ud v:nameU="BotLeftOffset" v:prompt="" v:val="VT0(0.0875):1"/>
				<v:ud v:nameU="BotRightOffset" v:prompt="" v:val="VT0(0.0875):1"/>
			</v:userDefs>
			<v:textBlock v:margins="rect(4,4,4,4)"/>
			<v:textRect cx="31.5" cy="515.719" width="63" height="39"/>
			<path d="M6.3 535.22 L56.7 535.22 A6.2999 6.2999 -180 0 0 63 528.92 L63 502.52 A6.2999 6.2999 -180 0 0 56.7 496.22 L6.3
						 496.22 A6.2999 6.2999 -180 0 0 -0 502.52 L0 528.92 A6.2999 6.2999 -180 0 0 6.3 535.22 Z" class="st1"/>
			<text x="15.5" y="512.72" class="st2" v:langID="1033"><v:paragraph v:horizAlign="1"/><v:tabList/>libargus<v:newlineChar/><tspan
						x="8.46" dy="1.2em" class="st3">Application</tspan></text>		</g>
		<g id="shape7-13" v:mID="7" v:groupContext="shape" transform="translate(476.755,-477.969)">
			<title>Rounded Rectangle.5</title>
			<desc>Tuning Tools</desc>
			<v:userDefs>
				<v:ud v:nameU="CTypeTopLeftSnip" v:prompt="" v:val="VT0(0):5"/>
				<v:ud v:nameU="CTypeTopRightSnip" v:prompt="" v:val="VT0(0):5"/>
				<v:ud v:nameU="CTypeBotLeftSnip" v:prompt="" v:val="VT0(0):5"/>
				<v:ud v:nameU="CTypeBotRightSnip" v:prompt="" v:val="VT0(0):5"/>
				<v:ud v:nameU="CornerLockHoriz" v:prompt="" v:val="VT0(1):5"/>
				<v:ud v:nameU="CornerLockVert" v:prompt="" v:val="VT0(1):5"/>
				<v:ud v:nameU="CornerLockDiag" v:prompt="" v:val="VT0(0):5"/>
				<v:ud v:nameU="TopLeftOffset" v:prompt="" v:val="VT0(0.15):1"/>
				<v:ud v:nameU="TopRightOffset" v:prompt="" v:val="VT0(0.15):1"/>
				<v:ud v:nameU="BotLeftOffset" v:prompt="" v:val="VT0(0.15):1"/>
				<v:ud v:nameU="BotRightOffset" v:prompt="" v:val="VT0(0.15):1"/>
				<v:ud v:nameU="visVersion" v:prompt="" v:val="VT0(15):26"/>
				<v:ud v:nameU="TopLeftOffset" v:prompt="" v:val="VT0(0.0875):1"/>
				<v:ud v:nameU="TopRightOffset" v:prompt="" v:val="VT0(0.0875):1"/>
				<v:ud v:nameU="BotLeftOffset" v:prompt="" v:val="VT0(0.0875):1"/>
				<v:ud v:nameU="BotRightOffset" v:prompt="" v:val="VT0(0.0875):1"/>
			</v:userDefs>
			<v:textBlock v:margins="rect(4,4,4,4)"/>
			<v:textRect cx="31.5" cy="515.719" width="63" height="39"/>
			<path d="M6.3 535.22 L56.7 535.22 A6.2999 6.2999 -180 0 0 63 528.92 L63 502.52 A6.2999 6.2999 -180 0 0 56.7 496.22 L6.3
						 496.22 A6.2999 6.2999 -180 0 0 -0 502.52 L0 528.92 A6.2999 6.2999 -180 0 0 6.3 535.22 Z" class="st4"/>
			<text x="17.68" y="512.72" class="st2" v:langID="1033"><v:paragraph v:horizAlign="1"/><v:tabList/>Tuning<v:newlineChar/><tspan
						x="20.69" dy="1.2em" class="st3">Tools</tspan></text>		</g>
		<g id="shape8-17" v:mID="8" v:groupContext="shape" transform="translate(166.464,-412.271)">
			<title>Rounded Rectangle.6</title>
			<desc>V4L2src</desc>
			<v:userDefs>
				<v:ud v:nameU="CTypeTopLeftSnip" v:prompt="" v:val="VT0(0):5"/>
				<v:ud v:nameU="CTypeTopRightSnip" v:prompt="" v:val="VT0(0):5"/>
				<v:ud v:nameU="CTypeBotLeftSnip" v:prompt="" v:val="VT0(0):5"/>
				<v:ud v:nameU="CTypeBotRightSnip" v:prompt="" v:val="VT0(0):5"/>
				<v:ud v:nameU="CornerLockHoriz" v:prompt="" v:val="VT0(1):5"/>
				<v:ud v:nameU="CornerLockVert" v:prompt="" v:val="VT0(1):5"/>
				<v:ud v:nameU="CornerLockDiag" v:prompt="" v:val="VT0(0):5"/>
				<v:ud v:nameU="TopLeftOffset" v:prompt="" v:val="VT0(0.15):1"/>
				<v:ud v:nameU="TopRightOffset" v:prompt="" v:val="VT0(0.15):1"/>
				<v:ud v:nameU="BotLeftOffset" v:prompt="" v:val="VT0(0.15):1"/>
				<v:ud v:nameU="BotRightOffset" v:prompt="" v:val="VT0(0.15):1"/>
				<v:ud v:nameU="visVersion" v:prompt="" v:val="VT0(15):26"/>
				<v:ud v:nameU="TopLeftOffset" v:prompt="" v:val="VT0(0.0875):1"/>
				<v:ud v:nameU="TopRightOffset" v:prompt="" v:val="VT0(0.0875):1"/>
				<v:ud v:nameU="BotLeftOffset" v:prompt="" v:val="VT0(0.0875):1"/>
				<v:ud v:nameU="BotRightOffset" v:prompt="" v:val="VT0(0.0875):1"/>
			</v:userDefs>
			<v:textBlock v:margins="rect(4,4,4,4)"/>
			<v:textRect cx="31.5" cy="515.87" width="63" height="38.6981"/>
			<path d="M6.3 535.22 L56.7 535.22 A6.2999 6.2999 -180 0 0 63 528.92 L63 502.82 A6.2999 6.2999 -180 0 0 56.7 496.52 L6.3
						 496.52 A6.2999 6.2999 -180 0 0 -0 502.82 L0 528.92 A6.2999 6.2999 -180 0 0 6.3 535.22 Z" class="st4"/>
			<text x="15.68" y="518.87" class="st2" v:langID="1033"><v:paragraph v:horizAlign="1"/><v:tabList/>V4L2src</text>		</g>
		<g id="shape10-20" v:mID="10" v:groupContext="shape" transform="translate(313.839,-411.969)">
			<title>Rounded Rectangle.8</title>
			<desc>nvarguscamerasrc</desc>
			<v:userDefs>
				<v:ud v:nameU="CTypeTopLeftSnip" v:prompt="" v:val="VT0(0):5"/>
				<v:ud v:nameU="CTypeTopRightSnip" v:prompt="" v:val="VT0(0):5"/>
				<v:ud v:nameU="CTypeBotLeftSnip" v:prompt="" v:val="VT0(0):5"/>
				<v:ud v:nameU="CTypeBotRightSnip" v:prompt="" v:val="VT0(0):5"/>
				<v:ud v:nameU="CornerLockHoriz" v:prompt="" v:val="VT0(1):5"/>
				<v:ud v:nameU="CornerLockVert" v:prompt="" v:val="VT0(1):5"/>
				<v:ud v:nameU="CornerLockDiag" v:prompt="" v:val="VT0(0):5"/>
				<v:ud v:nameU="TopLeftOffset" v:prompt="" v:val="VT0(0.15):1"/>
				<v:ud v:nameU="TopRightOffset" v:prompt="" v:val="VT0(0.15):1"/>
				<v:ud v:nameU="BotLeftOffset" v:prompt="" v:val="VT0(0.15):1"/>
				<v:ud v:nameU="BotRightOffset" v:prompt="" v:val="VT0(0.15):1"/>
				<v:ud v:nameU="visVersion" v:prompt="" v:val="VT0(15):26"/>
				<v:ud v:nameU="TopLeftOffset" v:prompt="" v:val="VT0(0.1328125):1"/>
				<v:ud v:nameU="TopRightOffset" v:prompt="" v:val="VT0(0.1328125):1"/>
				<v:ud v:nameU="BotLeftOffset" v:prompt="" v:val="VT0(0.1328125):1"/>
				<v:ud v:nameU="BotRightOffset" v:prompt="" v:val="VT0(0.1328125):1"/>
			</v:userDefs>
			<v:textBlock v:margins="rect(4,4,4,4)"/>
			<v:textRect cx="47.8125" cy="515.719" width="95.63" height="39"/>
			<path d="M9.56 535.22 L86.06 535.22 A9.56234 9.56234 -180 0 0 95.62 525.66 L95.62 505.78 A9.56234 9.56234 -180 0 0 86.06
						 496.22 L9.56 496.22 A9.56234 9.56234 -180 0 0 0 505.78 L0 525.66 A9.56234 9.56234 -180 0 0 9.56 535.22 Z"
					class="st4"/>
			<text x="10.91" y="518.72" class="st2" v:langID="1033"><v:paragraph v:horizAlign="1"/><v:tabList/>nvarguscamerasrc</text>		</g>
		<g id="shape11-23" v:mID="11" v:groupContext="shape" transform="translate(436.464,-381.071)">
			<title>Rounded Rectangle.9</title>
			<desc>libargus</desc>
			<v:userDefs>
				<v:ud v:nameU="CTypeTopLeftSnip" v:prompt="" v:val="VT0(0):5"/>
				<v:ud v:nameU="CTypeTopRightSnip" v:prompt="" v:val="VT0(0):5"/>
				<v:ud v:nameU="CTypeBotLeftSnip" v:prompt="" v:val="VT0(0):5"/>
				<v:ud v:nameU="CTypeBotRightSnip" v:prompt="" v:val="VT0(0):5"/>
				<v:ud v:nameU="CornerLockHoriz" v:prompt="" v:val="VT0(1):5"/>
				<v:ud v:nameU="CornerLockVert" v:prompt="" v:val="VT0(1):5"/>
				<v:ud v:nameU="CornerLockDiag" v:prompt="" v:val="VT0(0):5"/>
				<v:ud v:nameU="TopLeftOffset" v:prompt="" v:val="VT0(0.15):1"/>
				<v:ud v:nameU="TopRightOffset" v:prompt="" v:val="VT0(0.15):1"/>
				<v:ud v:nameU="BotLeftOffset" v:prompt="" v:val="VT0(0.15):1"/>
				<v:ud v:nameU="BotRightOffset" v:prompt="" v:val="VT0(0.15):1"/>
				<v:ud v:nameU="visVersion" v:prompt="" v:val="VT0(15):26"/>
				<v:ud v:nameU="TopLeftOffset" v:prompt="" v:val="VT0(0.0875):1"/>
				<v:ud v:nameU="TopRightOffset" v:prompt="" v:val="VT0(0.0875):1"/>
				<v:ud v:nameU="BotLeftOffset" v:prompt="" v:val="VT0(0.0875):1"/>
				<v:ud v:nameU="BotRightOffset" v:prompt="" v:val="VT0(0.0875):1"/>
			</v:userDefs>
			<v:textBlock v:margins="rect(4,4,4,4)"/>
			<v:textRect cx="31.5" cy="515.719" width="63" height="39"/>
			<path d="M6.3 535.22 L56.7 535.22 A6.2999 6.2999 -180 0 0 63 528.92 L63 502.52 A6.2999 6.2999 -180 0 0 56.7 496.22 L6.3
						 496.22 A6.2999 6.2999 -180 0 0 -0 502.52 L0 528.92 A6.2999 6.2999 -180 0 0 6.3 535.22 Z" class="st4"/>
			<text x="15.5" y="518.72" class="st2" v:langID="1033"><v:paragraph v:horizAlign="1"/><v:tabList/>libargus</text>		</g>
		<g id="shape12-26" v:mID="12" v:groupContext="shape" transform="translate(215.664,-323.771)">
			<title>Rounded Rectangle.10</title>
			<desc>Camera Core</desc>
			<v:userDefs>
				<v:ud v:nameU="CTypeTopLeftSnip" v:prompt="" v:val="VT0(0):5"/>
				<v:ud v:nameU="CTypeTopRightSnip" v:prompt="" v:val="VT0(0):5"/>
				<v:ud v:nameU="CTypeBotLeftSnip" v:prompt="" v:val="VT0(0):5"/>
				<v:ud v:nameU="CTypeBotRightSnip" v:prompt="" v:val="VT0(0):5"/>
				<v:ud v:nameU="CornerLockHoriz" v:prompt="" v:val="VT0(1):5"/>
				<v:ud v:nameU="CornerLockVert" v:prompt="" v:val="VT0(1):5"/>
				<v:ud v:nameU="CornerLockDiag" v:prompt="" v:val="VT0(0):5"/>
				<v:ud v:nameU="TopLeftOffset" v:prompt="" v:val="VT0(0.15):1"/>
				<v:ud v:nameU="TopRightOffset" v:prompt="" v:val="VT0(0.15):1"/>
				<v:ud v:nameU="BotLeftOffset" v:prompt="" v:val="VT0(0.15):1"/>
				<v:ud v:nameU="BotRightOffset" v:prompt="" v:val="VT0(0.15):1"/>
				<v:ud v:nameU="visVersion" v:prompt="" v:val="VT0(15):26"/>
			</v:userDefs>
			<v:textBlock v:margins="rect(4,4,4,4)"/>
			<v:textRect cx="54" cy="515.719" width="108" height="39"/>
			<path d="M10.8 535.22 L97.2 535.22 A10.7998 10.7998 -180 0 0 108 524.42 L108 507.02 A10.7998 10.7998 -180 0 0 97.2 496.22
						 L10.8 496.22 A10.7998 10.7998 -180 0 0 0 507.02 L0 524.42 A10.7998 10.7998 -180 0 0 10.8 535.22 Z"
					class="st4"/>
			<text x="27.65" y="518.72" class="st2" v:langID="1033"><v:paragraph v:horizAlign="1"/><v:tabList/>Camera Core</text>		</g>
		<g id="shape13-29" v:mID="13" v:groupContext="shape" v:layerMember="0" transform="translate(238.464,-497.469)">
			<title>Dynamic connector.13</title>
			<path d="M-6.68 535.22 L-7.04 535.22 L-40.5 535.22 L-40.5 574.68" class="st5"/>
		</g>
		<g id="shape14-38" v:mID="14" v:groupContext="shape" v:layerMember="0" transform="translate(301.464,-497.469)">
			<title>Dynamic connector.14</title>
			<path d="M6.68 535.22 L7.04 535.22 L38.95 535.22 L38.95 574.68" class="st5"/>
		</g>
		<g id="shape16-45" v:mID="16" v:groupContext="shape" v:layerMember="0" transform="translate(292.464,-362.771)">
			<title>Dynamic connector.16</title>
			<path d="M0 528.54 L0 528.18 L0 497.42 L136.96 497.42" class="st5"/>
		</g>
		<g id="shape18-52" v:mID="18" v:groupContext="shape" transform="translate(360.173,-315.971)">
			<title>Ellipse</title>
			<desc>Tuning</desc>
			<v:userDefs>
				<v:ud v:nameU="visVersion" v:val="VT0(15):26"/>
			</v:userDefs>
			<v:textBlock v:margins="rect(4,4,4,4)"/>
			<v:textRect cx="31.5" cy="508.219" width="55.13" height="47.25"/>
			<path d="M0 508.22 A31.5 27 0 1 1 63 508.22 A31.5 27 0 0 1 -0 508.22 Z" class="st4"/>
			<text x="17.68" y="511.22" class="st2" v:langID="1033"><v:paragraph v:horizAlign="1"/><v:tabList/>Tuning</text>		</g>
		<g id="shape19-55" v:mID="19" v:groupContext="shape" v:layerMember="0" transform="translate(409.464,-441.407)">
			<title>Dynamic connector.19</title>
			<path d="M6.68 535.22 L7.04 535.22 L47.25 535.22 L47.25 549.51" class="st5"/>
		</g>
		<g id="shape20-62" v:mID="20" v:groupContext="shape" v:layerMember="0" transform="translate(481.464,-420.071)">
			<title>Dynamic connector.20</title>
			<path d="M0 528.54 L0 528.18 L0 499.22 L-67.5 499.22 L-67.5 484.36" class="st5"/>
		</g>
		<g id="shape21-69" v:mID="21" v:groupContext="shape" v:layerMember="0" transform="translate(518.589,-477.969)">
			<title>Dynamic connector.31</title>
			<path d="M0 541.9 L0 542.26 L0 612.62 L-12.09 612.62" class="st5"/>
		</g>
		<g id="shape22-76" v:mID="22" v:groupContext="shape" transform="translate(237.389,-238.151)">
			<title>Rounded Rectangle.34</title>
			<desc>V4L MediaController Framework</desc>
			<v:userDefs>
				<v:ud v:nameU="CTypeTopLeftSnip" v:prompt="" v:val="VT0(0):5"/>
				<v:ud v:nameU="CTypeTopRightSnip" v:prompt="" v:val="VT0(0):5"/>
				<v:ud v:nameU="CTypeBotLeftSnip" v:prompt="" v:val="VT0(0):5"/>
				<v:ud v:nameU="CTypeBotRightSnip" v:prompt="" v:val="VT0(0):5"/>
				<v:ud v:nameU="CornerLockHoriz" v:prompt="" v:val="VT0(1):5"/>
				<v:ud v:nameU="CornerLockVert" v:prompt="" v:val="VT0(1):5"/>
				<v:ud v:nameU="CornerLockDiag" v:prompt="" v:val="VT0(0):5"/>
				<v:ud v:nameU="TopLeftOffset" v:prompt="" v:val="VT0(0.15):1"/>
				<v:ud v:nameU="TopRightOffset" v:prompt="" v:val="VT0(0.15):1"/>
				<v:ud v:nameU="BotLeftOffset" v:prompt="" v:val="VT0(0.15):1"/>
				<v:ud v:nameU="BotRightOffset" v:prompt="" v:val="VT0(0.15):1"/>
				<v:ud v:nameU="visVersion" v:prompt="" v:val="VT0(15):26"/>
				<v:ud v:nameU="TopLeftOffset" v:prompt="" v:val="VT0(0.28125):1"/>
				<v:ud v:nameU="TopRightOffset" v:prompt="" v:val="VT0(0.28125):1"/>
				<v:ud v:nameU="BotLeftOffset" v:prompt="" v:val="VT0(0.28125):1"/>
				<v:ud v:nameU="BotRightOffset" v:prompt="" v:val="VT0(0.28125):1"/>
			</v:userDefs>
			<v:textBlock v:margins="rect(4,4,4,4)"/>
			<v:textRect cx="101.25" cy="511.909" width="202.5" height="46.62"/>
			<path d="M20.25 535.22 L182.25 535.22 A20.2497 20.2497 -180 0 0 202.5 514.97 L202.5 508.85 A20.2497 20.2497 -180 0 0
						 182.25 488.6 L20.25 488.6 A20.2497 20.2497 -180 0 0 0 508.85 L0 514.97 A20.2497 20.2497 -180 0 0 20.25 535.22
						 Z" class="st1"/>
			<text x="34.93" y="514.91" class="st2" v:langID="1033"><v:paragraph v:horizAlign="1"/><v:tabList/>V4L MediaController Framework</text>		</g>
		<g id="shape23-79" v:mID="23" v:groupContext="shape" transform="translate(475.889,-218.951)">
			<title>Rounded Rectangle.35</title>
			<desc>Tegra Drivers</desc>
			<v:userDefs>
				<v:ud v:nameU="CTypeTopLeftSnip" v:prompt="" v:val="VT0(0):5"/>
				<v:ud v:nameU="CTypeTopRightSnip" v:prompt="" v:val="VT0(0):5"/>
				<v:ud v:nameU="CTypeBotLeftSnip" v:prompt="" v:val="VT0(0):5"/>
				<v:ud v:nameU="CTypeBotRightSnip" v:prompt="" v:val="VT0(0):5"/>
				<v:ud v:nameU="CornerLockHoriz" v:prompt="" v:val="VT0(1):5"/>
				<v:ud v:nameU="CornerLockVert" v:prompt="" v:val="VT0(1):5"/>
				<v:ud v:nameU="CornerLockDiag" v:prompt="" v:val="VT0(0):5"/>
				<v:ud v:nameU="TopLeftOffset" v:prompt="" v:val="VT0(0.15):1"/>
				<v:ud v:nameU="TopRightOffset" v:prompt="" v:val="VT0(0.15):1"/>
				<v:ud v:nameU="BotLeftOffset" v:prompt="" v:val="VT0(0.15):1"/>
				<v:ud v:nameU="BotRightOffset" v:prompt="" v:val="VT0(0.15):1"/>
				<v:ud v:nameU="visVersion" v:prompt="" v:val="VT0(15):26"/>
				<v:ud v:nameU="TopLeftOffset" v:prompt="" v:val="VT0(0.0875):1"/>
				<v:ud v:nameU="TopRightOffset" v:prompt="" v:val="VT0(0.0875):1"/>
				<v:ud v:nameU="BotLeftOffset" v:prompt="" v:val="VT0(0.0875):1"/>
				<v:ud v:nameU="BotRightOffset" v:prompt="" v:val="VT0(0.0875):1"/>
			</v:userDefs>
			<v:textBlock v:margins="rect(4,4,4,4)"/>
			<v:textRect cx="31.5" cy="501.019" width="63" height="68.4"/>
			<path d="M6.3 535.22 L56.7 535.22 A6.2999 6.2999 -180 0 0 63 528.92 L63 473.12 A6.2999 6.2999 -180 0 0 56.7 466.82 L6.3
						 466.82 A6.2999 6.2999 -180 0 0 -0 473.12 L0 528.92 A6.2999 6.2999 -180 0 0 6.3 535.22 Z" class="st4"/>
			<text x="4.54" y="504.02" class="st2" v:langID="1033"><v:paragraph v:horizAlign="1"/><v:tabList/>Tegra Drivers</text>		</g>
		<g id="shape24-82" v:mID="24" v:groupContext="shape" transform="translate(139.464,-220.151)">
			<title>Rounded Rectangle.36</title>
			<desc>Device Tree</desc>
			<v:userDefs>
				<v:ud v:nameU="CTypeTopLeftSnip" v:prompt="" v:val="VT0(0):5"/>
				<v:ud v:nameU="CTypeTopRightSnip" v:prompt="" v:val="VT0(0):5"/>
				<v:ud v:nameU="CTypeBotLeftSnip" v:prompt="" v:val="VT0(0):5"/>
				<v:ud v:nameU="CTypeBotRightSnip" v:prompt="" v:val="VT0(0):5"/>
				<v:ud v:nameU="CornerLockHoriz" v:prompt="" v:val="VT0(1):5"/>
				<v:ud v:nameU="CornerLockVert" v:prompt="" v:val="VT0(1):5"/>
				<v:ud v:nameU="CornerLockDiag" v:prompt="" v:val="VT0(0):5"/>
				<v:ud v:nameU="TopLeftOffset" v:prompt="" v:val="VT0(0.15):1"/>
				<v:ud v:nameU="TopRightOffset" v:prompt="" v:val="VT0(0.15):1"/>
				<v:ud v:nameU="BotLeftOffset" v:prompt="" v:val="VT0(0.15):1"/>
				<v:ud v:nameU="BotRightOffset" v:prompt="" v:val="VT0(0.15):1"/>
				<v:ud v:nameU="visVersion" v:prompt="" v:val="VT0(15):26"/>
				<v:ud v:nameU="TopLeftOffset" v:prompt="" v:val="VT0(0.0875):1"/>
				<v:ud v:nameU="TopRightOffset" v:prompt="" v:val="VT0(0.0875):1"/>
				<v:ud v:nameU="BotLeftOffset" v:prompt="" v:val="VT0(0.0875):1"/>
				<v:ud v:nameU="BotRightOffset" v:prompt="" v:val="VT0(0.0875):1"/>
			</v:userDefs>
			<v:textBlock v:margins="rect(4,4,4,4)"/>
			<v:textRect cx="31.5" cy="501.019" width="63" height="68.4"/>
			<path d="M6.3 535.22 L56.7 535.22 A6.2999 6.2999 -180 0 0 63 528.92 L63 473.12 A6.2999 6.2999 -180 0 0 56.7 466.82 L6.3
						 466.82 A6.2999 6.2999 -180 0 0 -0 473.12 L0 528.92 A6.2999 6.2999 -180 0 0 6.3 535.22 Z" class="st4"/>
			<text x="17.93" y="498.02" class="st2" v:langID="1033"><v:paragraph v:horizAlign="1"/><v:tabList/>Device<v:lf/><tspan
						x="22.34" dy="1.2em" class="st3">Tree</tspan></text>		</g>
		<g id="shape25-86" v:mID="25" v:groupContext="shape" v:layerMember="0" transform="translate(161.964,-477.969)">
			<title>Dynamic connector.25</title>
			<path d="M0 541.9 L0 542.26 L0 710.72 L54.9 710.72 L54.9 741.72 L69.61 741.72" class="st5"/>
		</g>
		<g id="shape26-93" v:mID="26" v:groupContext="shape" v:layerMember="0" transform="translate(197.964,-412.271)">
			<title>Dynamic connector.39</title>
			<path d="M0 541.9 L0 542.26 L0 632.62 L93.69 632.62 L93.69 655.68" class="st5"/>
		</g>
		<g id="shape27-100" v:mID="27" v:groupContext="shape" v:layerMember="0" transform="translate(312.864,-323.771)">
			<title>Dynamic connector.40</title>
			<path d="M0 541.9 L0 542.26 L0 558.32 L25.77 558.32 L25.77 567.18" class="st5"/>
		</g>
		<g id="shape28-107" v:mID="28" v:groupContext="shape" v:layerMember="0" transform="translate(323.664,-334.571)">
			<title>Dynamic connector.41</title>
			<path d="M6.68 535.22 L7.04 535.22 L17.23 535.22 L17.23 557.39 L183.73 557.39 L183.73 575.4" class="st5"/>
		</g>
		<g id="shape29-114" v:mID="29" v:groupContext="shape" transform="translate(52.8891,-251.771)">
			<title>Sheet.29</title>
			<desc>Kernel</desc>
			<v:textBlock v:margins="rect(4,4,4,4)"/>
			<v:textRect cx="31.5" cy="521.719" width="63" height="27"/>
			<rect x="0" y="508.219" width="63" height="27" class="st7"/>
			<text x="13.17" y="525.92" class="st8" v:langID="1033"><v:paragraph v:horizAlign="1"/><v:tabList/>Kernel</text>		</g>
		<g id="shape30-117" v:mID="30" v:groupContext="shape" v:layerMember="0" transform="translate(202.464,-248.261)">
			<title>Dynamic connector.30</title>
			<path d="M6.68 526.22 L7.04 526.22 L27.88 526.22" class="st5"/>
		</g>
		<g id="shape32-124" v:mID="32" v:groupContext="shape" transform="translate(309.389,-160.841)">
			<title>Rounded Rectangle.52</title>
			<desc>V4L2 Device Driver</desc>
			<v:userDefs>
				<v:ud v:nameU="CTypeTopLeftSnip" v:prompt="" v:val="VT0(0):5"/>
				<v:ud v:nameU="CTypeTopRightSnip" v:prompt="" v:val="VT0(0):5"/>
				<v:ud v:nameU="CTypeBotLeftSnip" v:prompt="" v:val="VT0(0):5"/>
				<v:ud v:nameU="CTypeBotRightSnip" v:prompt="" v:val="VT0(0):5"/>
				<v:ud v:nameU="CornerLockHoriz" v:prompt="" v:val="VT0(1):5"/>
				<v:ud v:nameU="CornerLockVert" v:prompt="" v:val="VT0(1):5"/>
				<v:ud v:nameU="CornerLockDiag" v:prompt="" v:val="VT0(0):5"/>
				<v:ud v:nameU="TopLeftOffset" v:prompt="" v:val="VT0(0.15):1"/>
				<v:ud v:nameU="TopRightOffset" v:prompt="" v:val="VT0(0.15):1"/>
				<v:ud v:nameU="BotLeftOffset" v:prompt="" v:val="VT0(0.15):1"/>
				<v:ud v:nameU="BotRightOffset" v:prompt="" v:val="VT0(0.15):1"/>
				<v:ud v:nameU="visVersion" v:prompt="" v:val="VT0(15):26"/>
				<v:ud v:nameU="TopLeftOffset" v:prompt="" v:val="VT0(0.18125):1"/>
				<v:ud v:nameU="TopRightOffset" v:prompt="" v:val="VT0(0.18125):1"/>
				<v:ud v:nameU="BotLeftOffset" v:prompt="" v:val="VT0(0.18125):1"/>
				<v:ud v:nameU="BotRightOffset" v:prompt="" v:val="VT0(0.18125):1"/>
			</v:userDefs>
			<v:textBlock v:margins="rect(4,4,4,4)"/>
			<v:textRect cx="65.25" cy="511.909" width="130.5" height="46.62"/>
			<path d="M13.05 535.22 L117.45 535.22 A13.0498 13.0498 -180 0 0 130.5 522.17 L130.5 501.65 A13.0498 13.0498 -180 0 0
						 117.45 488.6 L13.05 488.6 A13.0498 13.0498 -180 0 0 -0 501.65 L0 522.17 A13.0498 13.0498 -180 0 0 13.05
						 535.22 Z" class="st1"/>
			<text x="26.95" y="514.91" class="st2" v:langID="1033"><v:paragraph v:horizAlign="1"/><v:tabList/>V4L2 Device Driver</text>		</g>
		<g id="shape33-127" v:mID="33" v:groupContext="shape" transform="translate(237.389,-160.841)">
			<title>Rounded Rectangle.33</title>
			<desc>UVC</desc>
			<v:userDefs>
				<v:ud v:nameU="CTypeTopLeftSnip" v:prompt="" v:val="VT0(0):5"/>
				<v:ud v:nameU="CTypeTopRightSnip" v:prompt="" v:val="VT0(0):5"/>
				<v:ud v:nameU="CTypeBotLeftSnip" v:prompt="" v:val="VT0(0):5"/>
				<v:ud v:nameU="CTypeBotRightSnip" v:prompt="" v:val="VT0(0):5"/>
				<v:ud v:nameU="CornerLockHoriz" v:prompt="" v:val="VT0(1):5"/>
				<v:ud v:nameU="CornerLockVert" v:prompt="" v:val="VT0(1):5"/>
				<v:ud v:nameU="CornerLockDiag" v:prompt="" v:val="VT0(0):5"/>
				<v:ud v:nameU="TopLeftOffset" v:prompt="" v:val="VT0(0.15):1"/>
				<v:ud v:nameU="TopRightOffset" v:prompt="" v:val="VT0(0.15):1"/>
				<v:ud v:nameU="BotLeftOffset" v:prompt="" v:val="VT0(0.15):1"/>
				<v:ud v:nameU="BotRightOffset" v:prompt="" v:val="VT0(0.15):1"/>
				<v:ud v:nameU="visVersion" v:prompt="" v:val="VT0(15):26"/>
				<v:ud v:nameU="TopLeftOffset" v:prompt="" v:val="VT0(0.0875):1"/>
				<v:ud v:nameU="TopRightOffset" v:prompt="" v:val="VT0(0.0875):1"/>
				<v:ud v:nameU="BotLeftOffset" v:prompt="" v:val="VT0(0.0875):1"/>
				<v:ud v:nameU="BotRightOffset" v:prompt="" v:val="VT0(0.0875):1"/>
			</v:userDefs>
			<v:textBlock v:margins="rect(4,4,4,4)"/>
			<v:textRect cx="31.5" cy="511.909" width="63" height="46.62"/>
			<path d="M6.3 535.22 L56.7 535.22 A6.2999 6.2999 -180 0 0 63 528.92 L63 494.9 A6.2999 6.2999 -180 0 0 56.7 488.6 L6.3
						 488.6 A6.2999 6.2999 -180 0 0 -0 494.9 L0 528.92 A6.2999 6.2999 -180 0 0 6.3 535.22 Z" class="st1"/>
			<text x="22.79" y="514.91" class="st2" v:langID="1033"><v:paragraph v:horizAlign="1"/><v:tabList/>UVC</text>		</g>
		<g id="shape34-130" v:mID="34" v:groupContext="shape" v:layerMember="0" transform="translate(323.664,-352.121)">
			<title>Dynamic connector.55</title>
			<path d="M6.68 544.07 L7.04 544.07 L13.5 544.07 L13.5 544.37 L29.47 544.37" class="st5"/>
		</g>
		<g id="shape35-137" v:mID="35" v:groupContext="shape" v:layerMember="0" transform="translate(365.639,-238.151)">
			<title>Dynamic connector.56</title>
			<path d="M9 541.9 L9 542.26 L9 558.87" class="st5"/>
		</g>
		<g id="shape36-144" v:mID="36" v:groupContext="shape" v:layerMember="0" transform="translate(200.619,-223.729)">
			<title>Dynamic connector.59</title>
			<path d="M0 536.95 L65.27 536.95 A3 3 0 1 1 71.27 536.95 L152.13 536.95 L152.13 544.45" class="st9"/>
		</g>
		<g id="shape37-149" v:mID="37" v:groupContext="shape" v:layerMember="0" transform="translate(259.889,-238.151)">
			<title>Dynamic connector.60</title>
			<path d="M9 535.22 L9 558.87" class="st9"/>
		</g>
		<g id="group38-154" transform="translate(222.056,-91.1509)" v:mID="38" v:groupContext="group">
			<title>Sheet.38</title>
			<g id="shape39-155" v:mID="39" v:groupContext="shape">
				<title>Rounded Rectangle.61</title>
				<desc>USB Cam</desc>
				<v:userDefs>
					<v:ud v:nameU="CTypeTopLeftSnip" v:prompt="" v:val="VT0(0):5"/>
					<v:ud v:nameU="CTypeTopRightSnip" v:prompt="" v:val="VT0(0):5"/>
					<v:ud v:nameU="CTypeBotLeftSnip" v:prompt="" v:val="VT0(0):5"/>
					<v:ud v:nameU="CTypeBotRightSnip" v:prompt="" v:val="VT0(0):5"/>
					<v:ud v:nameU="CornerLockHoriz" v:prompt="" v:val="VT0(1):5"/>
					<v:ud v:nameU="CornerLockVert" v:prompt="" v:val="VT0(1):5"/>
					<v:ud v:nameU="CornerLockDiag" v:prompt="" v:val="VT0(0):5"/>
					<v:ud v:nameU="TopLeftOffset" v:prompt="" v:val="VT0(0.15):1"/>
					<v:ud v:nameU="TopRightOffset" v:prompt="" v:val="VT0(0.15):1"/>
					<v:ud v:nameU="BotLeftOffset" v:prompt="" v:val="VT0(0.15):1"/>
					<v:ud v:nameU="BotRightOffset" v:prompt="" v:val="VT0(0.15):1"/>
					<v:ud v:nameU="visVersion" v:prompt="" v:val="VT0(15):26"/>
					<v:ud v:nameU="TopLeftOffset" v:prompt="" v:val="VT0(0.0875):1"/>
					<v:ud v:nameU="TopRightOffset" v:prompt="" v:val="VT0(0.0875):1"/>
					<v:ud v:nameU="BotLeftOffset" v:prompt="" v:val="VT0(0.0875):1"/>
					<v:ud v:nameU="BotRightOffset" v:prompt="" v:val="VT0(0.0875):1"/>
				</v:userDefs>
				<v:textBlock v:margins="rect(4,4,4,4)"/>
				<v:textRect cx="31.5" cy="515.719" width="63" height="39"/>
				<path d="M6.3 535.22 L56.7 535.22 A6.2999 6.2999 -180 0 0 63 528.92 L63 502.52 A6.2999 6.2999 -180 0 0 56.7 496.22
							 L6.3 496.22 A6.2999 6.2999 -180 0 0 -0 502.52 L0 528.92 A6.2999 6.2999 -180 0 0 6.3 535.22 Z"
						class="st1"/>
				<text x="13.09" y="518.72" class="st2" v:langID="1033"><v:paragraph v:horizAlign="1"/><v:tabList/>USB Cam</text>			</g>
			<g id="shape40-158" v:mID="40" v:groupContext="shape" transform="translate(63.6109,0)">
				<title>Rounded Rectangle.63</title>
				<desc>Aperture</desc>
				<v:userDefs>
					<v:ud v:nameU="CTypeTopLeftSnip" v:prompt="" v:val="VT0(0):5"/>
					<v:ud v:nameU="CTypeTopRightSnip" v:prompt="" v:val="VT0(0):5"/>
					<v:ud v:nameU="CTypeBotLeftSnip" v:prompt="" v:val="VT0(0):5"/>
					<v:ud v:nameU="CTypeBotRightSnip" v:prompt="" v:val="VT0(0):5"/>
					<v:ud v:nameU="CornerLockHoriz" v:prompt="" v:val="VT0(1):5"/>
					<v:ud v:nameU="CornerLockVert" v:prompt="" v:val="VT0(1):5"/>
					<v:ud v:nameU="CornerLockDiag" v:prompt="" v:val="VT0(0):5"/>
					<v:ud v:nameU="TopLeftOffset" v:prompt="" v:val="VT0(0.15):1"/>
					<v:ud v:nameU="TopRightOffset" v:prompt="" v:val="VT0(0.15):1"/>
					<v:ud v:nameU="BotLeftOffset" v:prompt="" v:val="VT0(0.15):1"/>
					<v:ud v:nameU="BotRightOffset" v:prompt="" v:val="VT0(0.15):1"/>
					<v:ud v:nameU="visVersion" v:prompt="" v:val="VT0(15):26"/>
					<v:ud v:nameU="TopLeftOffset" v:prompt="" v:val="VT0(0.0875):1"/>
					<v:ud v:nameU="TopRightOffset" v:prompt="" v:val="VT0(0.0875):1"/>
					<v:ud v:nameU="BotLeftOffset" v:prompt="" v:val="VT0(0.0875):1"/>
					<v:ud v:nameU="BotRightOffset" v:prompt="" v:val="VT0(0.0875):1"/>
				</v:userDefs>
				<v:textBlock v:margins="rect(4,4,4,4)"/>
				<v:textRect cx="31.5" cy="515.719" width="63" height="39"/>
				<path d="M6.3 535.22 L56.7 535.22 A6.2999 6.2999 -180 0 0 63 528.92 L63 502.52 A6.2999 6.2999 -180 0 0 56.7 496.22
							 L6.3 496.22 A6.2999 6.2999 -180 0 0 -0 502.52 L0 528.92 A6.2999 6.2999 -180 0 0 6.3 535.22 Z"
						class="st1"/>
				<text x="13.22" y="518.72" class="st2" v:langID="1033"><v:paragraph v:horizAlign="1"/><v:tabList/>Aperture</text>			</g>
			<g id="shape41-161" v:mID="41" v:groupContext="shape" transform="translate(127.222,0)">
				<title>Rounded Rectangle.64</title>
				<desc>Sensor</desc>
				<v:userDefs>
					<v:ud v:nameU="CTypeTopLeftSnip" v:prompt="" v:val="VT0(0):5"/>
					<v:ud v:nameU="CTypeTopRightSnip" v:prompt="" v:val="VT0(0):5"/>
					<v:ud v:nameU="CTypeBotLeftSnip" v:prompt="" v:val="VT0(0):5"/>
					<v:ud v:nameU="CTypeBotRightSnip" v:prompt="" v:val="VT0(0):5"/>
					<v:ud v:nameU="CornerLockHoriz" v:prompt="" v:val="VT0(1):5"/>
					<v:ud v:nameU="CornerLockVert" v:prompt="" v:val="VT0(1):5"/>
					<v:ud v:nameU="CornerLockDiag" v:prompt="" v:val="VT0(0):5"/>
					<v:ud v:nameU="TopLeftOffset" v:prompt="" v:val="VT0(0.15):1"/>
					<v:ud v:nameU="TopRightOffset" v:prompt="" v:val="VT0(0.15):1"/>
					<v:ud v:nameU="BotLeftOffset" v:prompt="" v:val="VT0(0.15):1"/>
					<v:ud v:nameU="BotRightOffset" v:prompt="" v:val="VT0(0.15):1"/>
					<v:ud v:nameU="visVersion" v:prompt="" v:val="VT0(15):26"/>
					<v:ud v:nameU="TopLeftOffset" v:prompt="" v:val="VT0(0.0875):1"/>
					<v:ud v:nameU="TopRightOffset" v:prompt="" v:val="VT0(0.0875):1"/>
					<v:ud v:nameU="BotLeftOffset" v:prompt="" v:val="VT0(0.0875):1"/>
					<v:ud v:nameU="BotRightOffset" v:prompt="" v:val="VT0(0.0875):1"/>
				</v:userDefs>
				<v:textBlock v:margins="rect(4,4,4,4)"/>
				<v:textRect cx="31.5" cy="515.719" width="63" height="39"/>
				<path d="M6.3 535.22 L56.7 535.22 A6.2999 6.2999 -180 0 0 63 528.92 L63 502.52 A6.2999 6.2999 -180 0 0 56.7 496.22
							 L6.3 496.22 A6.2999 6.2999 -180 0 0 -0 502.52 L0 528.92 A6.2999 6.2999 -180 0 0 6.3 535.22 Z"
						class="st1"/>
				<text x="17.75" y="518.72" class="st2" v:langID="1033"><v:paragraph v:horizAlign="1"/><v:tabList/>Sensor</text>			</g>
			<g id="shape42-164" v:mID="42" v:groupContext="shape" transform="translate(190.833,0)">
				<title>Rounded Rectangle.65</title>
				<desc>VI</desc>
				<v:userDefs>
					<v:ud v:nameU="CTypeTopLeftSnip" v:prompt="" v:val="VT0(0):5"/>
					<v:ud v:nameU="CTypeTopRightSnip" v:prompt="" v:val="VT0(0):5"/>
					<v:ud v:nameU="CTypeBotLeftSnip" v:prompt="" v:val="VT0(0):5"/>
					<v:ud v:nameU="CTypeBotRightSnip" v:prompt="" v:val="VT0(0):5"/>
					<v:ud v:nameU="CornerLockHoriz" v:prompt="" v:val="VT0(1):5"/>
					<v:ud v:nameU="CornerLockVert" v:prompt="" v:val="VT0(1):5"/>
					<v:ud v:nameU="CornerLockDiag" v:prompt="" v:val="VT0(0):5"/>
					<v:ud v:nameU="TopLeftOffset" v:prompt="" v:val="VT0(0.15):1"/>
					<v:ud v:nameU="TopRightOffset" v:prompt="" v:val="VT0(0.15):1"/>
					<v:ud v:nameU="BotLeftOffset" v:prompt="" v:val="VT0(0.15):1"/>
					<v:ud v:nameU="BotRightOffset" v:prompt="" v:val="VT0(0.15):1"/>
					<v:ud v:nameU="visVersion" v:prompt="" v:val="VT0(15):26"/>
					<v:ud v:nameU="TopLeftOffset" v:prompt="" v:val="VT0(0.0875):1"/>
					<v:ud v:nameU="TopRightOffset" v:prompt="" v:val="VT0(0.0875):1"/>
					<v:ud v:nameU="BotLeftOffset" v:prompt="" v:val="VT0(0.0875):1"/>
					<v:ud v:nameU="BotRightOffset" v:prompt="" v:val="VT0(0.0875):1"/>
				</v:userDefs>
				<v:textBlock v:margins="rect(4,4,4,4)"/>
				<v:textRect cx="31.5" cy="515.719" width="63" height="39"/>
				<path d="M6.3 535.22 L56.7 535.22 A6.2999 6.2999 -180 0 0 63 528.92 L63 502.52 A6.2999 6.2999 -180 0 0 56.7 496.22
							 L6.3 496.22 A6.2999 6.2999 -180 0 0 -0 502.52 L0 528.92 A6.2999 6.2999 -180 0 0 6.3 535.22 Z"
						class="st10"/>
				<text x="27.4" y="518.72" class="st2" v:langID="1033"><v:paragraph v:horizAlign="1"/><v:tabList/>VI</text>			</g>
			<g id="shape43-167" v:mID="43" v:groupContext="shape" transform="translate(254.444,0)">
				<title>Rounded Rectangle.66</title>
				<desc>ISP</desc>
				<v:userDefs>
					<v:ud v:nameU="CTypeTopLeftSnip" v:prompt="" v:val="VT0(0):5"/>
					<v:ud v:nameU="CTypeTopRightSnip" v:prompt="" v:val="VT0(0):5"/>
					<v:ud v:nameU="CTypeBotLeftSnip" v:prompt="" v:val="VT0(0):5"/>
					<v:ud v:nameU="CTypeBotRightSnip" v:prompt="" v:val="VT0(0):5"/>
					<v:ud v:nameU="CornerLockHoriz" v:prompt="" v:val="VT0(1):5"/>
					<v:ud v:nameU="CornerLockVert" v:prompt="" v:val="VT0(1):5"/>
					<v:ud v:nameU="CornerLockDiag" v:prompt="" v:val="VT0(0):5"/>
					<v:ud v:nameU="TopLeftOffset" v:prompt="" v:val="VT0(0.15):1"/>
					<v:ud v:nameU="TopRightOffset" v:prompt="" v:val="VT0(0.15):1"/>
					<v:ud v:nameU="BotLeftOffset" v:prompt="" v:val="VT0(0.15):1"/>
					<v:ud v:nameU="BotRightOffset" v:prompt="" v:val="VT0(0.15):1"/>
					<v:ud v:nameU="visVersion" v:prompt="" v:val="VT0(15):26"/>
					<v:ud v:nameU="TopLeftOffset" v:prompt="" v:val="VT0(0.0875):1"/>
					<v:ud v:nameU="TopRightOffset" v:prompt="" v:val="VT0(0.0875):1"/>
					<v:ud v:nameU="BotLeftOffset" v:prompt="" v:val="VT0(0.0875):1"/>
					<v:ud v:nameU="BotRightOffset" v:prompt="" v:val="VT0(0.0875):1"/>
				</v:userDefs>
				<v:textBlock v:margins="rect(4,4,4,4)"/>
				<v:textRect cx="31.5" cy="515.719" width="63" height="39"/>
				<path d="M6.3 535.22 L56.7 535.22 A6.2999 6.2999 -180 0 0 63 528.92 L63 502.52 A6.2999 6.2999 -180 0 0 56.7 496.22
							 L6.3 496.22 A6.2999 6.2999 -180 0 0 -0 502.52 L0 528.92 A6.2999 6.2999 -180 0 0 6.3 535.22 Z"
						class="st10"/>
				<text x="25.36" y="518.72" class="st2" v:langID="1033"><v:paragraph v:horizAlign="1"/><v:tabList/>ISP</text>			</g>
		</g>
		<g id="shape44-170" v:mID="44" v:groupContext="shape" v:layerMember="0" transform="translate(498.695,-218.951)">
			<title>Dynamic connector.68</title>
			<path d="M8.74 541.9 L8.74 542.26 L9.26 616.98" class="st5"/>
		</g>
		<g id="shape45-177" v:mID="45" v:groupContext="shape" v:layerMember="0" transform="translate(475.889,-253.151)">
			<title>Dynamic connector.69</title>
			<path d="M-6.68 535.22 L-7.04 535.22 L-31.5 535.22 L-31.5 651.18" class="st5"/>
		</g>
		<g id="shape46-184" v:mID="46" v:groupContext="shape" v:layerMember="0" transform="translate(389.778,-161)">
			<title>Dynamic connector.70</title>
			<path d="M-9 541.9 L-9 542.26 L-9 559.03" class="st5"/>
		</g>
		<g id="shape47-191" v:mID="47" v:groupContext="shape" v:layerMember="0" transform="translate(404.5,-160.841)">
			<title>Dynamic connector.71</title>
			<path d="M0 541.9 L0 542.26 L0 548.72 L18 548.72 L18 558.87" class="st5"/>
		</g>
		<g id="shape48-198" v:mID="48" v:groupContext="shape" v:layerMember="0" transform="translate(341.5,-160.841)">
			<title>Dynamic connector.72</title>
			<path d="M0 541.9 L0 542.26 L0 548.72 L-24.33 548.72 L-24.33 558.87" class="st5"/>
		</g>
		<g id="shape49-205" v:mID="49" v:groupContext="shape" v:layerMember="0" transform="translate(260.195,-160.841)">
			<title>Dynamic connector.75</title>
			<path d="M8.83 541.9 L8.83 542.26 L9.17 558.87" class="st5"/>
		</g>
		<g id="shape50-212" v:mID="50" v:groupContext="shape" transform="translate(58,-97.3652)">
			<title>Sheet.50</title>
			<desc>Hardware</desc>
			<v:textBlock v:margins="rect(4,4,4,4)"/>
			<v:textRect cx="38.25" cy="518.826" width="76.5" height="32.7857"/>
			<rect x="0" y="502.433" width="76.5" height="32.7857" class="st7"/>
			<text x="10.14" y="523.03" class="st8" v:langID="1033"><v:paragraph v:horizAlign="1"/><v:tabList/>Hardware</text>		</g>
		<g id="shape51-215" v:mID="51" v:groupContext="shape" transform="translate(58,-423.969)">
			<title>Sheet.51</title>
			<desc>Userspace</desc>
			<v:textBlock v:margins="rect(4,4,4,4)"/>
			<v:textRect cx="36.232" cy="521.719" width="72.47" height="27"/>
			<rect x="0" y="508.219" width="72.4641" height="27" class="st7"/>
			<text x="6.87" y="525.92" class="st8" v:langID="1033"><v:paragraph v:horizAlign="1"/><v:tabList/>Userspace</text>		</g>
		<g id="shape52-218" v:mID="52" v:groupContext="shape" transform="translate(431.5,-19.0309)">
			<title>Sheet.52</title>
			<desc>Legend: NVIDIA Third Party</desc>
			<v:textBlock v:margins="rect(4,4,4,4)" v:verticalAlign="0"/>
			<v:textRect cx="52.3125" cy="503.719" width="104.63" height="63"/>
			<rect x="0" y="472.219" width="104.625" height="63" class="st7"/>
			<text x="4" y="487.02" class="st11" v:langID="1033"><v:paragraph/><v:tabList/>Legend:<v:newlineChar/><tspan x="4"
						dy="1.2em" class="st3">             </tspan>NVIDIA<v:newlineChar/><tspan x="4" dy="1.2em" class="st3">             </tspan>Third Party</text>		</g>
		<g id="shape53-223" v:mID="53" v:groupContext="shape" transform="translate(436.562,-51.0934)">
			<title>Rounded Rectangle.79</title>
			<v:userDefs>
				<v:ud v:nameU="CTypeTopLeftSnip" v:prompt="" v:val="VT0(0):5"/>
				<v:ud v:nameU="CTypeTopRightSnip" v:prompt="" v:val="VT0(0):5"/>
				<v:ud v:nameU="CTypeBotLeftSnip" v:prompt="" v:val="VT0(0):5"/>
				<v:ud v:nameU="CTypeBotRightSnip" v:prompt="" v:val="VT0(0):5"/>
				<v:ud v:nameU="CornerLockHoriz" v:prompt="" v:val="VT0(1):5"/>
				<v:ud v:nameU="CornerLockVert" v:prompt="" v:val="VT0(1):5"/>
				<v:ud v:nameU="CornerLockDiag" v:prompt="" v:val="VT0(0):5"/>
				<v:ud v:nameU="TopLeftOffset" v:prompt="" v:val="VT0(0.15):1"/>
				<v:ud v:nameU="TopRightOffset" v:prompt="" v:val="VT0(0.15):1"/>
				<v:ud v:nameU="BotLeftOffset" v:prompt="" v:val="VT0(0.15):1"/>
				<v:ud v:nameU="BotRightOffset" v:prompt="" v:val="VT0(0.15):1"/>
				<v:ud v:nameU="visVersion" v:prompt="" v:val="VT0(15):26"/>
				<v:ud v:nameU="TopLeftOffset" v:prompt="" v:val="VT0(0.0359375):1"/>
				<v:ud v:nameU="TopRightOffset" v:prompt="" v:val="VT0(0.0359375):1"/>
				<v:ud v:nameU="BotLeftOffset" v:prompt="" v:val="VT0(0.0359375):1"/>
				<v:ud v:nameU="BotRightOffset" v:prompt="" v:val="VT0(0.0359375):1"/>
			</v:userDefs>
			<path d="M2.59 535.22 L23.29 535.22 A2.58746 2.58746 -180 0 0 25.87 532.63 L25.87 526.85 A2.58746 2.58746 -180 0 0 23.29
						 524.26 L2.59 524.26 A2.58746 2.58746 -180 0 0 0 526.85 L0 532.63 A2.58746 2.58746 -180 0 0 2.59 535.22 Z"
					class="st10"/>
		</g>
		<g id="shape54-225" v:mID="54" v:groupContext="shape" transform="translate(436.225,-35.9397)">
			<title>Rounded Rectangle.80</title>
			<v:userDefs>
				<v:ud v:nameU="CTypeTopLeftSnip" v:prompt="" v:val="VT0(0):5"/>
				<v:ud v:nameU="CTypeTopRightSnip" v:prompt="" v:val="VT0(0):5"/>
				<v:ud v:nameU="CTypeBotLeftSnip" v:prompt="" v:val="VT0(0):5"/>
				<v:ud v:nameU="CTypeBotRightSnip" v:prompt="" v:val="VT0(0):5"/>
				<v:ud v:nameU="CornerLockHoriz" v:prompt="" v:val="VT0(1):5"/>
				<v:ud v:nameU="CornerLockVert" v:prompt="" v:val="VT0(1):5"/>
				<v:ud v:nameU="CornerLockDiag" v:prompt="" v:val="VT0(0):5"/>
				<v:ud v:nameU="TopLeftOffset" v:prompt="" v:val="VT0(0.15):1"/>
				<v:ud v:nameU="TopRightOffset" v:prompt="" v:val="VT0(0.15):1"/>
				<v:ud v:nameU="BotLeftOffset" v:prompt="" v:val="VT0(0.15):1"/>
				<v:ud v:nameU="BotRightOffset" v:prompt="" v:val="VT0(0.15):1"/>
				<v:ud v:nameU="visVersion" v:prompt="" v:val="VT0(15):26"/>
				<v:ud v:nameU="TopLeftOffset" v:prompt="" v:val="VT0(0.0359375):1"/>
				<v:ud v:nameU="TopRightOffset" v:prompt="" v:val="VT0(0.0359375):1"/>
				<v:ud v:nameU="BotLeftOffset" v:prompt="" v:val="VT0(0.0359375):1"/>
				<v:ud v:nameU="BotRightOffset" v:prompt="" v:val="VT0(0.0359375):1"/>
			</v:userDefs>
			<path d="M2.59 535.22 L23.29 535.22 A2.58746 2.58746 -180 0 0 25.87 532.63 L25.87 526.85 A2.58746 2.58746 -180 0 0 23.29
						 524.26 L2.59 524.26 A2.58746 2.58746 -180 0 0 0 526.85 L0 532.63 A2.58746 2.58746 -180 0 0 2.59 535.22 Z"
					class="st1"/>
		</g>
		<g id="shape55-227" v:mID="55" v:groupContext="shape" v:layerMember="0" transform="translate(215.664,-343.271)">
			<title>Dynamic connector</title>
			<path d="M-6.68 535.22 L-7.04 535.22 L-14.7 535.22 A3 3 -180 1 0 -20.7 535.22 L-50.7 535.22 A3 3 -180 0 0 -56.7 535.22
						 L-89.41 535.22 L-89.41 624.14 L-83.24 624.14" class="st5"/>
		</g>
		<g id="shape56-234" v:mID="56" v:groupContext="shape" transform="translate(34.5294,-250.99)">
			<title>Sheet.56</title>
			<desc>Kernel</desc>
			<v:textBlock v:margins="rect(4,4,4,4)"/>
			<v:textRect cx="37.9853" cy="521.719" width="75.98" height="27"/>
			<rect x="0" y="508.219" width="75.9706" height="27" class="st7"/>
			<text x="19.66" y="525.92" class="st12" v:langID="1033"><v:paragraph v:horizAlign="1"/><v:tabList/>Kernel</text>		</g>
		<g id="shape57-237" v:mID="57" v:groupContext="shape" transform="translate(18.25,-96.5843)">
			<title>Sheet.57</title>
			<desc>Hardware</desc>
			<v:textBlock v:margins="rect(4,4,4,4)"/>
			<v:textRect cx="46.125" cy="518.826" width="92.25" height="32.7857"/>
			<rect x="0" y="502.433" width="92.25" height="32.7857" class="st7"/>
			<text x="18.01" y="523.03" class="st12" v:langID="1033"><v:paragraph v:horizAlign="1"/><v:tabList/>Hardware</text>		</g>
		<g id="shape58-240" v:mID="58" v:groupContext="shape" transform="translate(23.1169,-423.188)">
			<title>Sheet.58</title>
			<desc>Userspace</desc>
			<v:textBlock v:margins="rect(4,4,4,4)"/>
			<v:textRect cx="43.6916" cy="521.719" width="87.39" height="27"/>
			<rect x="0" y="508.219" width="87.3831" height="27" class="st7"/>
			<text x="14.33" y="525.92" class="st12" v:langID="1033"><v:paragraph v:horizAlign="1"/><v:tabList/>Userspace</text>		</g>
		<g id="shape59-243" v:mID="59" v:groupContext="shape" transform="translate(423.861,-18.25)">
			<title>Sheet.59</title>
			<desc>Legend: NVIDIA Third Party</desc>
			<v:textBlock v:margins="rect(4,4,4,4)" v:verticalAlign="0"/>
			<v:textRect cx="58.1945" cy="503.719" width="116.39" height="63"/>
			<rect x="0" y="472.219" width="116.389" height="63" class="st7"/>
			<text x="4" y="487.02" class="st13" v:langID="1033"><v:paragraph/><v:tabList/>Legend:<v:newlineChar/><tspan x="4"
						dy="1.2em" class="st3">             </tspan>NVIDIA<v:newlineChar/><tspan x="4" dy="1.2em" class="st3">             </tspan>Third Party</text>		</g>
		<g id="shape61-248" v:mID="61" v:groupContext="shape" transform="translate(36.25,-308.5)">
			<title>Sheet.61</title>
			<path d="M0 535.22 L504 535.22" class="st14"/>
		</g>
		<g id="shape63-251" v:mID="63" v:groupContext="shape" transform="translate(36.25,-151)">
			<title>Sheet.63</title>
			<path d="M0 535.22 L504 535.22" class="st14"/>
		</g>
	</g>
</svg>
