<?xml version="1.0" encoding="UTF-8" standalone="no"?>
<!DOCTYPE svg PUBLIC "-//W3C//DTD SVG 1.1//EN" "http://www.w3.org/Graphics/SVG/1.1/DTD/svg11.dtd">
<!-- Generated by Microsoft Visio, SVG Export AsocHardwareArchitecture.svg ASoC architecture -->
<svg xmlns="http://www.w3.org/2000/svg" xmlns:xlink="http://www.w3.org/1999/xlink" xmlns:ev="http://www.w3.org/2001/xml-events"
		xmlns:v="http://schemas.microsoft.com/visio/2003/SVGExtensions/" width="7.68388in" height="4.65104in"
		viewBox="0 0 553.24 334.875" xml:space="preserve" color-interpolation-filters="sRGB" class="st17">
	<v:documentProperties v:langID="1033" v:viewMarkup="false">
		<v:userDefs>
			<v:ud v:nameU="msvNoAutoConnect" v:val="VT0(1):26"/>
			<v:ud v:nameU="msvConvertTheme"/>
		</v:userDefs>
	</v:documentProperties>

	<style type="text/css">
	<![CDATA[
		.st1 {fill:#f2f2f2;stroke:#000000;stroke-linecap:round;stroke-linejoin:round;stroke-width:0.75}
		.st2 {fill:#000000;font-family:Trebuchet MS;font-size:1.00001em}
		.st3 {fill:#fcebdd;stroke:#000000;stroke-linecap:round;stroke-linejoin:round;stroke-width:0.5}
		.st4 {fill:#000000;font-family:Trebuchet MS;font-size:0.666664em}
		.st5 {fill:#000000;font-family:Trebuchet MS;font-size:0.833336em}
		.st6 {font-size:1em}
		.st7 {fill:#fcebdd;stroke:#000000;stroke-linecap:round;stroke-linejoin:round;stroke-width:0.75}
		.st8 {marker-end:url(#mrkr4-84);stroke:#404040;stroke-linecap:butt;stroke-width:0.959067}
		.st9 {fill:#404040;fill-opacity:1;stroke:#404040;stroke-opacity:1;stroke-width:0.39976661463543}
		.st10 {marker-end:url(#mrkr4-84);stroke:#404040;stroke-linecap:round;stroke-linejoin:round;stroke-width:0.959067}
		.st11 {marker-end:url(#mrkr4-84);marker-start:url(#mrkr4-281);stroke:#404040;stroke-linecap:butt;stroke-width:0.959067}
		.st12 {fill:#fcebdd;stroke:#000000;stroke-linecap:butt;stroke-width:0.5}
		.st13 {fill:#fcebdd;stroke:#000000;stroke-linecap:round;stroke-linejoin:round;stroke-width:0.24}
		.st14 {fill:none;stroke:none;stroke-linecap:round;stroke-linejoin:round;stroke-width:0.75}
		.st15 {fill:#ffffff;fill-opacity:0;stroke:none;stroke-linecap:butt;stroke-width:7.2}
		.st16 {fill:#d5dfeb;stroke:#000000;stroke-linecap:round;stroke-linejoin:round;stroke-width:0.24}
		.st17 {fill:none;fill-rule:evenodd;font-size:12px;overflow:visible;stroke-linecap:square;stroke-miterlimit:3}
	]]>
	</style>

	<defs id="Markers">
		<g id="lend4">
			<path d="M 2 1 L 0 0 L 2 -1 L 2 1 " style="stroke:none"/>
		</g>
		<marker id="mrkr4-84" class="st9" v:arrowType="4" v:arrowSize="0" v:setback="5.00292" refX="-5.0029190201986" orient="auto"
				markerUnits="strokeWidth" overflow="visible">
			<use xlink:href="#lend4" transform="scale(-2.5014595100993,-2.5014595100993) "/>
		</marker>
		<marker id="mrkr4-281" class="st9" v:arrowType="4" v:arrowSize="0" v:setback="4.62755" refX="4.6275541426737" orient="auto"
				markerUnits="strokeWidth" overflow="visible">
			<use xlink:href="#lend4" transform="scale(2.5014595100993) "/>
		</marker>
	</defs>
	<g v:mID="16" v:index="2" v:groupContext="foregroundPage">
		<v:userDefs>
			<v:ud v:nameU="VPX" v:val="VT0(3.8419410660415):2"/>
			<v:ud v:nameU="VPY" v:val="VT0(2.325520714124):2"/>
		</v:userDefs>
		<title>ASoC Hardware Architecture</title>
		<v:pageProperties v:drawingScale="1" v:pageScale="1" v:drawingUnits="19" v:shadowOffsetX="9" v:shadowOffsetY="-9"/>
		<v:layer v:name="3D Depth" v:index="0"/>
		<v:layer v:name="Connector" v:index="1"/>
		<g id="group188-1" transform="translate(403.875,-223.687)" v:mID="188" v:groupContext="group">
			<title>Sheet.188</title>
			<g id="shape180-2" v:mID="180" v:groupContext="shape">
				<title>Sheet.180</title>
				<desc>DMIC</desc>
				<v:textBlock v:margins="rect(2,4,2,36)"/>
				<v:textRect cx="36" cy="314.062" width="72" height="41.625"/>
				<rect x="0" y="293.25" width="72" height="41.625" class="st1"/>
				<text x="41.61" y="317.66" class="st2" v:langID="1033"><v:paragraph v:horizAlign="2"/><v:tabList/>DMIC</text>			</g>
			<g id="shape182-5" v:mID="182" v:groupContext="shape" transform="translate(0,-14.6925)">
				<title>Sheet.182</title>
				<desc>Tx CIF</desc>
				<v:textBlock v:margins="rect(4,4,4,4)"/>
				<v:textRect cx="15.3" cy="328.755" width="30.6" height="12.24"/>
				<rect x="0" y="322.635" width="30.6" height="12.24" class="st3"/>
				<text x="4.16" y="331.15" class="st4" v:langID="1033"><v:paragraph v:horizAlign="1"/><v:tabList/>Tx CIF</text>			</g>
		</g>
		<g id="group189-8" transform="translate(403.875,-158.438)" v:mID="189" v:groupContext="group">
			<title>Sheet.189</title>
			<g id="shape5-9" v:mID="5" v:groupContext="shape">
				<title>Sheet.5</title>
				<desc>MVC</desc>
				<v:textBlock v:margins="rect(2,4,4,44)"/>
				<v:textRect cx="36" cy="314.062" width="72" height="41.625"/>
				<rect x="0" y="293.25" width="72" height="41.625" class="st1"/>
				<text x="44.63" y="316.66" class="st2" v:langID="1033"><v:paragraph v:horizAlign="1"/><v:tabList/>MVC</text>			</g>
			<g id="group183-12" transform="translate(0,-5.97376)" v:mID="183" v:groupContext="group">
				<title>Sheet.183</title>
				<g id="shape6-13" v:mID="6" v:groupContext="shape" transform="translate(5.14984E-06,-17.4375)">
					<title>Sheet.6</title>
					<desc>Rx CIF</desc>
					<v:textBlock v:margins="rect(4,4,4,4)"/>
					<v:textRect cx="15.3" cy="328.755" width="30.6" height="12.24"/>
					<rect x="0" y="322.635" width="30.6" height="12.24" class="st3"/>
					<text x="4.16" y="331.15" class="st4" v:langID="1033"><v:paragraph v:horizAlign="1"/><v:tabList/>Rx CIF</text>				</g>
				<g id="shape14-16" v:mID="14" v:groupContext="shape">
					<title>Sheet.14</title>
					<desc>Tx CIF</desc>
					<v:textBlock v:margins="rect(4,4,4,4)"/>
					<v:textRect cx="15.3" cy="328.755" width="30.6" height="12.24"/>
					<rect x="0" y="322.635" width="30.6" height="12.24" class="st3"/>
					<text x="4.16" y="331.15" class="st4" v:langID="1033"><v:paragraph v:horizAlign="1"/><v:tabList/>Tx CIF</text>				</g>
			</g>
		</g>
		<g id="group191-19" transform="translate(403.875,-274.875)" v:mID="191" v:groupContext="group">
			<title>Sheet.191</title>
			<g id="shape192-20" v:mID="192" v:groupContext="shape">
				<title>Sheet.192</title>
				<desc>SFC</desc>
				<v:textBlock v:margins="rect(2,4,4,44)"/>
				<v:textRect cx="36" cy="314.062" width="72" height="41.625"/>
				<rect x="0" y="293.25" width="72" height="41.625" class="st1"/>
				<text x="46.38" y="316.66" class="st2" v:langID="1033"><v:paragraph v:horizAlign="1"/><v:tabList/>SFC</text>			</g>
			<g id="group193-23" transform="translate(0,-5.97376)" v:mID="193" v:groupContext="group">
				<title>Sheet.193</title>
				<g id="shape194-24" v:mID="194" v:groupContext="shape" transform="translate(5.14984E-06,-17.4375)">
					<title>Sheet.194</title>
					<desc>Rx CIF</desc>
					<v:textBlock v:margins="rect(4,4,4,4)"/>
					<v:textRect cx="15.3" cy="328.755" width="30.6" height="12.24"/>
					<rect x="0" y="322.635" width="30.6" height="12.24" class="st3"/>
					<text x="4.16" y="331.15" class="st4" v:langID="1033"><v:paragraph v:horizAlign="1"/><v:tabList/>Rx CIF</text>				</g>
				<g id="shape195-27" v:mID="195" v:groupContext="shape">
					<title>Sheet.195</title>
					<desc>Tx CIF</desc>
					<v:textBlock v:margins="rect(4,4,4,4)"/>
					<v:textRect cx="15.3" cy="328.755" width="30.6" height="12.24"/>
					<rect x="0" y="322.635" width="30.6" height="12.24" class="st3"/>
					<text x="4.16" y="331.15" class="st4" v:langID="1033"><v:paragraph v:horizAlign="1"/><v:tabList/>Tx CIF</text>				</g>
			</g>
		</g>
		<g id="shape197-30" v:mID="197" v:groupContext="shape" transform="translate(403.875,-68.4375)">
			<title>Sheet.197</title>
			<desc>I2S</desc>
			<v:textBlock v:margins="rect(2,4,4,44)"/>
			<v:textRect cx="36" cy="295.219" width="72" height="79.3125"/>
			<rect x="0" y="255.562" width="72" height="79.3125" class="st1"/>
			<text x="48.3" y="297.82" class="st2" v:langID="1033"><v:paragraph v:horizAlign="1"/><v:tabList/>I2S</text>		</g>
		<g id="group198-33" transform="translate(403.875,-93.255)" v:mID="198" v:groupContext="group">
			<title>Sheet.198</title>
			<g id="shape199-34" v:mID="199" v:groupContext="shape" transform="translate(5.14984E-06,-17.4375)">
				<title>Sheet.199</title>
				<desc>Rx CIF</desc>
				<v:textBlock v:margins="rect(4,4,4,4)"/>
				<v:textRect cx="15.3" cy="328.755" width="30.6" height="12.24"/>
				<rect x="0" y="322.635" width="30.6" height="12.24" class="st3"/>
				<text x="4.16" y="331.15" class="st4" v:langID="1033"><v:paragraph v:horizAlign="1"/><v:tabList/>Rx CIF</text>			</g>
			<g id="shape200-37" v:mID="200" v:groupContext="shape">
				<title>Sheet.200</title>
				<desc>Tx CIF</desc>
				<v:textBlock v:margins="rect(4,4,4,4)"/>
				<v:textRect cx="15.3" cy="328.755" width="30.6" height="12.24"/>
				<rect x="0" y="322.635" width="30.6" height="12.24" class="st3"/>
				<text x="4.16" y="331.15" class="st4" v:langID="1033"><v:paragraph v:horizAlign="1"/><v:tabList/>Tx CIF</text>			</g>
		</g>
		<g id="shape171-40" v:mID="171" v:groupContext="shape" transform="translate(211.68,-249)">
			<title>Sheet.171</title>
			<desc>AMX</desc>
			<v:textBlock v:margins="rect(2,4,4,4)"/>
			<v:textRect cx="58.4101" cy="301.125" width="116.83" height="67.5"/>
			<rect x="0" y="267.375" width="116.82" height="67.5" class="st1"/>
			<text x="47.27" y="303.73" class="st2" v:langID="1033"><v:paragraph v:horizAlign="1"/><v:tabList/>AMX</text>		</g>
		<g id="shape172-43" v:mID="172" v:groupContext="shape" transform="translate(287.437,-276.63)">
			<title>Sheet.172</title>
			<desc>Tx CIF</desc>
			<v:textBlock v:margins="rect(4,4,4,4)"/>
			<v:textRect cx="20.3625" cy="328.755" width="40.73" height="12.24"/>
			<rect x="0" y="322.635" width="40.725" height="12.24" class="st3"/>
			<text x="9.23" y="331.15" class="st4" v:langID="1033"><v:paragraph v:horizAlign="1"/><v:tabList/>Tx CIF</text>		</g>
		<g id="shape120-46" v:mID="120" v:groupContext="shape" transform="translate(211.5,-150)">
			<title>Sheet.120</title>
			<desc>Mixer</desc>
			<v:textBlock v:margins="rect(18,4,4,4)"/>
			<v:textRect cx="58.4101" cy="289.875" width="116.83" height="90"/>
			<rect x="0" y="244.875" width="116.82" height="90" class="st1"/>
			<text x="43.83" y="300.48" class="st2" v:langID="1033"><v:paragraph v:horizAlign="1"/><v:tabList/>Mixer</text>		</g>
		<g id="shape61-49" v:mID="61" v:groupContext="shape" transform="translate(211.5,-62.25)">
			<title>Sheet.61</title>
			<desc>ADX</desc>
			<v:textBlock v:margins="rect(4,4,4,4)"/>
			<v:textRect cx="58.4101" cy="295.5" width="116.83" height="78.75"/>
			<rect x="0" y="256.125" width="116.82" height="78.75" class="st1"/>
			<text x="47.85" y="299.1" class="st2" v:langID="1033"><v:paragraph v:horizAlign="1"/><v:tabList/>ADX</text>		</g>
		<g id="shape71-52" v:mID="71" v:groupContext="shape" transform="translate(211.5,-95.505)">
			<title>Sheet.71</title>
			<desc>Rx CIF</desc>
			<v:textBlock v:margins="rect(4,4,4,4)"/>
			<v:textRect cx="20.25" cy="328.755" width="40.5" height="12.24"/>
			<rect x="0" y="322.635" width="40.5" height="12.24" class="st3"/>
			<text x="9.11" y="331.15" class="st4" v:langID="1033"><v:paragraph v:horizAlign="1"/><v:tabList/>Rx CIF</text>		</g>
		<g id="shape146-55" v:mID="146" v:groupContext="shape" transform="translate(85.5,-19.5)">
			<title>Rectangle.146</title>
			<desc>ADMA interface</desc>
			<v:userDefs>
				<v:ud v:nameU="visVersion" v:val="VT0(15):26"/>
			</v:userDefs>
			<v:textBlock v:margins="rect(4,4,4,4)"/>
			<v:textRect cx="27" cy="186.375" width="54.01" height="297"/>
			<rect x="0" y="37.875" width="54" height="297" class="st1"/>
			<text x="14.49" y="183.38" class="st5" v:langID="1033"><v:paragraph v:horizAlign="1"/><v:tabList/>ADMA <tspan x="6.51"
						dy="1.2em" class="st6">interface</tspan></text>		</g>
		<g id="group169-59" transform="translate(108.45,-71.25)" v:mID="169" v:groupContext="group">
			<title>Sheet.169</title>
			<g id="shape161-60" v:mID="161" v:groupContext="shape" transform="translate(3.68434E-06,-63.135)">
				<title>Sheet.161</title>
				<desc>T1 CIF</desc>
				<v:textBlock v:margins="rect(4,4,4,4)"/>
				<v:textRect cx="15.3" cy="328.755" width="30.6" height="12.24"/>
				<rect x="0" y="322.635" width="30.6" height="12.24" class="st7"/>
				<text x="4.07" y="331.15" class="st4" v:langID="1033"><v:paragraph v:horizAlign="1"/><v:tabList/>T1 CIF</text>			</g>
			<g id="shape162-63" v:mID="162" v:groupContext="shape" transform="translate(3.68434E-06,-51.255)">
				<title>Sheet.162</title>
				<desc>T2 CIF</desc>
				<v:textBlock v:margins="rect(4,4,4,4)"/>
				<v:textRect cx="15.3" cy="328.755" width="30.6" height="12.24"/>
				<rect x="0" y="322.635" width="30.6" height="12.24" class="st7"/>
				<text x="4.07" y="331.15" class="st4" v:langID="1033"><v:paragraph v:horizAlign="1"/><v:tabList/>T2 CIF</text>			</g>
			<g id="shape163-66" v:mID="163" v:groupContext="shape" transform="translate(3.68434E-06,5.68434E-14)">
				<title>Sheet.163</title>
				<desc>Tx CIF</desc>
				<v:textBlock v:margins="rect(4,4,4,4)"/>
				<v:textRect cx="15.3" cy="328.755" width="30.6" height="12.24"/>
				<rect x="0" y="322.635" width="30.6" height="12.24" class="st7"/>
				<text x="4.16" y="331.15" class="st4" v:langID="1033"><v:paragraph v:horizAlign="1"/><v:tabList/>Tx CIF</text>			</g>
			<g id="group164-69" transform="translate(14.962,-19.0687)" v:mID="164" v:groupContext="group">
				<title>Sheet.164</title>
				<g id="shape165-70" v:mID="165" v:groupContext="shape" transform="translate(-7.11931E-15,-12.3975)">
					<title>Circle</title>
					<v:userDefs>
						<v:ud v:nameU="visVersion" v:val="VT0(15):26"/>
					</v:userDefs>
					<path d="M0 334.33 a0.33804 0.54 0 0 1 0.676079 0 a0.33804 0.54 0 1 1 -0.676079 0 Z" class="st7"/>
				</g>
				<g id="shape166-72" v:mID="166" v:groupContext="shape" transform="translate(1.28023E-14,-6.18749)">
					<title>Circle.10</title>
					<v:userDefs>
						<v:ud v:nameU="visVersion" v:val="VT0(15):26"/>
					</v:userDefs>
					<path d="M0 334.33 a0.33804 0.54 0 0 1 0.676079 0 a0.33804 0.54 0 1 1 -0.676079 0 Z" class="st7"/>
				</g>
				<g id="shape167-74" v:mID="167" v:groupContext="shape">
					<title>Circle.12</title>
					<v:userDefs>
						<v:ud v:nameU="visVersion" v:val="VT0(15):26"/>
					</v:userDefs>
					<path d="M0 334.33 a0.33804 0.54 0 0 1 0.676079 0 a0.33804 0.54 0 1 1 -0.676079 0 Z" class="st7"/>
				</g>
			</g>
			<g id="shape168-76" v:mID="168" v:groupContext="shape" transform="translate(0,-39.375)">
				<title>Sheet.168</title>
				<desc>T3 CIF</desc>
				<v:textBlock v:margins="rect(4,4,4,4)"/>
				<v:textRect cx="15.3" cy="328.755" width="30.6" height="12.24"/>
				<rect x="0" y="322.635" width="30.6" height="12.24" class="st7"/>
				<text x="4.07" y="331.15" class="st4" v:langID="1033"><v:paragraph v:horizAlign="1"/><v:tabList/>T3 CIF</text>			</g>
		</g>
		<g id="shape219-79" v:mID="219" v:groupContext="shape" transform="translate(166.5,-195) scale(-1,1)">
			<title>Sheet.219</title>
			<path d="M-0 334.87 L22.2 334.87" class="st8"/>
		</g>
		<g id="shape220-85" v:mID="220" v:groupContext="shape" transform="translate(139.5,-141)">
			<title>Sheet.220</title>
			<path d="M-0 334.87 L22.2 334.87" class="st8"/>
		</g>
		<g id="shape221-90" v:mID="221" v:groupContext="shape" transform="translate(139.5,-128.625)">
			<title>Sheet.221</title>
			<path d="M-0 334.87 L22.2 334.87" class="st8"/>
		</g>
		<g id="shape222-95" v:mID="222" v:groupContext="shape" transform="translate(139.5,-117.375)">
			<title>Sheet.222</title>
			<path d="M-0 334.87 L22.2 334.87" class="st8"/>
		</g>
		<g id="shape223-100" v:mID="223" v:groupContext="shape" transform="translate(139.5,-76.875)">
			<title>Sheet.223</title>
			<path d="M-0 334.87 L22.2 334.87" class="st8"/>
		</g>
		<g id="shape224-105" v:mID="224" v:groupContext="shape" transform="translate(166.5,-258.75) scale(-1,1)">
			<title>Sheet.224</title>
			<path d="M-0 334.87 L22.2 334.87" class="st10"/>
		</g>
		<g id="shape225-110" v:mID="225" v:groupContext="shape" transform="translate(166.5,-246.885) scale(-1,1)">
			<title>Sheet.225</title>
			<path d="M-0 334.87 L22.2 334.87" class="st8"/>
		</g>
		<g id="shape226-115" v:mID="226" v:groupContext="shape" transform="translate(166.5,-234.875) scale(-1,1)">
			<title>Sheet.226</title>
			<path d="M-0 334.87 L22.2 334.87" class="st8"/>
		</g>
		<g id="shape229-120" v:mID="229" v:groupContext="shape" transform="translate(193.5,-300.75)">
			<title>Sheet.229</title>
			<path d="M-0 334.87 L13.2 334.87" class="st8"/>
		</g>
		<g id="shape235-125" v:mID="235" v:groupContext="shape" transform="translate(193.5,-276.99)">
			<title>Sheet.235</title>
			<path d="M-0 334.87 L13.2 334.87" class="st8"/>
		</g>
		<g id="shape236-130" v:mID="236" v:groupContext="shape" transform="translate(193.5,-288.75)">
			<title>Sheet.236</title>
			<path d="M-0 334.87 L13.2 334.87" class="st8"/>
		</g>
		<g id="shape237-135" v:mID="237" v:groupContext="shape" transform="translate(193.5,-264.562)">
			<title>Sheet.237</title>
			<path d="M-0 334.87 L13.2 334.87" class="st8"/>
		</g>
		<g id="shape238-140" v:mID="238" v:groupContext="shape" transform="translate(193.5,-227.062)">
			<title>Sheet.238</title>
			<path d="M-0 334.87 L13.2 334.87" class="st8"/>
		</g>
		<g id="shape239-145" v:mID="239" v:groupContext="shape" transform="translate(193.5,-203.302)">
			<title>Sheet.239</title>
			<path d="M-0 334.87 L13.2 334.87" class="st8"/>
		</g>
		<g id="shape240-150" v:mID="240" v:groupContext="shape" transform="translate(193.5,-215.063)">
			<title>Sheet.240</title>
			<path d="M-0 334.87 L13.2 334.87" class="st8"/>
		</g>
		<g id="shape241-155" v:mID="241" v:groupContext="shape" transform="translate(193.5,-163.432)">
			<title>Sheet.241</title>
			<path d="M-0 334.87 L13.2 334.87" class="st8"/>
		</g>
		<g id="shape242-160" v:mID="242" v:groupContext="shape" transform="translate(193.5,-101.625)">
			<title>Sheet.242</title>
			<path d="M-0 334.87 L13.2 334.87" class="st8"/>
		</g>
		<g id="shape243-165" v:mID="243" v:groupContext="shape" transform="translate(328.308,-120)">
			<title>Sheet.243</title>
			<path d="M-0 334.87 L13.2 334.87" class="st8"/>
		</g>
		<g id="shape244-170" v:mID="244" v:groupContext="shape" transform="translate(328.308,-96.24)">
			<title>Sheet.244</title>
			<path d="M-0 334.87 L13.2 334.87" class="st8"/>
		</g>
		<g id="shape245-175" v:mID="245" v:groupContext="shape" transform="translate(328.308,-108)">
			<title>Sheet.245</title>
			<path d="M-0 334.87 L13.2 334.87" class="st8"/>
		</g>
		<g id="shape246-180" v:mID="246" v:groupContext="shape" transform="translate(328.308,-83.8125)">
			<title>Sheet.246</title>
			<path d="M-0 334.87 L13.2 334.87" class="st8"/>
		</g>
		<g id="shape247-185" v:mID="247" v:groupContext="shape" transform="translate(328.308,-226.568)">
			<title>Sheet.247</title>
			<path d="M-0 334.87 L13.2 334.87" class="st8"/>
		</g>
		<g id="shape248-190" v:mID="248" v:groupContext="shape" transform="translate(328.308,-163.432)">
			<title>Sheet.248</title>
			<path d="M-0 334.87 L13.2 334.87" class="st8"/>
		</g>
		<g id="shape249-195" v:mID="249" v:groupContext="shape" transform="translate(328.308,-214.687)">
			<title>Sheet.249</title>
			<path d="M-0 334.87 L13.2 334.87" class="st8"/>
		</g>
		<g id="shape251-200" v:mID="251" v:groupContext="shape" transform="translate(328.308,-282.75)">
			<title>Sheet.251</title>
			<path d="M-0 334.87 L13.2 334.87" class="st8"/>
		</g>
		<g id="shape252-205" v:mID="252" v:groupContext="shape" transform="translate(376.875,-304.406)">
			<title>Sheet.252</title>
			<path d="M-0 334.87 L22.2 334.87" class="st8"/>
		</g>
		<g id="shape253-210" v:mID="253" v:groupContext="shape" transform="translate(403.875,-286.969) scale(-1,1)">
			<title>Sheet.253</title>
			<path d="M-0 334.87 L22.2 334.87" class="st8"/>
		</g>
		<g id="shape254-215" v:mID="254" v:groupContext="shape" transform="translate(403.875,-244.5) scale(-1,1)">
			<title>Sheet.254</title>
			<path d="M-0 334.87 L22.2 334.87" class="st8"/>
		</g>
		<g id="shape255-220" v:mID="255" v:groupContext="shape" transform="translate(403.875,-99.375) scale(-1,1)">
			<title>Sheet.255</title>
			<path d="M-0 334.87 L22.2 334.87" class="st8"/>
		</g>
		<g id="shape256-225" v:mID="256" v:groupContext="shape" transform="translate(376.875,-39.1875)">
			<title>Sheet.256</title>
			<path d="M-0 334.87 L22.2 334.87" class="st8"/>
		</g>
		<g id="shape257-230" v:mID="257" v:groupContext="shape" transform="translate(376.875,-187.969)">
			<title>Sheet.257</title>
			<path d="M-0 334.87 L22.2 334.87" class="st8"/>
		</g>
		<g id="shape258-235" v:mID="258" v:groupContext="shape" transform="translate(403.875,-170.531) scale(-1,1)">
			<title>Sheet.258</title>
			<path d="M-0 334.87 L22.2 334.87" class="st8"/>
		</g>
		<g id="shape259-240" v:mID="259" v:groupContext="shape" transform="translate(376.875,-116.812)">
			<title>Sheet.259</title>
			<path d="M-0 334.87 L22.2 334.87" class="st8"/>
		</g>
		<g id="shape261-245" v:mID="261" v:groupContext="shape" transform="translate(475.875,-235.5)">
			<title>Sheet.261</title>
			<desc>clk</desc>
			<v:textBlock v:margins="rect(16,4,4,4)"/>
			<v:textRect cx="27" cy="334.875" width="54" height="0"/>
			<path d="M-0 334.87 L49.2 334.87" class="st8"/>
			<text x="20.53" y="343.87" class="st5" v:langID="1033"><v:paragraph v:horizAlign="1"/><v:tabList/>clk</text>		</g>
		<g id="shape263-251" v:mID="263" v:groupContext="shape" transform="translate(475.875,-31.875)">
			<title>Sheet.263</title>
			<desc>clk</desc>
			<v:textBlock v:margins="rect(16,4,4,4)"/>
			<v:textRect cx="27" cy="334.875" width="54" height="0"/>
			<path d="M-0 334.87 L49.2 334.87" class="st8"/>
			<text x="20.53" y="343.87" class="st5" v:langID="1033"><v:paragraph v:horizAlign="1"/><v:tabList/>clk</text>		</g>
		<g id="shape264-257" v:mID="264" v:groupContext="shape" transform="translate(529.875,-115.687) scale(-1,1)">
			<title>Sheet.264</title>
			<desc>data in</desc>
			<v:textBlock v:margins="rect(4,4,14,4)"/>
			<v:textRect cx="27" cy="334.875" width="54" height="0"/>
			<path d="M-0 334.87 L49.2 334.87" class="st8"/>
			<text x="-42.69" y="332.88" transform="scale(-1,1)" class="st5" v:langID="1033"><v:paragraph v:horizAlign="1"/><v:tabList/>data in</text>		</g>
		<g id="shape265-263" v:mID="265" v:groupContext="shape" transform="translate(475.875,-97.6875)">
			<title>Sheet.265</title>
			<desc>fsync</desc>
			<v:textBlock v:margins="rect(16,4,4,4)"/>
			<v:textRect cx="27" cy="334.875" width="54" height="0"/>
			<path d="M-0 334.87 L49.2 334.87" class="st8"/>
			<text x="15.45" y="343.87" class="st5" v:langID="1033"><v:paragraph v:horizAlign="1"/><v:tabList/>fsync</text>		</g>
		<g id="shape266-269" v:mID="266" v:groupContext="shape" transform="translate(475.875,-133.687)">
			<title>Sheet.266</title>
			<desc>data out</desc>
			<v:textBlock v:margins="rect(4,4,14,4)"/>
			<v:textRect cx="27" cy="334.875" width="54" height="0"/>
			<path d="M-0 334.87 L49.2 334.87" class="st8"/>
			<text x="8.07" y="332.88" class="st5" v:langID="1033"><v:paragraph v:horizAlign="1"/><v:tabList/>data out</text>		</g>
		<g id="shape267-275" v:mID="267" v:groupContext="shape" transform="translate(475.875,-79.6875)">
			<title>Sheet.267</title>
			<desc>clk</desc>
			<v:textBlock v:margins="rect(16,4,4,4)"/>
			<v:textRect cx="27" cy="334.875" width="54" height="0"/>
			<path d="M4.44 334.87 L4.8 334.87 L49.2 334.87" class="st11"/>
			<text x="20.53" y="343.87" class="st5" v:langID="1033"><v:paragraph v:horizAlign="1"/><v:tabList/>clk</text>		</g>
		<g id="group268-284" transform="translate(108.45,-189.375)" v:mID="268" v:groupContext="group">
			<title>Sheet.268</title>
			<g id="shape130-285" v:mID="130" v:groupContext="shape" transform="translate(3.68434E-06,-63.135)">
				<title>Sheet.130</title>
				<desc>R1 CIF</desc>
				<v:textBlock v:margins="rect(4,4,4,4)"/>
				<v:textRect cx="15.3" cy="328.755" width="30.6" height="12.24"/>
				<rect x="0" y="322.635" width="30.6" height="12.24" class="st12"/>
				<text x="4.06" y="331.15" class="st4" v:langID="1033"><v:paragraph v:horizAlign="1"/><v:tabList/>R1 CIF</text>			</g>
			<g id="shape131-288" v:mID="131" v:groupContext="shape" transform="translate(3.68434E-06,-51.255)">
				<title>Sheet.131</title>
				<desc>R2 CIF</desc>
				<v:textBlock v:margins="rect(4,4,4,4)"/>
				<v:textRect cx="15.3" cy="328.755" width="30.6" height="12.24"/>
				<rect x="0" y="322.635" width="30.6" height="12.24" class="st3"/>
				<text x="4.06" y="331.15" class="st4" v:langID="1033"><v:paragraph v:horizAlign="1"/><v:tabList/>R2 CIF</text>			</g>
			<g id="shape132-291" v:mID="132" v:groupContext="shape" transform="translate(3.68434E-06,1.13687E-13)">
				<title>Sheet.132</title>
				<desc>Rx CIF</desc>
				<v:textBlock v:margins="rect(4,4,4,4)"/>
				<v:textRect cx="15.3" cy="328.755" width="30.6" height="12.24"/>
				<rect x="0" y="322.635" width="30.6" height="12.24" class="st3"/>
				<text x="4.16" y="331.15" class="st4" v:langID="1033"><v:paragraph v:horizAlign="1"/><v:tabList/>Rx CIF</text>			</g>
			<g id="group133-294" transform="translate(15.3,-19.0687)" v:mID="133" v:groupContext="group">
				<title>Sheet.133</title>
				<g id="shape134-295" v:mID="134" v:groupContext="shape" transform="translate(-7.11931E-15,-12.3975)">
					<title>Circle</title>
					<v:userDefs>
						<v:ud v:nameU="visVersion" v:val="VT0(15):26"/>
					</v:userDefs>
					<path d="M0 334.33 a0.33804 0.54 0 0 1 0.676079 0 a0.33804 0.54 0 1 1 -0.676079 0 Z" class="st3"/>
				</g>
				<g id="shape135-297" v:mID="135" v:groupContext="shape" transform="translate(1.28023E-14,-6.18749)">
					<title>Circle.10</title>
					<v:userDefs>
						<v:ud v:nameU="visVersion" v:val="VT0(15):26"/>
					</v:userDefs>
					<path d="M0 334.33 a0.33804 0.54 0 0 1 0.676079 0 a0.33804 0.54 0 1 1 -0.676079 0 Z" class="st3"/>
				</g>
				<g id="shape136-299" v:mID="136" v:groupContext="shape">
					<title>Circle.12</title>
					<v:userDefs>
						<v:ud v:nameU="visVersion" v:val="VT0(15):26"/>
					</v:userDefs>
					<path d="M0 334.33 a0.33804 0.54 0 0 1 0.676079 0 a0.33804 0.54 0 1 1 -0.676079 0 Z" class="st3"/>
				</g>
			</g>
			<g id="shape137-301" v:mID="137" v:groupContext="shape" transform="translate(7.99361E-15,-39.375)">
				<title>Sheet.137</title>
				<desc>R3 CIF</desc>
				<v:textBlock v:margins="rect(4,4,4,4)"/>
				<v:textRect cx="15.3" cy="328.755" width="30.6" height="12.24"/>
				<rect x="0" y="322.635" width="30.6" height="12.24" class="st3"/>
				<text x="4.06" y="331.15" class="st4" v:langID="1033"><v:paragraph v:horizAlign="1"/><v:tabList/>R3 CIF</text>			</g>
			<g id="shape227-304" v:mID="227" v:groupContext="shape" transform="translate(1.18334E-05,-75.375)">
				<title>Sheet.227</title>
				<desc>R1 CIF</desc>
				<v:textBlock v:margins="rect(4,4,4,4)"/>
				<v:textRect cx="15.3" cy="328.755" width="30.6" height="12.24"/>
				<rect x="0" y="322.635" width="30.6" height="12.24" class="st12"/>
				<text x="4.06" y="331.15" class="st4" v:langID="1033"><v:paragraph v:horizAlign="1"/><v:tabList/>R1 CIF</text>			</g>
		</g>
		<g id="shape269-307" v:mID="269" v:groupContext="shape" transform="translate(166.5,-270.87) scale(-1,1)">
			<title>Sheet.269</title>
			<path d="M-0 334.87 L22.2 334.87" class="st10"/>
		</g>
		<g id="group274-312" transform="translate(18,-154.5)" v:mID="274" v:groupContext="group">
			<title>Sheet.274</title>
			<g id="shape218-313" v:mID="218" v:groupContext="shape" v:layerMember="1"
					transform="translate(-6.38473,11.451) rotate(-2.05587)">
				<title>1-D double</title>
				<v:userDefs>
					<v:ud v:nameU="visVersion" v:val="VT0(15):26"/>
				</v:userDefs>
				<path d="M22.5 298.87 L22.5 289.87 L0 312.37 L22.5 334.87 L22.5 325.87 L40.22 325.87 L40.22 334.87 L62.72 312.37
							 L40.22 289.87 L40.22 298.87 L22.5 298.87 Z" class="st13"/>
			</g>
			<g id="shape271-315" v:mID="271" v:groupContext="shape" transform="translate(6.75,-0.900026)">
				<title>Sheet.271</title>
				<desc>ADMA control data</desc>
				<v:textBlock v:margins="rect(4,4,4,4)"/>
				<v:textRect cx="28.9286" cy="323.625" width="57.86" height="22.5"/>
				<rect x="0" y="312.375" width="57.8571" height="22.5" class="st14"/>
				<rect v:rectContext="textBkgnd" x="6.92688" y="314.025" width="44.0033" height="19.1997" class="st15"/>
				<text x="18.92" y="321.23" class="st4" v:langID="1033"><v:paragraph v:horizAlign="1"/><v:tabList/>ADMA<v:newlineChar/><tspan
							x="6.93" dy="1.2em" class="st6">control data</tspan></text>			</g>
		</g>
		<g id="shape278-320" v:mID="278" v:groupContext="shape" transform="translate(166.5,-18.375)">
			<title>Sheet.278</title>
			<desc>XBAR</desc>
			<v:textBlock v:margins="rect(4,4,6,4)" v:verticalAlign="2"/>
			<v:textRect cx="105.187" cy="185.812" width="210.38" height="298.125"/>
			<path d="M210.37 307.87 L210.37 36.75 L179.59 36.75 L179.59 307.87 L30.79 307.87 L30.79 36.75 L0 36.75 L0 307.87 L0 311.25
						 L0 334.87 L210.37 334.87 L210.37 311.25 L210.37 307.87 Z" class="st16"/>
			<text x="93.72" y="325.88" class="st5" v:langID="1033"><v:paragraph v:horizAlign="1"/><v:tabList/>XBAR</text>		</g>
		<g id="group290-323" transform="translate(211.688,-258.596)" v:mID="290" v:groupContext="group">
			<title>Sheet.290</title>
			<g id="shape174-324" v:mID="174" v:groupContext="shape" transform="translate(5.29059E-06,-36.0675)">
				<title>Sheet.174</title>
				<desc>Rx1 CIF</desc>
				<v:textBlock v:margins="rect(4,4,4,4)"/>
				<v:textRect cx="20.1562" cy="328.755" width="40.32" height="12.24"/>
				<rect x="0" y="322.635" width="40.3125" height="12.24" class="st3"/>
				<text x="6.92" y="331.15" class="st4" v:langID="1033"><v:paragraph v:horizAlign="1"/><v:tabList/>Rx1 CIF</text>			</g>
			<g id="shape175-327" v:mID="175" v:groupContext="shape" transform="translate(5.29059E-06,-24.1875)">
				<title>Sheet.175</title>
				<desc>Rx2 CIF</desc>
				<v:textBlock v:margins="rect(4,4,4,4)"/>
				<v:textRect cx="20.1562" cy="328.755" width="40.32" height="12.24"/>
				<rect x="0" y="322.635" width="40.3125" height="12.24" class="st3"/>
				<text x="6.92" y="331.15" class="st4" v:langID="1033"><v:paragraph v:horizAlign="1"/><v:tabList/>Rx2 CIF</text>			</g>
			<g id="shape176-330" v:mID="176" v:groupContext="shape" transform="translate(5.29059E-06,5.68434E-14)">
				<title>Sheet.176</title>
				<desc>Rx4 CIF</desc>
				<v:textBlock v:margins="rect(4,4,4,4)"/>
				<v:textRect cx="20.1562" cy="328.755" width="40.32" height="12.24"/>
				<rect x="0" y="322.635" width="40.3125" height="12.24" class="st3"/>
				<text x="6.92" y="331.15" class="st4" v:langID="1033"><v:paragraph v:horizAlign="1"/><v:tabList/>Rx4 CIF</text>			</g>
			<g id="shape177-333" v:mID="177" v:groupContext="shape" transform="translate(0,-12.3075)">
				<title>Sheet.177</title>
				<desc>Rx3 CIF</desc>
				<v:textBlock v:margins="rect(4,4,4,4)"/>
				<v:textRect cx="20.1562" cy="328.755" width="40.32" height="12.24"/>
				<rect x="0" y="322.635" width="40.3125" height="12.24" class="st3"/>
				<text x="6.92" y="331.15" class="st4" v:langID="1033"><v:paragraph v:horizAlign="1"/><v:tabList/>Rx3 CIF</text>			</g>
		</g>
		<g id="group291-336" transform="translate(211.5,-157.312)" v:mID="291" v:groupContext="group">
			<title>Sheet.291</title>
			<g id="shape151-337" v:mID="151" v:groupContext="shape" transform="translate(5.3152E-06,-63.135)">
				<title>Sheet.151</title>
				<desc>Rx1 CIF</desc>
				<v:textBlock v:margins="rect(4,4,4,4)"/>
				<v:textRect cx="20.25" cy="328.755" width="40.5" height="12.24"/>
				<rect x="0" y="322.635" width="40.5" height="12.24" class="st3"/>
				<text x="7.01" y="331.15" class="st4" v:langID="1033"><v:paragraph v:horizAlign="1"/><v:tabList/>Rx1 CIF</text>			</g>
			<g id="shape152-340" v:mID="152" v:groupContext="shape" transform="translate(5.3152E-06,-51.255)">
				<title>Sheet.152</title>
				<desc>Rx2 CIF</desc>
				<v:textBlock v:margins="rect(4,4,4,4)"/>
				<v:textRect cx="20.25" cy="328.755" width="40.5" height="12.24"/>
				<rect x="0" y="322.635" width="40.5" height="12.24" class="st3"/>
				<text x="7.01" y="331.15" class="st4" v:langID="1033"><v:paragraph v:horizAlign="1"/><v:tabList/>Rx2 CIF</text>			</g>
			<g id="shape153-343" v:mID="153" v:groupContext="shape" transform="translate(5.3152E-06,5.68434E-14)">
				<title>Sheet.153</title>
				<desc>Rx10 CIF</desc>
				<v:textBlock v:margins="rect(4,4,4,4)"/>
				<v:textRect cx="20.25" cy="328.755" width="40.5" height="12.24"/>
				<rect x="0" y="322.635" width="40.5" height="12.24" class="st3"/>
				<text x="4.91" y="331.15" class="st4" v:langID="1033"><v:paragraph v:horizAlign="1"/><v:tabList/>Rx10 CIF</text>			</g>
			<g id="group154-346" transform="translate(20.2882,-19.0687)" v:mID="154" v:groupContext="group">
				<title>Sheet.154</title>
				<g id="shape155-347" v:mID="155" v:groupContext="shape" transform="translate(-1.11161E-14,-12.3975)">
					<title>Circle</title>
					<v:userDefs>
						<v:ud v:nameU="visVersion" v:val="VT0(15):26"/>
					</v:userDefs>
					<path d="M0 334.33 a0.557339 0.54 0 1 1 1.11468 0 a0.557339 0.54 0 1 1 -1.11468 0 Z" class="st3"/>
				</g>
				<g id="shape156-349" v:mID="156" v:groupContext="shape" transform="translate(2.22947E-14,-6.18749)">
					<title>Circle.10</title>
					<v:userDefs>
						<v:ud v:nameU="visVersion" v:val="VT0(15):26"/>
					</v:userDefs>
					<path d="M0 334.33 a0.557339 0.54 0 1 1 1.11468 0 a0.557339 0.54 0 1 1 -1.11468 0 Z" class="st3"/>
				</g>
				<g id="shape157-351" v:mID="157" v:groupContext="shape">
					<title>Circle.12</title>
					<v:userDefs>
						<v:ud v:nameU="visVersion" v:val="VT0(15):26"/>
					</v:userDefs>
					<path d="M0 334.33 a0.557339 0.54 0 1 1 1.11468 0 a0.557339 0.54 0 1 1 -1.11468 0 Z" class="st3"/>
				</g>
			</g>
			<g id="shape158-353" v:mID="158" v:groupContext="shape" transform="translate(0,-39.375)">
				<title>Sheet.158</title>
				<desc>Rx3 CIF</desc>
				<v:textBlock v:margins="rect(4,4,4,4)"/>
				<v:textRect cx="20.25" cy="328.755" width="40.5" height="12.24"/>
				<rect x="0" y="322.635" width="40.5" height="12.24" class="st3"/>
				<text x="7.01" y="331.15" class="st4" v:langID="1033"><v:paragraph v:horizAlign="1"/><v:tabList/>Rx3 CIF</text>			</g>
		</g>
		<g id="group292-356" transform="translate(287.437,-157.312)" v:mID="292" v:groupContext="group">
			<title>Sheet.292</title>
			<g id="shape122-357" v:mID="122" v:groupContext="shape" transform="translate(5.34473E-06,-63.135)">
				<title>Sheet.122</title>
				<desc>Tx1 CIF</desc>
				<v:textBlock v:margins="rect(4,4,4,4)"/>
				<v:textRect cx="20.3625" cy="328.755" width="40.73" height="12.24"/>
				<rect x="0" y="322.635" width="40.725" height="12.24" class="st3"/>
				<text x="7.13" y="331.15" class="st4" v:langID="1033"><v:paragraph v:horizAlign="1"/><v:tabList/>Tx1 CIF</text>			</g>
			<g id="shape123-360" v:mID="123" v:groupContext="shape" transform="translate(5.34473E-06,1.13687E-13)">
				<title>Sheet.123</title>
				<desc>Tx10 CIF</desc>
				<v:textBlock v:margins="rect(4,2,4,2)"/>
				<v:textRect cx="20.3625" cy="328.755" width="40.73" height="12.24"/>
				<rect x="0" y="322.635" width="40.725" height="12.24" class="st3"/>
				<text x="5.03" y="331.15" class="st4" v:langID="1033"><v:paragraph v:horizAlign="1"/><v:tabList/>Tx10 CIF</text>			</g>
			<g id="group124-363" transform="translate(19.9414,-19.0687)" v:mID="124" v:groupContext="group">
				<title>Sheet.124</title>
				<g id="shape125-364" v:mID="125" v:groupContext="shape" transform="translate(-8.99281E-15,-12.3975)">
					<title>Circle</title>
					<v:userDefs>
						<v:ud v:nameU="visVersion" v:val="VT0(15):26"/>
					</v:userDefs>
					<path d="M0 334.33 a0.421101 0.54 0 0 1 0.842202 0 a0.421101 0.54 0 0 1 -0.842202 0 Z" class="st3"/>
				</g>
				<g id="shape126-366" v:mID="126" v:groupContext="shape" transform="translate(1.59248E-14,-6.18749)">
					<title>Circle.10</title>
					<v:userDefs>
						<v:ud v:nameU="visVersion" v:val="VT0(15):26"/>
					</v:userDefs>
					<path d="M0 334.33 a0.421101 0.54 0 0 1 0.842202 0 a0.421101 0.54 0 0 1 -0.842202 0 Z" class="st3"/>
				</g>
				<g id="shape127-368" v:mID="127" v:groupContext="shape">
					<title>Circle.12</title>
					<v:userDefs>
						<v:ud v:nameU="visVersion" v:val="VT0(15):26"/>
					</v:userDefs>
					<path d="M0 334.33 a0.421101 0.54 0 0 1 0.842202 0 a0.421101 0.54 0 0 1 -0.842202 0 Z" class="st3"/>
				</g>
			</g>
			<g id="shape128-370" v:mID="128" v:groupContext="shape" transform="translate(9.59233E-14,-51.255)">
				<title>Sheet.128</title>
				<desc>Tx2 CIF</desc>
				<v:textBlock v:margins="rect(4,4,4,4)"/>
				<v:textRect cx="20.3625" cy="328.755" width="40.73" height="12.24"/>
				<rect x="0" y="322.635" width="40.725" height="12.24" class="st3"/>
				<text x="7.13" y="331.15" class="st4" v:langID="1033"><v:paragraph v:horizAlign="1"/><v:tabList/>Tx2 CIF</text>			</g>
			<g id="shape289-373" v:mID="289" v:groupContext="shape" transform="translate(3.19744E-14,-39.375)">
				<title>Sheet.289</title>
				<desc>Tx3 CIF</desc>
				<v:textBlock v:margins="rect(4,4,4,4)"/>
				<v:textRect cx="20.3625" cy="328.755" width="40.73" height="12.24"/>
				<rect x="0" y="322.635" width="40.725" height="12.24" class="st3"/>
				<text x="7.13" y="331.15" class="st4" v:langID="1033"><v:paragraph v:horizAlign="1"/><v:tabList/>Tx3 CIF</text>			</g>
		</g>
		<g id="group293-376" transform="translate(287.437,-77.2237)" v:mID="293" v:groupContext="group">
			<title>Sheet.293</title>
			<g id="shape63-377" v:mID="63" v:groupContext="shape" transform="translate(5.59552E-14,-36.5625)">
				<title>Sheet.63</title>
				<desc>OUT1</desc>
				<v:textBlock v:margins="rect(4,4,4,4)"/>
				<v:textRect cx="20.3625" cy="328.755" width="40.73" height="12.24"/>
				<rect x="0" y="322.635" width="40.725" height="12.24" class="st3"/>
				<text x="10.65" y="331.15" class="st4" v:langID="1033"><v:paragraph v:horizAlign="1"/><v:tabList/>OUT1</text>			</g>
			<g id="shape64-380" v:mID="64" v:groupContext="shape">
				<title>Sheet.64</title>
				<desc>OUT4</desc>
				<v:textBlock v:margins="rect(4,4,4,4)"/>
				<v:textRect cx="20.3625" cy="328.755" width="40.73" height="12.24"/>
				<rect x="0" y="322.635" width="40.725" height="12.24" class="st3"/>
				<text x="10.65" y="331.15" class="st4" v:langID="1033"><v:paragraph v:horizAlign="1"/><v:tabList/>OUT4</text>			</g>
			<g id="shape69-383" v:mID="69" v:groupContext="shape" transform="translate(1.19904E-13,-24.5363)">
				<title>Sheet.69</title>
				<desc>OUT2</desc>
				<v:textBlock v:margins="rect(4,4,4,4)"/>
				<v:textRect cx="20.3625" cy="328.755" width="40.73" height="12.24"/>
				<rect x="0" y="322.635" width="40.725" height="12.24" class="st3"/>
				<text x="10.65" y="331.15" class="st4" v:langID="1033"><v:paragraph v:horizAlign="1"/><v:tabList/>OUT2</text>			</g>
			<g id="shape140-386" v:mID="140" v:groupContext="shape" transform="translate(5.59552E-14,-12.375)">
				<title>Sheet.140</title>
				<desc>OUT3</desc>
				<v:textBlock v:margins="rect(4,4,4,4)"/>
				<v:textRect cx="20.3625" cy="328.755" width="40.73" height="12.24"/>
				<rect x="0" y="322.635" width="40.725" height="12.24" class="st3"/>
				<text x="10.65" y="331.15" class="st4" v:langID="1033"><v:paragraph v:horizAlign="1"/><v:tabList/>OUT3</text>			</g>
		</g>
		<g id="shape294-389" v:mID="294" v:groupContext="shape" transform="translate(328.308,-202.807)">
			<title>Sheet.294</title>
			<path d="M-0 334.87 L13.2 334.87" class="st8"/>
		</g>
		<g id="group295-394" transform="translate(403.875,-18.375)" v:mID="295" v:groupContext="group">
			<title>Sheet.295</title>
			<g id="shape203-395" v:mID="203" v:groupContext="shape">
				<title>Sheet.203</title>
				<desc>DSPK</desc>
				<v:textBlock v:margins="rect(2,4,2,36)"/>
				<v:textRect cx="36" cy="314.062" width="72" height="41.625"/>
				<rect x="0" y="293.25" width="72" height="41.625" class="st1"/>
				<text x="41.27" y="317.66" class="st2" v:langID="1033"><v:paragraph v:horizAlign="2"/><v:tabList/>DSPK</text>			</g>
			<g id="shape204-398" v:mID="204" v:groupContext="shape" transform="translate(0,-14.6925)">
				<title>Sheet.204</title>
				<desc>Rx CIF</desc>
				<v:textBlock v:margins="rect(4,4,4,4)"/>
				<v:textRect cx="15.3" cy="328.755" width="30.6" height="12.24"/>
				<rect x="0" y="322.635" width="30.6" height="12.24" class="st3"/>
				<text x="4.16" y="331.15" class="st4" v:langID="1033"><v:paragraph v:horizAlign="1"/><v:tabList/>Rx CIF</text>			</g>
		</g>
		<g id="shape297-401" v:mID="297" v:groupContext="shape" transform="translate(475.875,-48.9375)">
			<title>Sheet.297</title>
			<desc>data out</desc>
			<v:textBlock v:margins="rect(4,4,14,4)"/>
			<v:textRect cx="27" cy="334.875" width="54" height="0"/>
			<path d="M-0 334.87 L49.2 334.87" class="st8"/>
			<text x="8.07" y="332.88" class="st5" v:langID="1033"><v:paragraph v:horizAlign="1"/><v:tabList/>data out</text>		</g>
		<g id="shape298-407" v:mID="298" v:groupContext="shape" transform="translate(529.875,-252) scale(-1,1)">
			<title>Sheet.298</title>
			<desc>data in</desc>
			<v:textBlock v:margins="rect(4,4,14,4)"/>
			<v:textRect cx="27" cy="334.875" width="54" height="0"/>
			<path d="M-0 334.87 L49.2 334.87" class="st8"/>
			<text x="-42.69" y="332.88" transform="scale(-1,1)" class="st5" v:langID="1033"><v:paragraph v:horizAlign="1"/><v:tabList/>data in</text>		</g>
	</g>
</svg>
