<?xml version="1.0" encoding="UTF-8" standalone="no"?>
<!DOCTYPE svg PUBLIC "-//W3C//DTD SVG 1.1//EN" "http://www.w3.org/Graphics/SVG/1.1/DTD/svg11.dtd">
<!-- Generated by Microsoft Visio, SVG Export Audio Demultiplexer Module.svg Page-1 -->
<svg xmlns="http://www.w3.org/2000/svg" xmlns:xlink="http://www.w3.org/1999/xlink" xmlns:ev="http://www.w3.org/2001/xml-events"
		xmlns:v="http://schemas.microsoft.com/visio/2003/SVGExtensions/" width="4.20586in" height="2.8696in"
		viewBox="0 0 302.822 206.611" xml:space="preserve" color-interpolation-filters="sRGB" class="st13">
	<v:documentProperties v:langID="1033" v:viewMarkup="false">
		<v:userDefs>
			<v:ud v:nameU="msvConvertTheme"/>
		</v:userDefs>
	</v:documentProperties>

	<style type="text/css">
	<![CDATA[
		.st1 {stroke:#404040;stroke-linecap:round;stroke-linejoin:round;stroke-width:0.959067}
		.st2 {marker-start:url(#mrkr4-9);stroke:#404040;stroke-linecap:round;stroke-linejoin:round;stroke-width:0.959067}
		.st3 {fill:#404040;fill-opacity:1;stroke:#404040;stroke-opacity:1;stroke-width:0.39976661463543}
		.st4 {stroke:none;stroke-linecap:round;stroke-linejoin:round;stroke-width:0.75}
		.st5 {fill:#000000;font-family:Trebuchet MS;font-size:1.33333em}
		.st6 {fill:#000000;font-family:Trebuchet MS;font-size:0.833336em}
		.st7 {fill:#000000;font-family:Trebuchet MS;font-size:1.00001em}
		.st8 {marker-end:url(#mrkr4-37);marker-start:url(#mrkr4-9);stroke:#404040;stroke-linecap:round;stroke-linejoin:round;stroke-width:0.959067}
		.st9 {font-size:1em}
		.st10 {stroke:#404040;stroke-linecap:round;stroke-linejoin:round;stroke-width:1}
		.st11 {fill:#f2f2f2;stroke:#000000;stroke-linecap:round;stroke-linejoin:round;stroke-width:0.75}
		.st12 {stroke:#000000;stroke-dasharray:2.25,2.25;stroke-linecap:round;stroke-linejoin:round;stroke-width:0.75}
		.st13 {fill:none;fill-rule:evenodd;font-size:12px;overflow:visible;stroke-linecap:square;stroke-miterlimit:3}
	]]>
	</style>

	<defs id="Markers">
		<g id="lend4">
			<path d="M 2 1 L 0 0 L 2 -1 L 2 1 " style="stroke:none"/>
		</g>
		<marker id="mrkr4-9" class="st3" v:arrowType="4" v:arrowSize="0" v:setback="4.62755" refX="4.6275541426737" orient="auto"
				markerUnits="strokeWidth" overflow="visible">
			<use xlink:href="#lend4" transform="scale(2.5014595100993) "/>
		</marker>
		<marker id="mrkr4-37" class="st3" v:arrowType="4" v:arrowSize="0" v:setback="5.00292" refX="-5.0029190201986" orient="auto"
				markerUnits="strokeWidth" overflow="visible">
			<use xlink:href="#lend4" transform="scale(-2.5014595100993,-2.5014595100993) "/>
		</marker>
	</defs>
	<g v:mID="0" v:index="1" v:groupContext="foregroundPage">
		<title>Page-1</title>
		<v:pageProperties v:drawingScale="1" v:pageScale="1" v:drawingUnits="19" v:shadowOffsetX="9" v:shadowOffsetY="-9"/>
		<g id="shape1-1" v:mID="1" v:groupContext="shape" transform="translate(89.7204,-54.5634)">
			<title>Sheet.1</title>
			<path d="M0 206.61 L117.86 206.61 L117.86 89.59 L0 89.59 L0 206.61 L0 206.61" class="st1"/>
		</g>
		<g id="shape2-4" v:mID="2" v:groupContext="shape" transform="translate(5.36448,-153.561)">
			<title>Sheet.2</title>
			<path d="M4.44 206.61 L4.8 206.61 L90 206.61" class="st2"/>
		</g>
		<g id="shape3-10" v:mID="3" v:groupContext="shape" transform="translate(116.565,-189.166)">
			<title>Sheet.3</title>
			<desc>ADX</desc>
			<v:textBlock v:margins="rect(0,0,0,0)"/>
			<v:textRect cx="22.5" cy="198.766" width="45" height="15.6912"/>
			<path d="M45 190.92 L0 190.92 L0 206.61 L45 206.61 L45 190.92" class="st4"/>
			<text x="8.42" y="203.57" class="st5" v:langID="1033"><v:paragraph v:horizAlign="1"/><v:tabList/>ADX</text>		</g>
		<g id="shape4-14" v:mID="4" v:groupContext="shape" transform="translate(13.8538,-154.261)">
			<title>Sheet.4</title>
			<desc>OUT 1 transmit</desc>
			<v:textBlock v:margins="rect(0,0,0,0)"/>
			<v:textRect cx="34.9875" cy="200.986" width="69.98" height="11.25"/>
			<path d="M69.97 195.36 L0 195.36 L0 206.61 L69.97 206.61 L69.97 195.36" class="st4"/>
			<text x="0" y="203.99" class="st6" v:langID="1033"><v:paragraph/><v:tabList/>OUT 1 transmit</text>		</g>
		<g id="shape5-18" v:mID="5" v:groupContext="shape" transform="translate(224.207,-119.766)">
			<title>Sheet.5</title>
			<desc>IN receive</desc>
			<v:textBlock v:margins="rect(0,0,0,0)"/>
			<v:textRect cx="34.6888" cy="200.614" width="69.38" height="11.9952"/>
			<path d="M69.38 194.62 L0 194.62 L0 206.61 L69.38 206.61 L69.38 194.62" class="st4"/>
			<text x="24.25" y="203.61" class="st6" v:langID="1033"><v:paragraph v:horizAlign="2"/><v:tabList/>IN receive</text>		</g>
		<g id="shape6-22" v:mID="6" v:groupContext="shape" transform="translate(230.585,-176.761)">
			<title>Sheet.6</title>
			<desc>From XBAR</desc>
			<v:textBlock v:margins="rect(0,0,0,0)"/>
			<v:textRect cx="31.5" cy="198.059" width="63" height="17.1033"/>
			<path d="M63 189.51 L0 189.51 L0 206.61 L63 206.61 L63 189.51" class="st4"/>
			<text x="4.49" y="201.66" class="st7" v:langID="1033"><v:paragraph v:horizAlign="2"/><v:tabList/>From XBAR</text>		</g>
		<g id="shape7-26" v:mID="7" v:groupContext="shape" transform="translate(11.6038,-177.658)">
			<title>Sheet.7</title>
			<desc>To XBAR</desc>
			<v:textBlock v:margins="rect(0,0,0,0)"/>
			<v:textRect cx="40.5" cy="198.059" width="81" height="17.1033"/>
			<path d="M81 189.51 L0 189.51 L0 206.61 L81 206.61 L81 189.51" class="st4"/>
			<text x="0" y="201.66" class="st7" v:langID="1033"><v:paragraph/><v:tabList/>To  XBAR</text>		</g>
		<g id="shape8-30" v:mID="8" v:groupContext="shape" transform="translate(89.7503,-45.5526)">
			<title>Sheet.8</title>
			<path d="M4.44 206.61 L4.8 206.61 L112.85 206.61" class="st8"/>
		</g>
		<g id="shape9-38" v:mID="9" v:groupContext="shape" transform="translate(89.5651,-21.5112)">
			<title>Sheet.9</title>
			<desc>DAPM Widgets</desc>
			<v:textBlock v:margins="rect(0,0,0,0)"/>
			<v:textRect cx="59.0068" cy="196.746" width="118.02" height="19.7311"/>
			<path d="M118.01 186.88 L0 186.88 L0 206.61 L118.01 206.61 L118.01 186.88" class="st4"/>
			<text x="21.12" y="200.35" class="st7" v:langID="1033"><v:paragraph v:horizAlign="1"/><v:tabList/>DAPM Widgets</text>		</g>
		<g id="shape10-42" v:mID="10" v:groupContext="shape" transform="translate(6.31905,-19.5029)">
			<title>Sheet.10</title>
			<desc>OUT DAI stream names</desc>
			<v:textBlock v:margins="rect(0,0,0,0)"/>
			<v:textRect cx="37.9496" cy="191.864" width="75.9" height="29.4943"/>
			<path d="M75.9 177.12 L0 177.12 L0 206.61 L75.9 206.61 L75.9 177.12" class="st4"/>
			<text x="15.84" y="188.26" class="st7" v:langID="1033"><v:paragraph v:horizAlign="1"/><v:tabList/>OUT DAI<v:newlineChar/><tspan
						x="0.48" dy="1.2em" class="st9">stream names </tspan> </text>		</g>
		<g id="shape11-47" v:mID="11" v:groupContext="shape" transform="translate(212.589,-19.2612)">
			<title>Sheet.11</title>
			<desc>IN DAI stream name</desc>
			<v:textBlock v:margins="rect(0,0,0,0)"/>
			<v:textRect cx="42.5557" cy="192.185" width="85.12" height="28.8525"/>
			<path d="M85.11 177.76 L0 177.76 L0 206.61 L85.11 206.61 L85.11 177.76" class="st4"/>
			<text x="26.36" y="188.58" class="st7" v:langID="1033"><v:paragraph v:horizAlign="1"/><v:tabList/>IN DAI<v:newlineChar/><tspan
						x="7.52" dy="1.2em" class="st9">stream name</tspan></text>		</g>
		<g id="shape12-52" v:mID="12" v:groupContext="shape" transform="translate(5.36448,-126.529)">
			<title>Sheet.12</title>
			<path d="M4.44 206.61 L4.8 206.61 L90 206.61" class="st2"/>
		</g>
		<g id="shape13-57" v:mID="13" v:groupContext="shape" transform="translate(5.41629,-72.5849)">
			<title>Sheet.13</title>
			<path d="M4.44 206.61 L4.8 206.61 L90 206.61" class="st2"/>
		</g>
		<g id="shape14-62" v:mID="14" v:groupContext="shape" transform="translate(207.457,-119.801)">
			<title>Sheet.14</title>
			<path d="M4.44 206.61 L4.8 206.61 L90 206.61" class="st2"/>
		</g>
		<g id="shape15-67" v:mID="15" v:groupContext="shape" transform="translate(5.36448,-99.6171)">
			<title>Sheet.15</title>
			<path d="M4.44 206.61 L4.8 206.61 L90 206.61" class="st2"/>
		</g>
		<g id="shape16-72" v:mID="16" v:groupContext="shape" transform="translate(296.207,-54.5) scale(-1,1)">
			<title>Side brace.2</title>
			<v:userDefs>
				<v:ud v:nameU="TxtW" v:val="VT0(0.55555555555556):29"/>
				<v:ud v:nameU="TxtA" v:val="VT0(1.5707963267949):32"/>
				<v:ud v:nameU="TxtAState" v:val="VT0(0):26"/>
				<v:ud v:nameU="TxtWState" v:val="VT0(0):26"/>
				<v:ud v:nameU="MaxRadius" v:val="VT0(0.25):1"/>
				<v:ud v:nameU="PosCH1" v:prompt="Constrains X position of Control Handle #1" v:val="VT0(0):26"/>
				<v:ud v:nameU="PosCH2" v:prompt="Constrains Y position of Control Handle #2" v:val="VT0(0):26"/>
				<v:ud v:nameU="Scale" v:val="VT0(1):26"/>
				<v:ud v:nameU="AntiScale" v:val="VT0(1):26"/>
				<v:ud v:nameU="visVersion" v:val="VT0(15):26"/>
				<v:ud v:nameU="TxtW" v:prompt="" v:val="VT0(0.69444444444444):3"/>
				<v:ud v:nameU="TxtA" v:prompt="" v:val="VT0(-1.5707963267949):32"/>
				<v:ud v:nameU="MaxRadius" v:prompt="" v:val="VT0(0.0625):1"/>
			</v:userDefs>
			<path d="M0 202.11 A4.49993 4.49993 -180 0 0 4.5 206.61 L36.56 206.61 A4.49993 4.49993 0 0 1 41.06 211.11 A4.49993 4.49993
						 0 0 1 45.56 206.61 L77.63 206.61 A4.49993 4.49993 -180 0 0 82.13 202.11" class="st10"/>
		</g>
		<g id="shape17-75" v:mID="17" v:groupContext="shape" transform="translate(83.4585,-55.2612) scale(-1,1)">
			<title>Side brace.72</title>
			<v:userDefs>
				<v:ud v:nameU="TxtW" v:val="VT0(0.55555555555556):29"/>
				<v:ud v:nameU="TxtA" v:val="VT0(1.5707963267949):32"/>
				<v:ud v:nameU="TxtAState" v:val="VT0(0):26"/>
				<v:ud v:nameU="TxtWState" v:val="VT0(0):26"/>
				<v:ud v:nameU="MaxRadius" v:val="VT0(0.25):1"/>
				<v:ud v:nameU="PosCH1" v:prompt="Constrains X position of Control Handle #1" v:val="VT0(0):26"/>
				<v:ud v:nameU="PosCH2" v:prompt="Constrains Y position of Control Handle #2" v:val="VT0(0):26"/>
				<v:ud v:nameU="Scale" v:val="VT0(1):26"/>
				<v:ud v:nameU="AntiScale" v:val="VT0(1):26"/>
				<v:ud v:nameU="visVersion" v:val="VT0(15):26"/>
				<v:ud v:nameU="TxtW" v:prompt="" v:val="VT0(0.69444444444444):3"/>
				<v:ud v:nameU="TxtA" v:prompt="" v:val="VT0(-1.5707963267949):32"/>
				<v:ud v:nameU="MaxRadius" v:prompt="" v:val="VT0(0.0625):1"/>
			</v:userDefs>
			<path d="M0 202.11 A4.49993 4.49993 -180 0 0 4.5 206.61 L34.69 206.61 A4.49993 4.49993 0 0 1 39.19 211.11 A4.49993 4.49993
						 0 0 1 43.69 206.61 L73.88 206.61 A4.49993 4.49993 -180 0 0 78.38 202.11" class="st10"/>
		</g>
		<g id="shape18-78" v:mID="18" v:groupContext="shape" transform="translate(13.8538,-126.516)">
			<title>Sheet.18</title>
			<desc>OUT 2 transmit</desc>
			<v:textBlock v:margins="rect(0,0,0,0)"/>
			<v:textRect cx="45" cy="200.613" width="90" height="11.9957"/>
			<path d="M90 194.62 L0 194.62 L0 206.61 L90 206.61 L90 194.62" class="st4"/>
			<text x="0" y="203.61" class="st6" v:langID="1033"><v:paragraph/><v:tabList/>OUT 2 transmit</text>		</g>
		<g id="shape19-82" v:mID="19" v:groupContext="shape" transform="translate(13.8538,-99.2712)">
			<title>Sheet.19</title>
			<desc>OUT 3 transmit</desc>
			<v:textBlock v:margins="rect(0,0,0,0)"/>
			<v:textRect cx="34.9875" cy="200.491" width="69.98" height="12.24"/>
			<path d="M69.97 194.37 L0 194.37 L0 206.61 L69.97 206.61 L69.97 194.37" class="st4"/>
			<text x="0" y="203.49" class="st6" v:langID="1033"><v:paragraph/><v:tabList/>OUT 3 transmit</text>		</g>
		<g id="shape20-86" v:mID="20" v:groupContext="shape" transform="translate(13.8538,-72.6249)">
			<title>Sheet.20</title>
			<desc>OUT 4 transmit</desc>
			<v:textBlock v:margins="rect(0,0,0,0)"/>
			<v:textRect cx="34.9875" cy="200.668" width="69.98" height="11.8864"/>
			<path d="M69.97 194.72 L0 194.72 L0 206.61 L69.97 206.61 L69.97 194.72" class="st4"/>
			<text x="0" y="203.67" class="st6" v:langID="1033"><v:paragraph/><v:tabList/>OUT 4 transmit</text>		</g>
		<g id="shape21-90" v:mID="21" v:groupContext="shape" transform="translate(89.6496,-146.811)">
			<title>Sheet.21</title>
			<desc>Tx1 CIF</desc>
			<v:textBlock v:margins="rect(4,4,4,4)"/>
			<v:textRect cx="22.5" cy="199.861" width="45" height="13.5"/>
			<rect x="0" y="193.111" width="45" height="13.5" class="st11"/>
			<text x="5.96" y="202.86" class="st6" v:langID="1033"><v:paragraph v:horizAlign="1"/><v:tabList/>Tx1 CIF</text>		</g>
		<g id="shape22-93" v:mID="22" v:groupContext="shape" transform="translate(89.6496,-119.521)">
			<title>Sheet.22</title>
			<desc>Tx2 CIF</desc>
			<v:textBlock v:margins="rect(4,4,4,4)"/>
			<v:textRect cx="22.5" cy="199.861" width="45" height="13.5"/>
			<rect x="0" y="193.111" width="45" height="13.5" class="st11"/>
			<text x="5.96" y="202.86" class="st6" v:langID="1033"><v:paragraph v:horizAlign="1"/><v:tabList/>Tx2 CIF</text>		</g>
		<g id="shape23-96" v:mID="23" v:groupContext="shape" transform="translate(89.6496,-93.0212)">
			<title>Sheet.23</title>
			<desc>Tx3 CIF</desc>
			<v:textBlock v:margins="rect(4,4,4,4)"/>
			<v:textRect cx="22.5" cy="199.861" width="45" height="13.5"/>
			<rect x="0" y="193.111" width="45" height="13.5" class="st11"/>
			<text x="5.96" y="202.86" class="st6" v:langID="1033"><v:paragraph v:horizAlign="1"/><v:tabList/>Tx3 CIF</text>		</g>
		<g id="shape24-99" v:mID="24" v:groupContext="shape" transform="translate(89.6496,-65.5112)">
			<title>Sheet.24</title>
			<desc>Tx4 CIF</desc>
			<v:textBlock v:margins="rect(4,4,4,4)"/>
			<v:textRect cx="22.5" cy="199.861" width="45" height="13.5"/>
			<rect x="0" y="193.111" width="45" height="13.5" class="st11"/>
			<text x="5.96" y="202.86" class="st6" v:langID="1033"><v:paragraph v:horizAlign="1"/><v:tabList/>Tx4 CIF</text>		</g>
		<g id="shape25-102" v:mID="25" v:groupContext="shape" transform="translate(162.579,-113.011)">
			<title>Sheet.25</title>
			<desc>Rx CIF</desc>
			<v:textBlock v:margins="rect(4,4,4,4)"/>
			<v:textRect cx="22.5" cy="199.861" width="45" height="13.5"/>
			<rect x="0" y="193.111" width="45" height="13.5" class="st11"/>
			<text x="8.57" y="202.86" class="st6" v:langID="1033"><v:paragraph v:horizAlign="1"/><v:tabList/>Rx CIF</text>		</g>
		<g id="shape26-105" v:mID="26" v:groupContext="shape" transform="translate(295.691,-77.1095) rotate(50.8)">
			<title>Sheet.26</title>
			<path d="M0 206.61 L42.1 206.61" class="st12"/>
		</g>
		<g id="shape27-108" v:mID="27" v:groupContext="shape" transform="translate(6.18408,-53.6001) rotate(-38.7756)">
			<title>Sheet.27</title>
			<path d="M0 206.61 L34.13 206.61" class="st12"/>
		</g>
		<g id="shape28-111" v:mID="28" v:groupContext="shape" transform="translate(343.22,185.676) rotate(118.813)">
			<title>Sheet.28</title>
			<path d="M0 206.61 L55.21 206.61" class="st12"/>
		</g>
		<g id="shape29-114" v:mID="29" v:groupContext="shape" transform="translate(178.312,-121.669) rotate(11.9366)">
			<title>Sheet.29</title>
			<path d="M0 206.61 L27.2 206.61" class="st12"/>
		</g>
	</g>
</svg>
