<?xml version="1.0" encoding="UTF-8" standalone="no"?>
<!DOCTYPE svg PUBLIC "-//W3C//DTD SVG 1.1//EN" "http://www.w3.org/Graphics/SVG/1.1/DTD/svg11.dtd">
<!-- Generated by Microsoft Visio, SVG Export AudioMultiplexerModule.svg Page-4 -->
<svg xmlns="http://www.w3.org/2000/svg" xmlns:xlink="http://www.w3.org/1999/xlink" xmlns:ev="http://www.w3.org/2001/xml-events"
		xmlns:v="http://schemas.microsoft.com/visio/2003/SVGExtensions/" width="4.77401in" height="3.36338in"
		viewBox="0 0 343.729 242.164" xml:space="preserve" color-interpolation-filters="sRGB" class="st13">
	<v:documentProperties v:langID="1033" v:viewMarkup="false">
		<v:userDefs>
			<v:ud v:nameU="msvNoAutoConnect" v:val="VT0(1):26"/>
			<v:ud v:nameU="msvConvertTheme"/>
		</v:userDefs>
	</v:documentProperties>

	<style type="text/css">
	<![CDATA[
		.st1 {stroke:#404040;stroke-linecap:round;stroke-linejoin:round;stroke-width:0.959067}
		.st2 {marker-end:url(#mrkr4-9);stroke:#404040;stroke-linecap:round;stroke-linejoin:round;stroke-width:0.959067}
		.st3 {fill:#404040;fill-opacity:1;stroke:#404040;stroke-opacity:1;stroke-width:0.39976661463543}
		.st4 {stroke:none;stroke-linecap:round;stroke-linejoin:round;stroke-width:0.75}
		.st5 {fill:#000000;font-family:Trebuchet MS;font-size:1.33333em}
		.st6 {fill:#000000;font-family:Trebuchet MS;font-size:0.833336em}
		.st7 {fill:#000000;font-family:Trebuchet MS;font-size:1.00001em}
		.st8 {marker-end:url(#mrkr4-9);marker-start:url(#mrkr4-36);stroke:#404040;stroke-linecap:round;stroke-linejoin:round;stroke-width:0.959067}
		.st9 {font-size:1em}
		.st10 {stroke:#404040;stroke-linecap:round;stroke-linejoin:round;stroke-width:1}
		.st11 {fill:#f2f2f2;stroke:#000000;stroke-linecap:round;stroke-linejoin:round;stroke-width:0.75}
		.st12 {stroke:#000000;stroke-dasharray:2.25,2.25;stroke-linecap:round;stroke-linejoin:round;stroke-width:0.75}
		.st13 {fill:none;fill-rule:evenodd;font-size:12px;overflow:visible;stroke-linecap:square;stroke-miterlimit:3}
	]]>
	</style>

	<defs id="Markers">
		<g id="lend4">
			<path d="M 2 1 L 0 0 L 2 -1 L 2 1 " style="stroke:none"/>
		</g>
		<marker id="mrkr4-9" class="st3" v:arrowType="4" v:arrowSize="0" v:setback="5.00292" refX="-5.0029190201986" orient="auto"
				markerUnits="strokeWidth" overflow="visible">
			<use xlink:href="#lend4" transform="scale(-2.5014595100993,-2.5014595100993) "/>
		</marker>
		<marker id="mrkr4-36" class="st3" v:arrowType="4" v:arrowSize="0" v:setback="4.62755" refX="4.6275541426737" orient="auto"
				markerUnits="strokeWidth" overflow="visible">
			<use xlink:href="#lend4" transform="scale(2.5014595100993) "/>
		</marker>
	</defs>
	<g v:mID="8" v:index="4" v:groupContext="foregroundPage">
		<title>Audio Multiplexer Module</title>
		<v:pageProperties v:drawingScale="1" v:pageScale="1" v:drawingUnits="19" v:shadowOffsetX="9" v:shadowOffsetY="-9"/>
		<g id="shape70-1" v:mID="70" v:groupContext="shape" transform="translate(113.085,-72.1159)">
			<title>Sheet.70</title>
			<path d="M0 242.16 L117.28 242.16 L117.28 125.14 L0 125.14 L0 242.16 L0 242.16" class="st1"/>
		</g>
		<g id="shape71-4" v:mID="71" v:groupContext="shape" transform="translate(23.3645,-171.114)">
			<title>Sheet.71</title>
			<path d="M-0 242.16 L85.2 242.16" class="st2"/>
		</g>
		<g id="shape72-10" v:mID="72" v:groupContext="shape" transform="translate(139.93,-206.718)">
			<title>Sheet.72</title>
			<desc>AMX</desc>
			<v:textBlock v:margins="rect(0,0,0,0)"/>
			<v:textRect cx="22.5" cy="234.318" width="45" height="15.6912"/>
			<path d="M45 226.47 L0 226.47 L0 242.16 L45 242.16 L45 226.47" class="st4"/>
			<text x="7.65" y="239.12" class="st5" v:langID="1033"><v:paragraph v:horizAlign="1"/><v:tabList/>AMX</text>		</g>
		<g id="shape73-14" v:mID="73" v:groupContext="shape" transform="translate(28.7645,-171.814)">
			<title>Sheet.73</title>
			<desc>IN 1 receive</desc>
			<v:textBlock v:margins="rect(0,0,0,0)"/>
			<v:textRect cx="34.9875" cy="236.539" width="69.98" height="11.25"/>
			<path d="M69.97 230.91 L0 230.91 L0 242.16 L69.97 242.16 L69.97 230.91" class="st4"/>
			<text x="0" y="239.54" class="st6" v:langID="1033"><v:paragraph/><v:tabList/>IN 1 receive</text>		</g>
		<g id="shape74-18" v:mID="74" v:groupContext="shape" transform="translate(243.347,-137.319)">
			<title>Sheet.74</title>
			<desc>OUT transmit</desc>
			<v:textBlock v:margins="rect(0,0,0,0)"/>
			<v:textRect cx="34.6888" cy="236.166" width="69.38" height="11.9952"/>
			<path d="M69.38 230.17 L0 230.17 L0 242.16 L69.38 242.16 L69.38 230.17" class="st4"/>
			<text x="9.6" y="239.17" class="st6" v:langID="1033"><v:paragraph v:horizAlign="2"/><v:tabList/>OUT transmit</text>		</g>
		<g id="shape75-22" v:mID="75" v:groupContext="shape" transform="translate(247.661,-194.314)">
			<title>Sheet.75</title>
			<desc>To XBAR</desc>
			<v:textBlock v:margins="rect(0,0,0,0)"/>
			<v:textRect cx="31.5" cy="233.612" width="63" height="17.1033"/>
			<path d="M63 225.06 L0 225.06 L0 242.16 L63 242.16 L63 225.06" class="st4"/>
			<text x="18.44" y="237.21" class="st7" v:langID="1033"><v:paragraph v:horizAlign="2"/><v:tabList/>To XBAR</text>		</g>
		<g id="shape76-26" v:mID="76" v:groupContext="shape" transform="translate(27.752,-195.21)">
			<title>Sheet.76</title>
			<desc>From XBAR</desc>
			<v:textBlock v:margins="rect(0,0,0,0)"/>
			<v:textRect cx="40.5" cy="233.612" width="81" height="17.1033"/>
			<path d="M81 225.06 L0 225.06 L0 242.16 L81 242.16 L81 225.06" class="st4"/>
			<text x="0" y="237.21" class="st7" v:langID="1033"><v:paragraph/><v:tabList/>From  XBAR</text>		</g>
		<g id="shape77-30" v:mID="77" v:groupContext="shape" transform="translate(113.114,-63.1051)">
			<title>Sheet.77</title>
			<path d="M4.44 242.16 L4.8 242.16 L112.27 242.16" class="st8"/>
		</g>
		<g id="shape78-38" v:mID="78" v:groupContext="shape" transform="translate(112.93,-39.0637)">
			<title>Sheet.78</title>
			<desc>DAPM Widgets</desc>
			<v:textBlock v:margins="rect(0,0,0,0)"/>
			<v:textRect cx="58.7174" cy="232.298" width="117.44" height="19.7311"/>
			<path d="M117.43 222.43 L0 222.43 L0 242.16 L117.43 242.16 L117.43 222.43" class="st4"/>
			<text x="20.83" y="235.9" class="st7" v:langID="1033"><v:paragraph v:horizAlign="1"/><v:tabList/>DAPM Widgets</text>		</g>
		<g id="shape79-42" v:mID="79" v:groupContext="shape" transform="translate(28.7274,-37.2752)">
			<title>Sheet.79</title>
			<desc>IN DAI stream names</desc>
			<v:textBlock v:margins="rect(0,0,0,0)"/>
			<v:textRect cx="37.9496" cy="227.47" width="75.9" height="29.3863"/>
			<path d="M75.9 212.78 L0 212.78 L0 242.16 L75.9 242.16 L75.9 212.78" class="st4"/>
			<text x="21.75" y="223.87" class="st7" v:langID="1033"><v:paragraph v:horizAlign="1"/><v:tabList/>IN DAI<v:newlineChar/><tspan
						x="0.48" dy="1.2em" class="st9">stream names </tspan> </text>		</g>
		<g id="shape80-47" v:mID="80" v:groupContext="shape" transform="translate(234.082,-38.5364)">
			<title>Sheet.80</title>
			<desc>OUT DAI stream name</desc>
			<v:textBlock v:margins="rect(0,0,0,0)"/>
			<v:textRect cx="42.5557" cy="227.882" width="85.12" height="28.5631"/>
			<path d="M85.11 213.6 L0 213.6 L0 242.16 L85.11 242.16 L85.11 213.6" class="st4"/>
			<text x="20.44" y="224.28" class="st7" v:langID="1033"><v:paragraph v:horizAlign="1"/><v:tabList/>OUT DAI<v:newlineChar/><tspan
						x="7.52" dy="1.2em" class="st9">stream name</tspan></text>		</g>
		<g id="shape81-52" v:mID="81" v:groupContext="shape" transform="translate(23.3645,-144.082)">
			<title>Sheet.81</title>
			<path d="M-0 242.16 L85.2 242.16" class="st2"/>
		</g>
		<g id="shape82-57" v:mID="82" v:groupContext="shape" transform="translate(23.4163,-90.1374)">
			<title>Sheet.82</title>
			<path d="M-0 242.16 L85.2 242.16" class="st2"/>
		</g>
		<g id="shape83-62" v:mID="83" v:groupContext="shape" transform="translate(230.364,-137.354)">
			<title>Sheet.83</title>
			<path d="M0 242.16 L85.2 242.16" class="st2"/>
		</g>
		<g id="shape87-67" v:mID="87" v:groupContext="shape" transform="translate(23.3645,-117.17)">
			<title>Sheet.87</title>
			<path d="M-0 242.16 L85.2 242.16" class="st2"/>
		</g>
		<g id="shape88-72" v:mID="88" v:groupContext="shape" transform="translate(316.286,-72.8489) scale(-1,1)">
			<title>Side brace.2</title>
			<v:userDefs>
				<v:ud v:nameU="TxtW" v:val="VT0(0.55555555555556):29"/>
				<v:ud v:nameU="TxtA" v:val="VT0(1.5707963267949):32"/>
				<v:ud v:nameU="TxtAState" v:val="VT0(0):26"/>
				<v:ud v:nameU="TxtWState" v:val="VT0(0):26"/>
				<v:ud v:nameU="MaxRadius" v:val="VT0(0.25):1"/>
				<v:ud v:nameU="PosCH1" v:prompt="Constrains X position of Control Handle #1" v:val="VT0(0):26"/>
				<v:ud v:nameU="PosCH2" v:prompt="Constrains Y position of Control Handle #2" v:val="VT0(0):26"/>
				<v:ud v:nameU="Scale" v:val="VT0(1):26"/>
				<v:ud v:nameU="AntiScale" v:val="VT0(1):26"/>
				<v:ud v:nameU="visVersion" v:val="VT0(15):26"/>
				<v:ud v:nameU="TxtW" v:prompt="" v:val="VT0(0.69444444444444):3"/>
				<v:ud v:nameU="TxtA" v:prompt="" v:val="VT0(-1.5707963267949):32"/>
				<v:ud v:nameU="MaxRadius" v:prompt="" v:val="VT0(0.0625):1"/>
			</v:userDefs>
			<path d="M0 237.66 A4.49993 4.49993 -180 0 0 4.5 242.16 L35.15 242.16 A4.49993 4.49993 0 0 1 39.65 246.66 A4.49993 4.49993
						 0 0 1 44.15 242.16 L74.8 242.16 A4.49993 4.49993 -180 0 0 79.3 237.66" class="st10"/>
		</g>
		<g id="shape89-75" v:mID="89" v:groupContext="shape" transform="translate(108.864,-72.5) scale(-1,1)">
			<title>Side brace.72</title>
			<v:userDefs>
				<v:ud v:nameU="TxtW" v:val="VT0(0.55555555555556):29"/>
				<v:ud v:nameU="TxtA" v:val="VT0(1.5707963267949):32"/>
				<v:ud v:nameU="TxtAState" v:val="VT0(0):26"/>
				<v:ud v:nameU="TxtWState" v:val="VT0(0):26"/>
				<v:ud v:nameU="MaxRadius" v:val="VT0(0.25):1"/>
				<v:ud v:nameU="PosCH1" v:prompt="Constrains X position of Control Handle #1" v:val="VT0(0):26"/>
				<v:ud v:nameU="PosCH2" v:prompt="Constrains Y position of Control Handle #2" v:val="VT0(0):26"/>
				<v:ud v:nameU="Scale" v:val="VT0(1):26"/>
				<v:ud v:nameU="AntiScale" v:val="VT0(1):26"/>
				<v:ud v:nameU="visVersion" v:val="VT0(15):26"/>
				<v:ud v:nameU="TxtW" v:prompt="" v:val="VT0(0.69444444444444):3"/>
				<v:ud v:nameU="TxtA" v:prompt="" v:val="VT0(-1.5707963267949):32"/>
				<v:ud v:nameU="MaxRadius" v:prompt="" v:val="VT0(0.0625):1"/>
			</v:userDefs>
			<path d="M0 237.66 A4.49993 4.49993 -180 0 0 4.5 242.16 L37.69 242.16 A4.49993 4.49993 0 0 1 42.19 246.66 A4.49993 4.49993
						 0 0 1 46.69 242.16 L79.87 242.16 A4.49993 4.49993 -180 0 0 84.37 237.66" class="st10"/>
		</g>
		<g id="shape90-78" v:mID="90" v:groupContext="shape" transform="translate(28.7645,-144.068)">
			<title>Sheet.90</title>
			<desc>IN 2 receive</desc>
			<v:textBlock v:margins="rect(0,0,0,0)"/>
			<v:textRect cx="37.8" cy="236.166" width="75.6" height="11.9957"/>
			<path d="M75.6 230.17 L0 230.17 L0 242.16 L75.6 242.16 L75.6 230.17" class="st4"/>
			<text x="0" y="239.17" class="st6" v:langID="1033"><v:paragraph/><v:tabList/>IN 2 receive</text>		</g>
		<g id="shape91-82" v:mID="91" v:groupContext="shape" transform="translate(28.7645,-116.824)">
			<title>Sheet.91</title>
			<desc>IN 3 receive</desc>
			<v:textBlock v:margins="rect(0,0,0,0)"/>
			<v:textRect cx="34.9875" cy="236.044" width="69.98" height="12.24"/>
			<path d="M69.97 229.92 L0 229.92 L0 242.16 L69.97 242.16 L69.97 229.92" class="st4"/>
			<text x="0" y="239.04" class="st6" v:langID="1033"><v:paragraph/><v:tabList/>IN 3 receive</text>		</g>
		<g id="shape92-86" v:mID="92" v:groupContext="shape" transform="translate(28.7645,-90.1773)">
			<title>Sheet.92</title>
			<desc>IN 4 receive</desc>
			<v:textBlock v:margins="rect(0,0,0,0)"/>
			<v:textRect cx="34.9875" cy="236.22" width="69.98" height="11.8864"/>
			<path d="M69.97 230.28 L0 230.28 L0 242.16 L69.97 242.16 L69.97 230.28" class="st4"/>
			<text x="0" y="239.22" class="st6" v:langID="1033"><v:paragraph/><v:tabList/>IN 4 receive</text>		</g>
		<g id="shape93-90" v:mID="93" v:groupContext="shape" transform="translate(113.239,-164.364)">
			<title>Sheet.93</title>
			<desc>Rx1 CIF</desc>
			<v:textBlock v:margins="rect(4,4,4,4)"/>
			<v:textRect cx="22.5" cy="235.414" width="45" height="13.5"/>
			<rect x="0" y="228.664" width="45" height="13.5" class="st11"/>
			<text x="5.95" y="238.41" class="st6" v:langID="1033"><v:paragraph v:horizAlign="1"/><v:tabList/>Rx1 CIF</text>		</g>
		<g id="shape94-93" v:mID="94" v:groupContext="shape" transform="translate(113.239,-137.074)">
			<title>Sheet.94</title>
			<desc>Rx2 CIF</desc>
			<v:textBlock v:margins="rect(4,4,4,4)"/>
			<v:textRect cx="22.5" cy="235.414" width="45" height="13.5"/>
			<rect x="0" y="228.664" width="45" height="13.5" class="st11"/>
			<text x="5.95" y="238.41" class="st6" v:langID="1033"><v:paragraph v:horizAlign="1"/><v:tabList/>Rx2 CIF</text>		</g>
		<g id="shape95-96" v:mID="95" v:groupContext="shape" transform="translate(113.239,-110.574)">
			<title>Sheet.95</title>
			<desc>Rx3 CIF</desc>
			<v:textBlock v:margins="rect(4,4,4,4)"/>
			<v:textRect cx="22.5" cy="235.414" width="45" height="13.5"/>
			<rect x="0" y="228.664" width="45" height="13.5" class="st11"/>
			<text x="5.95" y="238.41" class="st6" v:langID="1033"><v:paragraph v:horizAlign="1"/><v:tabList/>Rx3 CIF</text>		</g>
		<g id="shape96-99" v:mID="96" v:groupContext="shape" transform="translate(113.239,-83.0637)">
			<title>Sheet.96</title>
			<desc>Rx4 CIF</desc>
			<v:textBlock v:margins="rect(4,4,4,4)"/>
			<v:textRect cx="22.5" cy="235.414" width="45" height="13.5"/>
			<rect x="0" y="228.664" width="45" height="13.5" class="st11"/>
			<text x="5.95" y="238.41" class="st6" v:langID="1033"><v:paragraph v:horizAlign="1"/><v:tabList/>Rx4 CIF</text>		</g>
		<g id="shape97-102" v:mID="97" v:groupContext="shape" transform="translate(185.364,-130.564)">
			<title>Sheet.97</title>
			<desc>Tx CIF</desc>
			<v:textBlock v:margins="rect(4,4,4,4)"/>
			<v:textRect cx="22.5" cy="235.414" width="45" height="13.5"/>
			<rect x="0" y="228.664" width="45" height="13.5" class="st11"/>
			<text x="8.58" y="238.41" class="st6" v:langID="1033"><v:paragraph v:horizAlign="1"/><v:tabList/>Tx CIF</text>		</g>
		<g id="shape98-105" v:mID="98" v:groupContext="shape" transform="translate(346.028,-81.5798) rotate(50.8)">
			<title>Sheet.98</title>
			<path d="M0 242.16 L42.1 242.16" class="st12"/>
		</g>
		<g id="shape99-108" v:mID="99" v:groupContext="shape" transform="translate(6.70425,-63.317) rotate(-38.7756)">
			<title>Sheet.99</title>
			<path d="M0 242.16 L34.13 242.16" class="st12"/>
		</g>
		<g id="shape100-111" v:mID="100" v:groupContext="shape" transform="translate(397.157,220.81) rotate(118.813)">
			<title>Sheet.100</title>
			<path d="M0 242.16 L55.21 242.16" class="st12"/>
		</g>
		<g id="shape101-114" v:mID="101" v:groupContext="shape" transform="translate(208.451,-138.452) rotate(11.9366)">
			<title>Sheet.101</title>
			<path d="M0 242.16 L27.2 242.16" class="st12"/>
		</g>
	</g>
</svg>
