<?xml version="1.0" encoding="UTF-8" standalone="no"?>
<!DOCTYPE svg PUBLIC "-//W3C//DTD SVG 1.1//EN" "http://www.w3.org/Graphics/SVG/1.1/DTD/svg11.dtd">
<!-- Generated by Microsoft Visio, SVG Export CsiConnectivityJetsonAgxOrin16Cameras.svg CSI Connectivity Jetson AGX Orin -->
<svg xmlns="http://www.w3.org/2000/svg" xmlns:xlink="http://www.w3.org/1999/xlink" xmlns:ev="http://www.w3.org/2001/xml-events"
		xmlns:v="http://schemas.microsoft.com/visio/2003/SVGExtensions/" width="10.4468in" height="7.71639in"
		viewBox="0 0 752.171 555.58" xml:space="preserve" color-interpolation-filters="sRGB" class="st13">
	<v:documentProperties v:langID="1033" v:viewMarkup="false">
		<v:userDefs>
			<v:ud v:nameU="msvSubprocessMaster" v:prompt="" v:val="VT4(Rectangle)"/>
			<v:ud v:nameU="msvNoAutoConnect" v:val="VT0(1):26"/>
		</v:userDefs>
	</v:documentProperties>

	<style type="text/css">
	<![CDATA[
		.st1 {fill:#ddeebf;stroke:#000000;stroke-width:0.5}
		.st2 {fill:#000000;font-family:Trebuchet MS;font-size:1.16666em}
		.st3 {fill:#70ad47;stroke:#000000;stroke-width:0.5}
		.st4 {fill:#ffffff;font-family:Trebuchet MS;font-size:1.00001em}
		.st5 {fill:#375623;stroke:#ffffff;stroke-width:0.5}
		.st6 {fill:#ffffff;font-family:Trebuchet MS;font-size:0.833336em}
		.st7 {marker-end:url(#mrkr4-58);stroke:#000000;stroke-linecap:round;stroke-linejoin:round;stroke-width:0.75}
		.st8 {fill:#000000;fill-opacity:1;stroke:#000000;stroke-opacity:1;stroke-width:0.22935779816514}
		.st9 {fill:#f2f2f2;stroke:#000000;stroke-width:0.5}
		.st10 {fill:#000000;font-family:Trebuchet MS;font-size:0.833336em}
		.st11 {marker-start:url(#mrkr4-67);stroke:#000000;stroke-linecap:round;stroke-linejoin:round;stroke-width:0.75}
		.st12 {fill:#ffffff;font-family:Trebuchet MS;font-size:1.16666em}
		.st13 {fill:none;fill-rule:evenodd;font-size:12px;overflow:visible;stroke-linecap:square;stroke-miterlimit:3}
	]]>
	</style>

	<defs id="Markers">
		<g id="lend4">
			<path d="M 2 1 L 0 0 L 2 -1 L 2 1 " style="stroke:none"/>
		</g>
		<marker id="mrkr4-58" class="st8" v:arrowType="4" v:arrowSize="2" v:setback="8.72" refX="-8.72" orient="auto"
				markerUnits="strokeWidth" overflow="visible">
			<use xlink:href="#lend4" transform="scale(-4.36,-4.36) "/>
		</marker>
		<marker id="mrkr4-67" class="st8" v:arrowType="4" v:arrowSize="2" v:setback="8.24" refX="8.24" orient="auto"
				markerUnits="strokeWidth" overflow="visible">
			<use xlink:href="#lend4" transform="scale(4.36) "/>
		</marker>
	</defs>
	<g v:mID="13" v:index="4" v:groupContext="foregroundPage">
		<v:userDefs>
			<v:ud v:nameU="msvThemeOrder" v:val="VT0(0):26"/>
		</v:userDefs>
		<title>CSI Connectivity Jetson AGX Orin 16 cameras</title>
		<v:pageProperties v:drawingScale="1" v:pageScale="1" v:drawingUnits="0" v:shadowOffsetX="9" v:shadowOffsetY="-9"/>
		<g id="shape141-1" v:mID="141" v:groupContext="shape" transform="translate(252.671,-18.5)">
			<title>Sheet.141</title>
			<desc>CSI interface</desc>
			<v:textBlock v:margins="rect(8,4,4,4)" v:verticalAlign="0"/>
			<v:textRect cx="89.6646" cy="296.29" width="179.33" height="518.58"/>
			<rect x="0" y="37" width="179.329" height="518.58" class="st1"/>
			<text x="49.37" y="57.6" class="st2" v:langID="1033"><v:paragraph v:horizAlign="1"/><v:tabList/>CSI interface</text>		</g>
		<g id="group92-4" transform="translate(271.46,-32.5)" v:mID="92" v:groupContext="group">
			<title>Sheet.92</title>
			<g id="shape87-5" v:mID="87" v:groupContext="shape">
				<title>Sheet.87</title>
				<desc>Brick 3 (1x4)</desc>
				<v:textBlock v:margins="rect(4,4,4,4)" v:verticalAlign="0"/>
				<v:textRect cx="74.7896" cy="499.317" width="149.58" height="112.527"/>
				<rect x="0" y="443.053" width="149.579" height="112.527" class="st3"/>
				<text x="40.89" y="457.85" class="st4" v:langID="1033"><v:paragraph v:horizAlign="1"/><v:tabList/>Brick 3 (1x4)</text>			</g>
			<g id="shape88-8" v:mID="88" v:groupContext="shape" transform="translate(12.4575,-72)">
				<title>Sheet.88</title>
				<desc>CSI Lane 12, 2.5 GB/sec</desc>
				<v:textBlock v:margins="rect(4,4,4,4)"/>
				<v:textRect cx="61.8108" cy="545.373" width="123.63" height="20.415"/>
				<rect x="0" y="535.165" width="123.622" height="20.415" rx="3.6" ry="3.6" class="st5"/>
				<text x="8.16" y="548.37" class="st6" v:langID="1033"><v:paragraph v:horizAlign="1"/><v:tabList/>CSI Lane 12, 2.5 GB/sec</text>			</g>
			<g id="shape89-11" v:mID="89" v:groupContext="shape" transform="translate(12.4575,-51.585)">
				<title>Sheet.89</title>
				<desc>CSI Lane 13, 2.5 GB/sec</desc>
				<v:textBlock v:margins="rect(4,4,4,4)"/>
				<v:textRect cx="61.8108" cy="545.373" width="123.63" height="20.415"/>
				<rect x="0" y="535.165" width="123.622" height="20.415" rx="3.6" ry="3.6" class="st5"/>
				<text x="8.16" y="548.37" class="st6" v:langID="1033"><v:paragraph v:horizAlign="1"/><v:tabList/>CSI Lane 13, 2.5 GB/sec</text>			</g>
			<g id="shape90-14" v:mID="90" v:groupContext="shape" transform="translate(12.4575,-31.335)">
				<title>Sheet.90</title>
				<desc>CSI Lane 14, 2.5 GB/sec</desc>
				<v:textBlock v:margins="rect(4,4,4,4)"/>
				<v:textRect cx="61.8108" cy="545.373" width="123.63" height="20.415"/>
				<rect x="0" y="535.165" width="123.622" height="20.415" rx="3.6" ry="3.6" class="st5"/>
				<text x="8.16" y="548.37" class="st6" v:langID="1033"><v:paragraph v:horizAlign="1"/><v:tabList/>CSI Lane 14, 2.5 GB/sec</text>			</g>
			<g id="shape91-17" v:mID="91" v:groupContext="shape" transform="translate(12.4575,-11.2925)">
				<title>Sheet.91</title>
				<desc>CSI Lane 15, 2.5 GB/sec</desc>
				<v:textBlock v:margins="rect(4,4,4,4)"/>
				<v:textRect cx="61.8108" cy="545.373" width="123.63" height="20.415"/>
				<rect x="0" y="535.165" width="123.622" height="20.415" rx="3.6" ry="3.6" class="st5"/>
				<text x="8.16" y="548.37" class="st6" v:langID="1033"><v:paragraph v:horizAlign="1"/><v:tabList/>CSI Lane 15, 2.5 GB/sec</text>			</g>
		</g>
		<g id="group93-20" transform="translate(271.46,-154)" v:mID="93" v:groupContext="group">
			<title>Sheet.93</title>
			<g id="shape53-21" v:mID="53" v:groupContext="shape">
				<title>Sheet.53</title>
				<desc>Brick 2 (1x4)</desc>
				<v:textBlock v:margins="rect(4,4,4,4)" v:verticalAlign="0"/>
				<v:textRect cx="74.7896" cy="499.317" width="149.58" height="112.527"/>
				<rect x="0" y="443.053" width="149.579" height="112.527" class="st3"/>
				<text x="40.89" y="457.85" class="st4" v:langID="1033"><v:paragraph v:horizAlign="1"/><v:tabList/>Brick 2 (1x4)</text>			</g>
			<g id="shape54-24" v:mID="54" v:groupContext="shape" transform="translate(12.4575,-72)">
				<title>Sheet.54</title>
				<desc>CSI Lane 8, 2.5 GB/sec</desc>
				<v:textBlock v:margins="rect(4,4,4,4)"/>
				<v:textRect cx="61.8108" cy="545.373" width="123.63" height="20.415"/>
				<rect x="0" y="535.165" width="123.622" height="20.415" rx="3.6" ry="3.6" class="st5"/>
				<text x="10.78" y="548.37" class="st6" v:langID="1033"><v:paragraph v:horizAlign="1"/><v:tabList/>CSI Lane 8, 2.5 GB/sec</text>			</g>
			<g id="shape55-27" v:mID="55" v:groupContext="shape" transform="translate(12.4575,-51.585)">
				<title>Sheet.55</title>
				<desc>CSI Lane 9, 2.5 GB/sec</desc>
				<v:textBlock v:margins="rect(4,4,4,4)"/>
				<v:textRect cx="61.8108" cy="545.373" width="123.63" height="20.415"/>
				<rect x="0" y="535.165" width="123.622" height="20.415" rx="3.6" ry="3.6" class="st5"/>
				<text x="10.78" y="548.37" class="st6" v:langID="1033"><v:paragraph v:horizAlign="1"/><v:tabList/>CSI Lane 9, 2.5 GB/sec</text>			</g>
			<g id="shape56-30" v:mID="56" v:groupContext="shape" transform="translate(12.4575,-31.335)">
				<title>Sheet.56</title>
				<desc>CSI Lane 10, 2.5 GB/sec</desc>
				<v:textBlock v:margins="rect(4,4,4,4)"/>
				<v:textRect cx="61.8108" cy="545.373" width="123.63" height="20.415"/>
				<rect x="0" y="535.165" width="123.622" height="20.415" rx="3.6" ry="3.6" class="st5"/>
				<text x="8.16" y="548.37" class="st6" v:langID="1033"><v:paragraph v:horizAlign="1"/><v:tabList/>CSI Lane 10, 2.5 GB/sec</text>			</g>
			<g id="shape57-33" v:mID="57" v:groupContext="shape" transform="translate(12.4575,-11.2925)">
				<title>Sheet.57</title>
				<desc>CSI Lane 11, 2.5 GB/sec</desc>
				<v:textBlock v:margins="rect(4,4,4,4)"/>
				<v:textRect cx="61.8108" cy="545.373" width="123.63" height="20.415"/>
				<rect x="0" y="535.165" width="123.622" height="20.415" rx="3.6" ry="3.6" class="st5"/>
				<text x="8.16" y="548.37" class="st6" v:langID="1033"><v:paragraph v:horizAlign="1"/><v:tabList/>CSI Lane 11, 2.5 GB/sec</text>			</g>
		</g>
		<g id="group95-36" transform="translate(271.46,-397)" v:mID="95" v:groupContext="group">
			<title>Sheet.95</title>
			<g id="shape75-37" v:mID="75" v:groupContext="shape">
				<title>Sheet.75</title>
				<desc>Brick 0 (1x4)</desc>
				<v:textBlock v:margins="rect(4,4,4,4)" v:verticalAlign="0"/>
				<v:textRect cx="74.7896" cy="499.317" width="149.58" height="112.527"/>
				<rect x="0" y="443.053" width="149.579" height="112.527" class="st3"/>
				<text x="40.89" y="457.85" class="st4" v:langID="1033"><v:paragraph v:horizAlign="1"/><v:tabList/>Brick 0 (1x4)</text>			</g>
			<g id="shape76-40" v:mID="76" v:groupContext="shape" transform="translate(12.4575,-72)">
				<title>Sheet.76</title>
				<desc>CSI Lane 0, 2.5 GB/sec</desc>
				<v:textBlock v:margins="rect(4,4,4,4)"/>
				<v:textRect cx="61.8108" cy="545.373" width="123.63" height="20.415"/>
				<rect x="0" y="535.165" width="123.622" height="20.415" rx="3.6" ry="3.6" class="st5"/>
				<text x="10.78" y="548.37" class="st6" v:langID="1033"><v:paragraph v:horizAlign="1"/><v:tabList/>CSI Lane 0, 2.5 GB/sec</text>			</g>
			<g id="shape77-43" v:mID="77" v:groupContext="shape" transform="translate(12.4575,-51.585)">
				<title>Sheet.77</title>
				<desc>CSI Lane 1, 2.5 GB/sec</desc>
				<v:textBlock v:margins="rect(4,4,4,4)"/>
				<v:textRect cx="61.8108" cy="545.373" width="123.63" height="20.415"/>
				<rect x="0" y="535.165" width="123.622" height="20.415" rx="3.6" ry="3.6" class="st5"/>
				<text x="10.78" y="548.37" class="st6" v:langID="1033"><v:paragraph v:horizAlign="1"/><v:tabList/>CSI Lane 1, 2.5 GB/sec</text>			</g>
			<g id="shape78-46" v:mID="78" v:groupContext="shape" transform="translate(12.4575,-31.335)">
				<title>Sheet.78</title>
				<desc>CSI Lane 2, 2.5 GB/sec</desc>
				<v:textBlock v:margins="rect(4,4,4,4)"/>
				<v:textRect cx="61.8108" cy="545.373" width="123.63" height="20.415"/>
				<rect x="0" y="535.165" width="123.622" height="20.415" rx="3.6" ry="3.6" class="st5"/>
				<text x="10.78" y="548.37" class="st6" v:langID="1033"><v:paragraph v:horizAlign="1"/><v:tabList/>CSI Lane 2, 2.5 GB/sec</text>			</g>
			<g id="shape79-49" v:mID="79" v:groupContext="shape" transform="translate(12.4575,-11.2925)">
				<title>Sheet.79</title>
				<desc>CSI Lane 3, 2.5 GB/sec</desc>
				<v:textBlock v:margins="rect(4,4,4,4)"/>
				<v:textRect cx="61.8108" cy="545.373" width="123.63" height="20.415"/>
				<rect x="0" y="535.165" width="123.622" height="20.415" rx="3.6" ry="3.6" class="st5"/>
				<text x="10.78" y="548.37" class="st6" v:langID="1033"><v:paragraph v:horizAlign="1"/><v:tabList/>CSI Lane 3, 2.5 GB/sec</text>			</g>
		</g>
		<g id="group145-52" transform="translate(18.5,-408.189)" v:mID="145" v:groupContext="group">
			<title>Sheet.145</title>
			<g id="shape110-53" v:mID="110" v:groupContext="shape" transform="translate(314.453,-16.5313) rotate(25.3213)">
				<title>Sheet.110</title>
				<path d="M0 555.58 L32.92 555.58" class="st7"/>
			</g>
			<g id="shape111-59" v:mID="111" v:groupContext="shape" transform="translate(112.5,-20.4095)">
				<title>Sheet.111</title>
				<desc>Aggregator 0</desc>
				<v:textBlock v:margins="rect(4,4,4,4)"/>
				<v:textRect cx="49.125" cy="536.455" width="98.25" height="38.25"/>
				<rect x="0" y="517.33" width="98.25" height="38.25" class="st9"/>
				<text x="20.61" y="539.46" class="st10" v:langID="1033"><v:paragraph v:horizAlign="1"/><v:tabList/>Aggregator 0</text>			</g>
			<g id="shape112-62" v:mID="112" v:groupContext="shape" transform="translate(261.171,1070.61) rotate(180)">
				<title>Sheet.112</title>
				<path d="M6.18 555.58 L6.54 555.58 L50.5 555.58" class="st11"/>
			</g>
			<g id="shape113-68" v:mID="113" v:groupContext="shape" transform="translate(7.99361E-15,-59.7075)">
				<title>Sheet.113</title>
				<desc>Camera 0</desc>
				<v:textBlock v:margins="rect(4,4,4,4)"/>
				<v:textRect cx="38.4175" cy="545.373" width="76.84" height="20.415"/>
				<rect x="0" y="535.165" width="76.835" height="20.415" rx="3.6" ry="3.6" class="st9"/>
				<text x="17.22" y="548.37" class="st10" v:langID="1033"><v:paragraph v:horizAlign="1"/><v:tabList/>Camera 0</text>			</g>
			<g id="shape114-71" v:mID="114" v:groupContext="shape" transform="translate(7.99361E-15,-39.2925)">
				<title>Sheet.114</title>
				<desc>Camera 1</desc>
				<v:textBlock v:margins="rect(4,4,4,4)"/>
				<v:textRect cx="38.4175" cy="545.373" width="76.84" height="20.415"/>
				<rect x="0" y="535.165" width="76.835" height="20.415" rx="3.6" ry="3.6" class="st9"/>
				<text x="17.22" y="548.37" class="st10" v:langID="1033"><v:paragraph v:horizAlign="1"/><v:tabList/>Camera 1</text>			</g>
			<g id="shape115-74" v:mID="115" v:groupContext="shape" transform="translate(7.99361E-15,-19.0425)">
				<title>Sheet.115</title>
				<desc>Camera 2</desc>
				<v:textBlock v:margins="rect(4,4,4,4)"/>
				<v:textRect cx="38.4175" cy="545.373" width="76.84" height="20.415"/>
				<rect x="0" y="535.165" width="76.835" height="20.415" rx="3.6" ry="3.6" class="st9"/>
				<text x="17.22" y="548.37" class="st10" v:langID="1033"><v:paragraph v:horizAlign="1"/><v:tabList/>Camera 2</text>			</g>
			<g id="shape116-77" v:mID="116" v:groupContext="shape">
				<title>Sheet.116</title>
				<desc>Camera 3</desc>
				<v:textBlock v:margins="rect(4,4,4,4)"/>
				<v:textRect cx="38.4175" cy="545.373" width="76.84" height="20.415"/>
				<rect x="0" y="535.165" width="76.835" height="20.415" rx="3.6" ry="3.6" class="st9"/>
				<text x="17.22" y="548.37" class="st10" v:langID="1033"><v:paragraph v:horizAlign="1"/><v:tabList/>Camera 3</text>			</g>
			<g id="shape117-80" v:mID="117" v:groupContext="shape" transform="translate(180.151,-41.0937) rotate(10.7171)">
				<title>Sheet.117</title>
				<path d="M0 555.58 L29.76 555.58" class="st7"/>
			</g>
			<g id="shape118-85" v:mID="118" v:groupContext="shape" transform="translate(-9.7199,-22.6258) rotate(-8.96273)">
				<title>Sheet.118</title>
				<path d="M0 555.58 L29.57 555.58" class="st7"/>
			</g>
			<g id="shape119-90" v:mID="119" v:groupContext="shape" transform="translate(-160.783,44.2187) rotate(-25.3213)">
				<title>Sheet.119</title>
				<path d="M0 555.58 L32.92 555.58" class="st7"/>
			</g>
		</g>
		<g id="group147-95" transform="translate(18.6709,-165.628)" v:mID="147" v:groupContext="group">
			<title>Sheet.147</title>
			<g id="shape120-96" v:mID="120" v:groupContext="shape" transform="translate(314.453,-16.5313) rotate(25.3213)">
				<title>Sheet.120</title>
				<path d="M0 555.58 L32.92 555.58" class="st7"/>
			</g>
			<g id="shape121-101" v:mID="121" v:groupContext="shape" transform="translate(112.5,-20.4095)">
				<title>Sheet.121</title>
				<desc>Aggregator 0</desc>
				<v:textBlock v:margins="rect(4,4,4,4)"/>
				<v:textRect cx="49.125" cy="536.455" width="98.25" height="38.25"/>
				<rect x="0" y="517.33" width="98.25" height="38.25" class="st9"/>
				<text x="20.61" y="539.46" class="st10" v:langID="1033"><v:paragraph v:horizAlign="1"/><v:tabList/>Aggregator 0</text>			</g>
			<g id="shape122-104" v:mID="122" v:groupContext="shape" transform="translate(261.171,1070.61) rotate(180)">
				<title>Sheet.122</title>
				<path d="M6.18 555.58 L6.54 555.58 L50.3 555.58" class="st11"/>
			</g>
			<g id="shape123-109" v:mID="123" v:groupContext="shape" transform="translate(7.99361E-15,-59.7075)">
				<title>Sheet.123</title>
				<desc>Camera 8</desc>
				<v:textBlock v:margins="rect(4,4,4,4)"/>
				<v:textRect cx="38.4175" cy="545.373" width="76.84" height="20.415"/>
				<rect x="0" y="535.165" width="76.835" height="20.415" rx="3.6" ry="3.6" class="st9"/>
				<text x="17.22" y="548.37" class="st10" v:langID="1033"><v:paragraph v:horizAlign="1"/><v:tabList/>Camera 8</text>			</g>
			<g id="shape124-112" v:mID="124" v:groupContext="shape" transform="translate(7.99361E-15,-39.2925)">
				<title>Sheet.124</title>
				<desc>Camera 9</desc>
				<v:textBlock v:margins="rect(4,4,4,4)"/>
				<v:textRect cx="38.4175" cy="545.373" width="76.84" height="20.415"/>
				<rect x="0" y="535.165" width="76.835" height="20.415" rx="3.6" ry="3.6" class="st9"/>
				<text x="17.22" y="548.37" class="st10" v:langID="1033"><v:paragraph v:horizAlign="1"/><v:tabList/>Camera 9</text>			</g>
			<g id="shape125-115" v:mID="125" v:groupContext="shape" transform="translate(7.99361E-15,-19.0425)">
				<title>Sheet.125</title>
				<desc>Camera 10</desc>
				<v:textBlock v:margins="rect(4,4,4,4)"/>
				<v:textRect cx="38.4175" cy="545.373" width="76.84" height="20.415"/>
				<rect x="0" y="535.165" width="76.835" height="20.415" rx="3.6" ry="3.6" class="st9"/>
				<text x="14.6" y="548.37" class="st10" v:langID="1033"><v:paragraph v:horizAlign="1"/><v:tabList/>Camera 10</text>			</g>
			<g id="shape126-118" v:mID="126" v:groupContext="shape">
				<title>Sheet.126</title>
				<desc>Camera 11</desc>
				<v:textBlock v:margins="rect(4,4,4,4)"/>
				<v:textRect cx="38.4175" cy="545.373" width="76.84" height="20.415"/>
				<rect x="0" y="535.165" width="76.835" height="20.415" rx="3.6" ry="3.6" class="st9"/>
				<text x="14.6" y="548.37" class="st10" v:langID="1033"><v:paragraph v:horizAlign="1"/><v:tabList/>Camera 11</text>			</g>
			<g id="shape127-121" v:mID="127" v:groupContext="shape" transform="translate(180.151,-41.0937) rotate(10.7171)">
				<title>Sheet.127</title>
				<path d="M0 555.58 L29.76 555.58" class="st7"/>
			</g>
			<g id="shape128-126" v:mID="128" v:groupContext="shape" transform="translate(-9.7199,-22.6258) rotate(-8.96273)">
				<title>Sheet.128</title>
				<path d="M0 555.58 L29.57 555.58" class="st7"/>
			</g>
			<g id="shape129-131" v:mID="129" v:groupContext="shape" transform="translate(-160.783,44.2187) rotate(-25.3213)">
				<title>Sheet.129</title>
				<path d="M0 555.58 L32.92 555.58" class="st7"/>
			</g>
		</g>
		<g id="group148-136" transform="translate(18.6709,-44.1275)" v:mID="148" v:groupContext="group">
			<title>Sheet.148</title>
			<g id="shape130-137" v:mID="130" v:groupContext="shape" transform="translate(314.453,-16.5313) rotate(25.3213)">
				<title>Sheet.130</title>
				<path d="M0 555.58 L32.92 555.58" class="st7"/>
			</g>
			<g id="shape131-142" v:mID="131" v:groupContext="shape" transform="translate(112.5,-20.4095)">
				<title>Sheet.131</title>
				<desc>Aggregator 0</desc>
				<v:textBlock v:margins="rect(4,4,4,4)"/>
				<v:textRect cx="49.125" cy="536.455" width="98.25" height="38.25"/>
				<rect x="0" y="517.33" width="98.25" height="38.25" class="st9"/>
				<text x="20.61" y="539.46" class="st10" v:langID="1033"><v:paragraph v:horizAlign="1"/><v:tabList/>Aggregator 0</text>			</g>
			<g id="shape132-145" v:mID="132" v:groupContext="shape" transform="translate(261.171,1070.61) rotate(180)">
				<title>Sheet.132</title>
				<path d="M6.18 555.58 L6.54 555.58 L50.3 555.58" class="st11"/>
			</g>
			<g id="shape133-150" v:mID="133" v:groupContext="shape" transform="translate(7.99361E-15,-59.7075)">
				<title>Sheet.133</title>
				<desc>Camera 12</desc>
				<v:textBlock v:margins="rect(4,4,4,4)"/>
				<v:textRect cx="38.4175" cy="545.373" width="76.84" height="20.415"/>
				<rect x="0" y="535.165" width="76.835" height="20.415" rx="3.6" ry="3.6" class="st9"/>
				<text x="14.6" y="548.37" class="st10" v:langID="1033"><v:paragraph v:horizAlign="1"/><v:tabList/>Camera 12</text>			</g>
			<g id="shape134-153" v:mID="134" v:groupContext="shape" transform="translate(7.99361E-15,-39.2925)">
				<title>Sheet.134</title>
				<desc>Camera 13</desc>
				<v:textBlock v:margins="rect(4,4,4,4)"/>
				<v:textRect cx="38.4175" cy="545.373" width="76.84" height="20.415"/>
				<rect x="0" y="535.165" width="76.835" height="20.415" rx="3.6" ry="3.6" class="st9"/>
				<text x="14.6" y="548.37" class="st10" v:langID="1033"><v:paragraph v:horizAlign="1"/><v:tabList/>Camera 13</text>			</g>
			<g id="shape135-156" v:mID="135" v:groupContext="shape" transform="translate(7.99361E-15,-19.0425)">
				<title>Sheet.135</title>
				<desc>Camera 14</desc>
				<v:textBlock v:margins="rect(4,4,4,4)"/>
				<v:textRect cx="38.4175" cy="545.373" width="76.84" height="20.415"/>
				<rect x="0" y="535.165" width="76.835" height="20.415" rx="3.6" ry="3.6" class="st9"/>
				<text x="14.6" y="548.37" class="st10" v:langID="1033"><v:paragraph v:horizAlign="1"/><v:tabList/>Camera 14</text>			</g>
			<g id="shape136-159" v:mID="136" v:groupContext="shape">
				<title>Sheet.136</title>
				<desc>Camera 15</desc>
				<v:textBlock v:margins="rect(4,4,4,4)"/>
				<v:textRect cx="38.4175" cy="545.373" width="76.84" height="20.415"/>
				<rect x="0" y="535.165" width="76.835" height="20.415" rx="3.6" ry="3.6" class="st9"/>
				<text x="14.6" y="548.37" class="st10" v:langID="1033"><v:paragraph v:horizAlign="1"/><v:tabList/>Camera 15</text>			</g>
			<g id="shape137-162" v:mID="137" v:groupContext="shape" transform="translate(180.151,-41.0937) rotate(10.7171)">
				<title>Sheet.137</title>
				<path d="M0 555.58 L29.76 555.58" class="st7"/>
			</g>
			<g id="shape138-167" v:mID="138" v:groupContext="shape" transform="translate(-9.7199,-22.6258) rotate(-8.96273)">
				<title>Sheet.138</title>
				<path d="M0 555.58 L29.57 555.58" class="st7"/>
			</g>
			<g id="shape139-172" v:mID="139" v:groupContext="shape" transform="translate(-160.783,44.2187) rotate(-25.3213)">
				<title>Sheet.139</title>
				<path d="M0 555.58 L32.92 555.58" class="st7"/>
			</g>
		</g>
		<g id="shape149-177" v:mID="149" v:groupContext="shape" transform="translate(482.171,-244.027)">
			<title>Sheet.149</title>
			<desc>VI muxer</desc>
			<v:textBlock v:margins="rect(4,4,4,4)"/>
			<v:textRect cx="45" cy="528.58" width="90" height="54"/>
			<rect x="0" y="501.58" width="90" height="54" class="st3"/>
			<text x="17.15" y="532.78" class="st12" v:langID="1033"><v:paragraph v:horizAlign="1"/><v:tabList/>VI muxer</text>		</g>
		<g id="shape150-180" v:mID="150" v:groupContext="shape" transform="translate(612.671,-244.027)">
			<title>Sheet.150</title>
			<desc>Memory</desc>
			<v:textBlock v:margins="rect(4,4,4,4)"/>
			<v:textRect cx="45" cy="528.58" width="90" height="54"/>
			<rect x="0" y="501.58" width="90" height="54" class="st3"/>
			<text x="20.48" y="532.78" class="st12" v:langID="1033"><v:paragraph v:horizAlign="1"/><v:tabList/>Memory</text>		</g>
		<g id="shape152-183" v:mID="152" v:groupContext="shape" transform="translate(643.671,-115.263)">
			<title>Sheet.152</title>
			<desc>GPU</desc>
			<v:textBlock v:margins="rect(4,4,4,4)"/>
			<v:textRect cx="45" cy="528.58" width="90" height="54"/>
			<rect x="0" y="501.58" width="90" height="54" class="st3"/>
			<text x="31.82" y="532.78" class="st12" v:langID="1033"><v:paragraph v:horizAlign="1"/><v:tabList/>GPU</text>		</g>
		<g id="shape153-186" v:mID="153" v:groupContext="shape" transform="translate(527.171,-362.737)">
			<title>Sheet.153</title>
			<desc>Encoder</desc>
			<v:textBlock v:margins="rect(4,4,4,4)"/>
			<v:textRect cx="45" cy="528.58" width="90" height="54"/>
			<rect x="0" y="501.58" width="90" height="54" class="st3"/>
			<text x="19.77" y="532.78" class="st12" v:langID="1033"><v:paragraph v:horizAlign="1"/><v:tabList/>Encoder</text>		</g>
		<g id="shape154-189" v:mID="154" v:groupContext="shape" transform="translate(527.171,-115.263)">
			<title>Sheet.154</title>
			<desc>ISP</desc>
			<v:textBlock v:margins="rect(4,4,4,4)"/>
			<v:textRect cx="45" cy="528.58" width="90" height="54"/>
			<rect x="0" y="501.58" width="90" height="54" class="st3"/>
			<text x="35.78" y="532.78" class="st12" v:langID="1033"><v:paragraph v:horizAlign="1"/><v:tabList/>ISP</text>		</g>
		<g id="group159-192" transform="translate(643.671,-362.737)" v:mID="159" v:groupContext="group">
			<title>Sheet.159</title>
			<g id="shape155-193" v:mID="155" v:groupContext="shape" transform="translate(0,-27)">
				<title>Sheet.155</title>
				<desc>CPU</desc>
				<v:textBlock v:margins="rect(4,4,4,4)"/>
				<v:textRect cx="22.5" cy="542.08" width="45" height="27"/>
				<rect x="0" y="528.58" width="45" height="27" class="st3"/>
				<text x="9.87" y="546.28" class="st12" v:langID="1033"><v:paragraph v:horizAlign="1"/><v:tabList/>CPU</text>			</g>
			<g id="shape156-196" v:mID="156" v:groupContext="shape" transform="translate(45,-27)">
				<title>Sheet.156</title>
				<desc>CPU</desc>
				<v:textBlock v:margins="rect(4,4,4,4)"/>
				<v:textRect cx="22.5" cy="542.08" width="45" height="27"/>
				<rect x="0" y="528.58" width="45" height="27" class="st3"/>
				<text x="9.87" y="546.28" class="st12" v:langID="1033"><v:paragraph v:horizAlign="1"/><v:tabList/>CPU</text>			</g>
			<g id="shape157-199" v:mID="157" v:groupContext="shape">
				<title>Sheet.157</title>
				<desc>CPU</desc>
				<v:textBlock v:margins="rect(4,4,4,4)"/>
				<v:textRect cx="22.5" cy="542.08" width="45" height="27"/>
				<rect x="0" y="528.58" width="45" height="27" class="st3"/>
				<text x="9.87" y="546.28" class="st12" v:langID="1033"><v:paragraph v:horizAlign="1"/><v:tabList/>CPU</text>			</g>
			<g id="shape158-202" v:mID="158" v:groupContext="shape" transform="translate(45,0)">
				<title>Sheet.158</title>
				<desc>CPU</desc>
				<v:textBlock v:margins="rect(4,4,4,4)"/>
				<v:textRect cx="22.5" cy="542.08" width="45" height="27"/>
				<rect x="0" y="528.58" width="45" height="27" class="st3"/>
				<text x="9.87" y="546.28" class="st12" v:langID="1033"><v:paragraph v:horizAlign="1"/><v:tabList/>CPU</text>			</g>
		</g>
		<g id="group171-205" transform="translate(271.46,-275.527)" v:mID="171" v:groupContext="group">
			<title>Sheet.171</title>
			<g id="shape81-206" v:mID="81" v:groupContext="shape">
				<title>Sheet.81</title>
				<desc>Brick 1 (1x4)</desc>
				<v:textBlock v:margins="rect(4,4,4,4)" v:verticalAlign="0"/>
				<v:textRect cx="74.7896" cy="499.317" width="149.58" height="112.527"/>
				<rect x="0" y="443.053" width="149.579" height="112.527" class="st3"/>
				<text x="40.89" y="457.85" class="st4" v:langID="1033"><v:paragraph v:horizAlign="1"/><v:tabList/>Brick 1 (1x4)</text>			</g>
			<g id="shape82-209" v:mID="82" v:groupContext="shape" transform="translate(12.4575,-72)">
				<title>Sheet.82</title>
				<desc>CSI Lane 4, 2.5 GB/sec</desc>
				<v:textBlock v:margins="rect(4,4,4,4)"/>
				<v:textRect cx="61.8108" cy="545.373" width="123.63" height="20.415"/>
				<rect x="0" y="535.165" width="123.622" height="20.415" rx="3.6" ry="3.6" class="st5"/>
				<text x="10.78" y="548.37" class="st6" v:langID="1033"><v:paragraph v:horizAlign="1"/><v:tabList/>CSI Lane 4, 2.5 GB/sec</text>			</g>
			<g id="shape83-212" v:mID="83" v:groupContext="shape" transform="translate(12.4575,-51.585)">
				<title>Sheet.83</title>
				<desc>CSI Lane 5, 2.5 GB/sec</desc>
				<v:textBlock v:margins="rect(4,4,4,4)"/>
				<v:textRect cx="61.8108" cy="545.373" width="123.63" height="20.415"/>
				<rect x="0" y="535.165" width="123.622" height="20.415" rx="3.6" ry="3.6" class="st5"/>
				<text x="10.78" y="548.37" class="st6" v:langID="1033"><v:paragraph v:horizAlign="1"/><v:tabList/>CSI Lane 5, 2.5 GB/sec</text>			</g>
			<g id="shape84-215" v:mID="84" v:groupContext="shape" transform="translate(12.4575,-31.335)">
				<title>Sheet.84</title>
				<desc>CSI Lane 6, 2.5 GB/sec</desc>
				<v:textBlock v:margins="rect(4,4,4,4)"/>
				<v:textRect cx="61.8108" cy="545.373" width="123.63" height="20.415"/>
				<rect x="0" y="535.165" width="123.622" height="20.415" rx="3.6" ry="3.6" class="st5"/>
				<text x="10.78" y="548.37" class="st6" v:langID="1033"><v:paragraph v:horizAlign="1"/><v:tabList/>CSI Lane 6, 2.5 GB/sec</text>			</g>
			<g id="shape85-218" v:mID="85" v:groupContext="shape" transform="translate(12.4575,-11.2658)">
				<title>Sheet.85</title>
				<desc>CSI Lane 7, 2.5 GB/sec</desc>
				<v:textBlock v:margins="rect(4,4,4,4)"/>
				<v:textRect cx="61.8108" cy="545.373" width="123.63" height="20.415"/>
				<rect x="0" y="535.165" width="123.622" height="20.415" rx="3.6" ry="3.6" class="st5"/>
				<text x="10.78" y="548.37" class="st6" v:langID="1033"><v:paragraph v:horizAlign="1"/><v:tabList/>CSI Lane 7, 2.5 GB/sec</text>			</g>
		</g>
		<g id="group146-221" transform="translate(18.6709,-287.215)" v:mID="146" v:groupContext="group">
			<title>Sheet.146</title>
			<g id="shape28-222" v:mID="28" v:groupContext="shape" transform="translate(314.453,-16.5313) rotate(25.3213)">
				<title>Sheet.28</title>
				<path d="M0 555.58 L32.92 555.58" class="st7"/>
			</g>
			<g id="shape27-227" v:mID="27" v:groupContext="shape" transform="translate(112.5,-20.4095)">
				<title>Sheet.27</title>
				<desc>Aggregator 0</desc>
				<v:textBlock v:margins="rect(4,4,4,4)"/>
				<v:textRect cx="49.125" cy="536.455" width="98.25" height="38.25"/>
				<rect x="0" y="517.33" width="98.25" height="38.25" class="st9"/>
				<text x="20.61" y="539.46" class="st10" v:langID="1033"><v:paragraph v:horizAlign="1"/><v:tabList/>Aggregator 0</text>			</g>
			<g id="shape29-230" v:mID="29" v:groupContext="shape" transform="translate(261.171,1070.61) rotate(180)">
				<title>Sheet.29</title>
				<path d="M6.18 555.58 L6.54 555.58 L50.42 555.58" class="st11"/>
			</g>
			<g id="shape96-235" v:mID="96" v:groupContext="shape" transform="translate(7.99361E-15,-59.7075)">
				<title>Sheet.96</title>
				<desc>Camera 4</desc>
				<v:textBlock v:margins="rect(4,4,4,4)"/>
				<v:textRect cx="38.4175" cy="545.373" width="76.84" height="20.415"/>
				<rect x="0" y="535.165" width="76.835" height="20.415" rx="3.6" ry="3.6" class="st9"/>
				<text x="17.22" y="548.37" class="st10" v:langID="1033"><v:paragraph v:horizAlign="1"/><v:tabList/>Camera 4</text>			</g>
			<g id="shape97-238" v:mID="97" v:groupContext="shape" transform="translate(7.99361E-15,-39.2925)">
				<title>Sheet.97</title>
				<desc>Camera 5</desc>
				<v:textBlock v:margins="rect(4,4,4,4)"/>
				<v:textRect cx="38.4175" cy="545.373" width="76.84" height="20.415"/>
				<rect x="0" y="535.165" width="76.835" height="20.415" rx="3.6" ry="3.6" class="st9"/>
				<text x="17.22" y="548.37" class="st10" v:langID="1033"><v:paragraph v:horizAlign="1"/><v:tabList/>Camera 5</text>			</g>
			<g id="shape98-241" v:mID="98" v:groupContext="shape" transform="translate(7.99361E-15,-19.0425)">
				<title>Sheet.98</title>
				<desc>Camera 6</desc>
				<v:textBlock v:margins="rect(4,4,4,4)"/>
				<v:textRect cx="38.4175" cy="545.373" width="76.84" height="20.415"/>
				<rect x="0" y="535.165" width="76.835" height="20.415" rx="3.6" ry="3.6" class="st9"/>
				<text x="17.22" y="548.37" class="st10" v:langID="1033"><v:paragraph v:horizAlign="1"/><v:tabList/>Camera 6</text>			</g>
			<g id="shape99-244" v:mID="99" v:groupContext="shape">
				<title>Sheet.99</title>
				<desc>Camera 7</desc>
				<v:textBlock v:margins="rect(4,4,4,4)"/>
				<v:textRect cx="38.4175" cy="545.373" width="76.84" height="20.415"/>
				<rect x="0" y="535.165" width="76.835" height="20.415" rx="3.6" ry="3.6" class="st9"/>
				<text x="17.22" y="548.37" class="st10" v:langID="1033"><v:paragraph v:horizAlign="1"/><v:tabList/>Camera 7</text>			</g>
			<g id="shape107-247" v:mID="107" v:groupContext="shape" transform="translate(180.151,-41.0937) rotate(10.7171)">
				<title>Sheet.107</title>
				<path d="M0 555.58 L29.76 555.58" class="st7"/>
			</g>
			<g id="shape108-252" v:mID="108" v:groupContext="shape" transform="translate(-9.7199,-22.6258) rotate(-8.96273)">
				<title>Sheet.108</title>
				<path d="M0 555.58 L29.57 555.58" class="st7"/>
			</g>
			<g id="shape109-257" v:mID="109" v:groupContext="shape" transform="translate(-160.783,44.2187) rotate(-25.3213)">
				<title>Sheet.109</title>
				<path d="M0 555.58 L32.92 555.58" class="st7"/>
			</g>
		</g>
		<g id="shape172-262" v:mID="172" v:groupContext="shape" transform="translate(482.171,840.66) rotate(180)">
			<title>Sheet.172</title>
			<path d="M6.18 555.58 L6.54 555.58 L49.27 555.58" class="st11"/>
		</g>
		<g id="shape173-267" v:mID="173" v:groupContext="shape" transform="translate(612.671,840.66) rotate(180)">
			<title>Sheet.173</title>
			<path d="M6.18 555.58 L6.54 555.58 L40.5 555.58" class="st11"/>
		</g>
		<g id="shape174-272" v:mID="174" v:groupContext="shape" transform="translate(1188.04,436.013) rotate(115.956)">
			<title>Sheet.174</title>
			<path d="M6.18 555.58 L6.54 555.58 L71.97 555.58" class="st11"/>
		</g>
		<g id="shape175-277" v:mID="175" v:groupContext="shape" transform="translate(1098.04,-50.3255) rotate(64.0437)">
			<title>Sheet.175</title>
			<path d="M6.18 555.58 L6.54 555.58 L71.97 555.58" class="st11"/>
		</g>
		<g id="shape176-282" v:mID="176" v:groupContext="shape" transform="translate(86.5084,170.6) rotate(-67.1529)">
			<title>Sheet.176</title>
			<path d="M6.18 555.58 L6.54 555.58 L81.13 555.58" class="st11"/>
		</g>
		<g id="shape177-287" v:mID="177" v:groupContext="shape" transform="translate(156.569,560.92) rotate(-108.317)">
			<title>Sheet.177</title>
			<path d="M6.18 555.58 L6.54 555.58 L78.75 555.58" class="st11"/>
		</g>
	</g>
</svg>
