<?xml version="1.0" encoding="UTF-8" standalone="no"?>
<!DOCTYPE svg PUBLIC "-//W3C//DTD SVG 1.1//EN" "http://www.w3.org/Graphics/SVG/1.1/DTD/svg11.dtd">
<!-- Generated by Microsoft Visio, SVG Export CsiConnectivityJetsonAgxOrin24Cameras.svg CSI Connectivity Jetson AGX Orin 24 cameras -->
<svg xmlns="http://www.w3.org/2000/svg" xmlns:xlink="http://www.w3.org/1999/xlink" xmlns:ev="http://www.w3.org/2001/xml-events"
		xmlns:v="http://schemas.microsoft.com/visio/2003/SVGExtensions/" width="10.4538in" height="8.53583in"
		viewBox="0 0 752.671 614.58" xml:space="preserve" color-interpolation-filters="sRGB" class="st14">
	<v:documentProperties v:langID="1033" v:viewMarkup="false">
		<v:userDefs>
			<v:ud v:nameU="msvSubprocessMaster" v:prompt="" v:val="VT4(Rectangle)"/>
			<v:ud v:nameU="msvNoAutoConnect" v:val="VT0(1):26"/>
		</v:userDefs>
	</v:documentProperties>

	<style type="text/css">
	<![CDATA[
		.st1 {fill:#ddeebf;stroke:#000000;stroke-width:0.5}
		.st2 {fill:#000000;font-family:Trebuchet MS;font-size:1.16666em}
		.st3 {fill:#70ad47;stroke:#000000;stroke-width:0.5}
		.st4 {fill:#ffffff;font-family:Trebuchet MS;font-size:1.00001em}
		.st5 {fill:#375623;stroke:#ffffff;stroke-width:0.5}
		.st6 {fill:#ffffff;font-family:Trebuchet MS;font-size:0.833336em}
		.st7 {fill:#ffffff;font-family:Trebuchet MS;font-size:1.16666em}
		.st8 {marker-start:url(#mrkr4-69);stroke:#000000;stroke-linecap:round;stroke-linejoin:round;stroke-width:0.75}
		.st9 {fill:#000000;fill-opacity:1;stroke:#000000;stroke-opacity:1;stroke-width:0.22935779816514}
		.st10 {marker-end:url(#mrkr4-133);stroke:#000000;stroke-linecap:round;stroke-linejoin:round;stroke-width:0.75}
		.st11 {fill:#f2f2f2;stroke:#000000;stroke-width:0.5}
		.st12 {fill:#000000;font-family:Trebuchet MS;font-size:0.833336em}
		.st13 {font-size:1em}
		.st14 {fill:none;fill-rule:evenodd;font-size:12px;overflow:visible;stroke-linecap:square;stroke-miterlimit:3}
	]]>
	</style>

	<defs id="Markers">
		<g id="lend4">
			<path d="M 2 1 L 0 0 L 2 -1 L 2 1 " style="stroke:none"/>
		</g>
		<marker id="mrkr4-69" class="st9" v:arrowType="4" v:arrowSize="2" v:setback="8.24" refX="8.24" orient="auto"
				markerUnits="strokeWidth" overflow="visible">
			<use xlink:href="#lend4" transform="scale(4.36) "/>
		</marker>
		<marker id="mrkr4-133" class="st9" v:arrowType="4" v:arrowSize="2" v:setback="8.72" refX="-8.72" orient="auto"
				markerUnits="strokeWidth" overflow="visible">
			<use xlink:href="#lend4" transform="scale(-4.36,-4.36) "/>
		</marker>
	</defs>
	<g v:mID="14" v:index="5" v:groupContext="foregroundPage">
		<v:userDefs>
			<v:ud v:nameU="msvThemeOrder" v:val="VT0(0):26"/>
		</v:userDefs>
		<title>CSI Connectivity Jetson AGX Orin 24 cameras</title>
		<v:pageProperties v:drawingScale="1" v:pageScale="1" v:drawingUnits="0" v:shadowOffsetX="9" v:shadowOffsetY="-9"/>
		<g id="shape1-1" v:mID="1" v:groupContext="shape" transform="translate(253.171,-18.5)">
			<title>Sheet.1</title>
			<desc>CSI interface</desc>
			<v:textBlock v:margins="rect(8,4,4,4)" v:verticalAlign="0"/>
			<v:textRect cx="89.4146" cy="325.79" width="178.83" height="577.58"/>
			<rect x="0" y="37" width="178.829" height="577.58" class="st1"/>
			<text x="49.12" y="57.6" class="st2" v:langID="1033"><v:paragraph v:horizAlign="1"/><v:tabList/>CSI interface</text>		</g>
		<g id="group2-4" transform="translate(269.421,-30.875)" v:mID="2" v:groupContext="group">
			<title>Sheet.2</title>
			<g id="shape3-5" v:mID="3" v:groupContext="shape">
				<title>Sheet.3</title>
				<desc>Brick 3 (1x4)</desc>
				<v:textBlock v:margins="rect(4,4,4,4)" v:verticalAlign="0"/>
				<v:textRect cx="74.5396" cy="558.317" width="149.08" height="112.527"/>
				<rect x="0" y="502.053" width="149.079" height="112.527" class="st3"/>
				<text x="40.64" y="516.85" class="st4" v:langID="1033"><v:paragraph v:horizAlign="1"/><v:tabList/>Brick 3 (1x4)</text>			</g>
			<g id="shape4-8" v:mID="4" v:groupContext="shape" transform="translate(12.4575,-72)">
				<title>Sheet.4</title>
				<desc>CSI Lane 12, 2.5 GB/sec</desc>
				<v:textBlock v:margins="rect(4,4,4,4)"/>
				<v:textRect cx="61.5608" cy="604.373" width="123.13" height="20.415"/>
				<rect x="0" y="594.165" width="123.122" height="20.415" rx="3.6" ry="3.6" class="st5"/>
				<text x="7.91" y="607.37" class="st6" v:langID="1033"><v:paragraph v:horizAlign="1"/><v:tabList/>CSI Lane 12, 2.5 GB/sec</text>			</g>
			<g id="shape5-11" v:mID="5" v:groupContext="shape" transform="translate(12.4575,-51.585)">
				<title>Sheet.5</title>
				<desc>CSI Lane 13, 2.5 GB/sec</desc>
				<v:textBlock v:margins="rect(4,4,4,4)"/>
				<v:textRect cx="61.5608" cy="604.373" width="123.13" height="20.415"/>
				<rect x="0" y="594.165" width="123.122" height="20.415" rx="3.6" ry="3.6" class="st5"/>
				<text x="7.91" y="607.37" class="st6" v:langID="1033"><v:paragraph v:horizAlign="1"/><v:tabList/>CSI Lane 13, 2.5 GB/sec</text>			</g>
			<g id="shape6-14" v:mID="6" v:groupContext="shape" transform="translate(12.4575,-31.335)">
				<title>Sheet.6</title>
				<desc>CSI Lane 14, 2.5 GB/sec</desc>
				<v:textBlock v:margins="rect(4,4,4,4)"/>
				<v:textRect cx="61.5608" cy="604.373" width="123.13" height="20.415"/>
				<rect x="0" y="594.165" width="123.122" height="20.415" rx="3.6" ry="3.6" class="st5"/>
				<text x="7.91" y="607.37" class="st6" v:langID="1033"><v:paragraph v:horizAlign="1"/><v:tabList/>CSI Lane 14, 2.5 GB/sec</text>			</g>
			<g id="shape7-17" v:mID="7" v:groupContext="shape" transform="translate(12.4575,-11.375)">
				<title>Sheet.7</title>
				<desc>CSI Lane 15, 2.5 GB/sec</desc>
				<v:textBlock v:margins="rect(4,4,4,4)"/>
				<v:textRect cx="61.5608" cy="604.373" width="123.13" height="20.415"/>
				<rect x="0" y="594.165" width="123.122" height="20.415" rx="3.6" ry="3.6" class="st5"/>
				<text x="7.91" y="607.37" class="st6" v:langID="1033"><v:paragraph v:horizAlign="1"/><v:tabList/>CSI Lane 15, 2.5 GB/sec</text>			</g>
		</g>
		<g id="group8-20" transform="translate(269.421,-152.375)" v:mID="8" v:groupContext="group">
			<title>Sheet.8</title>
			<g id="shape9-21" v:mID="9" v:groupContext="shape">
				<title>Sheet.9</title>
				<desc>Brick 2 (1x4)</desc>
				<v:textBlock v:margins="rect(4,4,4,4)" v:verticalAlign="0"/>
				<v:textRect cx="74.5396" cy="558.317" width="149.08" height="112.527"/>
				<rect x="0" y="502.053" width="149.079" height="112.527" class="st3"/>
				<text x="40.64" y="516.85" class="st4" v:langID="1033"><v:paragraph v:horizAlign="1"/><v:tabList/>Brick 2 (1x4)</text>			</g>
			<g id="shape10-24" v:mID="10" v:groupContext="shape" transform="translate(12.4575,-72)">
				<title>Sheet.10</title>
				<desc>CSI Lane 8, 2.5 GB/sec</desc>
				<v:textBlock v:margins="rect(4,4,4,4)"/>
				<v:textRect cx="61.5608" cy="604.373" width="123.13" height="20.415"/>
				<rect x="0" y="594.165" width="123.122" height="20.415" rx="3.6" ry="3.6" class="st5"/>
				<text x="10.53" y="607.37" class="st6" v:langID="1033"><v:paragraph v:horizAlign="1"/><v:tabList/>CSI Lane 8, 2.5 GB/sec</text>			</g>
			<g id="shape11-27" v:mID="11" v:groupContext="shape" transform="translate(12.4575,-51.585)">
				<title>Sheet.11</title>
				<desc>CSI Lane 9, 2.5 GB/sec</desc>
				<v:textBlock v:margins="rect(4,4,4,4)"/>
				<v:textRect cx="61.5608" cy="604.373" width="123.13" height="20.415"/>
				<rect x="0" y="594.165" width="123.122" height="20.415" rx="3.6" ry="3.6" class="st5"/>
				<text x="10.53" y="607.37" class="st6" v:langID="1033"><v:paragraph v:horizAlign="1"/><v:tabList/>CSI Lane 9, 2.5 GB/sec</text>			</g>
			<g id="shape12-30" v:mID="12" v:groupContext="shape" transform="translate(12.4575,-31.335)">
				<title>Sheet.12</title>
				<desc>CSI Lane 10, 2.5 GB/sec</desc>
				<v:textBlock v:margins="rect(4,4,4,4)"/>
				<v:textRect cx="61.5608" cy="604.373" width="123.13" height="20.415"/>
				<rect x="0" y="594.165" width="123.122" height="20.415" rx="3.6" ry="3.6" class="st5"/>
				<text x="7.91" y="607.37" class="st6" v:langID="1033"><v:paragraph v:horizAlign="1"/><v:tabList/>CSI Lane 10, 2.5 GB/sec</text>			</g>
			<g id="shape13-33" v:mID="13" v:groupContext="shape" transform="translate(12.4575,-11.375)">
				<title>Sheet.13</title>
				<desc>CSI Lane 11, 2.5 GB/sec</desc>
				<v:textBlock v:margins="rect(4,4,4,4)"/>
				<v:textRect cx="61.5608" cy="604.373" width="123.13" height="20.415"/>
				<rect x="0" y="594.165" width="123.122" height="20.415" rx="3.6" ry="3.6" class="st5"/>
				<text x="7.91" y="607.37" class="st6" v:langID="1033"><v:paragraph v:horizAlign="1"/><v:tabList/>CSI Lane 11, 2.5 GB/sec</text>			</g>
		</g>
		<g id="shape53-36" v:mID="53" v:groupContext="shape" transform="translate(482.671,-303.027)">
			<title>Sheet.53</title>
			<desc>VI muxer</desc>
			<v:textBlock v:margins="rect(4,4,4,4)"/>
			<v:textRect cx="45" cy="587.58" width="90" height="54"/>
			<rect x="0" y="560.58" width="90" height="54" class="st3"/>
			<text x="17.15" y="591.78" class="st7" v:langID="1033"><v:paragraph v:horizAlign="1"/><v:tabList/>VI muxer</text>		</g>
		<g id="shape54-39" v:mID="54" v:groupContext="shape" transform="translate(613.171,-303.027)">
			<title>Sheet.54</title>
			<desc>Memory</desc>
			<v:textBlock v:margins="rect(4,4,4,4)"/>
			<v:textRect cx="45" cy="587.58" width="90" height="54"/>
			<rect x="0" y="560.58" width="90" height="54" class="st3"/>
			<text x="20.48" y="591.78" class="st7" v:langID="1033"><v:paragraph v:horizAlign="1"/><v:tabList/>Memory</text>		</g>
		<g id="shape55-42" v:mID="55" v:groupContext="shape" transform="translate(644.171,-174.263)">
			<title>Sheet.55</title>
			<desc>GPU</desc>
			<v:textBlock v:margins="rect(4,4,4,4)"/>
			<v:textRect cx="45" cy="587.58" width="90" height="54"/>
			<rect x="0" y="560.58" width="90" height="54" class="st3"/>
			<text x="31.82" y="591.78" class="st7" v:langID="1033"><v:paragraph v:horizAlign="1"/><v:tabList/>GPU</text>		</g>
		<g id="shape56-45" v:mID="56" v:groupContext="shape" transform="translate(527.671,-421.737)">
			<title>Sheet.56</title>
			<desc>Encoder</desc>
			<v:textBlock v:margins="rect(4,4,4,4)"/>
			<v:textRect cx="45" cy="587.58" width="90" height="54"/>
			<rect x="0" y="560.58" width="90" height="54" class="st3"/>
			<text x="19.77" y="591.78" class="st7" v:langID="1033"><v:paragraph v:horizAlign="1"/><v:tabList/>Encoder</text>		</g>
		<g id="shape57-48" v:mID="57" v:groupContext="shape" transform="translate(527.671,-174.263)">
			<title>Sheet.57</title>
			<desc>ISP</desc>
			<v:textBlock v:margins="rect(4,4,4,4)"/>
			<v:textRect cx="45" cy="587.58" width="90" height="54"/>
			<rect x="0" y="560.58" width="90" height="54" class="st3"/>
			<text x="35.78" y="591.78" class="st7" v:langID="1033"><v:paragraph v:horizAlign="1"/><v:tabList/>ISP</text>		</g>
		<g id="group58-51" transform="translate(644.171,-421.737)" v:mID="58" v:groupContext="group">
			<title>Sheet.58</title>
			<g id="shape59-52" v:mID="59" v:groupContext="shape" transform="translate(0,-27)">
				<title>Sheet.59</title>
				<desc>CPU</desc>
				<v:textBlock v:margins="rect(4,4,4,4)"/>
				<v:textRect cx="22.5" cy="601.08" width="45" height="27"/>
				<rect x="0" y="587.58" width="45" height="27" class="st3"/>
				<text x="9.87" y="605.28" class="st7" v:langID="1033"><v:paragraph v:horizAlign="1"/><v:tabList/>CPU</text>			</g>
			<g id="shape60-55" v:mID="60" v:groupContext="shape" transform="translate(45,-27)">
				<title>Sheet.60</title>
				<desc>CPU</desc>
				<v:textBlock v:margins="rect(4,4,4,4)"/>
				<v:textRect cx="22.5" cy="601.08" width="45" height="27"/>
				<rect x="0" y="587.58" width="45" height="27" class="st3"/>
				<text x="9.87" y="605.28" class="st7" v:langID="1033"><v:paragraph v:horizAlign="1"/><v:tabList/>CPU</text>			</g>
			<g id="shape61-58" v:mID="61" v:groupContext="shape">
				<title>Sheet.61</title>
				<desc>CPU</desc>
				<v:textBlock v:margins="rect(4,4,4,4)"/>
				<v:textRect cx="22.5" cy="601.08" width="45" height="27"/>
				<rect x="0" y="587.58" width="45" height="27" class="st3"/>
				<text x="9.87" y="605.28" class="st7" v:langID="1033"><v:paragraph v:horizAlign="1"/><v:tabList/>CPU</text>			</g>
			<g id="shape62-61" v:mID="62" v:groupContext="shape" transform="translate(45,0)">
				<title>Sheet.62</title>
				<desc>CPU</desc>
				<v:textBlock v:margins="rect(4,4,4,4)"/>
				<v:textRect cx="22.5" cy="601.08" width="45" height="27"/>
				<rect x="0" y="587.58" width="45" height="27" class="st3"/>
				<text x="9.87" y="605.28" class="st7" v:langID="1033"><v:paragraph v:horizAlign="1"/><v:tabList/>CPU</text>			</g>
		</g>
		<g id="shape80-64" v:mID="80" v:groupContext="shape" transform="translate(482.671,899.66) rotate(180)">
			<title>Sheet.80</title>
			<path d="M6.18 614.58 L6.54 614.58 L50.67 614.58" class="st8"/>
		</g>
		<g id="shape81-70" v:mID="81" v:groupContext="shape" transform="translate(613.171,899.66) rotate(180)">
			<title>Sheet.81</title>
			<path d="M6.18 614.58 L6.54 614.58 L40.5 614.58" class="st8"/>
		</g>
		<g id="shape82-75" v:mID="82" v:groupContext="shape" transform="translate(1241.59,461.836) rotate(115.956)">
			<title>Sheet.82</title>
			<path d="M6.18 614.58 L6.54 614.58 L71.97 614.58" class="st8"/>
		</g>
		<g id="shape83-80" v:mID="83" v:groupContext="shape" transform="translate(1151.59,-76.1489) rotate(64.0437)">
			<title>Sheet.83</title>
			<path d="M6.18 614.58 L6.54 614.58 L71.97 614.58" class="st8"/>
		</g>
		<g id="shape84-85" v:mID="84" v:groupContext="shape" transform="translate(32.6373,147.692) rotate(-67.1529)">
			<title>Sheet.84</title>
			<path d="M6.18 614.58 L6.54 614.58 L81.13 614.58" class="st8"/>
		</g>
		<g id="shape85-90" v:mID="85" v:groupContext="shape" transform="translate(101.059,579.462) rotate(-108.317)">
			<title>Sheet.85</title>
			<path d="M6.18 614.58 L6.54 614.58 L78.75 614.58" class="st8"/>
		</g>
		<g id="group100-95" transform="translate(269.421,-425.75)" v:mID="100" v:groupContext="group">
			<title>Sheet.100</title>
			<g id="shape15-96" v:mID="15" v:groupContext="shape">
				<title>Sheet.15</title>
				<desc>Brick 0 (1x4)</desc>
				<v:textBlock v:margins="rect(4,4,4,4)" v:verticalAlign="0"/>
				<v:textRect cx="74.5396" cy="543.192" width="149.08" height="142.777"/>
				<rect x="0" y="471.803" width="149.079" height="142.777" class="st3"/>
				<text x="40.64" y="486.6" class="st4" v:langID="1033"><v:paragraph v:horizAlign="1"/><v:tabList/>Brick 0 (1x4)</text>			</g>
			<g id="shape16-99" v:mID="16" v:groupContext="shape" transform="translate(12.4575,-102.25)">
				<title>Sheet.16</title>
				<desc>CSI Lane 0, 2.5 GB/sec</desc>
				<v:textBlock v:margins="rect(4,4,4,4)"/>
				<v:textRect cx="61.5608" cy="604.373" width="123.13" height="20.415"/>
				<rect x="0" y="594.165" width="123.122" height="20.415" rx="3.6" ry="3.6" class="st5"/>
				<text x="10.53" y="607.37" class="st6" v:langID="1033"><v:paragraph v:horizAlign="1"/><v:tabList/>CSI Lane 0, 2.5 GB/sec</text>			</g>
			<g id="shape17-102" v:mID="17" v:groupContext="shape" transform="translate(12.4575,-81.835)">
				<title>Sheet.17</title>
				<desc>CSI Lane 1, 2.5 GB/sec</desc>
				<v:textBlock v:margins="rect(4,4,4,4)"/>
				<v:textRect cx="61.5608" cy="604.373" width="123.13" height="20.415"/>
				<rect x="0" y="594.165" width="123.122" height="20.415" rx="3.6" ry="3.6" class="st5"/>
				<text x="10.53" y="607.37" class="st6" v:langID="1033"><v:paragraph v:horizAlign="1"/><v:tabList/>CSI Lane 1, 2.5 GB/sec</text>			</g>
			<g id="shape18-105" v:mID="18" v:groupContext="shape" transform="translate(12.4575,-31.335)">
				<title>Sheet.18</title>
				<desc>CSI Lane 2, 2.5 GB/sec</desc>
				<v:textBlock v:margins="rect(4,4,4,4)"/>
				<v:textRect cx="61.5608" cy="604.373" width="123.13" height="20.415"/>
				<rect x="0" y="594.165" width="123.122" height="20.415" rx="3.6" ry="3.6" class="st5"/>
				<text x="10.53" y="607.37" class="st6" v:langID="1033"><v:paragraph v:horizAlign="1"/><v:tabList/>CSI Lane 2, 2.5 GB/sec</text>			</g>
			<g id="shape19-108" v:mID="19" v:groupContext="shape" transform="translate(12.4575,-11.7712)">
				<title>Sheet.19</title>
				<desc>CSI Lane 3, 2.5 GB/sec</desc>
				<v:textBlock v:margins="rect(4,4,4,4)"/>
				<v:textRect cx="61.5608" cy="604.373" width="123.13" height="20.415"/>
				<rect x="0" y="594.165" width="123.122" height="20.415" rx="3.6" ry="3.6" class="st5"/>
				<text x="10.53" y="607.37" class="st6" v:langID="1033"><v:paragraph v:horizAlign="1"/><v:tabList/>CSI Lane 3, 2.5 GB/sec</text>			</g>
		</g>
		<g id="group101-111" transform="translate(269.421,-273.875)" v:mID="101" v:groupContext="group">
			<title>Sheet.101</title>
			<g id="shape102-112" v:mID="102" v:groupContext="shape">
				<title>Sheet.102</title>
				<desc>Brick 0 (1x4)</desc>
				<v:textBlock v:margins="rect(4,4,4,4)" v:verticalAlign="0"/>
				<v:textRect cx="74.5396" cy="543.192" width="149.08" height="142.777"/>
				<rect x="0" y="471.803" width="149.079" height="142.777" class="st3"/>
				<text x="40.64" y="486.6" class="st4" v:langID="1033"><v:paragraph v:horizAlign="1"/><v:tabList/>Brick 0 (1x4)</text>			</g>
			<g id="shape103-115" v:mID="103" v:groupContext="shape" transform="translate(12.4575,-102.25)">
				<title>Sheet.103</title>
				<desc>CSI Lane 0, 2.5 GB/sec</desc>
				<v:textBlock v:margins="rect(4,4,4,4)"/>
				<v:textRect cx="61.5608" cy="604.373" width="123.13" height="20.415"/>
				<rect x="0" y="594.165" width="123.122" height="20.415" rx="3.6" ry="3.6" class="st5"/>
				<text x="10.53" y="607.37" class="st6" v:langID="1033"><v:paragraph v:horizAlign="1"/><v:tabList/>CSI Lane 0, 2.5 GB/sec</text>			</g>
			<g id="shape104-118" v:mID="104" v:groupContext="shape" transform="translate(12.4575,-81.835)">
				<title>Sheet.104</title>
				<desc>CSI Lane 1, 2.5 GB/sec</desc>
				<v:textBlock v:margins="rect(4,4,4,4)"/>
				<v:textRect cx="61.5608" cy="604.373" width="123.13" height="20.415"/>
				<rect x="0" y="594.165" width="123.122" height="20.415" rx="3.6" ry="3.6" class="st5"/>
				<text x="10.53" y="607.37" class="st6" v:langID="1033"><v:paragraph v:horizAlign="1"/><v:tabList/>CSI Lane 1, 2.5 GB/sec</text>			</g>
			<g id="shape105-121" v:mID="105" v:groupContext="shape" transform="translate(12.4575,-31.335)">
				<title>Sheet.105</title>
				<desc>CSI Lane 2, 2.5 GB/sec</desc>
				<v:textBlock v:margins="rect(4,4,4,4)"/>
				<v:textRect cx="61.5608" cy="604.373" width="123.13" height="20.415"/>
				<rect x="0" y="594.165" width="123.122" height="20.415" rx="3.6" ry="3.6" class="st5"/>
				<text x="10.53" y="607.37" class="st6" v:langID="1033"><v:paragraph v:horizAlign="1"/><v:tabList/>CSI Lane 2, 2.5 GB/sec</text>			</g>
			<g id="shape106-124" v:mID="106" v:groupContext="shape" transform="translate(12.4575,-11.7712)">
				<title>Sheet.106</title>
				<desc>CSI Lane 3, 2.5 GB/sec</desc>
				<v:textBlock v:margins="rect(4,4,4,4)"/>
				<v:textRect cx="61.5608" cy="604.373" width="123.13" height="20.415"/>
				<rect x="0" y="594.165" width="123.122" height="20.415" rx="3.6" ry="3.6" class="st5"/>
				<text x="10.53" y="607.37" class="st6" v:langID="1033"><v:paragraph v:horizAlign="1"/><v:tabList/>CSI Lane 3, 2.5 GB/sec</text>			</g>
		</g>
		<g id="group87-127" transform="translate(19,-498.84)" v:mID="87" v:groupContext="group">
			<title>Sheet.87</title>
			<g id="shape21-128" v:mID="21" v:groupContext="shape" transform="translate(215.394,-34.6352) rotate(13.0296)">
				<title>Sheet.21</title>
				<path d="M0 614.58 L30.07 614.58" class="st10"/>
			</g>
			<g id="shape22-134" v:mID="22" v:groupContext="shape" transform="translate(112.5,-9.58)">
				<title>Sheet.22</title>
				<desc>Aggregator 0 x2/x1</desc>
				<v:textBlock v:margins="rect(4,4,4,4)"/>
				<v:textRect cx="49.125" cy="595.455" width="98.25" height="38.25"/>
				<rect x="0" y="576.33" width="98.25" height="38.25" class="st11"/>
				<text x="20.61" y="592.46" class="st12" v:langID="1033"><v:paragraph v:horizAlign="1"/><v:tabList/>Aggregator 0<v:newlineChar/><tspan
							x="36.25" dy="1.2em" class="st13">x2/x1</tspan></text>			</g>
			<g id="shape23-138" v:mID="23" v:groupContext="shape" transform="translate(261.171,1199.44) rotate(180)">
				<title>Sheet.23</title>
				<path d="M6.18 614.58 L6.54 614.58 L50.5 614.58" class="st8"/>
			</g>
			<g id="shape28-143" v:mID="28" v:groupContext="shape" transform="translate(125.607,-34.106) rotate(4.55166)">
				<title>Sheet.28</title>
				<path d="M0 614.58 L29.24 614.58" class="st10"/>
			</g>
			<g id="shape29-148" v:mID="29" v:groupContext="shape" transform="translate(28.9767,-19.553) rotate(-4.46623)">
				<title>Sheet.29</title>
				<path d="M0 614.58 L29.23 614.58" class="st10"/>
			</g>
			<g id="shape30-153" v:mID="30" v:groupContext="shape" transform="translate(-55.2461,7.00399) rotate(-12.4104)">
				<title>Sheet.30</title>
				<path d="M0 614.58 L29.98 614.58" class="st10"/>
			</g>
			<g id="group86-158" v:mID="86" v:groupContext="group">
				<title>Sheet.86</title>
				<g id="shape24-159" v:mID="24" v:groupContext="shape" transform="translate(0,-43.3567)">
					<title>Sheet.24</title>
					<desc>Camera 0</desc>
					<v:textBlock v:margins="rect(4,4,4,4)"/>
					<v:textRect cx="38.4175" cy="607.38" width="76.84" height="14.4"/>
					<rect x="0" y="600.18" width="76.835" height="14.4" rx="3.6" ry="3.6" class="st11"/>
					<text x="17.22" y="610.38" class="st12" v:langID="1033"><v:paragraph v:horizAlign="1"/><v:tabList/>Camera 0</text>				</g>
				<g id="shape25-162" v:mID="25" v:groupContext="shape" transform="translate(0,-28.7738)">
					<title>Sheet.25</title>
					<desc>Camera 1</desc>
					<v:textBlock v:margins="rect(4,4,4,4)"/>
					<v:textRect cx="38.4175" cy="607.38" width="76.84" height="14.4"/>
					<rect x="0" y="600.18" width="76.835" height="14.4" rx="3.6" ry="3.6" class="st11"/>
					<text x="17.22" y="610.38" class="st12" v:langID="1033"><v:paragraph v:horizAlign="1"/><v:tabList/>Camera 1</text>				</g>
				<g id="shape26-165" v:mID="26" v:groupContext="shape" transform="translate(0,-14.3025)">
					<title>Sheet.26</title>
					<desc>Camera 2</desc>
					<v:textBlock v:margins="rect(4,4,4,4)"/>
					<v:textRect cx="38.4175" cy="607.38" width="76.84" height="14.4"/>
					<rect x="0" y="600.18" width="76.835" height="14.4" rx="3.6" ry="3.6" class="st11"/>
					<text x="17.22" y="610.38" class="st12" v:langID="1033"><v:paragraph v:horizAlign="1"/><v:tabList/>Camera 2</text>				</g>
				<g id="shape27-168" v:mID="27" v:groupContext="shape">
					<title>Sheet.27</title>
					<desc>Camera 3</desc>
					<v:textBlock v:margins="rect(4,4,4,4)"/>
					<v:textRect cx="38.4175" cy="607.38" width="76.84" height="14.4"/>
					<rect x="0" y="600.18" width="76.835" height="14.4" rx="3.6" ry="3.6" class="st11"/>
					<text x="17.22" y="610.38" class="st12" v:langID="1033"><v:paragraph v:horizAlign="1"/><v:tabList/>Camera 3</text>				</g>
			</g>
		</g>
		<g id="group88-171" transform="translate(18.5,-429.09)" v:mID="88" v:groupContext="group">
			<title>Sheet.88</title>
			<g id="shape89-172" v:mID="89" v:groupContext="shape" transform="translate(215.394,-34.6352) rotate(13.0296)">
				<title>Sheet.89</title>
				<path d="M0 614.58 L30.07 614.58" class="st10"/>
			</g>
			<g id="shape90-177" v:mID="90" v:groupContext="shape" transform="translate(112.5,-9.58)">
				<title>Sheet.90</title>
				<desc>Aggregator 1 x2/x1</desc>
				<v:textBlock v:margins="rect(4,4,4,4)"/>
				<v:textRect cx="49.125" cy="595.455" width="98.25" height="38.25"/>
				<rect x="0" y="576.33" width="98.25" height="38.25" class="st11"/>
				<text x="20.61" y="592.46" class="st12" v:langID="1033"><v:paragraph v:horizAlign="1"/><v:tabList/>Aggregator 1<v:newlineChar/><tspan
							x="36.25" dy="1.2em" class="st13">x2/x1</tspan></text>			</g>
			<g id="shape91-181" v:mID="91" v:groupContext="shape" transform="translate(261.171,1199.44) rotate(180)">
				<title>Sheet.91</title>
				<path d="M6.18 614.58 L6.54 614.58 L50.5 614.58" class="st8"/>
			</g>
			<g id="shape92-186" v:mID="92" v:groupContext="shape" transform="translate(125.607,-34.106) rotate(4.55166)">
				<title>Sheet.92</title>
				<path d="M0 614.58 L29.24 614.58" class="st10"/>
			</g>
			<g id="shape93-191" v:mID="93" v:groupContext="shape" transform="translate(28.9767,-19.553) rotate(-4.46623)">
				<title>Sheet.93</title>
				<path d="M0 614.58 L29.23 614.58" class="st10"/>
			</g>
			<g id="shape94-196" v:mID="94" v:groupContext="shape" transform="translate(-55.2461,7.00399) rotate(-12.4104)">
				<title>Sheet.94</title>
				<path d="M0 614.58 L29.98 614.58" class="st10"/>
			</g>
			<g id="group95-201" v:mID="95" v:groupContext="group">
				<title>Sheet.95</title>
				<g id="shape96-202" v:mID="96" v:groupContext="shape" transform="translate(0,-43.3567)">
					<title>Sheet.96</title>
					<desc>Camera 4</desc>
					<v:textBlock v:margins="rect(4,4,4,4)"/>
					<v:textRect cx="38.4175" cy="607.38" width="76.84" height="14.4"/>
					<rect x="0" y="600.18" width="76.835" height="14.4" rx="3.6" ry="3.6" class="st11"/>
					<text x="17.22" y="610.38" class="st12" v:langID="1033"><v:paragraph v:horizAlign="1"/><v:tabList/>Camera 4</text>				</g>
				<g id="shape97-205" v:mID="97" v:groupContext="shape" transform="translate(0,-28.7738)">
					<title>Sheet.97</title>
					<desc>Camera 5</desc>
					<v:textBlock v:margins="rect(4,4,4,4)"/>
					<v:textRect cx="38.4175" cy="607.38" width="76.84" height="14.4"/>
					<rect x="0" y="600.18" width="76.835" height="14.4" rx="3.6" ry="3.6" class="st11"/>
					<text x="17.22" y="610.38" class="st12" v:langID="1033"><v:paragraph v:horizAlign="1"/><v:tabList/>Camera 5</text>				</g>
				<g id="shape98-208" v:mID="98" v:groupContext="shape" transform="translate(0,-14.3025)">
					<title>Sheet.98</title>
					<desc>Camera 6</desc>
					<v:textBlock v:margins="rect(4,4,4,4)"/>
					<v:textRect cx="38.4175" cy="607.38" width="76.84" height="14.4"/>
					<rect x="0" y="600.18" width="76.835" height="14.4" rx="3.6" ry="3.6" class="st11"/>
					<text x="17.22" y="610.38" class="st12" v:langID="1033"><v:paragraph v:horizAlign="1"/><v:tabList/>Camera 6</text>				</g>
				<g id="shape99-211" v:mID="99" v:groupContext="shape">
					<title>Sheet.99</title>
					<desc>Camera 7</desc>
					<v:textBlock v:margins="rect(4,4,4,4)"/>
					<v:textRect cx="38.4175" cy="607.38" width="76.84" height="14.4"/>
					<rect x="0" y="600.18" width="76.835" height="14.4" rx="3.6" ry="3.6" class="st11"/>
					<text x="17.22" y="610.38" class="st12" v:langID="1033"><v:paragraph v:horizAlign="1"/><v:tabList/>Camera 7</text>				</g>
			</g>
		</g>
		<g id="group120-214" transform="translate(19,-346.42)" v:mID="120" v:groupContext="group">
			<title>Sheet.120</title>
			<g id="shape121-215" v:mID="121" v:groupContext="shape" transform="translate(215.394,-34.6352) rotate(13.0296)">
				<title>Sheet.121</title>
				<path d="M0 614.58 L30.07 614.58" class="st10"/>
			</g>
			<g id="shape122-220" v:mID="122" v:groupContext="shape" transform="translate(112.5,-9.58)">
				<title>Sheet.122</title>
				<desc>Aggregator 2 x2/x1</desc>
				<v:textBlock v:margins="rect(4,4,4,4)"/>
				<v:textRect cx="49.125" cy="595.455" width="98.25" height="38.25"/>
				<rect x="0" y="576.33" width="98.25" height="38.25" class="st11"/>
				<text x="20.61" y="592.46" class="st12" v:langID="1033"><v:paragraph v:horizAlign="1"/><v:tabList/>Aggregator 2<v:newlineChar/><tspan
							x="36.25" dy="1.2em" class="st13">x2/x1</tspan></text>			</g>
			<g id="shape123-224" v:mID="123" v:groupContext="shape" transform="translate(261.171,1199.44) rotate(180)">
				<title>Sheet.123</title>
				<path d="M6.18 614.58 L6.54 614.58 L50.5 614.58" class="st8"/>
			</g>
			<g id="shape124-229" v:mID="124" v:groupContext="shape" transform="translate(125.607,-34.106) rotate(4.55166)">
				<title>Sheet.124</title>
				<path d="M0 614.58 L29.24 614.58" class="st10"/>
			</g>
			<g id="shape125-234" v:mID="125" v:groupContext="shape" transform="translate(28.9767,-19.553) rotate(-4.46623)">
				<title>Sheet.125</title>
				<path d="M0 614.58 L29.23 614.58" class="st10"/>
			</g>
			<g id="shape126-239" v:mID="126" v:groupContext="shape" transform="translate(-55.2461,7.00399) rotate(-12.4104)">
				<title>Sheet.126</title>
				<path d="M0 614.58 L29.98 614.58" class="st10"/>
			</g>
			<g id="group127-244" v:mID="127" v:groupContext="group">
				<title>Sheet.127</title>
				<g id="shape128-245" v:mID="128" v:groupContext="shape" transform="translate(0,-43.3567)">
					<title>Sheet.128</title>
					<desc>Camera 8</desc>
					<v:textBlock v:margins="rect(4,4,4,4)"/>
					<v:textRect cx="38.4175" cy="607.38" width="76.84" height="14.4"/>
					<rect x="0" y="600.18" width="76.835" height="14.4" rx="3.6" ry="3.6" class="st11"/>
					<text x="17.22" y="610.38" class="st12" v:langID="1033"><v:paragraph v:horizAlign="1"/><v:tabList/>Camera 8</text>				</g>
				<g id="shape129-248" v:mID="129" v:groupContext="shape" transform="translate(0,-28.7738)">
					<title>Sheet.129</title>
					<desc>Camera 9</desc>
					<v:textBlock v:margins="rect(4,4,4,4)"/>
					<v:textRect cx="38.4175" cy="607.38" width="76.84" height="14.4"/>
					<rect x="0" y="600.18" width="76.835" height="14.4" rx="3.6" ry="3.6" class="st11"/>
					<text x="17.22" y="610.38" class="st12" v:langID="1033"><v:paragraph v:horizAlign="1"/><v:tabList/>Camera 9</text>				</g>
				<g id="shape130-251" v:mID="130" v:groupContext="shape" transform="translate(0,-14.3025)">
					<title>Sheet.130</title>
					<desc>Camera 10</desc>
					<v:textBlock v:margins="rect(4,4,4,4)"/>
					<v:textRect cx="38.4175" cy="607.38" width="76.84" height="14.4"/>
					<rect x="0" y="600.18" width="76.835" height="14.4" rx="3.6" ry="3.6" class="st11"/>
					<text x="14.6" y="610.38" class="st12" v:langID="1033"><v:paragraph v:horizAlign="1"/><v:tabList/>Camera 10</text>				</g>
				<g id="shape131-254" v:mID="131" v:groupContext="shape">
					<title>Sheet.131</title>
					<desc>Camera 11</desc>
					<v:textBlock v:margins="rect(4,4,4,4)"/>
					<v:textRect cx="38.4175" cy="607.38" width="76.84" height="14.4"/>
					<rect x="0" y="600.18" width="76.835" height="14.4" rx="3.6" ry="3.6" class="st11"/>
					<text x="14.6" y="610.38" class="st12" v:langID="1033"><v:paragraph v:horizAlign="1"/><v:tabList/>Camera 11</text>				</g>
			</g>
		</g>
		<g id="group132-257" transform="translate(18.5,-276.67)" v:mID="132" v:groupContext="group">
			<title>Sheet.132</title>
			<g id="shape133-258" v:mID="133" v:groupContext="shape" transform="translate(215.394,-34.6352) rotate(13.0296)">
				<title>Sheet.133</title>
				<path d="M0 614.58 L30.07 614.58" class="st10"/>
			</g>
			<g id="shape134-263" v:mID="134" v:groupContext="shape" transform="translate(112.5,-9.58)">
				<title>Sheet.134</title>
				<desc>Aggregator 3 x2/x1</desc>
				<v:textBlock v:margins="rect(4,4,4,4)"/>
				<v:textRect cx="49.125" cy="595.455" width="98.25" height="38.25"/>
				<rect x="0" y="576.33" width="98.25" height="38.25" class="st11"/>
				<text x="20.61" y="592.46" class="st12" v:langID="1033"><v:paragraph v:horizAlign="1"/><v:tabList/>Aggregator 3<v:newlineChar/><tspan
							x="36.25" dy="1.2em" class="st13">x2/x1</tspan></text>			</g>
			<g id="shape135-267" v:mID="135" v:groupContext="shape" transform="translate(261.171,1199.44) rotate(180)">
				<title>Sheet.135</title>
				<path d="M6.18 614.58 L6.54 614.58 L50.5 614.58" class="st8"/>
			</g>
			<g id="shape136-272" v:mID="136" v:groupContext="shape" transform="translate(125.607,-34.106) rotate(4.55166)">
				<title>Sheet.136</title>
				<path d="M0 614.58 L29.24 614.58" class="st10"/>
			</g>
			<g id="shape137-277" v:mID="137" v:groupContext="shape" transform="translate(28.9767,-19.553) rotate(-4.46623)">
				<title>Sheet.137</title>
				<path d="M0 614.58 L29.23 614.58" class="st10"/>
			</g>
			<g id="shape138-282" v:mID="138" v:groupContext="shape" transform="translate(-55.2461,7.00399) rotate(-12.4104)">
				<title>Sheet.138</title>
				<path d="M0 614.58 L29.98 614.58" class="st10"/>
			</g>
			<g id="group139-287" v:mID="139" v:groupContext="group">
				<title>Sheet.139</title>
				<g id="shape140-288" v:mID="140" v:groupContext="shape" transform="translate(0,-43.3567)">
					<title>Sheet.140</title>
					<desc>Camera 12</desc>
					<v:textBlock v:margins="rect(4,4,4,4)"/>
					<v:textRect cx="38.4175" cy="607.38" width="76.84" height="14.4"/>
					<rect x="0" y="600.18" width="76.835" height="14.4" rx="3.6" ry="3.6" class="st11"/>
					<text x="14.6" y="610.38" class="st12" v:langID="1033"><v:paragraph v:horizAlign="1"/><v:tabList/>Camera 12</text>				</g>
				<g id="shape141-291" v:mID="141" v:groupContext="shape" transform="translate(0,-28.7738)">
					<title>Sheet.141</title>
					<desc>Camera 13</desc>
					<v:textBlock v:margins="rect(4,4,4,4)"/>
					<v:textRect cx="38.4175" cy="607.38" width="76.84" height="14.4"/>
					<rect x="0" y="600.18" width="76.835" height="14.4" rx="3.6" ry="3.6" class="st11"/>
					<text x="14.6" y="610.38" class="st12" v:langID="1033"><v:paragraph v:horizAlign="1"/><v:tabList/>Camera 13</text>				</g>
				<g id="shape142-294" v:mID="142" v:groupContext="shape" transform="translate(0,-14.3025)">
					<title>Sheet.142</title>
					<desc>Camera 14</desc>
					<v:textBlock v:margins="rect(4,4,4,4)"/>
					<v:textRect cx="38.4175" cy="607.38" width="76.84" height="14.4"/>
					<rect x="0" y="600.18" width="76.835" height="14.4" rx="3.6" ry="3.6" class="st11"/>
					<text x="14.6" y="610.38" class="st12" v:langID="1033"><v:paragraph v:horizAlign="1"/><v:tabList/>Camera 14</text>				</g>
				<g id="shape143-297" v:mID="143" v:groupContext="shape">
					<title>Sheet.143</title>
					<desc>Camera 15</desc>
					<v:textBlock v:margins="rect(4,4,4,4)"/>
					<v:textRect cx="38.4175" cy="607.38" width="76.84" height="14.4"/>
					<rect x="0" y="600.18" width="76.835" height="14.4" rx="3.6" ry="3.6" class="st11"/>
					<text x="14.6" y="610.38" class="st12" v:langID="1033"><v:paragraph v:horizAlign="1"/><v:tabList/>Camera 15</text>				</g>
			</g>
		</g>
		<g id="group144-300" transform="translate(19,-173.75)" v:mID="144" v:groupContext="group">
			<title>Sheet.144</title>
			<g id="shape145-301" v:mID="145" v:groupContext="shape" transform="translate(215.394,-34.6352) rotate(13.0296)">
				<title>Sheet.145</title>
				<path d="M0 614.58 L30.07 614.58" class="st10"/>
			</g>
			<g id="shape146-306" v:mID="146" v:groupContext="shape" transform="translate(112.5,-9.58)">
				<title>Sheet.146</title>
				<desc>Aggregator 4 x4/x2/x1</desc>
				<v:textBlock v:margins="rect(4,4,4,4)"/>
				<v:textRect cx="49.125" cy="595.455" width="98.25" height="38.25"/>
				<rect x="0" y="576.33" width="98.25" height="38.25" class="st11"/>
				<text x="20.61" y="592.46" class="st12" v:langID="1033"><v:paragraph v:horizAlign="1"/><v:tabList/>Aggregator 4<v:newlineChar/><tspan
							x="28.5" dy="1.2em" class="st13">x4/x2/x1</tspan></text>			</g>
			<g id="shape147-310" v:mID="147" v:groupContext="shape" transform="translate(261.171,1199.44) rotate(180)">
				<title>Sheet.147</title>
				<path d="M6.18 614.58 L6.54 614.58 L50.5 614.58" class="st8"/>
			</g>
			<g id="shape148-315" v:mID="148" v:groupContext="shape" transform="translate(125.607,-34.106) rotate(4.55166)">
				<title>Sheet.148</title>
				<path d="M0 614.58 L29.24 614.58" class="st10"/>
			</g>
			<g id="shape149-320" v:mID="149" v:groupContext="shape" transform="translate(28.9767,-19.553) rotate(-4.46623)">
				<title>Sheet.149</title>
				<path d="M0 614.58 L29.23 614.58" class="st10"/>
			</g>
			<g id="shape150-325" v:mID="150" v:groupContext="shape" transform="translate(-55.2461,7.00399) rotate(-12.4104)">
				<title>Sheet.150</title>
				<path d="M0 614.58 L29.98 614.58" class="st10"/>
			</g>
			<g id="group151-330" v:mID="151" v:groupContext="group">
				<title>Sheet.151</title>
				<g id="shape152-331" v:mID="152" v:groupContext="shape" transform="translate(0,-43.3567)">
					<title>Sheet.152</title>
					<desc>Camera 16</desc>
					<v:textBlock v:margins="rect(4,4,4,4)"/>
					<v:textRect cx="38.4175" cy="607.38" width="76.84" height="14.4"/>
					<rect x="0" y="600.18" width="76.835" height="14.4" rx="3.6" ry="3.6" class="st11"/>
					<text x="14.6" y="610.38" class="st12" v:langID="1033"><v:paragraph v:horizAlign="1"/><v:tabList/>Camera 16</text>				</g>
				<g id="shape153-334" v:mID="153" v:groupContext="shape" transform="translate(0,-28.7738)">
					<title>Sheet.153</title>
					<desc>Camera 17</desc>
					<v:textBlock v:margins="rect(4,4,4,4)"/>
					<v:textRect cx="38.4175" cy="607.38" width="76.84" height="14.4"/>
					<rect x="0" y="600.18" width="76.835" height="14.4" rx="3.6" ry="3.6" class="st11"/>
					<text x="14.6" y="610.38" class="st12" v:langID="1033"><v:paragraph v:horizAlign="1"/><v:tabList/>Camera 17</text>				</g>
				<g id="shape154-337" v:mID="154" v:groupContext="shape" transform="translate(0,-14.3025)">
					<title>Sheet.154</title>
					<desc>Camera 18</desc>
					<v:textBlock v:margins="rect(4,4,4,4)"/>
					<v:textRect cx="38.4175" cy="607.38" width="76.84" height="14.4"/>
					<rect x="0" y="600.18" width="76.835" height="14.4" rx="3.6" ry="3.6" class="st11"/>
					<text x="14.6" y="610.38" class="st12" v:langID="1033"><v:paragraph v:horizAlign="1"/><v:tabList/>Camera 18</text>				</g>
				<g id="shape155-340" v:mID="155" v:groupContext="shape">
					<title>Sheet.155</title>
					<desc>Camera 19</desc>
					<v:textBlock v:margins="rect(4,4,4,4)"/>
					<v:textRect cx="38.4175" cy="607.38" width="76.84" height="14.4"/>
					<rect x="0" y="600.18" width="76.835" height="14.4" rx="3.6" ry="3.6" class="st11"/>
					<text x="14.6" y="610.38" class="st12" v:langID="1033"><v:paragraph v:horizAlign="1"/><v:tabList/>Camera 19</text>				</g>
			</g>
		</g>
		<g id="group156-343" transform="translate(18.5,-52.795)" v:mID="156" v:groupContext="group">
			<title>Sheet.156</title>
			<g id="shape157-344" v:mID="157" v:groupContext="shape" transform="translate(215.394,-34.6352) rotate(13.0296)">
				<title>Sheet.157</title>
				<path d="M0 614.58 L30.07 614.58" class="st10"/>
			</g>
			<g id="shape158-349" v:mID="158" v:groupContext="shape" transform="translate(112.5,-9.58)">
				<title>Sheet.158</title>
				<desc>Aggregator 5 x4/x2/x1</desc>
				<v:textBlock v:margins="rect(4,4,4,4)"/>
				<v:textRect cx="49.125" cy="595.455" width="98.25" height="38.25"/>
				<rect x="0" y="576.33" width="98.25" height="38.25" class="st11"/>
				<text x="20.61" y="592.46" class="st12" v:langID="1033"><v:paragraph v:horizAlign="1"/><v:tabList/>Aggregator 5<v:newlineChar/><tspan
							x="28.5" dy="1.2em" class="st13">x4/x2/x1</tspan></text>			</g>
			<g id="shape159-353" v:mID="159" v:groupContext="shape" transform="translate(261.171,1199.44) rotate(180)">
				<title>Sheet.159</title>
				<path d="M6.18 614.58 L6.54 614.58 L50.5 614.58" class="st8"/>
			</g>
			<g id="shape160-358" v:mID="160" v:groupContext="shape" transform="translate(125.607,-34.106) rotate(4.55166)">
				<title>Sheet.160</title>
				<path d="M0 614.58 L29.24 614.58" class="st10"/>
			</g>
			<g id="shape161-363" v:mID="161" v:groupContext="shape" transform="translate(28.9767,-19.553) rotate(-4.46623)">
				<title>Sheet.161</title>
				<path d="M0 614.58 L29.23 614.58" class="st10"/>
			</g>
			<g id="shape162-368" v:mID="162" v:groupContext="shape" transform="translate(-55.2461,7.00399) rotate(-12.4104)">
				<title>Sheet.162</title>
				<path d="M0 614.58 L29.98 614.58" class="st10"/>
			</g>
			<g id="group163-373" v:mID="163" v:groupContext="group">
				<title>Sheet.163</title>
				<g id="shape164-374" v:mID="164" v:groupContext="shape" transform="translate(0,-43.3567)">
					<title>Sheet.164</title>
					<desc>Camera 20</desc>
					<v:textBlock v:margins="rect(4,4,4,4)"/>
					<v:textRect cx="38.4175" cy="607.38" width="76.84" height="14.4"/>
					<rect x="0" y="600.18" width="76.835" height="14.4" rx="3.6" ry="3.6" class="st11"/>
					<text x="14.6" y="610.38" class="st12" v:langID="1033"><v:paragraph v:horizAlign="1"/><v:tabList/>Camera 20</text>				</g>
				<g id="shape165-377" v:mID="165" v:groupContext="shape" transform="translate(0,-28.7738)">
					<title>Sheet.165</title>
					<desc>Camera 21</desc>
					<v:textBlock v:margins="rect(4,4,4,4)"/>
					<v:textRect cx="38.4175" cy="607.38" width="76.84" height="14.4"/>
					<rect x="0" y="600.18" width="76.835" height="14.4" rx="3.6" ry="3.6" class="st11"/>
					<text x="14.6" y="610.38" class="st12" v:langID="1033"><v:paragraph v:horizAlign="1"/><v:tabList/>Camera 21</text>				</g>
				<g id="shape166-380" v:mID="166" v:groupContext="shape" transform="translate(0,-14.3025)">
					<title>Sheet.166</title>
					<desc>Camera 22</desc>
					<v:textBlock v:margins="rect(4,4,4,4)"/>
					<v:textRect cx="38.4175" cy="607.38" width="76.84" height="14.4"/>
					<rect x="0" y="600.18" width="76.835" height="14.4" rx="3.6" ry="3.6" class="st11"/>
					<text x="14.6" y="610.38" class="st12" v:langID="1033"><v:paragraph v:horizAlign="1"/><v:tabList/>Camera 22</text>				</g>
				<g id="shape167-383" v:mID="167" v:groupContext="shape">
					<title>Sheet.167</title>
					<desc>Camera 23</desc>
					<v:textBlock v:margins="rect(4,4,4,4)"/>
					<v:textRect cx="38.4175" cy="607.38" width="76.84" height="14.4"/>
					<rect x="0" y="600.18" width="76.835" height="14.4" rx="3.6" ry="3.6" class="st11"/>
					<text x="14.6" y="610.38" class="st12" v:langID="1033"><v:paragraph v:horizAlign="1"/><v:tabList/>Camera 23</text>				</g>
			</g>
		</g>
	</g>
</svg>
