<?xml version="1.0" encoding="UTF-8" standalone="no"?>
<!DOCTYPE svg PUBLIC "-//W3C//DTD SVG 1.1//EN" "http://www.w3.org/Graphics/SVG/1.1/DTD/svg11.dtd">
<!-- Generated by Microsoft Visio, SVG Export DspkModule.svg DSPK Module -->
<svg xmlns="http://www.w3.org/2000/svg" xmlns:xlink="http://www.w3.org/1999/xlink" xmlns:ev="http://www.w3.org/2001/xml-events"
		xmlns:v="http://schemas.microsoft.com/visio/2003/SVGExtensions/" width="4.52211in" height="2.25355in"
		viewBox="0 0 325.592 162.256" xml:space="preserve" color-interpolation-filters="sRGB" class="st13">
	<v:documentProperties v:langID="1033" v:viewMarkup="false">
		<v:userDefs>
			<v:ud v:nameU="msvNoAutoConnect" v:val="VT0(1):26"/>
			<v:ud v:nameU="msvConvertTheme"/>
		</v:userDefs>
	</v:documentProperties>

	<style type="text/css">
	<![CDATA[
		.st1 {stroke:#404040;stroke-linecap:round;stroke-linejoin:round;stroke-width:0.959067}
		.st2 {stroke:none;stroke-linecap:round;stroke-linejoin:round;stroke-width:0.75}
		.st3 {fill:#000000;font-family:Trebuchet MS;font-size:1.33333em}
		.st4 {fill:#000000;font-family:Trebuchet MS;font-size:1.00001em}
		.st5 {marker-end:url(#mrkr4-20);marker-start:url(#mrkr4-18);stroke:#404040;stroke-linecap:round;stroke-linejoin:round;stroke-width:0.959067}
		.st6 {fill:#404040;fill-opacity:1;stroke:#404040;stroke-opacity:1;stroke-width:0.39976661463543}
		.st7 {stroke:#404040;stroke-linecap:round;stroke-linejoin:round;stroke-width:1}
		.st8 {fill:#f2f2f2;stroke:#000000;stroke-linecap:round;stroke-linejoin:round;stroke-width:0.75}
		.st9 {fill:#000000;font-family:Trebuchet MS;font-size:0.75em}
		.st10 {stroke:#000000;stroke-dasharray:2.25,2.25;stroke-linecap:round;stroke-linejoin:round;stroke-width:0.75}
		.st11 {fill:#000000;font-family:Trebuchet MS;font-size:0.833336em}
		.st12 {marker-start:url(#mrkr4-18);stroke:#404040;stroke-linecap:round;stroke-linejoin:round;stroke-width:0.959067}
		.st13 {fill:none;fill-rule:evenodd;font-size:12px;overflow:visible;stroke-linecap:square;stroke-miterlimit:3}
	]]>
	</style>

	<defs id="Markers">
		<g id="lend4">
			<path d="M 2 1 L 0 0 L 2 -1 L 2 1 " style="stroke:none"/>
		</g>
		<marker id="mrkr4-18" class="st6" v:arrowType="4" v:arrowSize="0" v:setback="4.62755" refX="4.6275541426737" orient="auto"
				markerUnits="strokeWidth" overflow="visible">
			<use xlink:href="#lend4" transform="scale(2.5014595100993) "/>
		</marker>
		<marker id="mrkr4-20" class="st6" v:arrowType="4" v:arrowSize="0" v:setback="5.00292" refX="-5.0029190201986" orient="auto"
				markerUnits="strokeWidth" overflow="visible">
			<use xlink:href="#lend4" transform="scale(-2.5014595100993,-2.5014595100993) "/>
		</marker>
	</defs>
	<g v:mID="34" v:index="11" v:groupContext="foregroundPage">
		<title>DSPK Module</title>
		<v:pageProperties v:drawingScale="1" v:pageScale="1" v:drawingUnits="19" v:shadowOffsetX="9" v:shadowOffsetY="-9"/>
		<g id="shape1-1" v:mID="1" v:groupContext="shape" transform="translate(113.364,-72.7517)">
			<title>Sheet.1</title>
			<path d="M0 162.26 L107.86 162.26 L107.86 125.78 L0 125.78 L0 162.26 L0 162.26" class="st1"/>
		</g>
		<g id="shape2-4" v:mID="2" v:groupContext="shape" transform="translate(144.805,-126.81)">
			<title>Sheet.2</title>
			<desc>DSPK</desc>
			<v:textBlock v:margins="rect(0,0,0,0)"/>
			<v:textRect cx="22.5" cy="154.41" width="45" height="15.6912"/>
			<path d="M45 146.56 L0 146.56 L0 162.26 L45 162.26 L45 146.56" class="st2"/>
			<text x="4.68" y="159.21" class="st3" v:langID="1033"><v:paragraph v:horizAlign="1"/><v:tabList/>DSPK</text>		</g>
		<g id="shape3-8" v:mID="3" v:groupContext="shape" transform="translate(231.141,-114.406)">
			<title>Sheet.3</title>
			<desc>Codec side</desc>
			<v:textBlock v:margins="rect(0,0,0,0)"/>
			<v:textRect cx="31.5" cy="153.704" width="63" height="17.1033"/>
			<path d="M63 145.15 L0 145.15 L0 162.26 L63 162.26 L63 145.15" class="st2"/>
			<text x="5.08" y="157.3" class="st4" v:langID="1033"><v:paragraph v:horizAlign="2"/><v:tabList/>Codec side</text>		</g>
		<g id="shape4-12" v:mID="4" v:groupContext="shape" transform="translate(113.383,-60.817)">
			<title>Sheet.4</title>
			<path d="M4.44 162.26 L4.8 162.26 L103.05 162.26" class="st5"/>
		</g>
		<g id="shape5-21" v:mID="5" v:groupContext="shape" transform="translate(117.805,-41)">
			<title>Sheet.5</title>
			<desc>DAPM Widgets</desc>
			<v:textBlock v:margins="rect(0,0,0,0)"/>
			<v:textRect cx="49.5" cy="152.39" width="99" height="19.7311"/>
			<path d="M99 142.52 L0 142.52 L0 162.26 L99 162.26 L99 142.52" class="st2"/>
			<text x="11.61" y="155.99" class="st4" v:langID="1033"><v:paragraph v:horizAlign="1"/><v:tabList/>DAPM Widgets</text>		</g>
		<g id="shape6-25" v:mID="6" v:groupContext="shape" transform="translate(220.297,-49.9105)">
			<title>Sheet.6</title>
			<desc>DAP DAI</desc>
			<v:textBlock v:margins="rect(0,0,0,0)"/>
			<v:textRect cx="42.5557" cy="153.599" width="85.12" height="17.3131"/>
			<path d="M85.11 144.94 L0 144.94 L0 162.26 L85.11 162.26 L85.11 144.94" class="st2"/>
			<text x="21.29" y="157.2" class="st4" v:langID="1033"><v:paragraph v:horizAlign="1"/><v:tabList/>DAP DAI</text>		</g>
		<g id="shape7-29" v:mID="7" v:groupContext="shape" transform="translate(299.977,-72.5) scale(-1,1)">
			<title>Side brace.2</title>
			<v:userDefs>
				<v:ud v:nameU="TxtW" v:val="VT0(0.55555555555556):29"/>
				<v:ud v:nameU="TxtA" v:val="VT0(1.5707963267949):32"/>
				<v:ud v:nameU="TxtAState" v:val="VT0(0):26"/>
				<v:ud v:nameU="TxtWState" v:val="VT0(0):26"/>
				<v:ud v:nameU="MaxRadius" v:val="VT0(0.25):1"/>
				<v:ud v:nameU="PosCH1" v:prompt="Constrains X position of Control Handle #1" v:val="VT0(0):26"/>
				<v:ud v:nameU="PosCH2" v:prompt="Constrains Y position of Control Handle #2" v:val="VT0(0):26"/>
				<v:ud v:nameU="Scale" v:val="VT0(1):26"/>
				<v:ud v:nameU="AntiScale" v:val="VT0(1):26"/>
				<v:ud v:nameU="visVersion" v:val="VT0(15):26"/>
				<v:ud v:nameU="TxtW" v:prompt="" v:val="VT0(0.69444444444444):3"/>
				<v:ud v:nameU="TxtA" v:prompt="" v:val="VT0(-1.5707963267949):32"/>
				<v:ud v:nameU="MaxRadius" v:prompt="" v:val="VT0(0.0625):1"/>
			</v:userDefs>
			<path d="M0 157.76 A4.49993 4.49993 -180 0 0 4.5 162.26 L32.63 162.26 A4.49993 4.49993 0 0 1 37.13 166.76 A4.49993 4.49993
						 0 0 1 41.63 162.26 L69.75 162.26 A4.49993 4.49993 -180 0 0 74.25 157.76" class="st7"/>
		</g>
		<g id="shape8-32" v:mID="8" v:groupContext="shape" transform="translate(113.364,-84.4563)">
			<title>Sheet.8</title>
			<desc>CIF RX</desc>
			<v:textBlock v:margins="rect(4,2,4,2)"/>
			<v:textRect cx="20.1814" cy="155.506" width="40.37" height="13.5"/>
			<rect x="0" y="148.756" width="40.3628" height="13.5" class="st8"/>
			<text x="7.4" y="158.21" class="st9" v:langID="1033"><v:paragraph v:horizAlign="1"/><v:tabList/>CIF RX</text>		</g>
		<g id="shape9-35" v:mID="9" v:groupContext="shape" transform="translate(153.727,-90.7811)">
			<title>Sheet.9</title>
			<path d="M0 162.26 L26.61 162.26" class="st10"/>
		</g>
		<g id="shape10-38" v:mID="10" v:groupContext="shape" transform="translate(224.763,-91.1609)">
			<title>Sheet.10</title>
			<desc>DAP transmit</desc>
			<v:textBlock v:margins="rect(0,0,0,0)"/>
			<v:textRect cx="34.6888" cy="156.258" width="69.38" height="11.9952"/>
			<path d="M69.38 150.26 L0 150.26 L0 162.26 L69.38 162.26 L69.38 150.26" class="st2"/>
			<text x="11.02" y="159.26" class="st11" v:langID="1033"><v:paragraph v:horizAlign="2"/><v:tabList/>DAP transmit</text>		</g>
		<g id="shape11-42" v:mID="11" v:groupContext="shape" transform="translate(302.227,-91.196) scale(-1,1)">
			<title>Sheet.11</title>
			<path d="M4.44 162.26 L4.8 162.26 L90 162.26" class="st12"/>
		</g>
		<g id="shape12-47" v:mID="12" v:groupContext="shape" transform="translate(180.727,-84.4061)">
			<title>Sheet.12</title>
			<desc>DAP TX</desc>
			<v:textBlock v:margins="rect(4,2,4,2)"/>
			<v:textRect cx="20.25" cy="155.506" width="40.5" height="13.5"/>
			<rect x="0" y="148.756" width="40.5" height="13.5" class="st8"/>
			<text x="5.85" y="158.21" class="st9" v:langID="1033"><v:paragraph v:horizAlign="1"/><v:tabList/>DAP TX</text>		</g>
		<g id="shape13-50" v:mID="13" v:groupContext="shape" transform="translate(29.4571,-91.5041)">
			<title>Sheet.13</title>
			<desc>CIF receive</desc>
			<v:textBlock v:margins="rect(0,0,0,0)"/>
			<v:textRect cx="34.6888" cy="156.258" width="69.38" height="11.9952"/>
			<path d="M69.38 150.26 L0 150.26 L0 162.26 L69.38 162.26 L69.38 150.26" class="st2"/>
			<text x="0" y="159.26" class="st11" v:langID="1033"><v:paragraph/><v:tabList/>CIF receive</text>		</g>
		<g id="shape14-54" v:mID="14" v:groupContext="shape" transform="translate(113.364,-91.5393) scale(-1,1)">
			<title>Sheet.14</title>
			<path d="M4.44 162.26 L4.8 162.26 L90 162.26" class="st12"/>
		</g>
		<g id="shape15-59" v:mID="15" v:groupContext="shape" transform="translate(29.4571,-114.406)">
			<title>Sheet.15</title>
			<desc>XBAR side</desc>
			<v:textBlock v:margins="rect(0,0,0,0)"/>
			<v:textRect cx="40.5" cy="153.704" width="81" height="17.1033"/>
			<path d="M81 145.15 L0 145.15 L0 162.26 L81 162.26 L81 145.15" class="st2"/>
			<text x="0" y="157.3" class="st4" v:langID="1033"><v:paragraph/><v:tabList/>XBAR side</text>		</g>
		<g id="shape16-63" v:mID="16" v:groupContext="shape" transform="translate(36.1793,-49.0008)">
			<title>Sheet.16</title>
			<desc>CIF DAI</desc>
			<v:textBlock v:margins="rect(0,0,0,0)"/>
			<v:textRect cx="37.9496" cy="152.571" width="75.9" height="19.3693"/>
			<path d="M75.9 142.89 L0 142.89 L0 162.26 L75.9 162.26 L75.9 142.89" class="st2"/>
			<text x="18.84" y="156.17" class="st4" v:langID="1033"><v:paragraph v:horizAlign="1"/><v:tabList/>CIF DAI</text>		</g>
		<g id="shape17-67" v:mID="17" v:groupContext="shape" transform="translate(110.809,-73.3105) scale(-1,1)">
			<title>Side brace.22</title>
			<v:userDefs>
				<v:ud v:nameU="TxtW" v:val="VT0(0.55555555555556):29"/>
				<v:ud v:nameU="TxtA" v:val="VT0(1.5707963267949):32"/>
				<v:ud v:nameU="TxtAState" v:val="VT0(0):26"/>
				<v:ud v:nameU="TxtWState" v:val="VT0(0):26"/>
				<v:ud v:nameU="MaxRadius" v:val="VT0(0.25):1"/>
				<v:ud v:nameU="PosCH1" v:prompt="Constrains X position of Control Handle #1" v:val="VT0(0):26"/>
				<v:ud v:nameU="PosCH2" v:prompt="Constrains Y position of Control Handle #2" v:val="VT0(0):26"/>
				<v:ud v:nameU="Scale" v:val="VT0(1):26"/>
				<v:ud v:nameU="AntiScale" v:val="VT0(1):26"/>
				<v:ud v:nameU="visVersion" v:val="VT0(15):26"/>
				<v:ud v:nameU="TxtW" v:prompt="" v:val="VT0(0.69444444444444):3"/>
				<v:ud v:nameU="TxtA" v:prompt="" v:val="VT0(-1.5707963267949):32"/>
				<v:ud v:nameU="MaxRadius" v:prompt="" v:val="VT0(0.0625):1"/>
			</v:userDefs>
			<path d="M0 157.76 A4.49993 4.49993 -180 0 0 4.5 162.26 L32.44 162.26 A4.49993 4.49993 0 0 1 36.94 166.76 A4.49993 4.49993
						 0 0 1 41.44 162.26 L69.38 162.26 A4.49993 4.49993 -180 0 0 73.88 157.76" class="st7"/>
		</g>
	</g>
</svg>
