<?xml version="1.0" encoding="UTF-8" standalone="no"?>
<!DOCTYPE svg PUBLIC "-//W3C//DTD SVG 1.1//EN" "http://www.w3.org/Graphics/SVG/1.1/DTD/svg11.dtd">
<!-- Generated by Microsoft Visio, SVG Export I2sModule.svg Is@ Module -->
<svg xmlns="http://www.w3.org/2000/svg" xmlns:xlink="http://www.w3.org/1999/xlink" xmlns:ev="http://www.w3.org/2001/xml-events"
		xmlns:v="http://schemas.microsoft.com/visio/2003/SVGExtensions/" width="4.38122in" height="2.66551in"
		viewBox="0 0 315.448 191.917" xml:space="preserve" color-interpolation-filters="sRGB" class="st14">
	<v:documentProperties v:langID="1033" v:viewMarkup="false">
		<v:userDefs>
			<v:ud v:nameU="msvNoAutoConnect" v:val="VT0(1):26"/>
			<v:ud v:nameU="msvConvertTheme"/>
		</v:userDefs>
	</v:documentProperties>

	<style type="text/css">
	<![CDATA[
		.st1 {stroke:#404040;stroke-linecap:round;stroke-linejoin:round;stroke-width:0.959067}
		.st2 {marker-end:url(#mrkr4-9);stroke:#404040;stroke-linecap:round;stroke-linejoin:round;stroke-width:0.959067}
		.st3 {fill:#404040;fill-opacity:1;stroke:#404040;stroke-opacity:1;stroke-width:0.39976661463543}
		.st4 {stroke:none;stroke-linecap:round;stroke-linejoin:round;stroke-width:0.75}
		.st5 {fill:#000000;font-family:Trebuchet MS;font-size:1.33333em}
		.st6 {fill:#000000;font-family:Trebuchet MS;font-size:0.833336em}
		.st7 {fill:#000000;font-family:Trebuchet MS;font-size:1.00001em}
		.st8 {marker-end:url(#mrkr4-9);marker-start:url(#mrkr4-36);stroke:#404040;stroke-linecap:round;stroke-linejoin:round;stroke-width:0.959067}
		.st9 {stroke:#404040;stroke-linecap:round;stroke-linejoin:round;stroke-width:1}
		.st10 {fill:#f2f2f2;stroke:#000000;stroke-linecap:round;stroke-linejoin:round;stroke-width:0.75}
		.st11 {fill:#000000;font-family:Trebuchet MS;font-size:0.75em}
		.st12 {stroke:#000000;stroke-dasharray:2.25,2.25;stroke-linecap:round;stroke-linejoin:round;stroke-width:0.75}
		.st13 {marker-start:url(#mrkr4-36);stroke:#404040;stroke-linecap:round;stroke-linejoin:round;stroke-width:0.959067}
		.st14 {fill:none;fill-rule:evenodd;font-size:12px;overflow:visible;stroke-linecap:square;stroke-miterlimit:3}
	]]>
	</style>

	<defs id="Markers">
		<g id="lend4">
			<path d="M 2 1 L 0 0 L 2 -1 L 2 1 " style="stroke:none"/>
		</g>
		<marker id="mrkr4-9" class="st3" v:arrowType="4" v:arrowSize="0" v:setback="5.00292" refX="-5.0029190201986" orient="auto"
				markerUnits="strokeWidth" overflow="visible">
			<use xlink:href="#lend4" transform="scale(-2.5014595100993,-2.5014595100993) "/>
		</marker>
		<marker id="mrkr4-36" class="st3" v:arrowType="4" v:arrowSize="0" v:setback="4.62755" refX="4.6275541426737" orient="auto"
				markerUnits="strokeWidth" overflow="visible">
			<use xlink:href="#lend4" transform="scale(2.5014595100993) "/>
		</marker>
	</defs>
	<g v:mID="29" v:index="5" v:groupContext="foregroundPage">
		<title>I2S Module</title>
		<v:pageProperties v:drawingScale="1" v:pageScale="1" v:drawingUnits="19" v:shadowOffsetX="9" v:shadowOffsetY="-9"/>
		<g id="shape1-1" v:mID="1" v:groupContext="shape" transform="translate(103.22,-72.067)">
			<title>Sheet.1</title>
			<path d="M0 191.92 L98.69 191.92 L98.69 125.1 L0 125.1 L0 191.92 L0 191.92" class="st1"/>
		</g>
		<g id="shape2-4" v:mID="2" v:groupContext="shape" transform="translate(23.3645,-120.867)">
			<title>Sheet.2</title>
			<path d="M-0 191.92 L75.05 191.92" class="st2"/>
		</g>
		<g id="shape3-10" v:mID="3" v:groupContext="shape" transform="translate(130.065,-156.471)">
			<title>Sheet.3</title>
			<desc>I2S</desc>
			<v:textBlock v:margins="rect(0,0,0,0)"/>
			<v:textRect cx="22.5" cy="184.071" width="45" height="15.6912"/>
			<path d="M45 176.23 L0 176.23 L0 191.92 L45 191.92 L45 176.23" class="st4"/>
			<text x="12.23" y="188.87" class="st5" v:langID="1033"><v:paragraph v:horizAlign="1"/><v:tabList/>I2S</text>		</g>
		<g id="shape4-14" v:mID="4" v:groupContext="shape" transform="translate(27.8645,-121.567)">
			<title>Sheet.4</title>
			<desc>CIF receive</desc>
			<v:textBlock v:margins="rect(0,0,0,0)"/>
			<v:textRect cx="34.9875" cy="186.292" width="69.98" height="11.25"/>
			<path d="M69.97 180.67 L0 180.67 L0 191.92 L69.97 191.92 L69.97 180.67" class="st4"/>
			<text x="0" y="189.29" class="st6" v:langID="1033"><v:paragraph/><v:tabList/>CIF receive</text>		</g>
		<g id="shape5-18" v:mID="5" v:groupContext="shape" transform="translate(214.614,-93.8218)">
			<title>Sheet.5</title>
			<desc>DAP receive</desc>
			<v:textBlock v:margins="rect(0,0,0,0)"/>
			<v:textRect cx="34.6888" cy="185.919" width="69.38" height="11.9952"/>
			<path d="M69.38 179.92 L0 179.92 L0 191.92 L69.38 191.92 L69.38 179.92" class="st4"/>
			<text x="15.81" y="188.92" class="st6" v:langID="1033"><v:paragraph v:horizAlign="2"/><v:tabList/>DAP receive</text>		</g>
		<g id="shape6-22" v:mID="6" v:groupContext="shape" transform="translate(220.997,-144.067)">
			<title>Sheet.6</title>
			<desc>Codec side</desc>
			<v:textBlock v:margins="rect(0,0,0,0)"/>
			<v:textRect cx="31.5" cy="183.365" width="63" height="17.1033"/>
			<path d="M63 174.81 L0 174.81 L0 191.92 L63 191.92 L63 174.81" class="st4"/>
			<text x="5.08" y="186.97" class="st7" v:langID="1033"><v:paragraph v:horizAlign="2"/><v:tabList/>Codec side</text>		</g>
		<g id="shape7-26" v:mID="7" v:groupContext="shape" transform="translate(27.8645,-144.964)">
			<title>Sheet.7</title>
			<desc>XBAR side</desc>
			<v:textBlock v:margins="rect(0,0,0,0)"/>
			<v:textRect cx="40.5" cy="183.365" width="81" height="17.1033"/>
			<path d="M81 174.81 L0 174.81 L0 191.92 L81 191.92 L81 174.81" class="st4"/>
			<text x="0" y="186.97" class="st7" v:langID="1033"><v:paragraph/><v:tabList/>XBAR side</text>		</g>
		<g id="shape8-30" v:mID="8" v:groupContext="shape" transform="translate(103.239,-60.817)">
			<title>Sheet.8</title>
			<path d="M4.44 191.92 L4.8 191.92 L93.89 191.92" class="st8"/>
		</g>
		<g id="shape9-38" v:mID="9" v:groupContext="shape" transform="translate(103.065,-41)">
			<title>Sheet.9</title>
			<desc>DAPM Widgets</desc>
			<v:textBlock v:margins="rect(0,0,0,0)"/>
			<v:textRect cx="49.5" cy="182.051" width="99" height="19.7311"/>
			<path d="M99 172.19 L0 172.19 L0 191.92 L99 191.92 L99 172.19" class="st4"/>
			<text x="11.61" y="185.65" class="st7" v:langID="1033"><v:paragraph v:horizAlign="1"/><v:tabList/>DAPM Widgets</text>		</g>
		<g id="shape10-42" v:mID="10" v:groupContext="shape" transform="translate(22.3288,-48.442)">
			<title>Sheet.10</title>
			<desc>CIF DAIs</desc>
			<v:textBlock v:margins="rect(0,0,0,0)"/>
			<v:textRect cx="37.9496" cy="182.232" width="75.9" height="19.3693"/>
			<path d="M75.9 172.55 L0 172.55 L0 191.92 L75.9 191.92 L75.9 172.55" class="st4"/>
			<text x="16.42" y="185.83" class="st7" v:langID="1033"><v:paragraph v:horizAlign="1"/><v:tabList/>CIF DAIs</text>		</g>
		<g id="shape11-46" v:mID="11" v:groupContext="shape" transform="translate(201.217,-49.9105)">
			<title>Sheet.11</title>
			<desc>DAP DAIs</desc>
			<v:textBlock v:margins="rect(0,0,0,0)"/>
			<v:textRect cx="42.5557" cy="183.26" width="85.12" height="17.3131"/>
			<path d="M85.11 174.6 L0 174.6 L0 191.92 L85.11 191.92 L85.11 174.6" class="st4"/>
			<text x="18.87" y="186.86" class="st7" v:langID="1033"><v:paragraph v:horizAlign="1"/><v:tabList/>DAP DAIs</text>		</g>
		<g id="shape12-50" v:mID="12" v:groupContext="shape" transform="translate(23.3645,-93.835)">
			<title>Sheet.12</title>
			<path d="M-0 191.92 L75.05 191.92" class="st2"/>
		</g>
		<g id="shape13-55" v:mID="13" v:groupContext="shape" transform="translate(202.079,-93.857)">
			<title>Sheet.13</title>
			<path d="M0 191.92 L85.2 191.92" class="st2"/>
		</g>
		<g id="shape14-60" v:mID="14" v:groupContext="shape" transform="translate(278.454,-72.5) scale(-1,1)">
			<title>Side brace.2</title>
			<v:userDefs>
				<v:ud v:nameU="TxtW" v:val="VT0(0.55555555555556):29"/>
				<v:ud v:nameU="TxtA" v:val="VT0(1.5707963267949):32"/>
				<v:ud v:nameU="TxtAState" v:val="VT0(0):26"/>
				<v:ud v:nameU="TxtWState" v:val="VT0(0):26"/>
				<v:ud v:nameU="MaxRadius" v:val="VT0(0.25):1"/>
				<v:ud v:nameU="PosCH1" v:prompt="Constrains X position of Control Handle #1" v:val="VT0(0):26"/>
				<v:ud v:nameU="PosCH2" v:prompt="Constrains Y position of Control Handle #2" v:val="VT0(0):26"/>
				<v:ud v:nameU="Scale" v:val="VT0(1):26"/>
				<v:ud v:nameU="AntiScale" v:val="VT0(1):26"/>
				<v:ud v:nameU="visVersion" v:val="VT0(15):26"/>
				<v:ud v:nameU="TxtW" v:prompt="" v:val="VT0(0.69444444444444):3"/>
				<v:ud v:nameU="TxtA" v:prompt="" v:val="VT0(-1.5707963267949):32"/>
				<v:ud v:nameU="MaxRadius" v:prompt="" v:val="VT0(0.0625):1"/>
			</v:userDefs>
			<path d="M0 187.42 A4.49993 4.49993 -180 0 0 4.5 191.92 L30.37 191.92 A4.49993 4.49993 0 0 1 34.87 196.42 A4.49993 4.49993
						 0 0 1 39.37 191.92 L65.25 191.92 A4.49993 4.49993 -180 0 0 69.75 187.42" class="st9"/>
		</g>
		<g id="shape15-63" v:mID="15" v:groupContext="shape" transform="translate(96.9585,-72.7517) scale(-1,1)">
			<title>Side brace.72</title>
			<v:userDefs>
				<v:ud v:nameU="TxtW" v:val="VT0(0.55555555555556):29"/>
				<v:ud v:nameU="TxtA" v:val="VT0(1.5707963267949):32"/>
				<v:ud v:nameU="TxtAState" v:val="VT0(0):26"/>
				<v:ud v:nameU="TxtWState" v:val="VT0(0):26"/>
				<v:ud v:nameU="MaxRadius" v:val="VT0(0.25):1"/>
				<v:ud v:nameU="PosCH1" v:prompt="Constrains X position of Control Handle #1" v:val="VT0(0):26"/>
				<v:ud v:nameU="PosCH2" v:prompt="Constrains Y position of Control Handle #2" v:val="VT0(0):26"/>
				<v:ud v:nameU="Scale" v:val="VT0(1):26"/>
				<v:ud v:nameU="AntiScale" v:val="VT0(1):26"/>
				<v:ud v:nameU="visVersion" v:val="VT0(15):26"/>
				<v:ud v:nameU="TxtW" v:prompt="" v:val="VT0(0.69444444444444):3"/>
				<v:ud v:nameU="TxtA" v:prompt="" v:val="VT0(-1.5707963267949):32"/>
				<v:ud v:nameU="MaxRadius" v:prompt="" v:val="VT0(0.0625):1"/>
			</v:userDefs>
			<path d="M0 187.42 A4.49993 4.49993 -180 0 0 4.5 191.92 L32.44 191.92 A4.49993 4.49993 0 0 1 36.94 196.42 A4.49993 4.49993
						 0 0 1 41.44 191.92 L69.38 191.92 A4.49993 4.49993 -180 0 0 73.88 187.42" class="st9"/>
		</g>
		<g id="shape16-66" v:mID="16" v:groupContext="shape" transform="translate(27.8645,-93.8213)">
			<title>Sheet.16</title>
			<desc>CIF transmit</desc>
			<v:textBlock v:margins="rect(0,0,0,0)"/>
			<v:textRect cx="39.375" cy="185.919" width="78.75" height="11.9957"/>
			<path d="M78.75 179.92 L0 179.92 L0 191.92 L78.75 191.92 L78.75 179.92" class="st4"/>
			<text x="0" y="188.92" class="st6" v:langID="1033"><v:paragraph/><v:tabList/>CIF transmit</text>		</g>
		<g id="shape17-70" v:mID="17" v:groupContext="shape" transform="translate(103.22,-114.117)">
			<title>Sheet.17</title>
			<desc>CIF RX</desc>
			<v:textBlock v:margins="rect(4,2,4,2)"/>
			<v:textRect cx="18" cy="185.167" width="36" height="13.5"/>
			<rect x="0" y="178.417" width="36" height="13.5" class="st10"/>
			<text x="5.21" y="187.87" class="st11" v:langID="1033"><v:paragraph v:horizAlign="1"/><v:tabList/>CIF RX</text>		</g>
		<g id="shape18-73" v:mID="18" v:groupContext="shape" transform="translate(103.22,-86.827)">
			<title>Sheet.18</title>
			<desc>CIF TX</desc>
			<v:textBlock v:margins="rect(4,2,4,2)"/>
			<v:textRect cx="18" cy="185.167" width="36" height="13.5"/>
			<rect x="0" y="178.417" width="36" height="13.5" class="st10"/>
			<text x="5.22" y="187.87" class="st11" v:langID="1033"><v:paragraph v:horizAlign="1"/><v:tabList/>CIF TX</text>		</g>
		<g id="shape19-76" v:mID="19" v:groupContext="shape" transform="translate(165.829,-86.827)">
			<title>Sheet.19</title>
			<desc>DAP TX</desc>
			<v:textBlock v:margins="rect(4,2,4,2)"/>
			<v:textRect cx="18" cy="185.167" width="36" height="13.5"/>
			<rect x="0" y="178.417" width="36" height="13.5" class="st10"/>
			<text x="3.6" y="187.87" class="st11" v:langID="1033"><v:paragraph v:horizAlign="1"/><v:tabList/>DAP TX</text>		</g>
		<g id="shape20-79" v:mID="20" v:groupContext="shape" transform="translate(139.22,-120.442)">
			<title>Sheet.20</title>
			<path d="M0 191.92 L26.61 191.92" class="st12"/>
		</g>
		<g id="shape21-82" v:mID="21" v:groupContext="shape" transform="translate(139.22,-93.442)">
			<title>Sheet.21</title>
			<path d="M0 191.92 L26.61 191.92" class="st12"/>
		</g>
		<g id="shape22-85" v:mID="22" v:groupContext="shape" transform="translate(214.619,-120.822)">
			<title>Sheet.22</title>
			<desc>DAP transmit</desc>
			<v:textBlock v:margins="rect(0,0,0,0)"/>
			<v:textRect cx="34.6888" cy="185.919" width="69.38" height="11.9952"/>
			<path d="M69.38 179.92 L0 179.92 L0 191.92 L69.38 191.92 L69.38 179.92" class="st4"/>
			<text x="11.02" y="188.92" class="st6" v:langID="1033"><v:paragraph v:horizAlign="2"/><v:tabList/>DAP transmit</text>		</g>
		<g id="shape23-89" v:mID="23" v:groupContext="shape" transform="translate(292.083,-120.857) scale(-1,1)">
			<title>Sheet.23</title>
			<path d="M4.44 191.92 L4.8 191.92 L90 191.92" class="st13"/>
		</g>
		<g id="shape24-94" v:mID="24" v:groupContext="shape" transform="translate(165.833,-114.067)">
			<title>Sheet.24</title>
			<desc>DAP TX</desc>
			<v:textBlock v:margins="rect(4,2,4,2)"/>
			<v:textRect cx="18" cy="185.167" width="36" height="13.5"/>
			<rect x="0" y="178.417" width="36" height="13.5" class="st10"/>
			<text x="3.6" y="187.87" class="st11" v:langID="1033"><v:paragraph v:horizAlign="1"/><v:tabList/>DAP TX</text>		</g>
	</g>
</svg>
