<?xml version="1.0" encoding="UTF-8" standalone="no"?>
<!DOCTYPE svg PUBLIC "-//W3C//DTD SVG 1.1//EN" "http://www.w3.org/Graphics/SVG/1.1/DTD/svg11.dtd">
<!-- Generated by Microsoft Visio, SVG Export MixerModule.svg Mixer Module -->
<svg xmlns="http://www.w3.org/2000/svg" xmlns:xlink="http://www.w3.org/1999/xlink" xmlns:ev="http://www.w3.org/2001/xml-events"
		xmlns:v="http://schemas.microsoft.com/visio/2003/SVGExtensions/" width="5.77473in" height="3.35162in"
		viewBox="0 0 415.781 241.316" xml:space="preserve" color-interpolation-filters="sRGB" class="st18">
	<v:documentProperties v:langID="1033" v:viewMarkup="false">
		<v:userDefs>
			<v:ud v:nameU="msvNoAutoConnect" v:val="VT0(1):26"/>
			<v:ud v:nameU="msvConvertTheme"/>
		</v:userDefs>
	</v:documentProperties>

	<style type="text/css">
	<![CDATA[
		.st1 {marker-end:url(#mrkr4-6);stroke:#404040;stroke-linecap:round;stroke-linejoin:round;stroke-width:0.959067}
		.st2 {fill:#404040;fill-opacity:1;stroke:#404040;stroke-opacity:1;stroke-width:0.39976661463543}
		.st3 {stroke:none;stroke-linecap:round;stroke-linejoin:round;stroke-width:0.75}
		.st4 {fill:#000000;font-family:Trebuchet MS;font-size:1.33333em}
		.st5 {fill:#000000;font-family:Trebuchet MS;font-size:0.833336em}
		.st6 {fill:#000000;font-family:Trebuchet MS;font-size:1.00001em}
		.st7 {marker-end:url(#mrkr4-6);marker-start:url(#mrkr4-33);stroke:#404040;stroke-linecap:round;stroke-linejoin:round;stroke-width:0.959067}
		.st8 {stroke:#404040;stroke-linecap:round;stroke-linejoin:round;stroke-width:1}
		.st9 {fill:#f2f2f2;stroke:#000000;stroke-linecap:round;stroke-linejoin:round;stroke-width:0.75}
		.st10 {stroke:#000000;stroke-dasharray:2.25,2.25;stroke-linecap:round;stroke-linejoin:round;stroke-width:0.75}
		.st11 {stroke:#a5a5a5;stroke-dasharray:2.25,2.25;stroke-linecap:round;stroke-linejoin:round;stroke-width:0.75}
		.st12 {fill:#f2f2f2;stroke:#a5a5a5;stroke-linecap:round;stroke-linejoin:round;stroke-width:0.75}
		.st13 {marker-end:url(#mrkr4-109);stroke:#a5a5a5;stroke-linecap:round;stroke-linejoin:round;stroke-width:0.959067}
		.st14 {fill:#a5a5a5;fill-opacity:1;stroke:#a5a5a5;stroke-opacity:1;stroke-width:0.39976661463543}
		.st15 {fill:#a5a5a5;font-family:Trebuchet MS;font-size:0.833336em}
		.st16 {fill:#f2f2f2;stroke:#bfbfbf;stroke-linecap:round;stroke-linejoin:round;stroke-width:0.75}
		.st17 {stroke:#404040;stroke-linecap:round;stroke-linejoin:round;stroke-width:0.959067}
		.st18 {fill:none;fill-rule:evenodd;font-size:12px;overflow:visible;stroke-linecap:square;stroke-miterlimit:3}
	]]>
	</style>

	<defs id="Markers">
		<g id="lend4">
			<path d="M 2 1 L 0 0 L 2 -1 L 2 1 " style="stroke:none"/>
		</g>
		<marker id="mrkr4-6" class="st2" v:arrowType="4" v:arrowSize="0" v:setback="5.00292" refX="-5.0029190201986" orient="auto"
				markerUnits="strokeWidth" overflow="visible">
			<use xlink:href="#lend4" transform="scale(-2.5014595100993,-2.5014595100993) "/>
		</marker>
		<marker id="mrkr4-33" class="st2" v:arrowType="4" v:arrowSize="0" v:setback="4.62755" refX="4.6275541426737" orient="auto"
				markerUnits="strokeWidth" overflow="visible">
			<use xlink:href="#lend4" transform="scale(2.5014595100993) "/>
		</marker>
		<marker id="mrkr4-109" class="st14" v:arrowType="4" v:arrowSize="0" v:setback="5.00292" refX="-5.0029190201986"
				orient="auto" markerUnits="strokeWidth" overflow="visible">
			<use xlink:href="#lend4" transform="scale(-2.5014595100993,-2.5014595100993) "/>
		</marker>
	</defs>
	<g v:mID="30" v:index="6" v:groupContext="foregroundPage">
		<title>Mixer Module</title>
		<v:pageProperties v:drawingScale="1" v:pageScale="1" v:drawingUnits="19" v:shadowOffsetX="9" v:shadowOffsetY="-9"/>
		<g id="shape1-1" v:mID="1" v:groupContext="shape" transform="translate(23.3645,-170.267)">
			<title>Sheet.1</title>
			<path d="M-0 241.32 L85.2 241.32" class="st1"/>
		</g>
		<g id="shape2-7" v:mID="2" v:groupContext="shape" transform="translate(185.487,-205.871)">
			<title>Sheet.2</title>
			<desc>MIXER</desc>
			<v:textBlock v:margins="rect(0,0,0,0)"/>
			<v:textRect cx="22.5" cy="233.471" width="45" height="15.6912"/>
			<path d="M45 225.63 L0 225.63 L0 241.32 L45 241.32 L45 225.63" class="st3"/>
			<text x="1.2" y="238.27" class="st4" v:langID="1033"><v:paragraph v:horizAlign="1"/><v:tabList/>MIXER</text>		</g>
		<g id="shape3-11" v:mID="3" v:groupContext="shape" transform="translate(32.4163,-170.966)">
			<title>Sheet.3</title>
			<desc>RX 1 receive</desc>
			<v:textBlock v:margins="rect(0,0,0,0)"/>
			<v:textRect cx="34.9875" cy="235.691" width="69.98" height="11.25"/>
			<path d="M69.97 230.07 L0 230.07 L0 241.32 L69.97 241.32 L69.97 230.07" class="st3"/>
			<text x="0" y="238.69" class="st5" v:langID="1033"><v:paragraph/><v:tabList/>RX 1 receive</text>		</g>
		<g id="shape4-15" v:mID="4" v:groupContext="shape" transform="translate(314.039,-169.812)">
			<title>Sheet.4</title>
			<desc>TX1 transmit</desc>
			<v:textBlock v:margins="rect(0,0,0,0)"/>
			<v:textRect cx="34.6888" cy="235.319" width="69.38" height="11.9952"/>
			<path d="M69.38 229.32 L0 229.32 L0 241.32 L69.38 241.32 L69.38 229.32" class="st3"/>
			<text x="12.01" y="238.32" class="st5" v:langID="1033"><v:paragraph v:horizAlign="2"/><v:tabList/>TX1 transmit</text>		</g>
		<g id="shape5-19" v:mID="5" v:groupContext="shape" transform="translate(321.905,-193.466)">
			<title>Sheet.5</title>
			<desc>To XBAR</desc>
			<v:textBlock v:margins="rect(0,0,0,0)"/>
			<v:textRect cx="31.5" cy="232.765" width="63" height="17.1033"/>
			<path d="M63 224.21 L0 224.21 L0 241.32 L63 241.32 L63 224.21" class="st3"/>
			<text x="18.44" y="236.36" class="st6" v:langID="1033"><v:paragraph v:horizAlign="2"/><v:tabList/>To XBAR</text>		</g>
		<g id="shape6-23" v:mID="6" v:groupContext="shape" transform="translate(30.1663,-194.363)">
			<title>Sheet.6</title>
			<desc>From XBAR</desc>
			<v:textBlock v:margins="rect(0,0,0,0)"/>
			<v:textRect cx="40.5" cy="232.765" width="81" height="17.1033"/>
			<path d="M81 224.21 L0 224.21 L0 241.32 L81 241.32 L81 224.21" class="st3"/>
			<text x="0" y="236.36" class="st6" v:langID="1033"><v:paragraph/><v:tabList/>From  XBAR</text>		</g>
		<g id="shape7-27" v:mID="7" v:groupContext="shape" transform="translate(113.558,-63.1051)">
			<title>Sheet.7</title>
			<path d="M4.44 241.32 L4.8 241.32 L184.06 241.32" class="st7"/>
		</g>
		<g id="shape8-35" v:mID="8" v:groupContext="shape" transform="translate(158.487,-39.0637)">
			<title>Sheet.8</title>
			<desc>DAPM Widgets</desc>
			<v:textBlock v:margins="rect(0,0,0,0)"/>
			<v:textRect cx="49.5" cy="231.451" width="99" height="19.7311"/>
			<path d="M99 221.59 L0 221.59 L0 241.32 L99 241.32 L99 221.59" class="st3"/>
			<text x="11.61" y="235.05" class="st6" v:langID="1033"><v:paragraph v:horizAlign="1"/><v:tabList/>DAPM Widgets</text>		</g>
		<g id="shape9-39" v:mID="9" v:groupContext="shape" transform="translate(27.4066,-37.2752)">
			<title>Sheet.9</title>
			<desc>IN DAIs</desc>
			<v:textBlock v:margins="rect(0,0,0,0)" v:verticalAlign="0"/>
			<v:textRect cx="37.9496" cy="226.623" width="75.9" height="29.3863"/>
			<path d="M75.9 211.93 L0 211.93 L0 241.32 L75.9 241.32 L75.9 211.93" class="st3"/>
			<text x="19.33" y="222.73" class="st6" v:langID="1033"><v:paragraph v:horizAlign="1"/><v:tabList/>IN DAIs  </text>		</g>
		<g id="shape10-43" v:mID="10" v:groupContext="shape" transform="translate(306.354,-38.5364)">
			<title>Sheet.10</title>
			<desc>OUT DAIs</desc>
			<v:textBlock v:margins="rect(0,0,0,0)" v:verticalAlign="0"/>
			<v:textRect cx="42.5557" cy="227.035" width="85.12" height="28.5631"/>
			<path d="M85.11 212.75 L0 212.75 L0 241.32 L85.11 241.32 L85.11 212.75" class="st3"/>
			<text x="18.01" y="223.55" class="st6" v:langID="1033"><v:paragraph v:horizAlign="1"/><v:tabList/>OUT DAIs</text>		</g>
		<g id="shape11-47" v:mID="11" v:groupContext="shape" transform="translate(23.4163,-91.062)">
			<title>Sheet.11</title>
			<path d="M-0 241.32 L85.2 241.32" class="st1"/>
		</g>
		<g id="shape12-52" v:mID="12" v:groupContext="shape" transform="translate(302.416,-170.267)">
			<title>Sheet.12</title>
			<path d="M0 241.32 L85.2 241.32" class="st1"/>
		</g>
		<g id="shape13-57" v:mID="13" v:groupContext="shape" transform="translate(392.416,-72.8489) scale(-1,1)">
			<title>Side brace.2</title>
			<v:userDefs>
				<v:ud v:nameU="TxtW" v:val="VT0(0.55555555555556):29"/>
				<v:ud v:nameU="TxtA" v:val="VT0(1.5707963267949):32"/>
				<v:ud v:nameU="TxtAState" v:val="VT0(0):26"/>
				<v:ud v:nameU="TxtWState" v:val="VT0(0):26"/>
				<v:ud v:nameU="MaxRadius" v:val="VT0(0.25):1"/>
				<v:ud v:nameU="PosCH1" v:prompt="Constrains X position of Control Handle #1" v:val="VT0(0):26"/>
				<v:ud v:nameU="PosCH2" v:prompt="Constrains Y position of Control Handle #2" v:val="VT0(0):26"/>
				<v:ud v:nameU="Scale" v:val="VT0(1):26"/>
				<v:ud v:nameU="AntiScale" v:val="VT0(1):26"/>
				<v:ud v:nameU="visVersion" v:val="VT0(15):26"/>
				<v:ud v:nameU="TxtW" v:prompt="" v:val="VT0(0.69444444444444):3"/>
				<v:ud v:nameU="TxtA" v:prompt="" v:val="VT0(-1.5707963267949):32"/>
				<v:ud v:nameU="MaxRadius" v:prompt="" v:val="VT0(0.0625):1"/>
			</v:userDefs>
			<path d="M0 236.82 A4.49993 4.49993 -180 0 0 4.5 241.32 L39.01 241.32 A4.49993 4.49993 0 0 1 43.51 245.82 A4.49993 4.49993
						 0 0 1 48.01 241.32 L82.51 241.32 A4.49993 4.49993 -180 0 0 87.01 236.82" class="st8"/>
		</g>
		<g id="shape14-60" v:mID="14" v:groupContext="shape" transform="translate(107.296,-72.5) scale(-1,1)">
			<title>Side brace.72</title>
			<v:userDefs>
				<v:ud v:nameU="TxtW" v:val="VT0(0.55555555555556):29"/>
				<v:ud v:nameU="TxtA" v:val="VT0(1.5707963267949):32"/>
				<v:ud v:nameU="TxtAState" v:val="VT0(0):26"/>
				<v:ud v:nameU="TxtWState" v:val="VT0(0):26"/>
				<v:ud v:nameU="MaxRadius" v:val="VT0(0.25):1"/>
				<v:ud v:nameU="PosCH1" v:prompt="Constrains X position of Control Handle #1" v:val="VT0(0):26"/>
				<v:ud v:nameU="PosCH2" v:prompt="Constrains Y position of Control Handle #2" v:val="VT0(0):26"/>
				<v:ud v:nameU="Scale" v:val="VT0(1):26"/>
				<v:ud v:nameU="AntiScale" v:val="VT0(1):26"/>
				<v:ud v:nameU="visVersion" v:val="VT0(15):26"/>
				<v:ud v:nameU="TxtW" v:prompt="" v:val="VT0(0.69444444444444):3"/>
				<v:ud v:nameU="TxtA" v:prompt="" v:val="VT0(-1.5707963267949):32"/>
				<v:ud v:nameU="MaxRadius" v:prompt="" v:val="VT0(0.0625):1"/>
			</v:userDefs>
			<path d="M0 236.82 A4.49993 4.49993 -180 0 0 4.5 241.32 L37.44 241.32 A4.49993 4.49993 0 0 1 41.94 245.82 A4.49993 4.49993
						 0 0 1 46.44 241.32 L79.38 241.32 A4.49993 4.49993 -180 0 0 83.88 236.82" class="st8"/>
		</g>
		<g id="shape15-63" v:mID="15" v:groupContext="shape" transform="translate(32.4163,-91.062)">
			<title>Sheet.15</title>
			<desc>RX 10 receive</desc>
			<v:textBlock v:margins="rect(0,0,0,0)"/>
			<v:textRect cx="34.9875" cy="235.373" width="69.98" height="11.8864"/>
			<path d="M69.97 229.43 L0 229.43 L0 241.32 L69.97 241.32 L69.97 229.43" class="st3"/>
			<text x="0" y="238.37" class="st5" v:langID="1033"><v:paragraph/><v:tabList/>RX 10 receive</text>		</g>
		<g id="shape16-67" v:mID="16" v:groupContext="shape" transform="translate(194.291,-163.517)">
			<title>Sheet.16</title>
			<desc>Adder1</desc>
			<v:textBlock v:margins="rect(4,4,4,4)"/>
			<v:textRect cx="20.375" cy="234.566" width="40.75" height="13.5"/>
			<rect x="0" y="227.816" width="40.75" height="13.5" class="st9"/>
			<text x="4.56" y="237.57" class="st5" v:langID="1033"><v:paragraph v:horizAlign="1"/><v:tabList/>Adder1</text>		</g>
		<g id="shape17-70" v:mID="17" v:groupContext="shape" transform="translate(359.547,-47.4299) rotate(60.4796)">
			<title>Sheet.17</title>
			<path d="M0 241.32 L90.53 241.32" class="st10"/>
		</g>
		<g id="shape18-73" v:mID="18" v:groupContext="shape" transform="translate(149.558,-91.062)">
			<title>Sheet.18</title>
			<path d="M0 241.32 L44.61 241.32" class="st10"/>
		</g>
		<g id="shape19-76" v:mID="19" v:groupContext="shape" transform="translate(149.558,-169.841)">
			<title>Sheet.19</title>
			<path d="M0 241.32 L44.73 241.32" class="st10"/>
		</g>
		<g id="shape20-79" v:mID="20" v:groupContext="shape" transform="translate(-60.2878,31.0975) rotate(-60.4108)">
			<title>Sheet.20</title>
			<path d="M0 241.32 L90.59 241.32" class="st10"/>
		</g>
		<g id="shape21-82" v:mID="21" v:groupContext="shape" transform="translate(-15.4348,-59.4048) rotate(-45.4939)">
			<title>Sheet.21</title>
			<path d="M0 241.32 L53.67 241.32" class="st11"/>
		</g>
		<g id="shape22-85" v:mID="22" v:groupContext="shape" transform="translate(333.735,-54.198) rotate(47.2026)">
			<title>Sheet.22</title>
			<path d="M0 241.32 L55.2 241.32" class="st11"/>
		</g>
		<g id="shape23-88" v:mID="23" v:groupContext="shape" transform="translate(-4.27928,-35.6695) rotate(-39.6051)">
			<title>Sheet.23</title>
			<path d="M0 241.32 L58.24 241.32" class="st11"/>
		</g>
		<g id="shape24-91" v:mID="24" v:groupContext="shape" transform="translate(178.15,-130.604) rotate(5.10754)">
			<title>Sheet.24</title>
			<path d="M0 241.32 L37.91 241.32" class="st11"/>
		</g>
		<g id="shape25-94" v:mID="25" v:groupContext="shape" transform="translate(313.743,-105.378) rotate(42.8727)">
			<title>Sheet.25</title>
			<path d="M0 241.32 L61.22 241.32" class="st11"/>
		</g>
		<g id="group26-97" transform="translate(194.426,-121.181)" v:mID="26" v:groupContext="group">
			<title>Sheet.26</title>
			<g id="shape27-98" v:mID="27" v:groupContext="shape" transform="translate(4.8025,-5.46749)">
				<title>Sheet.27</title>
				<rect x="0" y="227.816" width="40.75" height="13.5" class="st12"/>
			</g>
			<g id="shape28-100" v:mID="28" v:groupContext="shape" transform="translate(1.99,-2.65498)">
				<title>Sheet.28</title>
				<rect x="0" y="227.816" width="40.75" height="13.5" class="st12"/>
			</g>
			<g id="shape29-102" v:mID="29" v:groupContext="shape">
				<title>Sheet.29</title>
				<rect x="0" y="227.816" width="40.75" height="13.5" class="st12"/>
			</g>
		</g>
		<g id="shape30-104" v:mID="30" v:groupContext="shape" transform="translate(23.4163,-128.414)">
			<title>Sheet.30</title>
			<path d="M-0 241.32 L85.2 241.32" class="st13"/>
		</g>
		<g id="shape31-110" v:mID="31" v:groupContext="shape" transform="translate(32.4163,-128.676)">
			<title>Sheet.31</title>
			<desc>RX 3-9 receive</desc>
			<v:textBlock v:margins="rect(0,0,0,0)"/>
			<v:textRect cx="34.9875" cy="235.373" width="69.98" height="11.8864"/>
			<path d="M69.97 229.43 L0 229.43 L0 241.32 L69.97 241.32 L69.97 229.43" class="st3"/>
			<text x="0" y="238.37" class="st15" v:langID="1033"><v:paragraph/><v:tabList/>RX 3-9 receive</text>		</g>
		<g id="shape32-114" v:mID="32" v:groupContext="shape" transform="translate(265.979,-163.517)">
			<title>Sheet.32</title>
			<desc>TX1</desc>
			<v:textBlock v:margins="rect(4,4,4,4)"/>
			<v:textRect cx="18" cy="234.566" width="36" height="13.5"/>
			<rect x="0" y="227.816" width="36" height="13.5" class="st9"/>
			<text x="9.69" y="237.57" class="st5" v:langID="1033"><v:paragraph v:horizAlign="1"/><v:tabList/>TX1</text>		</g>
		<g id="shape33-117" v:mID="33" v:groupContext="shape" transform="translate(265.854,-84.312)">
			<title>Sheet.33</title>
			<desc>TX5</desc>
			<v:textBlock v:margins="rect(4,4,4,4)"/>
			<v:textRect cx="18" cy="234.566" width="36" height="13.5"/>
			<rect x="0" y="227.816" width="36" height="13.5" class="st9"/>
			<text x="9.69" y="237.57" class="st5" v:langID="1033"><v:paragraph v:horizAlign="1"/><v:tabList/>TX5</text>		</g>
		<g id="shape34-120" v:mID="34" v:groupContext="shape" transform="translate(235.479,-170.267)">
			<title>Sheet.34</title>
			<path d="M0 241.32 L25.3 241.32" class="st1"/>
		</g>
		<g id="shape35-125" v:mID="35" v:groupContext="shape" transform="translate(235.479,-127.812)">
			<title>Sheet.35</title>
			<path d="M0 241.32 L25.3 241.32" class="st13"/>
		</g>
		<g id="shape36-130" v:mID="36" v:groupContext="shape" transform="translate(235.479,-91.062)">
			<title>Sheet.36</title>
			<path d="M0 241.32 L25.3 241.32" class="st1"/>
		</g>
		<g id="group37-135" transform="translate(261.176,-121.181)" v:mID="37" v:groupContext="group">
			<title>Sheet.37</title>
			<g id="shape38-136" v:mID="38" v:groupContext="shape" transform="translate(4.8025,-5.46749)">
				<title>Sheet.38</title>
				<rect x="0" y="227.816" width="36" height="13.5" class="st12"/>
			</g>
			<g id="shape39-138" v:mID="39" v:groupContext="shape" transform="translate(1.99,-2.65498)">
				<title>Sheet.39</title>
				<rect x="0" y="227.816" width="36" height="13.5" class="st12"/>
			</g>
			<g id="shape40-140" v:mID="40" v:groupContext="shape">
				<title>Sheet.40</title>
				<desc>TX2-4</desc>
				<v:textBlock v:margins="rect(4,4,4,4)"/>
				<v:textRect cx="18" cy="234.566" width="36" height="13.5"/>
				<rect x="0" y="227.816" width="36" height="13.5" class="st12"/>
				<text x="5.23" y="237.57" class="st15" v:langID="1033"><v:paragraph v:horizAlign="1"/><v:tabList/>TX2-4</text>			</g>
		</g>
		<g id="shape41-143" v:mID="41" v:groupContext="shape" transform="translate(314.039,-127.814)">
			<title>Sheet.41</title>
			<desc>TX2-4 transmit</desc>
			<v:textBlock v:margins="rect(0,0,0,0)"/>
			<v:textRect cx="34.6888" cy="235.319" width="69.38" height="11.9952"/>
			<path d="M69.38 229.32 L0 229.32 L0 241.32 L69.38 241.32 L69.38 229.32" class="st3"/>
			<text x="3.1" y="238.32" class="st15" v:langID="1033"><v:paragraph v:horizAlign="2"/><v:tabList/>TX2-4 transmit</text>		</g>
		<g id="shape42-147" v:mID="42" v:groupContext="shape" transform="translate(302.416,-127.812)">
			<title>Sheet.42</title>
			<path d="M0 241.32 L85.2 241.32" class="st13"/>
		</g>
		<g id="shape43-152" v:mID="43" v:groupContext="shape" transform="translate(314.039,-91.062)">
			<title>Sheet.43</title>
			<desc>TX5 transmit</desc>
			<v:textBlock v:margins="rect(0,0,0,0)"/>
			<v:textRect cx="34.6888" cy="235.319" width="69.38" height="11.9952"/>
			<path d="M69.38 229.32 L0 229.32 L0 241.32 L69.38 241.32 L69.38 229.32" class="st3"/>
			<text x="12.01" y="238.32" class="st5" v:langID="1033"><v:paragraph v:horizAlign="2"/><v:tabList/>TX5 transmit</text>		</g>
		<g id="shape44-156" v:mID="44" v:groupContext="shape" transform="translate(302.416,-91.062)">
			<title>Sheet.44</title>
			<path d="M0 241.32 L85.2 241.32" class="st1"/>
		</g>
		<g id="group45-161" transform="translate(111.666,-119.414)" v:mID="45" v:groupContext="group">
			<title>Sheet.45</title>
			<g id="shape46-162" v:mID="46" v:groupContext="shape" transform="translate(9,-9)">
				<title>Sheet.46</title>
				<rect x="0" y="227.816" width="36" height="13.5" class="st16"/>
			</g>
			<g id="shape47-164" v:mID="47" v:groupContext="shape" transform="translate(6.75,-6.75)">
				<title>Sheet.47</title>
				<rect x="0" y="227.816" width="36" height="13.5" class="st16"/>
			</g>
			<g id="shape48-166" v:mID="48" v:groupContext="shape" transform="translate(4.5,-4.5)">
				<title>Sheet.48</title>
				<rect x="0" y="227.816" width="36" height="13.5" class="st16"/>
			</g>
			<g id="shape49-168" v:mID="49" v:groupContext="shape" transform="translate(2.25,-2.25)">
				<title>Sheet.49</title>
				<desc>RX2-9</desc>
				<v:textBlock v:margins="rect(4,4,4,4)"/>
				<v:textRect cx="18" cy="234.566" width="36" height="13.5"/>
				<rect x="0" y="227.816" width="36" height="13.5" class="st16"/>
				<text x="5.23" y="237.57" class="st15" v:langID="1033"><v:paragraph v:horizAlign="1"/><v:tabList/>RX2-9</text>			</g>
		</g>
		<g id="shape50-171" v:mID="50" v:groupContext="shape" transform="translate(113.558,-73.062)">
			<title>Sheet.50</title>
			<path d="M0 241.32 L188.51 241.32 L188.51 126.09 L0 126.09 L0 241.32 L0 241.32" class="st17"/>
		</g>
		<g id="shape51-174" v:mID="51" v:groupContext="shape" transform="translate(113.558,-84.312)">
			<title>Sheet.51</title>
			<desc>RX10</desc>
			<v:textBlock v:margins="rect(4,4,4,4)"/>
			<v:textRect cx="18" cy="234.566" width="36" height="13.5"/>
			<rect x="0" y="227.816" width="36" height="13.5" class="st9"/>
			<text x="7.06" y="237.57" class="st5" v:langID="1033"><v:paragraph v:horizAlign="1"/><v:tabList/>RX10</text>		</g>
		<g id="shape52-177" v:mID="52" v:groupContext="shape" transform="translate(194.166,-84.312)">
			<title>Sheet.52</title>
			<desc>Adder5</desc>
			<v:textBlock v:margins="rect(4,4,4,4)"/>
			<v:textRect cx="20.375" cy="234.566" width="40.75" height="13.5"/>
			<rect x="0" y="227.816" width="40.75" height="13.5" class="st9"/>
			<text x="4.56" y="237.57" class="st5" v:langID="1033"><v:paragraph v:horizAlign="1"/><v:tabList/>Adder5</text>		</g>
		<g id="shape53-180" v:mID="53" v:groupContext="shape" transform="translate(113.558,-163.517)">
			<title>Sheet.53</title>
			<desc>RX1</desc>
			<v:textBlock v:margins="rect(4,4,4,4)"/>
			<v:textRect cx="18" cy="234.566" width="36" height="13.5"/>
			<rect x="0" y="227.816" width="36" height="13.5" class="st9"/>
			<text x="9.68" y="237.57" class="st5" v:langID="1033"><v:paragraph v:horizAlign="1"/><v:tabList/>RX1</text>		</g>
	</g>
</svg>
