<?xml version="1.0" encoding="UTF-8" standalone="no"?>
<!DOCTYPE svg PUBLIC "-//W3C//DTD SVG 1.1//EN" "http://www.w3.org/Graphics/SVG/1.1/DTD/svg11.dtd">
<!-- Generated by Microsoft Visio, SVG Export PieceWiseLinearCompressionFunction.svg Piece=Wise Linear Compression Function -->
<svg xmlns="http://www.w3.org/2000/svg" xmlns:xlink="http://www.w3.org/1999/xlink" xmlns:ev="http://www.w3.org/2001/xml-events"
		xmlns:v="http://schemas.microsoft.com/visio/2003/SVGExtensions/" width="6.56607in" height="4.38542in"
		viewBox="0 0 472.757 315.75" xml:space="preserve" color-interpolation-filters="sRGB" class="st8">
	<v:documentProperties v:langID="1033" v:viewMarkup="false">
		<v:userDefs>
			<v:ud v:nameU="msvSubprocessMaster" v:prompt="" v:val="VT4(Rectangle)"/>
			<v:ud v:nameU="msvNoAutoConnect" v:val="VT0(1):26"/>
		</v:userDefs>
	</v:documentProperties>

	<style type="text/css">
	<![CDATA[
		.st1 {fill:none}
		.st2 {stroke:#000000;stroke-linecap:butt;stroke-width:2.25}
		.st3 {stroke:#76b900;stroke-linecap:butt;stroke-width:2.25}
		.st4 {stroke:#000000;stroke-dasharray:4,2;stroke-linecap:butt;stroke-width:0.5}
		.st5 {fill:none;stroke:none;stroke-linecap:butt;stroke-width:0.75}
		.st6 {fill:#000000;font-family:Trebuchet MS;font-size:1.16666em}
		.st7 {font-size:1em}
		.st8 {fill:none;fill-rule:evenodd;font-size:12px;overflow:visible;stroke-linecap:square;stroke-miterlimit:3}
	]]>
	</style>

	<g v:mID="7" v:index="3" v:groupContext="foregroundPage">
		<v:userDefs>
			<v:ud v:nameU="msvThemeOrder" v:val="VT0(0):26"/>
		</v:userDefs>
		<title>Piece=Wise Linear Compression Function</title>
		<v:pageProperties v:drawingScale="1" v:pageScale="1" v:drawingUnits="0" v:shadowOffsetX="9" v:shadowOffsetY="-9"/>
		<g id="shape22-1" v:mID="22" v:groupContext="shape" transform="translate(46.575,-47.0715)">
			<title>Sheet.22</title>
			<path d="M0 100.7 L0 315.75 L0 100.7 Z" class="st1"/>
			<path d="M0 100.7 L0 315.75" class="st2"/>
		</g>
		<g id="shape23-4" v:mID="23" v:groupContext="shape" transform="translate(46.575,-45.7042)">
			<title>Sheet.23</title>
			<path d="M0 313.83 L405.93 315.75 L0 313.83 Z" class="st1"/>
			<path d="M0 313.83 L405.93 315.75" class="st2"/>
		</g>
		<g id="shape24-7" v:mID="24" v:groupContext="shape" transform="translate(107.651,-47.034) scale(-1,1)">
			<title>Sheet.24</title>
			<path d="M0 224.41 L61.08 315.75 L0 224.41 Z" class="st1"/>
			<path d="M0 224.41 L61.08 315.75" class="st3"/>
		</g>
		<g id="shape25-10" v:mID="25" v:groupContext="shape" transform="translate(183.884,-138.655) scale(-1,1)">
			<title>Sheet.25</title>
			<path d="M0 262.78 L76.56 315.75 L0 262.78 Z" class="st1"/>
			<path d="M0 262.78 L76.56 315.75" class="st3"/>
		</g>
		<g id="shape26-13" v:mID="26" v:groupContext="shape" transform="translate(428.987,-191.348) scale(-1,1)">
			<title>Sheet.26</title>
			<path d="M0 265.22 L245.16 315.75 L0 265.22 Z" class="st1"/>
			<path d="M0 265.22 L245.16 315.75" class="st3"/>
		</g>
		<g id="shape27-16" v:mID="27" v:groupContext="shape" transform="translate(107.325,-46.5442)">
			<title>Sheet.27</title>
			<path d="M0 212.67 L0 315.75 L0 212.67 Z" class="st1"/>
			<path d="M0 212.67 L0 315.75" class="st4"/>
		</g>
		<g id="shape28-19" v:mID="28" v:groupContext="shape" transform="translate(119.726,-138.375) scale(-1,1)">
			<title>Sheet.28</title>
			<path d="M0 315.75 L73.15 315.75 L0 315.75 Z" class="st1"/>
			<path d="M0 315.75 L73.15 315.75" class="st4"/>
		</g>
		<g id="shape29-22" v:mID="29" v:groupContext="shape" transform="translate(183.825,-46.824)">
			<title>Sheet.29</title>
			<path d="M0 159.7 L0 315.75 L0 159.7 Z" class="st1"/>
			<path d="M0 159.7 L0 315.75" class="st4"/>
		</g>
		<g id="shape30-25" v:mID="30" v:groupContext="shape" transform="translate(204.161,-191.625) scale(-1,1)">
			<title>Sheet.30</title>
			<path d="M0 315.75 L153.09 315.75 L0 315.75 Z" class="st1"/>
			<path d="M0 315.75 L153.09 315.75" class="st4"/>
		</g>
		<g id="shape31-28" v:mID="31" v:groupContext="shape" transform="translate(429.075,-44.9797)">
			<title>Sheet.31</title>
			<path d="M0 109.1 L0 315.75 L0 109.1 Z" class="st1"/>
			<path d="M0 109.1 L0 315.75" class="st4"/>
		</g>
		<g id="shape32-31" v:mID="32" v:groupContext="shape" transform="translate(441.236,-239.145) scale(-1,1)">
			<title>Sheet.32</title>
			<path d="M0 313.02 L394.66 315.75 L0 313.02 Z" class="st1"/>
			<path d="M0 313.02 L394.66 315.75" class="st4"/>
		</g>
		<g id="shape33-34" v:mID="33" v:groupContext="shape" transform="translate(209.75,-18.75)">
			<title>Sheet.33</title>
			<desc>16-bit input</desc>
			<v:textBlock v:margins="rect(0,0,0,0)"/>
			<v:textRect cx="63.7005" cy="307.65" width="127.41" height="16.2"/>
			<rect x="0" y="299.55" width="127.401" height="16.2" class="st5"/>
			<text x="0" y="311.85" class="st6" v:langID="1033"><v:paragraph/><v:tabList/>16-bit input</text>		</g>
		<g id="shape34-37" v:mID="34" v:groupContext="shape" transform="translate(-280.8,194.25) rotate(-90)">
			<title>Sheet.34</title>
			<desc>12-bit output</desc>
			<v:textBlock v:margins="rect(0,0,0,0)"/>
			<v:textRect cx="87.75" cy="307.65" width="175.5" height="16.2"/>
			<rect x="0" y="299.55" width="175.5" height="16.2" class="st5"/>
			<text x="0" y="311.85" class="st6" v:langID="1033"><v:paragraph/><v:tabList/>12-bit output</text>		</g>
		<g id="shape35-40" v:mID="35" v:groupContext="shape" transform="translate(122.082,-120)">
			<title>Sheet.35</title>
			<desc>Slope ∆1</desc>
			<v:textBlock v:margins="rect(0,0,0,0)"/>
			<v:textRect cx="28.4341" cy="296.812" width="56.87" height="37.875"/>
			<rect x="0" y="277.875" width="56.8682" height="37.875" class="st5"/>
			<text x="11.53" y="292.61" class="st6" v:langID="1033"><v:paragraph v:horizAlign="1"/><v:tabList/>Slope</text>		</g>
		<g id="shape36-43" v:mID="36" v:groupContext="shape" transform="translate(269.831,-172.125)">
			<title>Sheet.36</title>
			<desc>Slope ∆2</desc>
			<v:textBlock v:margins="rect(0,0,0,0)"/>
			<v:textRect cx="28.4341" cy="296.812" width="56.87" height="37.875"/>
			<rect x="0" y="277.875" width="56.8682" height="37.875" class="st5"/>
			<text x="11.53" y="292.61" class="st6" v:langID="1033"><v:paragraph v:horizAlign="1"/><v:tabList/>Slope<v:newlineChar/><tspan
						x="20.67" dy="1.2em" class="st7">∆2</tspan></text>		</g>
	</g>
</svg>
