<?xml version="1.0" encoding="UTF-8" standalone="no"?>
<!DOCTYPE svg PUBLIC "-//W3C//DTD SVG 1.1//EN" "http://www.w3.org/Graphics/SVG/1.1/DTD/svg11.dtd">
<!-- Generated by Microsoft Visio, SVG Export PostDevelopmentManufacturingProcess.svg ManufacturingProcess -->
<svg xmlns="http://www.w3.org/2000/svg" xmlns:xlink="http://www.w3.org/1999/xlink" xmlns:ev="http://www.w3.org/2001/xml-events"
		xmlns:v="http://schemas.microsoft.com/visio/2003/SVGExtensions/" width="8.38542in" height="3.19792in"
		viewBox="0 0 603.75 230.25" xml:space="preserve" color-interpolation-filters="sRGB" class="st13">
	<v:documentProperties v:langID="1033" v:viewMarkup="false">
		<v:userDefs>
			<v:ud v:nameU="msvNoAutoConnect" v:val="VT0(1):26"/>
			<v:ud v:nameU="msvConvertTheme"/>
		</v:userDefs>
	</v:documentProperties>

	<style type="text/css">
	<![CDATA[
		.st1 {fill:#ffffff;stroke:#7f7f7f;stroke-linecap:round;stroke-linejoin:round;stroke-width:0.75}
		.st2 {fill:#000000;font-family:Trebuchet MS;font-size:1.16666em}
		.st3 {font-size:1em}
		.st4 {fill:#b7ebff;stroke:#000000;stroke-linecap:round;stroke-linejoin:round;stroke-width:0.5}
		.st5 {fill:#000000;font-family:Trebuchet MS;font-size:1.00001em}
		.st6 {marker-end:url(#mrkr4-22);stroke:#000000;stroke-linecap:round;stroke-linejoin:round;stroke-width:0.75}
		.st7 {fill:#000000;fill-opacity:1;stroke:#000000;stroke-opacity:1;stroke-width:0.22935779816514}
		.st8 {fill:#ddeebf;stroke:#000000;stroke-linecap:round;stroke-linejoin:round;stroke-width:0.5}
		.st9 {fill:#d8d8d8;stroke:#000000;stroke-linecap:butt;stroke-width:0.75}
		.st10 {fill:#747474;stroke:#000000;stroke-linecap:butt;stroke-width:0.75}
		.st11 {stroke:#000000;stroke-linecap:butt;stroke-width:0.75}
		.st12 {fill:#000000}
		.st13 {fill:none;fill-rule:evenodd;font-size:12px;overflow:visible;stroke-linecap:square;stroke-miterlimit:3}
	]]>
	</style>

	<defs id="Markers">
		<g id="lend4">
			<path d="M 2 1 L 0 0 L 2 -1 L 2 1 " style="stroke:none"/>
		</g>
		<marker id="mrkr4-22" class="st7" v:arrowType="4" v:arrowSize="2" v:setback="8.72" refX="-8.72" orient="auto"
				markerUnits="strokeWidth" overflow="visible">
			<use xlink:href="#lend4" transform="scale(-4.36,-4.36) "/>
		</marker>
	</defs>
	<g v:mID="14" v:index="5" v:groupContext="foregroundPage">
		<title>Post-Development Manufacturing Process</title>
		<v:pageProperties v:drawingScale="1" v:pageScale="1" v:drawingUnits="19" v:shadowOffsetX="9" v:shadowOffsetY="-9"/>
		<v:layer v:name="Flowchart" v:index="0"/>
		<v:layer v:name="Connector" v:index="1"/>
		<v:layer v:name="Power/Comm." v:index="2"/>
		<v:layer v:name="Electrical Appliance" v:index="3"/>
		<g id="shape107-1" v:mID="107" v:groupContext="shape" v:layerMember="0" transform="translate(360.375,-18.375)">
			<title>Process.107</title>
			<desc>Insecure environment</desc>
			<v:custProps>
				<v:cp v:nameU="Cost" v:lbl="Cost" v:prompt="" v:type="7" v:format="@" v:sortKey="" v:invis="false" v:ask="false"
						v:langID="1033" v:cal="0"/>
				<v:cp v:nameU="ProcessNumber" v:lbl="Process Number" v:prompt="" v:type="2" v:format="" v:sortKey=""
						v:invis="false" v:ask="false" v:langID="1033" v:cal="0"/>
				<v:cp v:nameU="Owner" v:lbl="Owner" v:prompt="" v:type="0" v:format="" v:sortKey="" v:invis="false" v:ask="false"
						v:langID="1033" v:cal="0"/>
				<v:cp v:nameU="Function" v:lbl="Function" v:prompt="" v:type="0" v:format="" v:sortKey="" v:invis="false"
						v:ask="false" v:langID="1033" v:cal="0" v:val="VT4()"/>
				<v:cp v:nameU="StartDate" v:lbl="Start Date" v:prompt="" v:type="5" v:format="" v:sortKey="" v:invis="false"
						v:ask="false" v:langID="1033" v:cal="0"/>
				<v:cp v:nameU="EndDate" v:lbl="End Date" v:prompt="" v:type="5" v:format="" v:sortKey="" v:invis="false"
						v:ask="false" v:langID="1033" v:cal="0"/>
				<v:cp v:nameU="Status" v:lbl="Status" v:prompt="" v:type="4"
						v:format=";Not Started;In Progress;Completed;Deferred;Waiting on Input" v:sortKey="" v:invis="false"
						v:ask="false" v:langID="1033" v:cal="0" v:val="VT4()"/>
			</v:custProps>
			<v:userDefs>
				<v:ud v:nameU="visVersion" v:prompt="" v:val="VT0(15):26"/>
				<v:ud v:nameU="DefaultWidth" v:prompt="" v:val="VT0(1):0"/>
				<v:ud v:nameU="DefaultHeight" v:prompt="" v:val="VT0(0.75):0"/>
				<v:ud v:nameU="ResizeTxtHeight" v:prompt="" v:val="VT0(0.75):0"/>
			</v:userDefs>
			<v:textBlock v:margins="rect(6,6,2,6)" v:verticalAlign="0"/>
			<v:textRect cx="112.5" cy="133.5" width="225" height="193.5"/>
			<rect x="0" y="36.75" width="225" height="193.5" class="st1"/>
			<text x="166.49" y="54.3" class="st2" v:langID="1033"><v:paragraph v:spLine="-1.1" v:horizAlign="2"/><v:tabList/>Insecure<v:newlineChar/><tspan
						x="139.81" dy="1.1em" class="st3">environment</tspan></text>		</g>
		<g id="shape2-5" v:mID="2" v:groupContext="shape" v:layerMember="0" transform="translate(18.375,-18.375)">
			<title>Process.43</title>
			<desc>Secure environment</desc>
			<v:custProps>
				<v:cp v:nameU="Cost" v:lbl="Cost" v:prompt="" v:type="7" v:format="@" v:sortKey="" v:invis="false" v:ask="false"
						v:langID="1033" v:cal="0"/>
				<v:cp v:nameU="ProcessNumber" v:lbl="Process Number" v:prompt="" v:type="2" v:format="" v:sortKey=""
						v:invis="false" v:ask="false" v:langID="1033" v:cal="0"/>
				<v:cp v:nameU="Owner" v:lbl="Owner" v:prompt="" v:type="0" v:format="" v:sortKey="" v:invis="false" v:ask="false"
						v:langID="1033" v:cal="0"/>
				<v:cp v:nameU="Function" v:lbl="Function" v:prompt="" v:type="0" v:format="" v:sortKey="" v:invis="false"
						v:ask="false" v:langID="1033" v:cal="0" v:val="VT4()"/>
				<v:cp v:nameU="StartDate" v:lbl="Start Date" v:prompt="" v:type="5" v:format="" v:sortKey="" v:invis="false"
						v:ask="false" v:langID="1033" v:cal="0"/>
				<v:cp v:nameU="EndDate" v:lbl="End Date" v:prompt="" v:type="5" v:format="" v:sortKey="" v:invis="false"
						v:ask="false" v:langID="1033" v:cal="0"/>
				<v:cp v:nameU="Status" v:lbl="Status" v:prompt="" v:type="4"
						v:format=";Not Started;In Progress;Completed;Deferred;Waiting on Input" v:sortKey="" v:invis="false"
						v:ask="false" v:langID="1033" v:cal="0" v:val="VT4()"/>
			</v:custProps>
			<v:userDefs>
				<v:ud v:nameU="visVersion" v:prompt="" v:val="VT0(15):26"/>
				<v:ud v:nameU="DefaultWidth" v:prompt="" v:val="VT0(1):0"/>
				<v:ud v:nameU="DefaultHeight" v:prompt="" v:val="VT0(0.75):0"/>
				<v:ud v:nameU="ResizeTxtHeight" v:prompt="" v:val="VT0(0.75):0"/>
			</v:userDefs>
			<v:textBlock v:margins="rect(6,6,2,6)" v:verticalAlign="0"/>
			<v:textRect cx="171" cy="133.5" width="342.01" height="193.5"/>
			<rect x="0" y="36.75" width="342" height="193.5" class="st1"/>
			<text x="6" y="54.3" class="st2" v:langID="1033"><v:paragraph v:spLine="-1.1"/><v:tabList/>Secure<v:newlineChar/><tspan
						x="6" dy="1.1em" class="st3">environment</tspan></text>		</g>
		<g id="shape102-9" v:mID="102" v:groupContext="shape" v:layerMember="0" transform="translate(45.375,-83.625)">
			<title>Process.102</title>
			<desc>Security keys</desc>
			<v:custProps>
				<v:cp v:nameU="Cost" v:lbl="Cost" v:prompt="" v:type="7" v:format="@" v:sortKey="" v:invis="false" v:ask="false"
						v:langID="1033" v:cal="0"/>
				<v:cp v:nameU="ProcessNumber" v:lbl="Process Number" v:prompt="" v:type="2" v:format="" v:sortKey=""
						v:invis="false" v:ask="false" v:langID="1033" v:cal="0"/>
				<v:cp v:nameU="Owner" v:lbl="Owner" v:prompt="" v:type="0" v:format="" v:sortKey="" v:invis="false" v:ask="false"
						v:langID="1033" v:cal="0"/>
				<v:cp v:nameU="Function" v:lbl="Function" v:prompt="" v:type="0" v:format="" v:sortKey="" v:invis="false"
						v:ask="false" v:langID="1033" v:cal="0" v:val="VT4()"/>
				<v:cp v:nameU="StartDate" v:lbl="Start Date" v:prompt="" v:type="5" v:format="" v:sortKey="" v:invis="false"
						v:ask="false" v:langID="1033" v:cal="0"/>
				<v:cp v:nameU="EndDate" v:lbl="End Date" v:prompt="" v:type="5" v:format="" v:sortKey="" v:invis="false"
						v:ask="false" v:langID="1033" v:cal="0"/>
				<v:cp v:nameU="Status" v:lbl="Status" v:prompt="" v:type="4"
						v:format=";Not Started;In Progress;Completed;Deferred;Waiting on Input" v:sortKey="" v:invis="false"
						v:ask="false" v:langID="1033" v:cal="0" v:val="VT4()"/>
			</v:custProps>
			<v:userDefs>
				<v:ud v:nameU="visVersion" v:prompt="" v:val="VT0(15):26"/>
				<v:ud v:nameU="DefaultWidth" v:prompt="" v:val="VT0(1):0"/>
				<v:ud v:nameU="DefaultHeight" v:prompt="" v:val="VT0(0.75):0"/>
				<v:ud v:nameU="ResizeTxtHeight" v:prompt="" v:val="VT0(0.75):0"/>
			</v:userDefs>
			<v:textBlock v:margins="rect(2,2,2,2)"/>
			<v:textRect cx="36" cy="212.25" width="72" height="36"/>
			<rect x="0" y="194.25" width="72" height="36" class="st4"/>
			<text x="14.21" y="208.83" class="st5" v:langID="1033"><v:paragraph v:spLine="-1.1" v:horizAlign="1"
						v:bulletSize="0.166667"/><v:tabList/>Security <tspan x="24.31" dy="1.115em" class="st3">keys</tspan></text>		</g>
		<g id="shape100-13" v:mID="100" v:groupContext="shape" v:layerMember="0" transform="translate(40.875,-79.125)">
			<title>Process.100</title>
			<desc>Security keys</desc>
			<v:custProps>
				<v:cp v:nameU="Cost" v:lbl="Cost" v:prompt="" v:type="7" v:format="@" v:sortKey="" v:invis="false" v:ask="false"
						v:langID="1033" v:cal="0"/>
				<v:cp v:nameU="ProcessNumber" v:lbl="Process Number" v:prompt="" v:type="2" v:format="" v:sortKey=""
						v:invis="false" v:ask="false" v:langID="1033" v:cal="0"/>
				<v:cp v:nameU="Owner" v:lbl="Owner" v:prompt="" v:type="0" v:format="" v:sortKey="" v:invis="false" v:ask="false"
						v:langID="1033" v:cal="0"/>
				<v:cp v:nameU="Function" v:lbl="Function" v:prompt="" v:type="0" v:format="" v:sortKey="" v:invis="false"
						v:ask="false" v:langID="1033" v:cal="0" v:val="VT4()"/>
				<v:cp v:nameU="StartDate" v:lbl="Start Date" v:prompt="" v:type="5" v:format="" v:sortKey="" v:invis="false"
						v:ask="false" v:langID="1033" v:cal="0"/>
				<v:cp v:nameU="EndDate" v:lbl="End Date" v:prompt="" v:type="5" v:format="" v:sortKey="" v:invis="false"
						v:ask="false" v:langID="1033" v:cal="0"/>
				<v:cp v:nameU="Status" v:lbl="Status" v:prompt="" v:type="4"
						v:format=";Not Started;In Progress;Completed;Deferred;Waiting on Input" v:sortKey="" v:invis="false"
						v:ask="false" v:langID="1033" v:cal="0" v:val="VT4()"/>
			</v:custProps>
			<v:userDefs>
				<v:ud v:nameU="visVersion" v:prompt="" v:val="VT0(15):26"/>
				<v:ud v:nameU="DefaultWidth" v:prompt="" v:val="VT0(1):0"/>
				<v:ud v:nameU="DefaultHeight" v:prompt="" v:val="VT0(0.75):0"/>
				<v:ud v:nameU="ResizeTxtHeight" v:prompt="" v:val="VT0(0.75):0"/>
			</v:userDefs>
			<v:textBlock v:margins="rect(2,2,2,2)"/>
			<v:textRect cx="36" cy="212.25" width="72" height="36"/>
			<rect x="0" y="194.25" width="72" height="36" class="st4"/>
			<text x="14.21" y="208.83" class="st5" v:langID="1033"><v:paragraph v:spLine="-1.1" v:horizAlign="1"
						v:bulletSize="0.166667"/><v:tabList/>Security <tspan x="24.31" dy="1.115em" class="st3">keys</tspan></text>		</g>
		<g id="shape34-17" v:mID="34" v:groupContext="shape" transform="translate(477.375,-141.568)">
			<title>Sheet.34</title>
			<path d="M0 230.25 L19.9 230.25" class="st6"/>
		</g>
		<g id="shape4-23" v:mID="4" v:groupContext="shape" v:layerMember="0" transform="translate(387.375,-128.068)">
			<title>Process.4</title>
			<desc>Flash machine</desc>
			<v:custProps>
				<v:cp v:nameU="Cost" v:lbl="Cost" v:prompt="" v:type="7" v:format="@" v:sortKey="" v:invis="false" v:ask="false"
						v:langID="1033" v:cal="0"/>
				<v:cp v:nameU="ProcessNumber" v:lbl="Process Number" v:prompt="" v:type="2" v:format="" v:sortKey=""
						v:invis="false" v:ask="false" v:langID="1033" v:cal="0"/>
				<v:cp v:nameU="Owner" v:lbl="Owner" v:prompt="" v:type="0" v:format="" v:sortKey="" v:invis="false" v:ask="false"
						v:langID="1033" v:cal="0"/>
				<v:cp v:nameU="Function" v:lbl="Function" v:prompt="" v:type="0" v:format="" v:sortKey="" v:invis="false"
						v:ask="false" v:langID="1033" v:cal="0" v:val="VT4()"/>
				<v:cp v:nameU="StartDate" v:lbl="Start Date" v:prompt="" v:type="5" v:format="" v:sortKey="" v:invis="false"
						v:ask="false" v:langID="1033" v:cal="0"/>
				<v:cp v:nameU="EndDate" v:lbl="End Date" v:prompt="" v:type="5" v:format="" v:sortKey="" v:invis="false"
						v:ask="false" v:langID="1033" v:cal="0"/>
				<v:cp v:nameU="Status" v:lbl="Status" v:prompt="" v:type="4"
						v:format=";Not Started;In Progress;Completed;Deferred;Waiting on Input" v:sortKey="" v:invis="false"
						v:ask="false" v:langID="1033" v:cal="0" v:val="VT4()"/>
			</v:custProps>
			<v:userDefs>
				<v:ud v:nameU="visVersion" v:prompt="" v:val="VT0(15):26"/>
				<v:ud v:nameU="DefaultWidth" v:prompt="" v:val="VT0(1):0"/>
				<v:ud v:nameU="DefaultHeight" v:prompt="" v:val="VT0(0.75):0"/>
				<v:ud v:nameU="ResizeTxtHeight" v:prompt="" v:val="VT0(0.75):0"/>
			</v:userDefs>
			<v:textBlock v:margins="rect(2,2,2,2)"/>
			<v:textRect cx="45" cy="216.75" width="90" height="27"/>
			<rect x="0" y="203.25" width="90" height="27" class="st8"/>
			<text x="6.77" y="220.05" class="st5" v:langID="1033"><v:paragraph v:spLine="-1.1" v:horizAlign="1"/><v:tabList/>Flash machine</text>		</g>
		<g id="group28-26" transform="translate(503.809,-123.752)" v:mID="28" v:groupContext="group" v:layerMember="2;3">
			<v:custProps>
				<v:cp v:nameU="ShapeClass" v:lbl="Shape class" v:invis="true" v:langID="1033" v:val="VT4(Asset)"/>
				<v:cp v:nameU="shapetype" v:lbl="Shape type" v:invis="true" v:langID="1033" v:val="VT4(Electrical Appliance)"/>
				<v:cp v:nameU="SubShapeType" v:lbl="Subshape type" v:invis="true" v:langID="1033" v:val="VT4()"/>
				<v:cp v:nameU="ID" v:lbl="ID" v:type="0" v:invis="false" v:langID="1033"/>
				<v:cp v:nameU="Name" v:lbl="Name" v:type="0" v:invis="false" v:langID="1033"/>
				<v:cp v:nameU="Department" v:lbl="Department" v:type="0" v:invis="false" v:langID="1033"/>
				<v:cp v:nameU="BelongsTo" v:lbl="Belongs to" v:type="0" v:invis="true" v:langID="1033"/>
				<v:cp v:nameU="Modify" v:lbl="Modified" v:type="5" v:invis="false" v:langID="1033"/>
				<v:cp v:nameU="AssetNumber" v:lbl="Asset number" v:type="0" v:invis="false" v:langID="1033"/>
				<v:cp v:nameU="SerialNumber" v:lbl="Serial number" v:type="0" v:invis="false" v:langID="1033"/>
				<v:cp v:nameU="ProductDescription" v:lbl="Product description" v:type="0" v:invis="false" v:langID="1033"/>
				<v:cp v:nameU="PurchaseDate" v:lbl="Purchase date" v:type="5" v:invis="false" v:langID="1033"/>
				<v:cp v:nameU="ProductNumber" v:lbl="Product number" v:type="0" v:langID="1033"/>
				<v:cp v:nameU="BaseElevation" v:lbl="Base elevation" v:type="2" v:langID="1033"/>
			</v:custProps>
			<v:userDefs>
				<v:ud v:nameU="3D_type" v:val="VT0(1):26"/>
				<v:ud v:nameU="3D_model_id" v:val="VT4(hub)"/>
				<v:ud v:nameU="visFMName"/>
				<v:ud v:nameU="AntiScale" v:val="VT0(0):26"/>
				<v:ud v:nameU="HasText" v:val="VT0(0):5"/>
				<v:ud v:nameU="visVersion" v:val="VT0(16):26"/>
				<v:ud v:nameU="solsh" v:val="VT4({5D50005D-537C-4738-9C46-130C74335A6D})"/>
				<v:ud v:nameU="ShapeClass" v:prompt="Asset" v:val="VT0(2):26"/>
				<v:ud v:nameU="shapetype" v:prompt="Electrical Appliance" v:val="VT0(11):26"/>
				<v:ud v:nameU="SubShapeType" v:prompt="" v:val="VT0(0):26"/>
				<v:ud v:nameU="HasText" v:prompt="" v:val="VT0(1):5"/>
			</v:userDefs>
			<title>Hub</title>
			<desc>Device</desc>
			<g id="shape29-27" v:mID="29" v:groupContext="shape" v:layerMember="3;2">
				<title>Sheet.29</title>
				<path d="M52.54 230.25 L2.03 230.25 L0 224.69 L0 194.62 L54.57 194.62 L54.57 224.69 L52.54 230.25 Z" class="st9"/>
			</g>
			<g id="shape30-29" v:mID="30" v:groupContext="shape" v:layerMember="3;2">
				<title>Sheet.30</title>
				<path d="M52.54 230.25 L2.03 230.25 L0 224.69 L54.57 224.69 L52.54 230.25 Z" class="st10"/>
			</g>
			<g id="shape31-31" v:mID="31" v:groupContext="shape" v:layerMember="3;2">
				<title>Sheet.31</title>
				<path d="M52.54 230.25 L2.03 230.25 L0 224.69 L0 194.62 L54.57 194.62 L54.57 224.69 L52.54 230.25" class="st11"/>
			</g>
			<g id="shape32-34" v:mID="32" v:groupContext="shape" v:layerMember="3;2"
					transform="translate(54.5654,454.938) rotate(180)">
				<title>Sheet.32</title>
				<path d="M0 230.25 L54.57 230.25" class="st11"/>
			</g>
			<g id="shape33-37" v:mID="33" v:groupContext="shape" v:layerMember="3;2" transform="translate(0,-1.45608)">
				<title>Sheet.33</title>
				<path d="M8.5 230.25 L6.27 230.25 L6.14 229.94 L5.79 229.94 L5.28 228.28 L9.28 228.28 L8.86 229.94 L8.59 229.94 L8.5
							 230.25 L16.59 230.25 L14.36 230.25 L14.23 229.94 L13.89 229.94 L13.38 228.28 L17.37 228.28 L16.95 229.94
							 L16.68 229.94 L16.59 230.25 L8.5 230.25 ZM24.69 230.25 L22.46 230.25 L22.33 229.94 L21.99 229.94 L21.48
							 228.28 L25.47 228.28 L25.05 229.94 L24.78 229.94 L24.69 230.25 L32.79 230.25 L30.55 230.25 L30.43 229.94
							 L30.08 229.94 L29.57 228.28 L33.57 228.28 L33.15 229.94 L32.88 229.94 L32.79 230.25 L24.69 230.25 ZM40.88
							 230.25 L38.65 230.25 L38.52 229.94 L38.18 229.94 L37.67 228.28 L41.66 228.28 L41.24 229.94 L40.97 229.94
							 L40.88 230.25 L48.98 230.25 L46.75 230.25 L46.62 229.94 L46.27 229.94 L45.76 228.28 L49.76 228.28 L49.34
							 229.94 L49.07 229.94 L48.98 230.25 L40.88 230.25 ZM51.52 210.28 C51.24 210.28 51.02 210.04 51.02 209.75
							 C51.02 209.46 51.24 209.22 51.52 209.22 L54.57 209.22 L54.57 210.28 L51.52 210.28 L51.52 205.08 C51.24
							 205.08 51.02 204.84 51.02 204.55 C51.02 204.26 51.24 204.02 51.52 204.02 L54.57 204.02 L54.57 205.08
							 L51.52 205.08 L51.52 210.28 ZM51.52 207.68 C51.24 207.68 51.02 207.44 51.02 207.15 C51.02 206.86 51.24
							 206.62 51.52 206.62 L54.57 206.62 L54.57 207.68 L51.52 207.68 L51.52 212.88 C51.24 212.88 51.02 212.64
							 51.02 212.35 C51.02 212.06 51.24 211.82 51.52 211.82 L54.57 211.82 L54.57 212.88 L51.52 212.88 L51.52
							 207.68 ZM51.52 215.47 C51.24 215.47 51.02 215.24 51.02 214.95 C51.02 214.65 51.24 214.42 51.52 214.42
							 L54.57 214.42 L54.57 215.47 L51.52 215.47 L3.04 210.28 C3.32 210.28 3.55 210.04 3.55 209.75 C3.55 209.46
							 3.32 209.22 3.04 209.22 L0 209.22 L0 210.28 L3.04 210.28 L51.52 215.47 ZM48.66 222.05 a0.845084 0.880772
							 0 1 1 -1.69017 0 a0.845084 0.880772 0 1 1 1.69017 0 ZM45.24 222.05 a0.845084 0.880772 0 1 1 -1.69017
							 0 a0.845084 0.880772 0 1 1 1.69017 0 ZM41.82 222.05 a0.845084 0.880772 0 1 1 -1.69017 0 a0.845084 0.880772
							 0 1 1 1.69017 0 ZM3.04 205.08 C3.32 205.08 3.55 204.84 3.55 204.55 C3.55 204.26 3.32 204.02 3.04 204.02
							 L0 204.02 L0 205.08 L3.04 205.08 L3.04 207.68 C3.32 207.68 3.55 207.44 3.55 207.15 C3.55 206.86 3.32
							 206.62 3.04 206.62 L0 206.62 L0 207.68 L3.04 207.68 L3.04 205.08 ZM3.04 212.88 C3.32 212.88 3.55 212.64
							 3.55 212.35 C3.55 212.06 3.32 211.82 3.04 211.82 L0 211.82 L0 212.88 L3.04 212.88 L3.04 215.47 C3.32
							 215.47 3.55 215.24 3.55 214.95 C3.55 214.65 3.32 214.42 3.04 214.42 L0 214.42 L0 215.47 L3.04 215.47
							 L3.04 212.88 Z" class="st12"/>
			</g>
			<g id="shape28-40" v:mID="28" v:groupContext="groupContent" v:layerMember="2;3">
				<v:textBlock v:margins="rect(0,0,0,0)" v:verticalAlign="0"/>
				<v:textRect cx="27.283" cy="212.435" width="39.31" height="14.4037"/>
				<text x="7.63" y="216.03" class="st5" v:langID="1033"><v:paragraph/><v:tabList/>Device</text>			</g>
		</g>
		<g id="shape81-42" v:mID="81" v:groupContext="shape" transform="translate(477.375,-97.125)">
			<title>Sheet.81</title>
			<path d="M0 230.25 L19.9 230.25" class="st6"/>
		</g>
		<g id="shape82-47" v:mID="82" v:groupContext="shape" v:layerMember="0" transform="translate(387.375,-83.625)">
			<title>Process.82</title>
			<desc>Flash machine</desc>
			<v:custProps>
				<v:cp v:nameU="Cost" v:lbl="Cost" v:prompt="" v:type="7" v:format="@" v:sortKey="" v:invis="false" v:ask="false"
						v:langID="1033" v:cal="0"/>
				<v:cp v:nameU="ProcessNumber" v:lbl="Process Number" v:prompt="" v:type="2" v:format="" v:sortKey=""
						v:invis="false" v:ask="false" v:langID="1033" v:cal="0"/>
				<v:cp v:nameU="Owner" v:lbl="Owner" v:prompt="" v:type="0" v:format="" v:sortKey="" v:invis="false" v:ask="false"
						v:langID="1033" v:cal="0"/>
				<v:cp v:nameU="Function" v:lbl="Function" v:prompt="" v:type="0" v:format="" v:sortKey="" v:invis="false"
						v:ask="false" v:langID="1033" v:cal="0" v:val="VT4()"/>
				<v:cp v:nameU="StartDate" v:lbl="Start Date" v:prompt="" v:type="5" v:format="" v:sortKey="" v:invis="false"
						v:ask="false" v:langID="1033" v:cal="0"/>
				<v:cp v:nameU="EndDate" v:lbl="End Date" v:prompt="" v:type="5" v:format="" v:sortKey="" v:invis="false"
						v:ask="false" v:langID="1033" v:cal="0"/>
				<v:cp v:nameU="Status" v:lbl="Status" v:prompt="" v:type="4"
						v:format=";Not Started;In Progress;Completed;Deferred;Waiting on Input" v:sortKey="" v:invis="false"
						v:ask="false" v:langID="1033" v:cal="0" v:val="VT4()"/>
			</v:custProps>
			<v:userDefs>
				<v:ud v:nameU="visVersion" v:prompt="" v:val="VT0(15):26"/>
				<v:ud v:nameU="DefaultWidth" v:prompt="" v:val="VT0(1):0"/>
				<v:ud v:nameU="DefaultHeight" v:prompt="" v:val="VT0(0.75):0"/>
				<v:ud v:nameU="ResizeTxtHeight" v:prompt="" v:val="VT0(0.75):0"/>
			</v:userDefs>
			<v:textBlock v:margins="rect(2,2,2,2)"/>
			<v:textRect cx="45" cy="216.75" width="90" height="27"/>
			<rect x="0" y="203.25" width="90" height="27" class="st8"/>
			<text x="6.77" y="220.05" class="st5" v:langID="1033"><v:paragraph v:spLine="-1.1" v:horizAlign="1"/><v:tabList/>Flash machine</text>		</g>
		<g id="group83-50" transform="translate(503.809,-79.125)" v:mID="83" v:groupContext="group" v:layerMember="2;3">
			<v:custProps>
				<v:cp v:nameU="ShapeClass" v:lbl="Shape class" v:invis="true" v:langID="1033" v:val="VT4(Asset)"/>
				<v:cp v:nameU="shapetype" v:lbl="Shape type" v:invis="true" v:langID="1033" v:val="VT4(Electrical Appliance)"/>
				<v:cp v:nameU="SubShapeType" v:lbl="Subshape type" v:invis="true" v:langID="1033" v:val="VT4()"/>
				<v:cp v:nameU="ID" v:lbl="ID" v:type="0" v:invis="false" v:langID="1033"/>
				<v:cp v:nameU="Name" v:lbl="Name" v:type="0" v:invis="false" v:langID="1033"/>
				<v:cp v:nameU="Department" v:lbl="Department" v:type="0" v:invis="false" v:langID="1033"/>
				<v:cp v:nameU="BelongsTo" v:lbl="Belongs to" v:type="0" v:invis="true" v:langID="1033"/>
				<v:cp v:nameU="Modify" v:lbl="Modified" v:type="5" v:invis="false" v:langID="1033"/>
				<v:cp v:nameU="AssetNumber" v:lbl="Asset number" v:type="0" v:invis="false" v:langID="1033"/>
				<v:cp v:nameU="SerialNumber" v:lbl="Serial number" v:type="0" v:invis="false" v:langID="1033"/>
				<v:cp v:nameU="ProductDescription" v:lbl="Product description" v:type="0" v:invis="false" v:langID="1033"/>
				<v:cp v:nameU="PurchaseDate" v:lbl="Purchase date" v:type="5" v:invis="false" v:langID="1033"/>
				<v:cp v:nameU="ProductNumber" v:lbl="Product number" v:type="0" v:langID="1033"/>
				<v:cp v:nameU="BaseElevation" v:lbl="Base elevation" v:type="2" v:langID="1033"/>
			</v:custProps>
			<v:userDefs>
				<v:ud v:nameU="3D_type" v:val="VT0(1):26"/>
				<v:ud v:nameU="3D_model_id" v:val="VT4(hub)"/>
				<v:ud v:nameU="visFMName"/>
				<v:ud v:nameU="AntiScale" v:val="VT0(0):26"/>
				<v:ud v:nameU="HasText" v:val="VT0(0):5"/>
				<v:ud v:nameU="visVersion" v:val="VT0(16):26"/>
				<v:ud v:nameU="solsh" v:val="VT4({5D50005D-537C-4738-9C46-130C74335A6D})"/>
				<v:ud v:nameU="ShapeClass" v:prompt="Asset" v:val="VT0(2):26"/>
				<v:ud v:nameU="shapetype" v:prompt="Electrical Appliance" v:val="VT0(11):26"/>
				<v:ud v:nameU="SubShapeType" v:prompt="" v:val="VT0(0):26"/>
				<v:ud v:nameU="HasText" v:prompt="" v:val="VT0(1):5"/>
			</v:userDefs>
			<title>Hub.83</title>
			<desc>Device</desc>
			<g id="shape84-51" v:mID="84" v:groupContext="shape" v:layerMember="3;2">
				<title>Sheet.84</title>
				<path d="M53.08 230.25 L2.05 230.25 L0 224.63 L0 194.25 L55.13 194.25 L55.13 224.63 L53.08 230.25 Z" class="st9"/>
			</g>
			<g id="shape85-53" v:mID="85" v:groupContext="shape" v:layerMember="3;2">
				<title>Sheet.85</title>
				<path d="M53.08 230.25 L2.05 230.25 L0 224.63 L55.13 224.63 L53.08 230.25 Z" class="st10"/>
			</g>
			<g id="shape86-55" v:mID="86" v:groupContext="shape" v:layerMember="3;2">
				<title>Sheet.86</title>
				<path d="M53.08 230.25 L2.05 230.25 L0 224.63 L0 194.25 L55.13 194.25 L55.13 224.63 L53.08 230.25" class="st11"/>
			</g>
			<g id="shape87-58" v:mID="87" v:groupContext="shape" v:layerMember="3;2"
					transform="translate(55.1315,454.88) rotate(180)">
				<title>Sheet.87</title>
				<path d="M0 230.25 L55.13 230.25" class="st11"/>
			</g>
			<g id="shape88-61" v:mID="88" v:groupContext="shape" v:layerMember="3;2" transform="translate(0,-1.47119)">
				<title>Sheet.88</title>
				<path d="M8.59 230.25 L6.33 230.25 L6.2 229.94 L5.85 229.94 L5.34 228.26 L9.38 228.26 L8.95 229.94 L8.68 229.94 L8.59
							 230.25 L16.77 230.25 L14.51 230.25 L14.38 229.94 L14.03 229.94 L13.52 228.26 L17.55 228.26 L17.13 229.94
							 L16.86 229.94 L16.77 230.25 L8.59 230.25 ZM24.95 230.25 L22.69 230.25 L22.56 229.94 L22.21 229.94 L21.7
							 228.26 L25.73 228.26 L25.31 229.94 L25.04 229.94 L24.95 230.25 L33.13 230.25 L30.87 230.25 L30.74 229.94
							 L30.39 229.94 L29.88 228.26 L33.91 228.26 L33.49 229.94 L33.22 229.94 L33.13 230.25 L24.95 230.25 ZM41.31
							 230.25 L39.05 230.25 L38.92 229.94 L38.57 229.94 L38.06 228.26 L42.09 228.26 L41.67 229.94 L41.4 229.94
							 L41.31 230.25 L49.49 230.25 L47.23 230.25 L47.1 229.94 L46.75 229.94 L46.24 228.26 L50.27 228.26 L49.85
							 229.94 L49.58 229.94 L49.49 230.25 L41.31 230.25 ZM52.06 210.07 C51.77 210.07 51.55 209.83 51.55 209.54
							 C51.55 209.24 51.77 209 52.06 209 L55.13 209 L55.13 210.07 L52.06 210.07 L52.06 204.82 C51.77 204.82
							 51.54 204.58 51.55 204.29 C51.55 203.99 51.77 203.75 52.06 203.75 L55.13 203.75 L55.13 204.82 L52.06
							 204.82 L52.06 210.07 ZM52.06 207.45 C51.77 207.45 51.54 207.21 51.55 206.91 C51.55 206.62 51.77 206.38
							 52.06 206.38 L55.13 206.38 L55.13 207.45 L52.06 207.45 L52.06 212.7 C51.77 212.7 51.54 212.46 51.55
							 212.16 C51.55 211.87 51.77 211.63 52.06 211.63 L55.13 211.63 L55.13 212.7 L52.06 212.7 L52.06 207.45
							 ZM52.06 215.32 C51.77 215.32 51.54 215.08 51.55 214.79 C51.55 214.49 51.77 214.25 52.06 214.25 L55.13
							 214.25 L55.13 215.32 L52.06 215.32 L3.07 210.07 C3.36 210.07 3.59 209.83 3.59 209.54 C3.59 209.24 3.36
							 209 3.07 209 L0 209 L0 210.07 L3.07 210.07 L52.06 215.32 ZM49.17 221.96 a0.853851 0.88991 0 1 1 -1.7077
							 0 a0.853851 0.88991 0 1 1 1.7077 0 ZM45.71 221.96 a0.853851 0.88991 0 1 1 -1.7077 0 a0.853851 0.88991
							 0 1 1 1.7077 0 ZM42.25 221.96 a0.853851 0.88991 0 1 1 -1.7077 0 a0.853851 0.88991 0 1 1 1.7077 0 ZM3.07
							 204.82 C3.36 204.82 3.59 204.58 3.59 204.29 C3.59 203.99 3.36 203.75 3.07 203.75 L0 203.75 L0 204.82
							 L3.07 204.82 L3.07 207.45 C3.36 207.45 3.59 207.21 3.59 206.91 C3.59 206.62 3.36 206.38 3.07 206.38
							 L0 206.38 L0 207.45 L3.07 207.45 L3.07 204.82 ZM3.07 212.7 C3.36 212.7 3.59 212.46 3.59 212.16 C3.59
							 211.87 3.36 211.63 3.07 211.63 L0 211.63 L0 212.7 L3.07 212.7 L3.07 215.32 C3.36 215.32 3.59 215.08
							 3.59 214.79 C3.59 214.49 3.36 214.25 3.07 214.25 L0 214.25 L0 215.32 L3.07 215.32 L3.07 212.7 Z"
						class="st12"/>
			</g>
			<g id="shape83-64" v:mID="83" v:groupContext="groupContent" v:layerMember="2;3">
				<v:textBlock v:margins="rect(0,0,0,0)" v:verticalAlign="0"/>
				<v:textRect cx="27.5661" cy="212.25" width="39.31" height="14.4037"/>
				<text x="7.91" y="215.85" class="st5" v:langID="1033"><v:paragraph/><v:tabList/>Device</text>			</g>
		</g>
		<g id="shape91-66" v:mID="91" v:groupContext="shape" transform="translate(477.375,-52.125)">
			<title>Sheet.91</title>
			<path d="M0 230.25 L19.9 230.25" class="st6"/>
		</g>
		<g id="shape92-71" v:mID="92" v:groupContext="shape" v:layerMember="0" transform="translate(387.375,-38.625)">
			<title>Process.92</title>
			<desc>Flash machine</desc>
			<v:custProps>
				<v:cp v:nameU="Cost" v:lbl="Cost" v:prompt="" v:type="7" v:format="@" v:sortKey="" v:invis="false" v:ask="false"
						v:langID="1033" v:cal="0"/>
				<v:cp v:nameU="ProcessNumber" v:lbl="Process Number" v:prompt="" v:type="2" v:format="" v:sortKey=""
						v:invis="false" v:ask="false" v:langID="1033" v:cal="0"/>
				<v:cp v:nameU="Owner" v:lbl="Owner" v:prompt="" v:type="0" v:format="" v:sortKey="" v:invis="false" v:ask="false"
						v:langID="1033" v:cal="0"/>
				<v:cp v:nameU="Function" v:lbl="Function" v:prompt="" v:type="0" v:format="" v:sortKey="" v:invis="false"
						v:ask="false" v:langID="1033" v:cal="0" v:val="VT4()"/>
				<v:cp v:nameU="StartDate" v:lbl="Start Date" v:prompt="" v:type="5" v:format="" v:sortKey="" v:invis="false"
						v:ask="false" v:langID="1033" v:cal="0"/>
				<v:cp v:nameU="EndDate" v:lbl="End Date" v:prompt="" v:type="5" v:format="" v:sortKey="" v:invis="false"
						v:ask="false" v:langID="1033" v:cal="0"/>
				<v:cp v:nameU="Status" v:lbl="Status" v:prompt="" v:type="4"
						v:format=";Not Started;In Progress;Completed;Deferred;Waiting on Input" v:sortKey="" v:invis="false"
						v:ask="false" v:langID="1033" v:cal="0" v:val="VT4()"/>
			</v:custProps>
			<v:userDefs>
				<v:ud v:nameU="visVersion" v:prompt="" v:val="VT0(15):26"/>
				<v:ud v:nameU="DefaultWidth" v:prompt="" v:val="VT0(1):0"/>
				<v:ud v:nameU="DefaultHeight" v:prompt="" v:val="VT0(0.75):0"/>
				<v:ud v:nameU="ResizeTxtHeight" v:prompt="" v:val="VT0(0.75):0"/>
			</v:userDefs>
			<v:textBlock v:margins="rect(2,2,2,2)"/>
			<v:textRect cx="45" cy="216.75" width="90" height="27"/>
			<rect x="0" y="203.25" width="90" height="27" class="st8"/>
			<text x="6.77" y="220.05" class="st5" v:langID="1033"><v:paragraph v:spLine="-1.1" v:horizAlign="1"/><v:tabList/>Flash machine</text>		</g>
		<g id="group93-74" transform="translate(503.809,-34.125)" v:mID="93" v:groupContext="group" v:layerMember="2;3">
			<v:custProps>
				<v:cp v:nameU="ShapeClass" v:lbl="Shape class" v:invis="true" v:langID="1033" v:val="VT4(Asset)"/>
				<v:cp v:nameU="shapetype" v:lbl="Shape type" v:invis="true" v:langID="1033" v:val="VT4(Electrical Appliance)"/>
				<v:cp v:nameU="SubShapeType" v:lbl="Subshape type" v:invis="true" v:langID="1033" v:val="VT4()"/>
				<v:cp v:nameU="ID" v:lbl="ID" v:type="0" v:invis="false" v:langID="1033"/>
				<v:cp v:nameU="Name" v:lbl="Name" v:type="0" v:invis="false" v:langID="1033"/>
				<v:cp v:nameU="Department" v:lbl="Department" v:type="0" v:invis="false" v:langID="1033"/>
				<v:cp v:nameU="BelongsTo" v:lbl="Belongs to" v:type="0" v:invis="true" v:langID="1033"/>
				<v:cp v:nameU="Modify" v:lbl="Modified" v:type="5" v:invis="false" v:langID="1033"/>
				<v:cp v:nameU="AssetNumber" v:lbl="Asset number" v:type="0" v:invis="false" v:langID="1033"/>
				<v:cp v:nameU="SerialNumber" v:lbl="Serial number" v:type="0" v:invis="false" v:langID="1033"/>
				<v:cp v:nameU="ProductDescription" v:lbl="Product description" v:type="0" v:invis="false" v:langID="1033"/>
				<v:cp v:nameU="PurchaseDate" v:lbl="Purchase date" v:type="5" v:invis="false" v:langID="1033"/>
				<v:cp v:nameU="ProductNumber" v:lbl="Product number" v:type="0" v:langID="1033"/>
				<v:cp v:nameU="BaseElevation" v:lbl="Base elevation" v:type="2" v:langID="1033"/>
			</v:custProps>
			<v:userDefs>
				<v:ud v:nameU="3D_type" v:val="VT0(1):26"/>
				<v:ud v:nameU="3D_model_id" v:val="VT4(hub)"/>
				<v:ud v:nameU="visFMName"/>
				<v:ud v:nameU="AntiScale" v:val="VT0(0):26"/>
				<v:ud v:nameU="HasText" v:val="VT0(0):5"/>
				<v:ud v:nameU="visVersion" v:val="VT0(16):26"/>
				<v:ud v:nameU="solsh" v:val="VT4({5D50005D-537C-4738-9C46-130C74335A6D})"/>
				<v:ud v:nameU="ShapeClass" v:prompt="Asset" v:val="VT0(2):26"/>
				<v:ud v:nameU="shapetype" v:prompt="Electrical Appliance" v:val="VT0(11):26"/>
				<v:ud v:nameU="SubShapeType" v:prompt="" v:val="VT0(0):26"/>
				<v:ud v:nameU="HasText" v:prompt="" v:val="VT0(1):5"/>
			</v:userDefs>
			<title>Hub.93</title>
			<desc>Device</desc>
			<g id="shape94-75" v:mID="94" v:groupContext="shape" v:layerMember="3;2">
				<title>Sheet.94</title>
				<path d="M53.08 230.25 L2.05 230.25 L0 224.63 L0 194.25 L55.13 194.25 L55.13 224.63 L53.08 230.25 Z" class="st9"/>
			</g>
			<g id="shape95-77" v:mID="95" v:groupContext="shape" v:layerMember="3;2">
				<title>Sheet.95</title>
				<path d="M53.08 230.25 L2.05 230.25 L0 224.63 L55.13 224.63 L53.08 230.25 Z" class="st10"/>
			</g>
			<g id="shape96-79" v:mID="96" v:groupContext="shape" v:layerMember="3;2">
				<title>Sheet.96</title>
				<path d="M53.08 230.25 L2.05 230.25 L0 224.63 L0 194.25 L55.13 194.25 L55.13 224.63 L53.08 230.25" class="st11"/>
			</g>
			<g id="shape97-82" v:mID="97" v:groupContext="shape" v:layerMember="3;2"
					transform="translate(55.1315,454.88) rotate(180)">
				<title>Sheet.97</title>
				<path d="M0 230.25 L55.13 230.25" class="st11"/>
			</g>
			<g id="shape98-85" v:mID="98" v:groupContext="shape" v:layerMember="3;2" transform="translate(0,-1.47119)">
				<title>Sheet.98</title>
				<path d="M8.59 230.25 L6.33 230.25 L6.2 229.94 L5.85 229.94 L5.34 228.26 L9.38 228.26 L8.95 229.94 L8.68 229.94 L8.59
							 230.25 L16.77 230.25 L14.51 230.25 L14.38 229.94 L14.03 229.94 L13.52 228.26 L17.55 228.26 L17.13 229.94
							 L16.86 229.94 L16.77 230.25 L8.59 230.25 ZM24.95 230.25 L22.69 230.25 L22.56 229.94 L22.21 229.94 L21.7
							 228.26 L25.73 228.26 L25.31 229.94 L25.04 229.94 L24.95 230.25 L33.13 230.25 L30.87 230.25 L30.74 229.94
							 L30.39 229.94 L29.88 228.26 L33.91 228.26 L33.49 229.94 L33.22 229.94 L33.13 230.25 L24.95 230.25 ZM41.31
							 230.25 L39.05 230.25 L38.92 229.94 L38.57 229.94 L38.06 228.26 L42.09 228.26 L41.67 229.94 L41.4 229.94
							 L41.31 230.25 L49.49 230.25 L47.23 230.25 L47.1 229.94 L46.75 229.94 L46.24 228.26 L50.27 228.26 L49.85
							 229.94 L49.58 229.94 L49.49 230.25 L41.31 230.25 ZM52.06 210.07 C51.77 210.07 51.55 209.83 51.55 209.54
							 C51.55 209.24 51.77 209 52.06 209 L55.13 209 L55.13 210.07 L52.06 210.07 L52.06 204.82 C51.77 204.82
							 51.54 204.58 51.55 204.29 C51.55 203.99 51.77 203.75 52.06 203.75 L55.13 203.75 L55.13 204.82 L52.06
							 204.82 L52.06 210.07 ZM52.06 207.45 C51.77 207.45 51.54 207.21 51.55 206.91 C51.55 206.62 51.77 206.38
							 52.06 206.38 L55.13 206.38 L55.13 207.45 L52.06 207.45 L52.06 212.7 C51.77 212.7 51.54 212.46 51.55
							 212.16 C51.55 211.87 51.77 211.63 52.06 211.63 L55.13 211.63 L55.13 212.7 L52.06 212.7 L52.06 207.45
							 ZM52.06 215.32 C51.77 215.32 51.54 215.08 51.55 214.79 C51.55 214.49 51.77 214.25 52.06 214.25 L55.13
							 214.25 L55.13 215.32 L52.06 215.32 L3.07 210.07 C3.36 210.07 3.59 209.83 3.59 209.54 C3.59 209.24 3.36
							 209 3.07 209 L0 209 L0 210.07 L3.07 210.07 L52.06 215.32 ZM49.17 221.96 a0.853851 0.88991 0 1 1 -1.7077
							 0 a0.853851 0.88991 0 1 1 1.7077 0 ZM45.71 221.96 a0.853851 0.88991 0 1 1 -1.7077 0 a0.853851 0.88991
							 0 1 1 1.7077 0 ZM42.25 221.96 a0.853851 0.88991 0 1 1 -1.7077 0 a0.853851 0.88991 0 1 1 1.7077 0 ZM3.07
							 204.82 C3.36 204.82 3.59 204.58 3.59 204.29 C3.59 203.99 3.36 203.75 3.07 203.75 L0 203.75 L0 204.82
							 L3.07 204.82 L3.07 207.45 C3.36 207.45 3.59 207.21 3.59 206.91 C3.59 206.62 3.36 206.38 3.07 206.38
							 L0 206.38 L0 207.45 L3.07 207.45 L3.07 204.82 ZM3.07 212.7 C3.36 212.7 3.59 212.46 3.59 212.16 C3.59
							 211.87 3.36 211.63 3.07 211.63 L0 211.63 L0 212.7 L3.07 212.7 L3.07 215.32 C3.36 215.32 3.59 215.08
							 3.59 214.79 C3.59 214.49 3.36 214.25 3.07 214.25 L0 214.25 L0 215.32 L3.07 215.32 L3.07 212.7 Z"
						class="st12"/>
			</g>
			<g id="shape93-88" v:mID="93" v:groupContext="groupContent" v:layerMember="2;3">
				<v:textBlock v:margins="rect(0,0,0,0)" v:verticalAlign="0"/>
				<v:textRect cx="27.5661" cy="212.25" width="39.31" height="14.4037"/>
				<text x="7.91" y="215.85" class="st5" v:langID="1033"><v:paragraph/><v:tabList/>Device</text>			</g>
		</g>
		<g id="shape99-90" v:mID="99" v:groupContext="shape" v:layerMember="0" transform="translate(153.375,-63.375)">
			<title>Process.99</title>
			<desc>Secure machine with hardware security module</desc>
			<v:custProps>
				<v:cp v:nameU="Cost" v:lbl="Cost" v:prompt="" v:type="7" v:format="@" v:sortKey="" v:invis="false" v:ask="false"
						v:langID="1033" v:cal="0"/>
				<v:cp v:nameU="ProcessNumber" v:lbl="Process Number" v:prompt="" v:type="2" v:format="" v:sortKey=""
						v:invis="false" v:ask="false" v:langID="1033" v:cal="0"/>
				<v:cp v:nameU="Owner" v:lbl="Owner" v:prompt="" v:type="0" v:format="" v:sortKey="" v:invis="false" v:ask="false"
						v:langID="1033" v:cal="0"/>
				<v:cp v:nameU="Function" v:lbl="Function" v:prompt="" v:type="0" v:format="" v:sortKey="" v:invis="false"
						v:ask="false" v:langID="1033" v:cal="0" v:val="VT4()"/>
				<v:cp v:nameU="StartDate" v:lbl="Start Date" v:prompt="" v:type="5" v:format="" v:sortKey="" v:invis="false"
						v:ask="false" v:langID="1033" v:cal="0"/>
				<v:cp v:nameU="EndDate" v:lbl="End Date" v:prompt="" v:type="5" v:format="" v:sortKey="" v:invis="false"
						v:ask="false" v:langID="1033" v:cal="0"/>
				<v:cp v:nameU="Status" v:lbl="Status" v:prompt="" v:type="4"
						v:format=";Not Started;In Progress;Completed;Deferred;Waiting on Input" v:sortKey="" v:invis="false"
						v:ask="false" v:langID="1033" v:cal="0" v:val="VT4()"/>
			</v:custProps>
			<v:userDefs>
				<v:ud v:nameU="visVersion" v:prompt="" v:val="VT0(15):26"/>
				<v:ud v:nameU="DefaultWidth" v:prompt="" v:val="VT0(1):0"/>
				<v:ud v:nameU="DefaultHeight" v:prompt="" v:val="VT0(0.75):0"/>
				<v:ud v:nameU="ResizeTxtHeight" v:prompt="" v:val="VT0(0.75):0"/>
			</v:userDefs>
			<v:textBlock v:margins="rect(2,2,2,2)"/>
			<v:textRect cx="90" cy="196.5" width="180" height="67.5"/>
			<rect x="0" y="162.75" width="180" height="67.5" class="st8"/>
			<text x="47.54" y="193.2" class="st5" v:langID="1033"><v:paragraph v:spLine="-1.1" v:horizAlign="1"/><v:tabList/>Secure machine<v:newlineChar/><tspan
						x="6.22" dy="1.1em" class="st3">with hardware security module</tspan></text>		</g>
		<g id="shape101-94" v:mID="101" v:groupContext="shape" v:layerMember="0" transform="translate(36.375,-74.625)">
			<title>Process.101</title>
			<desc>Security keys</desc>
			<v:custProps>
				<v:cp v:nameU="Cost" v:lbl="Cost" v:prompt="" v:type="7" v:format="@" v:sortKey="" v:invis="false" v:ask="false"
						v:langID="1033" v:cal="0"/>
				<v:cp v:nameU="ProcessNumber" v:lbl="Process Number" v:prompt="" v:type="2" v:format="" v:sortKey=""
						v:invis="false" v:ask="false" v:langID="1033" v:cal="0"/>
				<v:cp v:nameU="Owner" v:lbl="Owner" v:prompt="" v:type="0" v:format="" v:sortKey="" v:invis="false" v:ask="false"
						v:langID="1033" v:cal="0"/>
				<v:cp v:nameU="Function" v:lbl="Function" v:prompt="" v:type="0" v:format="" v:sortKey="" v:invis="false"
						v:ask="false" v:langID="1033" v:cal="0" v:val="VT4()"/>
				<v:cp v:nameU="StartDate" v:lbl="Start Date" v:prompt="" v:type="5" v:format="" v:sortKey="" v:invis="false"
						v:ask="false" v:langID="1033" v:cal="0"/>
				<v:cp v:nameU="EndDate" v:lbl="End Date" v:prompt="" v:type="5" v:format="" v:sortKey="" v:invis="false"
						v:ask="false" v:langID="1033" v:cal="0"/>
				<v:cp v:nameU="Status" v:lbl="Status" v:prompt="" v:type="4"
						v:format=";Not Started;In Progress;Completed;Deferred;Waiting on Input" v:sortKey="" v:invis="false"
						v:ask="false" v:langID="1033" v:cal="0" v:val="VT4()"/>
			</v:custProps>
			<v:userDefs>
				<v:ud v:nameU="visVersion" v:prompt="" v:val="VT0(15):26"/>
				<v:ud v:nameU="DefaultWidth" v:prompt="" v:val="VT0(1):0"/>
				<v:ud v:nameU="DefaultHeight" v:prompt="" v:val="VT0(0.75):0"/>
				<v:ud v:nameU="ResizeTxtHeight" v:prompt="" v:val="VT0(0.75):0"/>
			</v:userDefs>
			<v:textBlock v:margins="rect(2,2,2,2)"/>
			<v:textRect cx="36" cy="212.25" width="72" height="36"/>
			<rect x="0" y="194.25" width="72" height="36" class="st4"/>
			<text x="14.21" y="208.83" class="st5" v:langID="1033"><v:paragraph v:spLine="-1.1" v:horizAlign="1"
						v:bulletSize="0.166667"/><v:tabList/>Security <tspan x="24.31" dy="1.115em" class="st3">keys</tspan></text>		</g>
		<g id="shape103-98" v:mID="103" v:groupContext="shape" transform="translate(117.375,-97.125)">
			<title>Sheet.103</title>
			<path d="M0 230.25 L29.46 230.25" class="st6"/>
		</g>
		<g id="shape104-103" v:mID="104" v:groupContext="shape" transform="translate(333.375,-97.125) rotate(2.72631E-06)">
			<title>Sheet.104</title>
			<path d="M0 230.25 L47.46 230.25" class="st6"/>
		</g>
		<g id="shape105-108" v:mID="105" v:groupContext="shape" transform="translate(201.588,-62.4294) rotate(-34.9154)">
			<title>Sheet.105</title>
			<path d="M0 230.25 L59.31 230.25" class="st6"/>
		</g>
		<g id="shape106-113" v:mID="106" v:groupContext="shape" transform="translate(466.463,-48.0146) rotate(35.3112)">
			<title>Sheet.106</title>
			<path d="M0 230.25 L59.63 230.25" class="st6"/>
		</g>
	</g>
</svg>
