<?xml version="1.0" encoding="UTF-8" standalone="no"?>
<!DOCTYPE svg PUBLIC "-//W3C//DTD SVG 1.1//EN" "http://www.w3.org/Graphics/SVG/1.1/DTD/svg11.dtd">
<!-- Generated by Microsoft Visio, SVG Export ThermalFrameworkArchiecture.svg Page-1 -->
<svg xmlns="http://www.w3.org/2000/svg" xmlns:xlink="http://www.w3.org/1999/xlink" xmlns:ev="http://www.w3.org/2001/xml-events"
		xmlns:v="http://schemas.microsoft.com/visio/2003/SVGExtensions/" width="6.21181in" height="5.00868in"
		viewBox="0 0 447.25 360.625" xml:space="preserve" color-interpolation-filters="sRGB" class="st18">
	<v:documentProperties v:langID="1033" v:viewMarkup="false">
		<v:userDefs>
			<v:ud v:nameU="msvSubprocessMaster" v:prompt="" v:val="VT4(Rectangle)"/>
			<v:ud v:nameU="msvNoAutoConnect" v:val="VT0(1):26"/>
			<v:ud v:nameU="msvConvertTheme"/>
		</v:userDefs>
	</v:documentProperties>

	<style type="text/css">
	<![CDATA[
		.st1 {fill:none;stroke:none;stroke-linecap:round;stroke-linejoin:round;stroke-width:0.25}
		.st2 {fill:#000000;font-family:Trebuchet MS;font-size:1.00001em;font-weight:bold}
		.st3 {fill:url(#grad0-8);stroke:none;stroke-linecap:round;stroke-linejoin:round;stroke-width:0.25}
		.st4 {fill:url(#grad0-12);stroke:none;stroke-linecap:round;stroke-linejoin:round;stroke-width:0.25}
		.st5 {fill:#ddeebf;stroke:none;stroke-linecap:round;stroke-linejoin:round;stroke-width:0.25}
		.st6 {fill:#000000;font-family:Trebuchet MS;font-size:0.75em;font-weight:bold}
		.st7 {fill:#000000;font-family:Trebuchet MS;font-size:0.833336em;font-weight:bold}
		.st8 {stroke:none;stroke-linecap:round;stroke-linejoin:round;stroke-width:0.75}
		.st9 {visibility:visible}
		.st10 {stroke:none;stroke-linecap:round;stroke-linejoin:round;stroke-width:0.25}
		.st11 {fill:#000000;font-family:Trebuchet MS;font-size:0.833336em;font-style:italic;font-weight:bold}
		.st12 {fill:url(#grad0-45);stroke:none;stroke-linecap:round;stroke-linejoin:round;stroke-width:0.25}
		.st13 {fill:#689f00;stroke:none;stroke-linecap:round;stroke-linejoin:round;stroke-width:0.25}
		.st14 {fill:#ffffff;font-family:Trebuchet MS;font-size:0.833336em;font-weight:bold}
		.st15 {fill:url(#grad0-88);stroke:none;stroke-linecap:round;stroke-linejoin:round;stroke-width:0.25}
		.st16 {fill:#000000;font-family:Trebuchet MS;font-size:0.666664em}
		.st17 {fill:url(#grad0-265);stroke:none;stroke-linecap:round;stroke-linejoin:round;stroke-width:0.25}
		.st18 {fill:none;fill-rule:evenodd;font-size:12px;overflow:visible;stroke-linecap:square;stroke-miterlimit:3}
	]]>
	</style>

	<defs id="Patterns_And_Gradients">
		<linearGradient id="grad0-8" x1="0" y1="0" x2="1" y2="0" gradientTransform="rotate(270 0.5 0.5)">
			<stop offset="0" stop-color="#a4a4a4" stop-opacity="1"/>
			<stop offset="1" stop-color="#b2b2b2" stop-opacity="1"/>
		</linearGradient>
		<linearGradient id="grad0-12" x1="0" y1="0" x2="1" y2="0" gradientTransform="rotate(270 0.5 0.5)">
			<stop offset="0" stop-color="#689f00" stop-opacity="1"/>
			<stop offset="1" stop-color="#76b900" stop-opacity="1"/>
		</linearGradient>
		<linearGradient id="grad0-32" x1="0" y1="0" x2="1" y2="0" gradientTransform="rotate(270 0.5 0.5)">
			<stop offset="0" stop-color="#f0f0f0" stop-opacity="1"/>
			<stop offset="1" stop-color="#ffffff" stop-opacity="1"/>
		</linearGradient>
		<linearGradient id="grad0-45" x1="0" y1="0" x2="1" y2="0" gradientTransform="rotate(270 0.5 0.5)">
			<stop offset="0" stop-color="#7d7d7d" stop-opacity="1"/>
			<stop offset="1" stop-color="#8c8c8c" stop-opacity="1"/>
		</linearGradient>
		<linearGradient id="grad0-88" x1="0" y1="0" x2="1" y2="0" gradientTransform="rotate(270 0.5 0.5)">
			<stop offset="0" stop-color="#00402c" stop-opacity="1"/>
			<stop offset="1" stop-color="#004831" stop-opacity="1"/>
		</linearGradient>
		<linearGradient id="grad0-265" x1="0" y1="0" x2="1" y2="0" gradientTransform="rotate(270 0.5 0.5)">
			<stop offset="0" stop-color="#d1e8a8" stop-opacity="1"/>
			<stop offset="1" stop-color="#ddeebf" stop-opacity="1"/>
		</linearGradient>
	</defs>
	<g v:mID="0" v:index="1" v:groupContext="foregroundPage">
		<v:userDefs>
			<v:ud v:nameU="msvThemeColors" v:val="VT0(36):26"/>
			<v:ud v:nameU="msvThemeEffects" v:val="VT0(16):26"/>
			<v:ud v:nameU="msvThemeOrder" v:val="VT0(0):26"/>
		</v:userDefs>
		<title>Page-1</title>
		<v:pageProperties v:drawingScale="1" v:pageScale="1" v:drawingUnits="0" v:shadowOffsetX="9" v:shadowOffsetY="-9"/>
		<g id="group32-1" transform="translate(18,-18.25)" v:mID="32" v:groupContext="group">
			<v:userDefs>
				<v:ud v:nameU="msvThemeColors" v:val="VT0(36):26"/>
				<v:ud v:nameU="msvThemeEffects" v:val="VT0(16):26"/>
			</v:userDefs>
			<title>Sheet.32</title>
			<g id="shape1-2" v:mID="1" v:groupContext="shape" transform="translate(12.2568,-299.375)">
				<title>Sheet.1</title>
				<desc>Thermal Framework Architecture</desc>
				<v:userDefs>
					<v:ud v:nameU="msvThemeColors" v:val="VT0(36):26"/>
					<v:ud v:nameU="msvThemeEffects" v:val="VT0(16):26"/>
				</v:userDefs>
				<v:textBlock v:margins="rect(2,2,2,2)"/>
				<v:textRect cx="189.931" cy="348.25" width="379.87" height="24.75"/>
				<rect x="0" y="335.875" width="379.861" height="24.75" class="st1"/>
				<text x="95.53" y="351.85" class="st2" v:langID="1033"><v:paragraph v:horizAlign="1"/><v:tabList/>Thermal Framework Architecture</text>			</g>
			<g id="shape3-5" v:mID="3" v:groupContext="shape" transform="translate(0.25,-166.274)">
				<title>Sheet.3</title>
				<v:userDefs>
					<v:ud v:nameU="msvThemeColors" v:val="VT0(36):26"/>
					<v:ud v:nameU="msvThemeEffects" v:val="VT0(16):26"/>
				</v:userDefs>
				<rect x="0" y="224.149" width="403.875" height="136.476" rx="4.5" ry="4.5" class="st3"/>
			</g>
			<g id="shape4-9" v:mID="4" v:groupContext="shape" transform="translate(0.25,-33)">
				<title>Sheet.4</title>
				<v:userDefs>
					<v:ud v:nameU="msvThemeColors" v:val="VT0(36):26"/>
					<v:ud v:nameU="msvThemeEffects" v:val="VT0(16):26"/>
				</v:userDefs>
				<rect x="0" y="251.25" width="403.875" height="109.375" rx="4.5" ry="4.5" class="st4"/>
			</g>
			<g id="group5-13" transform="translate(104.459,-57.2672)" v:mID="5" v:groupContext="group">
				<v:userDefs>
					<v:ud v:nameU="msvThemeColors" v:val="VT0(36):26"/>
					<v:ud v:nameU="msvThemeEffects" v:val="VT0(16):26"/>
				</v:userDefs>
				<title>Sheet.5</title>
			</g>
			<g id="shape6-14" v:mID="6" v:groupContext="shape" transform="translate(396.25,-46.5) scale(-1,1)">
				<title>Sheet.6</title>
				<v:userDefs>
					<v:ud v:nameU="msvThemeColors" v:val="VT0(36):26"/>
					<v:ud v:nameU="msvThemeEffects" v:val="VT0(16):26"/>
				</v:userDefs>
				<rect x="0" y="289.034" width="387.736" height="71.5915" rx="4.5" ry="4.5" class="st5"/>
			</g>
			<g id="shape7-16" v:mID="7" v:groupContext="shape" transform="translate(405,-145.25) scale(-1,1)">
				<title>Sheet.7</title>
				<desc>Message Request Application Binary Interface (MRQ ABI)</desc>
				<v:userDefs>
					<v:ud v:nameU="msvThemeColors" v:val="VT0(36):26"/>
					<v:ud v:nameU="msvThemeEffects" v:val="VT0(16):26"/>
				</v:userDefs>
				<v:textBlock v:margins="rect(2,2,2,2)"/>
				<v:textRect cx="202.375" cy="351.625" width="404.75" height="18"/>
				<rect x="0" y="342.625" width="404.75" height="18" rx="4.5" ry="4.5" class="st5"/>
				<text x="-320.22" y="354.32" transform="scale(-1,1)" class="st6" v:langID="1033"><v:paragraph v:horizAlign="1"/><v:tabList/>Message Request Application Binary Interface (MRQ ABI)</text>			</g>
			<g id="shape8-19" v:mID="8" v:groupContext="shape" transform="translate(4.5,513.351) scale(1,-1)">
				<title>Sheet.8</title>
				<desc>Jetson BPMP Thermal</desc>
				<v:userDefs>
					<v:ud v:nameU="msvThemeColors" v:val="VT0(36):26"/>
					<v:ud v:nameU="msvThemeEffects" v:val="VT0(16):26"/>
				</v:userDefs>
				<v:textBlock v:margins="rect(2,2,2,2)"/>
				<v:textRect cx="196.438" cy="345.176" width="392.88" height="30.8987"/>
				<rect x="0" y="329.726" width="392.875" height="30.8987" rx="4.5" ry="4.5" class="st5"/>
				<text x="145.93" y="-342.18" transform="scale(1,-1)" class="st7" v:langID="1033"><v:paragraph v:horizAlign="1"/><v:tabList/>Jetson BPMP Thermal</text>			</g>
			<g id="shape9-22" v:mID="9" v:groupContext="shape" transform="translate(16.5625,-124.274)">
				<title>Sheet.9</title>
				<desc>BPMP Firmware</desc>
				<v:userDefs>
					<v:ud v:nameU="msvThemeColors" v:val="VT0(36):26"/>
				</v:userDefs>
				<v:textBlock v:margins="rect(0,0,0,0)"/>
				<v:textRect cx="186.469" cy="354.009" width="372.94" height="13.2327"/>
				<path d="M372.94 347.39 L0 347.39 L0 360.62 L372.94 360.62 L372.94 347.39" class="st8"/>
				<text x="149.96" y="357.01" class="st7" v:langID="1033"><v:paragraph v:horizAlign="1"/><v:tabList/>BPMP Firmware</text>			</g>
			<g id="shape10-26" v:mID="10" v:groupContext="shape" transform="translate(19.375,-99.6171)">
				<title>Sheet.10</title>
				<desc>BPMP Thermal Framework</desc>
				<v:userDefs>
					<v:ud v:nameU="msvThemeColors" v:val="VT0(36):26"/>
					<v:ud v:nameU="msvThemeEffects" v:val="VT0(16):26"/>
				</v:userDefs>
				<v:textBlock v:margins="rect(0,0,0,0)"/>
				<v:textRect cx="183.375" cy="353.434" width="366.75" height="14.3829"/>
				<g id="shadow10-27" v:groupContext="shadow" v:shadowOffsetX="1.44" v:shadowOffsetY="-1.44" v:shadowType="1"
						transform="matrix(1,0,0,1,1.44,1.44)" class="st9">
					<path d="M366.75 346.24 L0 346.24 L0 360.62 L366.75 360.62 L366.75 346.24" class="st10"/>
				</g>
				<path d="M366.75 346.24 L0 346.24 L0 360.62 L366.75 360.62 L366.75 346.24" class="st10"/>
				<text x="121.02" y="356.43" class="st11" v:langID="1033"><v:paragraph v:horizAlign="1"/><v:tabList/>BPMP Thermal Framework</text>			</g>
			<g id="shape11-35" v:mID="11" v:groupContext="shape" transform="translate(0,-286.559)">
				<title>Sheet.11</title>
				<desc>Linux Kernel</desc>
				<v:userDefs>
					<v:ud v:nameU="msvThemeColors" v:val="VT0(36):26"/>
				</v:userDefs>
				<v:textBlock v:margins="rect(0,0,0,0)"/>
				<v:textRect cx="202.5" cy="353.434" width="405" height="14.3829"/>
				<path d="M405 346.24 L0 346.24 L0 360.62 L405 360.62 L405 346.24" class="st8"/>
				<text x="172.68" y="356.43" class="st7" v:langID="1033"><v:paragraph v:horizAlign="1"/><v:tabList/>Linux Kernel</text>			</g>
			<g id="shape12-39" v:mID="12" v:groupContext="shape" transform="translate(311,-117.274)">
				<title>Sheet.12</title>
				<v:userDefs>
					<v:ud v:nameU="msvThemeColors" v:val="VT0(36):26"/>
					<v:ud v:nameU="msvThemeEffects" v:val="VT0(16):26"/>
				</v:userDefs>
				<rect x="0" y="348.625" width="100" height="12" class="st1"/>
			</g>
			<g id="group63-41" transform="translate(76.5,-211)" v:mID="63" v:groupContext="group">
				<v:userDefs>
					<v:ud v:nameU="msvThemeColors" v:val="VT0(36):26"/>
					<v:ud v:nameU="msvThemeEffects" v:val="VT0(16):26"/>
				</v:userDefs>
				<title>Sheet.63</title>
				<g id="shape64-42" v:mID="64" v:groupContext="shape">
					<title>Sheet.64</title>
					<v:userDefs>
						<v:ud v:nameU="msvThemeColors" v:val="VT0(36):26"/>
						<v:ud v:nameU="msvThemeEffects" v:val="VT0(16):26"/>
					</v:userDefs>
					<rect x="0" y="291.281" width="221.625" height="69.344" rx="4.5" ry="4.5" class="st12"/>
				</g>
				<g id="group65-46" transform="translate(3.78846,-3.76901)" v:mID="65" v:groupContext="group">
					<v:userDefs>
						<v:ud v:nameU="msvThemeColors" v:val="VT0(36):26"/>
						<v:ud v:nameU="msvThemeEffects" v:val="VT0(16):26"/>
					</v:userDefs>
					<title>Sheet.65</title>
					<g id="shape66-47" v:mID="66" v:groupContext="shape" transform="translate(0.84188,-3.76901)">
						<title>Sheet.66</title>
						<v:userDefs>
							<v:ud v:nameU="msvThemeColors" v:val="VT0(36):26"/>
							<v:ud v:nameU="msvThemeEffects" v:val="VT0(16):26"/>
						</v:userDefs>
						<rect x="0" y="321.05" width="83.7671" height="39.5746" rx="4.5" ry="4.5" class="st13"/>
					</g>
				</g>
				<g id="shape67-49" v:mID="67" v:groupContext="shape" transform="translate(5.05128,-17.4317)">
					<title>Sheet.67</title>
					<desc>Trip Points</desc>
					<v:userDefs>
						<v:ud v:nameU="msvThemeColors" v:val="VT0(36):26"/>
						<v:ud v:nameU="msvThemeEffects" v:val="VT0(16):26"/>
					</v:userDefs>
					<v:textBlock v:margins="rect(0,0,0,0)"/>
					<v:textRect cx="41.3574" cy="351.59" width="82.72" height="18.0698"/>
					<g id="shadow67-50" v:groupContext="shadow" v:shadowOffsetX="1.44" v:shadowOffsetY="-1.44" v:shadowType="1"
							transform="matrix(1,0,0,1,1.44,1.44)" class="st9">
						<path d="M82.71 342.56 L0 342.56 L0 360.62 L82.71 360.62 L82.71 342.56" class="st10"/>
					</g>
					<path d="M82.71 342.56 L0 342.56 L0 360.62 L82.71 360.62 L82.71 342.56" class="st10"/>
					<text x="18.45" y="354.29" class="st6" v:langID="1033"><v:paragraph v:horizAlign="1"/><v:tabList/>Trip Points</text>				</g>
				<g id="group68-57" transform="translate(134.28,-7.53803)" v:mID="68" v:groupContext="group">
					<v:userDefs>
						<v:ud v:nameU="msvThemeColors" v:val="VT0(36):26"/>
						<v:ud v:nameU="msvThemeEffects" v:val="VT0(16):26"/>
					</v:userDefs>
					<title>Sheet.68</title>
					<g id="shape69-58" v:mID="69" v:groupContext="shape">
						<title>Sheet.69</title>
						<v:userDefs>
							<v:ud v:nameU="msvThemeColors" v:val="VT0(36):26"/>
							<v:ud v:nameU="msvThemeEffects" v:val="VT0(16):26"/>
						</v:userDefs>
						<rect x="0" y="321.05" width="81.6624" height="39.5746" rx="4.5" ry="4.5" class="st13"/>
					</g>
				</g>
				<g id="shape70-60" v:mID="70" v:groupContext="shape" transform="translate(135.753,-18.3739)">
					<title>Sheet.70</title>
					<desc>Trip Points</desc>
					<v:userDefs>
						<v:ud v:nameU="msvThemeColors" v:val="VT0(36):26"/>
						<v:ud v:nameU="msvThemeEffects" v:val="VT0(16):26"/>
					</v:userDefs>
					<v:textBlock v:margins="rect(0,0,0,0)"/>
					<v:textRect cx="39.4631" cy="351.59" width="78.93" height="18.0698"/>
					<g id="shadow70-61" v:groupContext="shadow" v:shadowOffsetX="1.44" v:shadowOffsetY="-1.44" v:shadowType="1"
							transform="matrix(1,0,0,1,1.44,1.44)" class="st9">
						<path d="M78.93 342.56 L0 342.56 L0 360.62 L78.93 360.62 L78.93 342.56" class="st10"/>
					</g>
					<path d="M78.93 342.56 L0 342.56 L0 360.62 L78.93 360.62 L78.93 342.56" class="st10"/>
					<text x="16.56" y="354.29" class="st6" v:langID="1033"><v:paragraph v:horizAlign="1"/><v:tabList/>Trip Points</text>				</g>
				<g id="shape71-68" v:mID="71" v:groupContext="shape" transform="translate(2.52564,-48.9972)">
					<title>Sheet.71</title>
					<desc>Thermal Zones</desc>
					<v:userDefs>
						<v:ud v:nameU="msvThemeColors" v:val="VT0(36):26"/>
						<v:ud v:nameU="msvThemeEffects" v:val="VT0(16):26"/>
					</v:userDefs>
					<v:textBlock v:margins="rect(0,0,0,0)"/>
					<v:textRect cx="108.603" cy="351.59" width="217.21" height="18.0698"/>
					<g id="shadow71-69" v:groupContext="shadow" v:shadowOffsetX="1.44" v:shadowOffsetY="-1.44" v:shadowType="1"
							transform="matrix(1,0,0,1,1.44,1.44)" class="st9">
						<path d="M217.21 342.56 L0 342.56 L0 360.62 L217.21 360.62 L217.21 342.56" class="st10"/>
					</g>
					<path d="M217.21 342.56 L0 342.56 L0 360.62 L217.21 360.62 L217.21 342.56" class="st10"/>
					<text x="74.02" y="354.59" class="st14" v:langID="1033"><v:paragraph v:horizAlign="1"/><v:tabList/>Thermal Zones</text>				</g>
				<g id="shape72-76" v:mID="72" v:groupContext="shape" transform="translate(89.6603,-16.9606)">
					<title>Sheet.72</title>
					<desc>...</desc>
					<v:userDefs>
						<v:ud v:nameU="msvThemeColors" v:val="VT0(36):26"/>
						<v:ud v:nameU="msvThemeEffects" v:val="VT0(16):26"/>
					</v:userDefs>
					<v:textBlock v:margins="rect(0,0,0,0)"/>
					<v:textRect cx="20.8365" cy="352.313" width="41.68" height="16.6247"/>
					<g id="shadow72-77" v:groupContext="shadow" v:shadowOffsetX="1.44" v:shadowOffsetY="-1.44" v:shadowType="1"
							transform="matrix(1,0,0,1,1.44,1.44)" class="st9">
						<path d="M41.67 344 L0 344 L0 360.62 L41.67 360.62 L41.67 344" class="st10"/>
					</g>
					<path d="M41.67 344 L0 344 L0 360.62 L41.67 360.62 L41.67 344" class="st10"/>
					<text x="15.33" y="355.31" class="st14" v:langID="1033"><v:paragraph v:horizAlign="1"/><v:tabList/>...</text>				</g>
			</g>
			<g id="group13-84" transform="translate(14.125,-55.1919)" v:mID="13" v:groupContext="group">
				<v:userDefs>
					<v:ud v:nameU="msvThemeColors" v:val="VT0(36):26"/>
					<v:ud v:nameU="msvThemeEffects" v:val="VT0(16):26"/>
				</v:userDefs>
				<title>Sheet.13</title>
				<g id="shape14-85" v:mID="14" v:groupContext="shape">
					<title>Sheet.14</title>
					<v:userDefs>
						<v:ud v:nameU="msvThemeColors" v:val="VT0(36):26"/>
						<v:ud v:nameU="msvThemeEffects" v:val="VT0(16):26"/>
					</v:userDefs>
					<rect x="0" y="320.296" width="73.3125" height="40.3287" rx="4.5" ry="4.5" class="st15"/>
				</g>
				<g id="shape15-89" v:mID="15" v:groupContext="shape" transform="translate(13.125,-27.5625)">
					<title>Sheet.15</title>
					<desc>AOTAG</desc>
					<v:userDefs>
						<v:ud v:nameU="msvThemeColors" v:val="VT0(36):26"/>
						<v:ud v:nameU="msvThemeEffects" v:val="VT0(16):26"/>
					</v:userDefs>
					<v:textBlock v:margins="rect(0,0,0,0)"/>
					<v:textRect cx="21.75" cy="354.531" width="43.51" height="12.1875"/>
					<g id="shadow15-90" v:groupContext="shadow" v:shadowOffsetX="1.44" v:shadowOffsetY="-1.44" v:shadowType="1"
							transform="matrix(1,0,0,1,1.44,1.44)" class="st9">
						<path d="M43.5 348.44 L0 348.44 L0 360.62 L43.5 360.62 L43.5 348.44" class="st10"/>
					</g>
					<path d="M43.5 348.44 L0 348.44 L0 360.62 L43.5 360.62 L43.5 348.44" class="st10"/>
					<text x="5.49" y="357.53" class="st14" v:langID="1033"><v:paragraph v:horizAlign="1"/><v:tabList/>AOTAG</text>				</g>
				<g id="group16-97" transform="translate(1.125,-5.0625)" v:mID="16" v:groupContext="group">
					<v:userDefs>
						<v:ud v:nameU="msvThemeColors" v:val="VT0(36):26"/>
						<v:ud v:nameU="msvThemeEffects" v:val="VT0(16):26"/>
					</v:userDefs>
					<title>Sheet.16</title>
					<g id="shape17-98" v:mID="17" v:groupContext="shape" transform="translate(0.799342,-1.5)">
						<title>Sheet.17</title>
						<v:userDefs>
							<v:ud v:nameU="msvThemeColors" v:val="VT0(36):26"/>
							<v:ud v:nameU="msvThemeEffects" v:val="VT0(16):26"/>
						</v:userDefs>
						<rect x="0" y="339.345" width="26.865" height="21.28" rx="4.5" ry="4.5" class="st5"/>
					</g>
				</g>
				<g id="shape18-100" v:mID="18" v:groupContext="shape" transform="translate(1.875,-12.1875)">
					<title>Sheet.18</title>
					<desc>Trips</desc>
					<v:userDefs>
						<v:ud v:nameU="msvThemeColors" v:val="VT0(36):26"/>
						<v:ud v:nameU="msvThemeEffects" v:val="VT0(16):26"/>
					</v:userDefs>
					<v:textBlock v:margins="rect(0,0,0,0)"/>
					<v:textRect cx="12.9375" cy="355.767" width="25.88" height="9.71648"/>
					<g id="shadow18-101" v:groupContext="shadow" v:shadowOffsetX="1.44" v:shadowOffsetY="-1.44" v:shadowType="1"
							transform="matrix(1,0,0,1,1.44,1.44)" class="st9">
						<path d="M25.87 350.91 L0 350.91 L0 360.62 L25.87 360.62 L25.87 350.91" class="st10"/>
					</g>
					<path d="M25.87 350.91 L0 350.91 L0 360.62 L25.87 360.62 L25.87 350.91" class="st10"/>
					<text x="2.36" y="358.47" class="st6" v:langID="1033"><v:paragraph v:horizAlign="1"/><v:tabList/>Trips</text>				</g>
				<g id="shape19-108" v:mID="19" v:groupContext="shape" transform="translate(18.375,-9.9375)">
					<title>Sheet.19</title>
					<desc>...</desc>
					<v:userDefs>
						<v:ud v:nameU="msvThemeColors" v:val="VT0(36):26"/>
						<v:ud v:nameU="msvThemeEffects" v:val="VT0(16):26"/>
					</v:userDefs>
					<v:textBlock v:margins="rect(0,0,0,0)"/>
					<v:textRect cx="18.5625" cy="354.009" width="37.13" height="13.2327"/>
					<g id="shadow19-109" v:groupContext="shadow" v:shadowOffsetX="1.44" v:shadowOffsetY="-1.44" v:shadowType="1"
							transform="matrix(1,0,0,1,1.44,1.44)" class="st9">
						<path d="M37.12 347.39 L0 347.39 L0 360.62 L37.12 360.62 L37.12 347.39" class="st10"/>
					</g>
					<path d="M37.12 347.39 L0 347.39 L0 360.62 L37.12 360.62 L37.12 347.39" class="st10"/>
					<text x="13.05" y="357.01" class="st14" v:langID="1033"><v:paragraph v:horizAlign="1"/><v:tabList/>...</text>				</g>
			</g>
			<g id="shape24-116" v:mID="24" v:groupContext="shape" transform="translate(90.1473,-54.5446)">
				<title>Sheet.24</title>
				<v:userDefs>
					<v:ud v:nameU="msvThemeColors" v:val="VT0(36):26"/>
					<v:ud v:nameU="msvThemeEffects" v:val="VT0(16):26"/>
				</v:userDefs>
				<rect x="0" y="320.296" width="73.3125" height="40.3287" rx="4.5" ry="4.5" class="st15"/>
			</g>
			<g id="shape25-119" v:mID="25" v:groupContext="shape" transform="translate(103.272,-82.1071)">
				<title>Sheet.25</title>
				<desc>AUX</desc>
				<v:userDefs>
					<v:ud v:nameU="msvThemeColors" v:val="VT0(36):26"/>
					<v:ud v:nameU="msvThemeEffects" v:val="VT0(16):26"/>
				</v:userDefs>
				<v:textBlock v:margins="rect(0,0,0,0)"/>
				<v:textRect cx="21.75" cy="354.531" width="43.51" height="12.1875"/>
				<g id="shadow25-120" v:groupContext="shadow" v:shadowOffsetX="1.44" v:shadowOffsetY="-1.44" v:shadowType="1"
						transform="matrix(1,0,0,1,1.44,1.44)" class="st9">
					<path d="M43.5 348.44 L0 348.44 L0 360.62 L43.5 360.62 L43.5 348.44" class="st10"/>
				</g>
				<path d="M43.5 348.44 L0 348.44 L0 360.62 L43.5 360.62 L43.5 348.44" class="st10"/>
				<text x="12.19" y="357.53" class="st14" v:langID="1033"><v:paragraph v:horizAlign="1"/><v:tabList/>AUX</text>			</g>
			<g id="group26-127" transform="translate(91.2723,-59.6071)" v:mID="26" v:groupContext="group">
				<v:userDefs>
					<v:ud v:nameU="msvThemeColors" v:val="VT0(36):26"/>
					<v:ud v:nameU="msvThemeEffects" v:val="VT0(16):26"/>
				</v:userDefs>
				<title>Sheet.26</title>
				<g id="shape27-128" v:mID="27" v:groupContext="shape" transform="translate(0.799342,-1.5)">
					<title>Sheet.27</title>
					<v:userDefs>
						<v:ud v:nameU="msvThemeColors" v:val="VT0(36):26"/>
						<v:ud v:nameU="msvThemeEffects" v:val="VT0(16):26"/>
					</v:userDefs>
					<rect x="0" y="339.345" width="26.865" height="21.28" rx="4.5" ry="4.5" class="st5"/>
				</g>
			</g>
			<g id="shape28-130" v:mID="28" v:groupContext="shape" transform="translate(92.0223,-66.7321)">
				<title>Sheet.28</title>
				<desc>Trips</desc>
				<v:userDefs>
					<v:ud v:nameU="msvThemeColors" v:val="VT0(36):26"/>
					<v:ud v:nameU="msvThemeEffects" v:val="VT0(16):26"/>
				</v:userDefs>
				<v:textBlock v:margins="rect(0,0,0,0)"/>
				<v:textRect cx="12.9375" cy="355.767" width="25.88" height="9.71648"/>
				<g id="shadow28-131" v:groupContext="shadow" v:shadowOffsetX="1.44" v:shadowOffsetY="-1.44" v:shadowType="1"
						transform="matrix(1,0,0,1,1.44,1.44)" class="st9">
					<path d="M25.87 350.91 L0 350.91 L0 360.62 L25.87 360.62 L25.87 350.91" class="st10"/>
				</g>
				<path d="M25.87 350.91 L0 350.91 L0 360.62 L25.87 360.62 L25.87 350.91" class="st10"/>
				<text x="2.36" y="358.47" class="st6" v:langID="1033"><v:paragraph v:horizAlign="1"/><v:tabList/>Trips</text>			</g>
			<g id="shape29-138" v:mID="29" v:groupContext="shape" transform="translate(108.522,-64.4821)">
				<title>Sheet.29</title>
				<desc>...</desc>
				<v:userDefs>
					<v:ud v:nameU="msvThemeColors" v:val="VT0(36):26"/>
					<v:ud v:nameU="msvThemeEffects" v:val="VT0(16):26"/>
				</v:userDefs>
				<v:textBlock v:margins="rect(0,0,0,0)"/>
				<v:textRect cx="18.5625" cy="354.009" width="37.13" height="13.2327"/>
				<g id="shadow29-139" v:groupContext="shadow" v:shadowOffsetX="1.44" v:shadowOffsetY="-1.44" v:shadowType="1"
						transform="matrix(1,0,0,1,1.44,1.44)" class="st9">
					<path d="M37.12 347.39 L0 347.39 L0 360.62 L37.12 360.62 L37.12 347.39" class="st10"/>
				</g>
				<path d="M37.12 347.39 L0 347.39 L0 360.62 L37.12 360.62 L37.12 347.39" class="st10"/>
				<text x="13.05" y="357.01" class="st14" v:langID="1033"><v:paragraph v:horizAlign="1"/><v:tabList/>...</text>			</g>
			<g id="shape34-146" v:mID="34" v:groupContext="shape" transform="translate(166.17,-53.8973)">
				<title>Sheet.34</title>
				<v:userDefs>
					<v:ud v:nameU="msvThemeColors" v:val="VT0(36):26"/>
					<v:ud v:nameU="msvThemeEffects" v:val="VT0(16):26"/>
				</v:userDefs>
				<rect x="0" y="320.296" width="73.3125" height="40.3287" rx="4.5" ry="4.5" class="st15"/>
			</g>
			<g id="shape35-149" v:mID="35" v:groupContext="shape" transform="translate(179.295,-81.4598)">
				<title>Sheet.35</title>
				<desc>CPU</desc>
				<v:userDefs>
					<v:ud v:nameU="msvThemeColors" v:val="VT0(36):26"/>
					<v:ud v:nameU="msvThemeEffects" v:val="VT0(16):26"/>
				</v:userDefs>
				<v:textBlock v:margins="rect(0,0,0,0)"/>
				<v:textRect cx="21.75" cy="354.531" width="43.51" height="12.1875"/>
				<g id="shadow35-150" v:groupContext="shadow" v:shadowOffsetX="1.44" v:shadowOffsetY="-1.44" v:shadowType="1"
						transform="matrix(1,0,0,1,1.44,1.44)" class="st9">
					<path d="M43.5 348.44 L0 348.44 L0 360.62 L43.5 360.62 L43.5 348.44" class="st10"/>
				</g>
				<path d="M43.5 348.44 L0 348.44 L0 360.62 L43.5 360.62 L43.5 348.44" class="st10"/>
				<text x="12.37" y="357.53" class="st14" v:langID="1033"><v:paragraph v:horizAlign="1"/><v:tabList/>CPU</text>			</g>
			<g id="group36-157" transform="translate(167.295,-58.9598)" v:mID="36" v:groupContext="group">
				<v:userDefs>
					<v:ud v:nameU="msvThemeColors" v:val="VT0(36):26"/>
					<v:ud v:nameU="msvThemeEffects" v:val="VT0(16):26"/>
				</v:userDefs>
				<title>Sheet.36</title>
				<g id="shape37-158" v:mID="37" v:groupContext="shape" transform="translate(0.799342,-1.5)">
					<title>Sheet.37</title>
					<v:userDefs>
						<v:ud v:nameU="msvThemeColors" v:val="VT0(36):26"/>
						<v:ud v:nameU="msvThemeEffects" v:val="VT0(16):26"/>
					</v:userDefs>
					<rect x="0" y="339.345" width="26.865" height="21.28" rx="4.5" ry="4.5" class="st5"/>
				</g>
			</g>
			<g id="shape38-160" v:mID="38" v:groupContext="shape" transform="translate(168.045,-66.0848)">
				<title>Sheet.38</title>
				<desc>Trips</desc>
				<v:userDefs>
					<v:ud v:nameU="msvThemeColors" v:val="VT0(36):26"/>
					<v:ud v:nameU="msvThemeEffects" v:val="VT0(16):26"/>
				</v:userDefs>
				<v:textBlock v:margins="rect(0,0,0,0)"/>
				<v:textRect cx="12.9375" cy="355.767" width="25.88" height="9.71648"/>
				<g id="shadow38-161" v:groupContext="shadow" v:shadowOffsetX="1.44" v:shadowOffsetY="-1.44" v:shadowType="1"
						transform="matrix(1,0,0,1,1.44,1.44)" class="st9">
					<path d="M25.87 350.91 L0 350.91 L0 360.62 L25.87 360.62 L25.87 350.91" class="st10"/>
				</g>
				<path d="M25.87 350.91 L0 350.91 L0 360.62 L25.87 360.62 L25.87 350.91" class="st10"/>
				<text x="2.36" y="358.47" class="st6" v:langID="1033"><v:paragraph v:horizAlign="1"/><v:tabList/>Trips</text>			</g>
			<g id="shape39-168" v:mID="39" v:groupContext="shape" transform="translate(184.545,-63.8348)">
				<title>Sheet.39</title>
				<desc>...</desc>
				<v:userDefs>
					<v:ud v:nameU="msvThemeColors" v:val="VT0(36):26"/>
					<v:ud v:nameU="msvThemeEffects" v:val="VT0(16):26"/>
				</v:userDefs>
				<v:textBlock v:margins="rect(0,0,0,0)"/>
				<v:textRect cx="18.5625" cy="354.009" width="37.13" height="13.2327"/>
				<g id="shadow39-169" v:groupContext="shadow" v:shadowOffsetX="1.44" v:shadowOffsetY="-1.44" v:shadowType="1"
						transform="matrix(1,0,0,1,1.44,1.44)" class="st9">
					<path d="M37.12 347.39 L0 347.39 L0 360.62 L37.12 360.62 L37.12 347.39" class="st10"/>
				</g>
				<path d="M37.12 347.39 L0 347.39 L0 360.62 L37.12 360.62 L37.12 347.39" class="st10"/>
				<text x="13.05" y="357.01" class="st14" v:langID="1033"><v:paragraph v:horizAlign="1"/><v:tabList/>...</text>			</g>
			<g id="shape44-176" v:mID="44" v:groupContext="shape" transform="translate(242.192,-53.25)">
				<title>Sheet.44</title>
				<v:userDefs>
					<v:ud v:nameU="msvThemeColors" v:val="VT0(36):26"/>
					<v:ud v:nameU="msvThemeEffects" v:val="VT0(16):26"/>
				</v:userDefs>
				<rect x="0" y="320.296" width="73.3125" height="40.3287" rx="4.5" ry="4.5" class="st15"/>
			</g>
			<g id="shape45-179" v:mID="45" v:groupContext="shape" transform="translate(255.317,-80.8125)">
				<title>Sheet.45</title>
				<desc>GPU</desc>
				<v:userDefs>
					<v:ud v:nameU="msvThemeColors" v:val="VT0(36):26"/>
					<v:ud v:nameU="msvThemeEffects" v:val="VT0(16):26"/>
				</v:userDefs>
				<v:textBlock v:margins="rect(0,0,0,0)"/>
				<v:textRect cx="21.75" cy="354.531" width="43.51" height="12.1875"/>
				<g id="shadow45-180" v:groupContext="shadow" v:shadowOffsetX="1.44" v:shadowOffsetY="-1.44" v:shadowType="1"
						transform="matrix(1,0,0,1,1.44,1.44)" class="st9">
					<path d="M43.5 348.44 L0 348.44 L0 360.62 L43.5 360.62 L43.5 348.44" class="st10"/>
				</g>
				<path d="M43.5 348.44 L0 348.44 L0 360.62 L43.5 360.62 L43.5 348.44" class="st10"/>
				<text x="12.07" y="357.53" class="st14" v:langID="1033"><v:paragraph v:horizAlign="1"/><v:tabList/>GPU</text>			</g>
			<g id="group46-187" transform="translate(243.317,-58.3125)" v:mID="46" v:groupContext="group">
				<v:userDefs>
					<v:ud v:nameU="msvThemeColors" v:val="VT0(36):26"/>
					<v:ud v:nameU="msvThemeEffects" v:val="VT0(16):26"/>
				</v:userDefs>
				<title>Sheet.46</title>
				<g id="shape47-188" v:mID="47" v:groupContext="shape" transform="translate(0.799342,-1.5)">
					<title>Sheet.47</title>
					<v:userDefs>
						<v:ud v:nameU="msvThemeColors" v:val="VT0(36):26"/>
						<v:ud v:nameU="msvThemeEffects" v:val="VT0(16):26"/>
					</v:userDefs>
					<rect x="0" y="339.345" width="26.865" height="21.28" rx="4.5" ry="4.5" class="st5"/>
				</g>
			</g>
			<g id="shape48-190" v:mID="48" v:groupContext="shape" transform="translate(244.067,-65.4375)">
				<title>Sheet.48</title>
				<desc>Trips</desc>
				<v:userDefs>
					<v:ud v:nameU="msvThemeColors" v:val="VT0(36):26"/>
					<v:ud v:nameU="msvThemeEffects" v:val="VT0(16):26"/>
				</v:userDefs>
				<v:textBlock v:margins="rect(0,0,0,0)"/>
				<v:textRect cx="12.9375" cy="355.767" width="25.88" height="9.71648"/>
				<g id="shadow48-191" v:groupContext="shadow" v:shadowOffsetX="1.44" v:shadowOffsetY="-1.44" v:shadowType="1"
						transform="matrix(1,0,0,1,1.44,1.44)" class="st9">
					<path d="M25.87 350.91 L0 350.91 L0 360.62 L25.87 360.62 L25.87 350.91" class="st10"/>
				</g>
				<path d="M25.87 350.91 L0 350.91 L0 360.62 L25.87 360.62 L25.87 350.91" class="st10"/>
				<text x="2.36" y="358.47" class="st6" v:langID="1033"><v:paragraph v:horizAlign="1"/><v:tabList/>Trips</text>			</g>
			<g id="shape49-198" v:mID="49" v:groupContext="shape" transform="translate(260.567,-63.1875)">
				<title>Sheet.49</title>
				<desc>...</desc>
				<v:userDefs>
					<v:ud v:nameU="msvThemeColors" v:val="VT0(36):26"/>
					<v:ud v:nameU="msvThemeEffects" v:val="VT0(16):26"/>
				</v:userDefs>
				<v:textBlock v:margins="rect(0,0,0,0)"/>
				<v:textRect cx="18.5625" cy="354.009" width="37.13" height="13.2327"/>
				<g id="shadow49-199" v:groupContext="shadow" v:shadowOffsetX="1.44" v:shadowOffsetY="-1.44" v:shadowType="1"
						transform="matrix(1,0,0,1,1.44,1.44)" class="st9">
					<path d="M37.12 347.39 L0 347.39 L0 360.62 L37.12 360.62 L37.12 347.39" class="st10"/>
				</g>
				<path d="M37.12 347.39 L0 347.39 L0 360.62 L37.12 360.62 L37.12 347.39" class="st10"/>
				<text x="13.05" y="357.01" class="st14" v:langID="1033"><v:paragraph v:horizAlign="1"/><v:tabList/>...</text>			</g>
			<g id="shape54-206" v:mID="54" v:groupContext="shape" transform="translate(318.214,-53.7277)">
				<title>Sheet.54</title>
				<v:userDefs>
					<v:ud v:nameU="msvThemeColors" v:val="VT0(36):26"/>
					<v:ud v:nameU="msvThemeEffects" v:val="VT0(16):26"/>
				</v:userDefs>
				<rect x="0" y="320.296" width="73.3125" height="40.3287" rx="4.5" ry="4.5" class="st15"/>
			</g>
			<g id="shape55-209" v:mID="55" v:groupContext="shape" transform="translate(331.339,-81.2902)">
				<title>Sheet.55</title>
				<desc>PLLX</desc>
				<v:userDefs>
					<v:ud v:nameU="msvThemeColors" v:val="VT0(36):26"/>
					<v:ud v:nameU="msvThemeEffects" v:val="VT0(16):26"/>
				</v:userDefs>
				<v:textBlock v:margins="rect(0,0,0,0)"/>
				<v:textRect cx="21.75" cy="354.531" width="43.51" height="12.1875"/>
				<g id="shadow55-210" v:groupContext="shadow" v:shadowOffsetX="1.44" v:shadowOffsetY="-1.44" v:shadowType="1"
						transform="matrix(1,0,0,1,1.44,1.44)" class="st9">
					<path d="M43.5 348.44 L0 348.44 L0 360.62 L43.5 360.62 L43.5 348.44" class="st10"/>
				</g>
				<path d="M43.5 348.44 L0 348.44 L0 360.62 L43.5 360.62 L43.5 348.44" class="st10"/>
				<text x="10.28" y="357.53" class="st14" v:langID="1033"><v:paragraph v:horizAlign="1"/><v:tabList/>PLLX</text>			</g>
			<g id="group56-217" transform="translate(319.339,-58.7902)" v:mID="56" v:groupContext="group">
				<v:userDefs>
					<v:ud v:nameU="msvThemeColors" v:val="VT0(36):26"/>
					<v:ud v:nameU="msvThemeEffects" v:val="VT0(16):26"/>
				</v:userDefs>
				<title>Sheet.56</title>
				<g id="shape57-218" v:mID="57" v:groupContext="shape" transform="translate(0.799342,-1.5)">
					<title>Sheet.57</title>
					<v:userDefs>
						<v:ud v:nameU="msvThemeColors" v:val="VT0(36):26"/>
						<v:ud v:nameU="msvThemeEffects" v:val="VT0(16):26"/>
					</v:userDefs>
					<rect x="0" y="339.345" width="26.865" height="21.28" rx="4.5" ry="4.5" class="st5"/>
				</g>
			</g>
			<g id="shape58-220" v:mID="58" v:groupContext="shape" transform="translate(320.089,-65.9152)">
				<title>Sheet.58</title>
				<desc>Trips</desc>
				<v:userDefs>
					<v:ud v:nameU="msvThemeColors" v:val="VT0(36):26"/>
					<v:ud v:nameU="msvThemeEffects" v:val="VT0(16):26"/>
				</v:userDefs>
				<v:textBlock v:margins="rect(0,0,0,0)"/>
				<v:textRect cx="12.9375" cy="355.767" width="25.88" height="9.71648"/>
				<g id="shadow58-221" v:groupContext="shadow" v:shadowOffsetX="1.44" v:shadowOffsetY="-1.44" v:shadowType="1"
						transform="matrix(1,0,0,1,1.44,1.44)" class="st9">
					<path d="M25.87 350.91 L0 350.91 L0 360.62 L25.87 360.62 L25.87 350.91" class="st10"/>
				</g>
				<path d="M25.87 350.91 L0 350.91 L0 360.62 L25.87 360.62 L25.87 350.91" class="st10"/>
				<text x="2.36" y="358.47" class="st6" v:langID="1033"><v:paragraph v:horizAlign="1"/><v:tabList/>Trips</text>			</g>
			<g id="shape59-228" v:mID="59" v:groupContext="shape" transform="translate(336.589,-63.6652)">
				<title>Sheet.59</title>
				<desc>...</desc>
				<v:userDefs>
					<v:ud v:nameU="msvThemeColors" v:val="VT0(36):26"/>
					<v:ud v:nameU="msvThemeEffects" v:val="VT0(16):26"/>
				</v:userDefs>
				<v:textBlock v:margins="rect(0,0,0,0)"/>
				<v:textRect cx="18.5625" cy="354.009" width="37.13" height="13.2327"/>
				<g id="shadow59-229" v:groupContext="shadow" v:shadowOffsetX="1.44" v:shadowOffsetY="-1.44" v:shadowType="1"
						transform="matrix(1,0,0,1,1.44,1.44)" class="st9">
					<path d="M37.12 347.39 L0 347.39 L0 360.62 L37.12 360.62 L37.12 347.39" class="st10"/>
				</g>
				<path d="M37.12 347.39 L0 347.39 L0 360.62 L37.12 360.62 L37.12 347.39" class="st10"/>
				<text x="13.05" y="357.01" class="st14" v:langID="1033"><v:paragraph v:horizAlign="1"/><v:tabList/>...</text>			</g>
			<g id="shape20-236" v:mID="20" v:groupContext="shape" transform="translate(133.875,-61.125)">
				<title>Sheet.20</title>
				<desc>Trips</desc>
				<v:userDefs>
					<v:ud v:nameU="msvThemeColors" v:val="VT0(36):26"/>
					<v:ud v:nameU="msvThemeEffects" v:val="VT0(16):26"/>
				</v:userDefs>
				<v:textBlock v:margins="rect(2,2,2,2)"/>
				<v:textRect cx="13.5" cy="349.937" width="27" height="21.375"/>
				<rect x="0" y="339.25" width="27" height="21.375" rx="4.5" ry="4.5" class="st4"/>
				<text x="2.92" y="352.64" class="st6" v:langID="1033"><v:paragraph v:horizAlign="1"/><v:tabList/>Trips</text>			</g>
			<g id="shape2-240" v:mID="2" v:groupContext="shape" transform="translate(57.375,-61.125)">
				<title>Sheet.2</title>
				<desc>Trips</desc>
				<v:userDefs>
					<v:ud v:nameU="msvThemeColors" v:val="VT0(36):26"/>
					<v:ud v:nameU="msvThemeEffects" v:val="VT0(16):26"/>
				</v:userDefs>
				<v:textBlock v:margins="rect(2,2,2,2)"/>
				<v:textRect cx="13.5" cy="349.937" width="27" height="21.375"/>
				<rect x="0" y="339.25" width="27" height="21.375" rx="4.5" ry="4.5" class="st4"/>
				<text x="2.92" y="352.64" class="st6" v:langID="1033"><v:paragraph v:horizAlign="1"/><v:tabList/>Trips</text>			</g>
			<g id="shape21-244" v:mID="21" v:groupContext="shape" transform="translate(209.25,-60.5625)">
				<title>Sheet.21</title>
				<desc>Trips</desc>
				<v:userDefs>
					<v:ud v:nameU="msvThemeColors" v:val="VT0(36):26"/>
					<v:ud v:nameU="msvThemeEffects" v:val="VT0(16):26"/>
				</v:userDefs>
				<v:textBlock v:margins="rect(2,2,2,2)"/>
				<v:textRect cx="13.5" cy="349.937" width="27" height="21.375"/>
				<rect x="0" y="339.25" width="27" height="21.375" rx="4.5" ry="4.5" class="st4"/>
				<text x="2.92" y="352.64" class="st6" v:langID="1033"><v:paragraph v:horizAlign="1"/><v:tabList/>Trips</text>			</g>
			<g id="shape22-248" v:mID="22" v:groupContext="shape" transform="translate(285.75,-60)">
				<title>Sheet.22</title>
				<desc>Trips</desc>
				<v:userDefs>
					<v:ud v:nameU="msvThemeColors" v:val="VT0(36):26"/>
					<v:ud v:nameU="msvThemeEffects" v:val="VT0(16):26"/>
				</v:userDefs>
				<v:textBlock v:margins="rect(2,2,2,2)"/>
				<v:textRect cx="13.5" cy="349.937" width="27" height="21.375"/>
				<rect x="0" y="339.25" width="27" height="21.375" rx="4.5" ry="4.5" class="st4"/>
				<text x="2.92" y="352.64" class="st6" v:langID="1033"><v:paragraph v:horizAlign="1"/><v:tabList/>Trips</text>			</g>
			<g id="shape23-252" v:mID="23" v:groupContext="shape" transform="translate(361.125,-60.5625)">
				<title>Sheet.23</title>
				<desc>Trips</desc>
				<v:userDefs>
					<v:ud v:nameU="msvThemeColors" v:val="VT0(36):26"/>
					<v:ud v:nameU="msvThemeEffects" v:val="VT0(16):26"/>
				</v:userDefs>
				<v:textBlock v:margins="rect(2,2,2,2)"/>
				<v:textRect cx="13.5" cy="349.937" width="27" height="21.375"/>
				<rect x="0" y="339.25" width="27" height="21.375" rx="4.5" ry="4.5" class="st4"/>
				<text x="2.92" y="352.64" class="st6" v:langID="1033"><v:paragraph v:horizAlign="1"/><v:tabList/>Trips</text>			</g>
			<g id="shape31-256" v:mID="31" v:groupContext="shape" transform="translate(24.5,0)">
				<title>Sheet.31</title>
				<desc>Trips allocated for host OS</desc>
				<v:userDefs>
					<v:ud v:nameU="msvThemeColors" v:val="VT0(36):26"/>
					<v:ud v:nameU="msvThemeEffects" v:val="VT0(16):26"/>
				</v:userDefs>
				<v:textBlock v:margins="rect(4,4,4,4)"/>
				<v:textRect cx="55.25" cy="352.625" width="110.5" height="16"/>
				<rect x="0" y="344.625" width="110.5" height="16" class="st1"/>
				<text x="7.54" y="355.02" class="st16" v:langID="1033"><v:paragraph v:horizAlign="1"/><v:tabList/>Trips allocated for host OS</text>			</g>
			<g id="shape33-259" v:mID="33" v:groupContext="shape" transform="translate(8.59821,-3.875)">
				<title>Sheet.33</title>
				<v:userDefs>
					<v:ud v:nameU="msvThemeColors" v:val="VT0(36):26"/>
					<v:ud v:nameU="msvThemeEffects" v:val="VT0(16):26"/>
				</v:userDefs>
				<rect x="0" y="351.625" width="23.4" height="9" class="st4"/>
			</g>
			<g id="shape42-262" v:mID="42" v:groupContext="shape" transform="translate(8.59821,-16.625)">
				<title>Sheet.42</title>
				<v:userDefs>
					<v:ud v:nameU="msvThemeColors" v:val="VT0(36):26"/>
					<v:ud v:nameU="msvThemeEffects" v:val="VT0(16):26"/>
				</v:userDefs>
				<rect x="0" y="351.625" width="23.4" height="9" class="st17"/>
			</g>
			<g id="shape30-266" v:mID="30" v:groupContext="shape" transform="translate(22.5,-12.5)">
				<title>Sheet.30</title>
				<desc>Trips for use in BPMP firmware</desc>
				<v:userDefs>
					<v:ud v:nameU="msvThemeColors" v:val="VT0(36):26"/>
					<v:ud v:nameU="msvThemeEffects" v:val="VT0(16):26"/>
				</v:userDefs>
				<v:textBlock v:margins="rect(4,4,4,4)"/>
				<v:textRect cx="65.25" cy="352.625" width="130.5" height="16"/>
				<rect x="0" y="344.625" width="130.5" height="16" class="st1"/>
				<text x="10" y="355.02" class="st16" v:langID="1033"><v:paragraph v:horizAlign="1"/><v:tabList/>Trips for use in BPMP firmware</text>			</g>
		</g>
	</g>
</svg>
